<?xml version="1.0" encoding="utf-8"?>
<!-- Generator: Adobe Illustrator 27.9.0, SVG Export Plug-In . SVG Version: 6.00 Build 0)  -->
<svg version="1.1" id="Layer_2_00000176014759464633046900000000418086197475753353_"
	 xmlns="http://www.w3.org/2000/svg" xmlns:xlink="http://www.w3.org/1999/xlink" x="0px" y="0px" viewBox="0 0 496 251.4"
	 style="enable-background:new 0 0 496 251.4;" xml:space="preserve">
<style type="text/css">
	.st0{fill-rule:evenodd;clip-rule:evenodd;fill:#FFFFFF;}
	.st1{fill-rule:evenodd;clip-rule:evenodd;fill:url(#SVGID_1_);}
</style>
<g id="Layer_1-2">
	<path class="st0" d="M0.2,41.4L0.2,41.4c0.1-23.2,18.9-41.9,42-41.9h411.9c23.2,0,41.9,18.7,41.9,41.9l0,0v167.7
		c0,23.1-18.7,41.9-41.9,41.9h-412C19,251.1,0.1,232.5,0,209.3v-0.2L0.2,41.4z"/>
	<g id="Symbols">
		<g id="astronomer-logo">
			
				<linearGradient id="SVGID_1_" gradientUnits="userSpaceOnUse" x1="-48.3975" y1="310.1362" x2="-47.3875" y2="310.1462" gradientTransform="matrix(400 0 0 41 19403 -12590.3838)">
				<stop  offset="0" style="stop-color:#3F2870"/>
				<stop  offset="1" style="stop-color:#9377D1"/>
			</linearGradient>
			<path class="st1" d="M99.6,106.3c-2.1,1-3.7,2.3-4.8,4c-1.1,1.7-1.7,3.5-1.7,5.6c0,2.6,0.6,4.7,1.8,6.2s2.6,2.7,4.3,3.4
				c1.7,0.7,3.8,1.5,6.6,2.3c2,0.5,3.6,1,4.7,1.5c1.1,0.5,2.1,1.1,2.8,1.8c0.8,0.8,1.1,1.8,1.1,3c0,1.7-0.7,3.1-2.2,4.2
				c-1.4,1.2-3.4,1.7-5.9,1.7c-3.9,0-7.3-1.5-10.1-4.4l-4.3,4.1c1.4,1.6,3.3,3,5.8,4.2c2.5,1.2,5.3,1.8,8.6,1.8
				c2.9,0,5.4-0.5,7.6-1.6s3.9-2.5,5-4.3c1.2-1.8,1.8-3.7,1.8-5.8c0-2.6-0.6-4.6-1.8-6.2c-1.2-1.6-2.6-2.7-4.3-3.4
				c-1.7-0.7-3.8-1.5-6.6-2.3c-2-0.5-3.6-1-4.7-1.5c-1.1-0.5-2.1-1.1-2.8-1.8s-1.1-1.8-1.1-3c0-1.5,0.7-2.8,2-3.8s3.2-1.6,5.5-1.6
				c1.7,0,3.3,0.3,4.8,1.1c1.4,0.7,2.7,1.5,3.7,2.5l4.3-4.1c-1.3-1.4-3.1-2.6-5.3-3.6c-2.2-1-4.7-1.5-7.4-1.5
				S101.7,105.3,99.6,106.3L99.6,106.3L99.6,106.3z M299.9,110.7c1.8,0.3,3.4,0.9,5,1.8c2.3,1.3,4.1,3.1,5.4,5.4
				c1.3,2.3,2,4.8,2,7.5s-0.7,5.2-2,7.5c-1.3,2.3-3.1,4.1-5.4,5.4s-4.8,2-7.5,2s-5.2-0.6-7.5-2c-0.3-0.2-0.6-0.3-0.8-0.5l-2.2,5.5
				c3.2,1.7,6.7,2.6,10.6,2.6s7.6-0.9,10.8-2.7c3.3-1.8,5.8-4.3,7.7-7.4c1.9-3.1,2.8-6.6,2.8-10.3s-0.9-7.2-2.8-10.3
				c-1.9-3.1-4.4-5.6-7.7-7.4c-1.9-1.1-4-1.8-6.1-2.3C302.1,105.3,299.9,110.7,299.9,110.7z M216.9,110.7c1.8,0.3,3.4,0.9,5,1.8
				c2.3,1.3,4.1,3.1,5.4,5.4s2,4.8,2,7.5s-0.7,5.2-2,7.5c-1.3,2.3-3.1,4.1-5.4,5.4s-4.8,2-7.5,2s-5.2-0.6-7.5-2
				c-0.3-0.2-0.6-0.3-0.8-0.5l-2.2,5.5c3.2,1.7,6.7,2.6,10.6,2.6s7.6-0.9,10.8-2.7c3.3-1.8,5.8-4.3,7.7-7.4
				c1.9-3.1,2.8-6.6,2.8-10.3s-0.9-7.2-2.8-10.3c-1.9-3.1-4.4-5.6-7.7-7.4c-1.9-1.1-3.9-1.8-6.1-2.3
				C219.1,105.3,216.9,110.7,216.9,110.7z M416.6,105.3v39.9h6.3v-14.8h9.5l8.3,14.8h7.2l-9.1-15.8c2.3-1,4.2-2.5,5.6-4.6
				c1.4-2.1,2.1-4.4,2.1-6.9c0-2.3-0.6-4.5-1.7-6.4c-1.1-1.9-2.7-3.4-4.7-4.5c-2-1.1-4.3-1.7-6.8-1.7L416.6,105.3L416.6,105.3z
				 M423,111h10.4c2,0,3.7,0.6,5,1.9c1.3,1.3,1.9,2.9,1.9,4.9s-0.6,3.6-1.9,4.9c-1.3,1.3-2.9,1.9-5,1.9H423
				C423,124.7,423,111,423,111z M378.2,105.3v39.9h29.1v-5.7h-22.7v-12.1h17.5v-5.7h-17.5V111h22.2v-5.7L378.2,105.3L378.2,105.3z
				 M362.6,105.3l-15.2,19.3h-0.1l-15.2-19.3h-5.8v39.9h6.3V116h0.2l14.4,18.3l14.5-18.3h0.2v29.2h6.3v-39.9
				C368.4,105.3,362.6,105.3,362.6,105.3z M271.9,105.3v29.1h-0.2l-22-29.1H244v39.9h6.3v-29.1h0.2l22,29.1h5.8v-39.9
				C278.2,105.3,271.9,105.3,271.9,105.3z M166.3,105.3v39.9h6.3v-14.8h9.5l8.4,14.8h7.2l-9.1-15.8c2.3-1,4.2-2.5,5.6-4.6
				c1.4-2.1,2.1-4.4,2.1-6.9c0-2.3-0.6-4.5-1.7-6.4c-1.1-1.9-2.7-3.4-4.7-4.5c-2-1.1-4.3-1.7-6.8-1.7L166.3,105.3L166.3,105.3z
				 M172.6,111h10.4c2,0,3.7,0.6,5,1.9c1.3,1.3,1.9,2.9,1.9,4.9s-0.6,3.6-1.9,4.9s-2.9,1.9-5,1.9h-10.4
				C172.6,124.7,172.6,111,172.6,111z M126.8,105.3v5.7h12.1v34.2h6.3V111h12.1v-5.7C157.3,105.3,126.8,105.3,126.8,105.3z
				 M64.1,105.4L48,145.2h6.5l4-10.2h17.8l4.1,10.2h6.7l-10.4-25.7h-6.5l3.8,9.8H60.8l9.4-23.9L64.1,105.4L64.1,105.4z"/>
		</g>
	</g>
</g>
</svg>
