<?xml version="1.0" encoding="UTF-8"?>
<svg id="Layer" xmlns="http://www.w3.org/2000/svg" viewBox="0 0 703.32 99.95">
  <defs>
    <style>
      .cls-1 {
        fill-rule: evenodd;
        stroke-width: 0px;
      }
    </style>
  </defs>
  <path class="cls-1" d="M64.72,18.01v9.41c-6.16-7.76-14.83-11.64-25.99-11.64s-19.74,4.07-27.34,12.2C3.8,36.1,0,46.06,0,57.86s3.8,21.76,11.4,29.89c7.6,8.13,16.71,12.2,27.34,12.2,11.16,0,19.82-3.88,25.99-11.64v9.41h20.57V18.01h-20.57ZM58.43,74.05c-4.2,4.2-9.48,6.3-15.86,6.3s-11.64-2.09-15.78-6.3c-4.14-4.2-6.21-9.59-6.21-16.18s2.07-11.98,6.21-16.18c4.14-4.2,9.41-6.3,15.78-6.3s11.67,2.1,15.86,6.3c4.2,4.2,6.3,9.59,6.3,16.18s-2.1,11.99-6.3,16.18Z"/>
  <path class="cls-1" d="M98.01,0h20.57v18.01h18.01v19.77h-18.01v33.16c0,2.77.69,4.78,2.07,6.06,1.38,1.28,3.4,2,6.06,2.15,2.65.16,5.95.13,9.89-.08v18.65c-14.13,1.59-24.1.26-29.89-3.99-5.8-4.25-8.69-11.85-8.69-22.79V0Z"/>
  <path class="cls-1" d="M205.18,18.01v9.41c-6.16-7.76-14.83-11.64-25.99-11.64s-19.74,4.07-27.34,12.2c-7.6,8.13-11.4,18.1-11.4,29.89s3.8,21.76,11.4,29.89c7.6,8.13,16.71,12.2,27.34,12.2,11.16,0,19.82-3.88,25.99-11.64v9.41h20.57V18.01h-20.57ZM198.89,74.05c-4.2,4.2-9.48,6.3-15.86,6.3s-11.64-2.09-15.78-6.3c-4.14-4.2-6.21-9.59-6.21-16.18s2.07-11.98,6.21-16.18c4.14-4.2,9.41-6.3,15.78-6.3s11.67,2.1,15.86,6.3c4.2,4.2,6.3,9.59,6.3,16.18s-2.1,11.99-6.3,16.18Z"/>
  <path class="cls-1" d="M286.01,76.76c-3.25,1.86-6.93,2.79-11.08,2.79-6.16,0-11.27-2.04-15.31-6.14-4.04-4.09-6.06-9.27-6.06-15.55s2.02-11.61,6.06-15.7c4.04-4.09,9.14-6.14,15.31-6.14,4.04,0,7.68.96,10.92,2.87,3.24,1.91,5.66,4.52,7.25,7.81l17.69-10.36c-3.3-6.27-8.13-11.26-14.51-14.99-6.38-3.72-13.45-5.58-21.2-5.58-12.01,0-22.03,4.04-30.05,12.11-8.02,8.08-12.04,18.07-12.04,29.97s4.01,21.9,12.04,29.97c8.02,8.08,18.04,12.11,30.05,12.11,7.76,0,14.83-1.88,21.2-5.66,6.37-3.78,11.32-8.79,14.83-15.07l-17.86-10.2c-1.59,3.3-4.02,5.87-7.25,7.73h0Z"/>
  <path class="cls-1" d="M355.45,79.54c4.15,0,7.84-.93,11.08-2.79h0c3.24-1.87,5.66-4.44,7.25-7.74l17.86,10.2c-3.51,6.27-8.45,11.3-14.83,15.07-6.37,3.78-13.45,5.66-21.2,5.66-12.01,0-22.02-4.04-30.05-12.11-8.02-8.08-12.03-18.07-12.03-29.97s4.01-21.9,12.03-29.97c8.02-8.08,18.04-12.11,30.05-12.11,7.75,0,14.82,1.86,21.2,5.58,6.38,3.72,11.21,8.72,14.51,14.99l-17.69,10.36c-1.59-3.3-4.02-5.9-7.25-7.81s-6.88-2.87-10.92-2.87c-6.17,0-11.27,2.05-15.31,6.14-4.04,4.09-6.06,9.43-6.06,15.7s2.02,11.46,6.06,15.55c4.04,4.1,9.15,6.14,15.31,6.14Z"/>
  <path class="cls-1" d="M459.06,18.01v9.41c-6.16-7.76-14.83-11.64-25.99-11.64s-19.74,4.07-27.34,12.2c-7.6,8.13-11.4,18.1-11.4,29.89s3.8,21.76,11.4,29.89c7.6,8.13,16.71,12.2,27.34,12.2,11.16,0,19.82-3.88,25.99-11.64v9.41h20.57V18.01h-20.57ZM452.76,74.05c-4.2,4.2-9.48,6.3-15.86,6.3s-11.64-2.09-15.78-6.3c-4.14-4.2-6.21-9.59-6.21-16.18s2.07-11.98,6.21-16.18c4.14-4.2,9.41-6.3,15.78-6.3s11.67,2.1,15.86,6.3c4.2,4.2,6.3,9.59,6.3,16.18s-2.1,11.99-6.3,16.18Z"/>
  <path class="cls-1" d="M555.35,27.26c5.31-7.65,13.23-11.48,23.75-11.48h0c9.14,0,16.44,2.97,21.92,8.92,5.47,5.95,8.21,13.92,8.21,23.92v49.1h-20.57v-47.67c0-4.78-1.17-8.5-3.51-11.16-2.34-2.65-5.64-3.99-9.89-3.99-4.67,0-8.32,1.54-10.92,4.62-2.6,3.09-3.9,7.55-3.9,13.39v44.8h-20.57v-47.67c0-4.78-1.17-8.5-3.51-11.16-2.34-2.65-5.64-3.99-9.89-3.99-4.57,0-8.21,1.54-10.92,4.62-2.71,3.09-4.07,7.55-4.07,13.39v44.8h-20.57V18.01h20.57v8.45c4.78-7.12,12.38-10.68,22.16-10.68s17,3.83,21.68,11.48Z"/>
  <path class="cls-1" d="M682.75,18.01v9.41c-6.16-7.76-14.83-11.64-25.99-11.64s-19.74,4.07-27.34,12.2c-7.6,8.13-11.4,18.09-11.4,29.89s3.8,21.76,11.4,29.89c7.6,8.13,16.71,12.2,27.34,12.2,11.16,0,19.82-3.88,25.99-11.64v9.41h20.57V18.01h-20.57ZM676.46,74.05c-4.2,4.2-9.48,6.3-15.86,6.3s-11.64-2.09-15.78-6.3c-4.14-4.2-6.21-9.59-6.21-16.18s2.07-11.98,6.21-16.18c4.14-4.2,9.41-6.3,15.78-6.3s11.67,2.1,15.86,6.3c4.2,4.2,6.3,9.59,6.3,16.18s-2.1,11.99-6.3,16.18Z"/>
</svg>