<?xml version="1.0" encoding="utf-8"?>
<!-- Generator: Adobe Illustrator 27.9.0, SVG Export Plug-In . SVG Version: 6.00 Build 0)  -->
<svg version="1.1" id="Layer_1" xmlns="http://www.w3.org/2000/svg" xmlns:xlink="http://www.w3.org/1999/xlink" x="0px" y="0px"
	 viewBox="0 0 600 297.8" style="enable-background:new 0 0 600 297.8;" xml:space="preserve">
<style type="text/css">
	.st0{fill-rule:evenodd;clip-rule:evenodd;fill:#2026D2;}
	.st1{fill:#FFFFFF;}
	.st2{fill:#62E1FC;}
</style>
<g>
	<g>
		<g>
			<rect class="st0" width="600" height="297.8"/>
			<path class="st1" d="M185.4,124.5v94.3h-26.6v-8.9c-3.1,3.9-7.4,7-11.8,8.9c-4.7,1.9-9.4,2.7-14.5,2.7
				c-23.1,0-42.3-21.6-42.3-49.9s19.2-49.9,42.3-49.9c5.1-0.4,9.8,0.8,14.5,2.7c4.7,1.9,8.6,5,11.8,8.9v-8.9H185.4z M158.7,171.6
				c0.4-3.1,0-6.2-1.2-8.9c-0.8-2.7-2.4-5.4-4.3-7.7s-4.3-3.9-7.1-5c-2.7-1.2-5.5-1.5-8.6-1.5c-2.7,0-5.9,0.4-8.6,1.5
				c-2.7,1.2-5.1,2.7-7.1,5s-3.5,4.6-4.3,7.7c-0.8,2.7-1.2,5.8-1.2,8.9c-0.4,3.1,0,6.2,1.2,8.9c0.8,2.7,2.4,5.4,4.3,7.7
				s4.3,3.9,7.1,5c2.7,1.2,5.5,1.5,8.6,1.5C150.1,194.5,158.7,185.6,158.7,171.6z"/>
			<path class="st1" d="M238.7,151.5v33.2c0,8.1,6.7,8.9,18.4,8.1v25.5c-34.9,3.9-44.7-7.3-44.7-33.6v-33.2h-14.1v-27.1h14.1v-17.8
				l26.6-8.5v26.3h18.4v27.1L238.7,151.5z"/>
			<path class="st1" d="M272,81.2h26.6v137.6H272V81.2z"/>
			<path class="st1" d="M408.8,124.5v94.3h-26.6v-8.9c-3.1,3.9-7.4,7-11.8,8.9c-4.7,1.9-9.4,2.7-14.5,2.7
				c-23.1,0-42.3-21.6-42.3-49.9s19.2-49.9,42.3-49.9c5.1-0.4,9.8,0.8,14.5,2.7c4.7,1.9,8.6,5,11.8,8.9v-8.9H408.8z M382.5,171.6
				c0-5.8-2.4-11.6-6.3-15.5c-3.9-4.3-9.4-6.6-14.9-6.6c-5.5,0-11,2.3-14.9,6.6c-3.9,4.3-6.3,9.7-6.3,15.5c0,14.3,9,23.2,21.2,23.2
				C373.5,194.8,382.5,185.6,382.5,171.6z"/>
			<path class="st1" d="M513.4,160.8v58h-26.6v-53.7c0-11.6-7.1-17-15.3-17c-9.8,0-16.5,6.2-16.5,19.3v51.4h-26.6v-94.3H455v8.9
				c4.7-7,13.7-11.6,25.5-11.6C498.1,121.8,513.4,135.3,513.4,160.8z"/>
			<path class="st2" d="M137.9,183.2c2.4,0,4.3-0.8,6.3-1.9s3.1-3.1,4.3-5c0.8-1.9,1.2-4.6,0.8-6.6c-0.4-1.9-1.6-4.3-3.1-5.8
				s-3.5-2.7-5.9-3.1s-4.3-0.4-6.3,0.8c-2,0.8-3.9,2.3-5.1,4.3c-1.2,1.9-2,4.3-2,6.6c0,1.5,0.4,3.1,0.8,4.3c0.4,1.5,1.2,2.7,2.4,3.9
				c1.2,1.2,2.4,1.9,3.5,2.7C134.8,182.9,136.4,183.2,137.9,183.2L137.9,183.2z"/>
			<path class="st2" d="M361.3,183.2c2.4,0,4.3-0.8,6.3-1.9s3.1-3.1,4.3-5c0.8-1.9,1.2-4.6,0.8-6.6c-0.4-2.3-1.6-4.3-3.1-6.2
				c-1.6-1.5-3.5-2.7-5.9-3.1s-4.3-0.4-6.3,0.8c-2,1.2-3.9,2.3-5.1,4.3c-1.2,1.9-2,4.3-2,6.6c0,1.5,0.4,3.1,0.8,4.3
				c0.4,1.5,1.2,2.7,2.4,3.9c1.2,1.2,2.4,1.9,3.5,2.7C358.2,182.9,359.8,183.2,361.3,183.2z"/>
		</g>
	</g>
</g>
</svg>
