<svg id="Layer_1" data-name="Layer 1" xmlns="http://www.w3.org/2000/svg" viewBox="0 0 503.07 533.1"><defs><style>.cls-1{fill:#a2bfd0;}.cls-1,.cls-10,.cls-11,.cls-12,.cls-2,.cls-3,.cls-4,.cls-5,.cls-6,.cls-7,.cls-8,.cls-9{fill-opacity:0.5;}.cls-2{fill:#bed2de;}.cls-3{fill:#d3dfe8;}.cls-4{fill:#bdd2de;}.cls-5{fill:#e4ebf1;}.cls-6{fill:#d4e0e9;}.cls-7{fill:#dbe5ed;}.cls-8{fill:#c4d5e1;}.cls-9{fill:#b8cfdb;}.cls-10{fill:#ccdae4;}.cls-11{fill:#dae4ec;}.cls-12{fill:#d1dee7;}</style></defs><path class="cls-1" d="M182.57-22.71,113.36,290.55l328.82,69.74L511.39,47Z" transform="translate(-65.16 116.09)"/><path class="cls-2" d="M213.85,61.1,84,195.52,270.37,371.18,400.21,236.76Z" transform="translate(-65.16 116.09)"/><path class="cls-3" d="M355.91,19.86l113,245.92,99.29-47.35L455.2-26Z" transform="translate(-65.16 116.09)"/><path class="cls-4" d="M105.4,100.81l26,168,326.88-53.46-26-168Z" transform="translate(-65.16 116.09)"/><path class="cls-5" d="M494.91,227.6,323.83,365.07,366.6,417,537.68,279.53Z" transform="translate(-65.16 116.09)"/><path class="cls-6" d="M90.12,81l76.38,70.26,180.24-197-76.37-70.27Z" transform="translate(-65.16 116.09)"/><path class="cls-7" d="M65.16,238.29,140,261.2,250-87.07,175.14-110Z" transform="translate(-65.16 116.09)"/><path class="cls-8" d="M239.05,81.81l110,82.48,113-149.69-110-82.49Z" transform="translate(-65.16 116.09)"/><path class="cls-9" d="M204.69,94.7l71.79,190.94,142.06-55L346.74,39.71Z" transform="translate(-65.16 116.09)"/><path class="cls-10" d="M102.34,76.37,210.8,372.71l59.57-22.91L161.92,53.46Z" transform="translate(-65.16 116.09)"/><path class="cls-6" d="M462.83,116.09,394.1,383.4l64.15,15.28L527,131.36Z" transform="translate(-65.16 116.09)"/><path class="cls-11" d="M389.51,59.57l106.93,56.52L530,48.88l-106.92-55Z" transform="translate(-65.16 116.09)"/><path class="cls-12" d="M473.53,261.2,178.72,336.05l7.64,33.6,294.8-74.84Z" transform="translate(-65.16 116.09)"/></svg>