<?xml version="1.0" encoding="UTF-8"?>
<svg version="1.1" xmlns="http://www.w3.org/2000/svg" width="300" height="150">
<path d="M0 0 C99 0 198 0 300 0 C300 49.5 300 99 300 150 C201 150 102 150 0 150 C0 100.5 0 51 0 0 Z " fill="#FDFEFE" transform="translate(0,0)"/>
<path d="M0 0 C2.14033149 1.41806415 4.2200342 2.84262624 6.2109375 4.46484375 C-6.60395071 12.14697833 -19.63674682 19.37760458 -32.7890625 26.46484375 C-29.89089352 28.74356961 -26.93642596 30.56677844 -23.69140625 32.3125 C-22.72525391 32.83521484 -21.75910156 33.35792969 -20.76367188 33.89648438 C-19.76142578 34.43466797 -18.75917969 34.97285156 -17.7265625 35.52734375 C-15.73500238 36.60031112 -13.74408777 37.67447772 -11.75390625 38.75 C-10.873396 39.2231665 -9.99288574 39.69633301 -9.08569336 40.18383789 C-6.7890625 41.46484375 -6.7890625 41.46484375 -3.7890625 43.46484375 C0.45572391 43.14329624 3.62500474 41.32986578 7.2890625 39.26171875 C7.85993591 38.94205139 8.43080933 38.62238403 9.01898193 38.29302979 C10.83663463 37.27333164 12.64881783 36.24433642 14.4609375 35.21484375 C15.66240501 34.53843083 16.86422515 33.86264386 18.06640625 33.1875 C18.65321167 32.85737915 19.24001709 32.5272583 19.84460449 32.18713379 C21.5748659 31.21422991 23.30598118 30.24284511 25.03710938 29.27148438 C27.00659201 28.15039426 28.963865 27.00718194 30.90039062 25.83007812 C31.67833984 25.36408203 32.45628906 24.89808594 33.2578125 24.41796875 C34.23766113 23.80937012 34.23766113 23.80937012 35.23730469 23.18847656 C37.884185 22.21799744 39.53804873 22.69767393 42.2109375 23.46484375 C44.66061429 24.64466874 46.88182602 26.04910932 49.2109375 27.46484375 C46.3392925 29.72184867 43.42217111 31.52838569 40.203125 33.25 C39.22432373 33.7761792 38.24552246 34.3023584 37.23706055 34.84448242 C36.19718994 35.39982666 35.15731934 35.9551709 34.0859375 36.52734375 C31.92277687 37.69066237 29.76002048 38.85473297 27.59765625 40.01953125 C26.52306152 40.59799805 25.4484668 41.17646484 24.34130859 41.77246094 C19.84430787 44.20368922 15.36741157 46.67004619 10.8984375 49.15234375 C10.15899902 49.56170166 9.41956055 49.97105957 8.65771484 50.39282227 C5.77007301 51.99953931 2.96203866 53.63077631 0.2109375 55.46484375 C-4.11155126 55.14580819 -7.29690684 53.9212505 -11.0625 51.83984375 C-12.04484619 51.30222412 -13.02719238 50.76460449 -14.03930664 50.21069336 C-15.07047607 49.63456299 -16.10164551 49.05843262 -17.1640625 48.46484375 C-18.22810303 47.87904541 -19.29214355 47.29324707 -20.38842773 46.68969727 C-23.52752992 44.95786874 -26.65940217 43.21366621 -29.7890625 41.46484375 C-30.63645996 40.99288574 -31.48385742 40.52092773 -32.35693359 40.03466797 C-39.19388822 36.22388277 -45.99473739 32.35102461 -52.7890625 28.46484375 C-50.30090875 25.66626169 -47.56260337 24.07304361 -44.29296875 22.27734375 C-43.1858252 21.66560303 -42.07868164 21.0538623 -40.93798828 20.42358398 C-39.74277707 19.77018733 -38.54729624 19.11728367 -37.3515625 18.46484375 C-35.51783751 17.46056156 -33.68452334 16.45553319 -31.85131836 15.45030212 C-30.61780367 14.77405545 -29.38391543 14.09848971 -28.1496582 13.42359924 C-24.3124892 11.32030213 -20.51221551 9.16299135 -16.73046875 6.9609375 C-15.82546631 6.44080078 -14.92046387 5.92066406 -13.98803711 5.38476562 C-12.30756669 4.41693708 -10.63473073 3.43569481 -8.97094727 2.43945312 C-3.50453841 -0.67243944 -3.50453841 -0.67243944 0 0 Z " fill="#08D4FF" transform="translate(150.7890625,0.53515625)"/>
<path d="M0 0 C2.8125 1.5 2.8125 1.5 5 3 C4.34 4.32 3.68 5.64 3 7 C3.77190674 7.41362793 4.54381348 7.82725586 5.33911133 8.25341797 C8.20792397 9.79160088 11.07600649 11.33113422 13.94360352 12.87158203 C15.18387306 13.53748769 16.42443053 14.20285736 17.6652832 14.86767578 C19.45079656 15.82443064 21.23525897 16.78312056 23.01953125 17.7421875 C24.09307861 18.3182373 25.16662598 18.89428711 26.27270508 19.48779297 C29 21 29 21 32 23 C35.92611425 22.65569683 38.89149467 21.1817114 42.31640625 19.3046875 C43.82593872 18.48218506 43.82593872 18.48218506 45.3659668 17.64306641 C46.42082275 17.05960449 47.47567871 16.47614258 48.5625 15.875 C49.63991455 15.2876709 50.7173291 14.7003418 51.82739258 14.09521484 C58.25419203 10.57625165 64.58050007 6.96317814 70.73046875 2.9765625 C73.62508928 1.73102871 75.03850165 2.02405168 78 3 C80.04049422 4.2704964 82.05017465 5.59431196 84 7 C81.39696895 9.98024082 78.38127946 11.59571207 74.92578125 13.4765625 C74.32904602 13.80361679 73.73231079 14.13067108 73.11749268 14.46763611 C71.18528425 15.52529615 69.24919242 16.57557621 67.3125 17.625 C64.67089367 19.06200494 62.03055613 20.50132649 59.390625 21.94140625 C58.74489029 22.29301315 58.09915558 22.64462006 57.43385315 23.00688171 C53.83030519 24.97554249 50.26440281 26.99096577 46.734375 29.08984375 C46.00951904 29.51765137 45.28466309 29.94545898 44.5378418 30.38623047 C43.26552891 31.14386284 42.00061796 31.91413866 40.74536133 32.69970703 C36.68643493 35.0971709 34.51406304 35.07127667 30 34 C27.40136719 32.85180664 27.40136719 32.85180664 24.796875 31.41015625 C23.82468018 30.87769287 22.85248535 30.34522949 21.85083008 29.79663086 C20.82755615 29.22436768 19.80428223 28.65210449 18.75 28.0625 C17.69256592 27.47927979 16.63513184 26.89605957 15.5456543 26.29516602 C13.39150922 25.1057478 11.23939583 23.91264241 9.08935547 22.71582031 C6.26626515 21.147883 3.43464006 19.59730077 0.59765625 18.0546875 C-0.9976007 17.18266635 -2.59266576 16.31029402 -4.1875 15.4375 C-4.9103418 15.04506104 -5.63318359 14.65262207 -6.37792969 14.24829102 C-10.22351162 12.12346433 -13.64542141 9.87256147 -17 7 C-15.11248318 5.81992569 -13.21460805 4.65640827 -11.3125 3.5 C-10.25675781 2.8503125 -9.20101562 2.200625 -8.11328125 1.53125 C-4.98307202 -0.00832593 -3.41094632 -0.46725292 0 0 Z " fill="#096FFB" transform="translate(115,66)"/>
<path d="M0 0 C2.8125 2.0625 2.8125 2.0625 5 4 C3.68 4.33 2.36 4.66 1 5 C1 5.66 1 6.32 1 7 C1.86874756 7.26135742 2.73749512 7.52271484 3.63256836 7.79199219 C7.01166833 9.00418581 9.80249539 10.48756744 12.87890625 12.328125 C14.50795898 13.27945313 14.50795898 13.27945313 16.16992188 14.25 C18.4413966 15.58908469 20.70701382 16.93815289 22.96679688 18.296875 C24.59391602 19.24046875 24.59391602 19.24046875 26.25390625 20.203125 C27.23689697 20.78739258 28.2198877 21.37166016 29.23266602 21.97363281 C31.9162594 23.26377413 31.9162594 23.26377413 34.44750977 22.39697266 C35.28983154 21.93597168 36.13215332 21.4749707 37 21 C38.02915527 20.46133301 39.05831055 19.92266602 40.11865234 19.36767578 C41.8349585 18.41610596 41.8349585 18.41610596 43.5859375 17.4453125 C44.20594635 17.10249237 44.8259552 16.75967224 45.4647522 16.40646362 C47.43635947 15.31536855 49.40566982 14.22019858 51.375 13.125 C52.68996169 12.39687804 54.0050646 11.66901107 55.3203125 10.94140625 C61.65319 7.47939863 61.65319 7.47939863 67.89093018 3.85272217 C72.73016775 0.9421788 72.73016775 0.9421788 75.625 1.5625 C76.800625 2.2740625 76.800625 2.2740625 78 3 C78.928125 3.495 79.85625 3.99 80.8125 4.5 C81.8953125 5.2425 81.8953125 5.2425 83 6 C83 6.66 83 7.32 83 8 C82.30664551 8.3717334 81.61329102 8.7434668 80.89892578 9.12646484 C63.74714007 18.32229949 63.74714007 18.32229949 46.6875 27.6875 C45.61556396 28.28280518 45.61556396 28.28280518 44.52197266 28.89013672 C43.85858887 29.26025879 43.19520508 29.63038086 42.51171875 30.01171875 C41.89989746 30.34864746 41.28807617 30.68557617 40.65771484 31.03271484 C38.79498122 32.08246979 38.79498122 32.08246979 36.39453125 33.89453125 C34 35 34 35 31.17993164 34.23925781 C28.21802305 33.08496622 25.51335733 31.80099409 22.7265625 30.27734375 C21.74405518 29.74286621 20.76154785 29.20838867 19.74926758 28.65771484 C18.71825928 28.09004395 17.68725098 27.52237305 16.625 26.9375 C15.56240967 26.35693848 14.49981934 25.77637695 13.4050293 25.17822266 C-7.98318766 13.46782217 -7.98318766 13.46782217 -17 8 C-15.70538169 4.11614507 -14.28058761 3.69465521 -10.75 1.75 C-9.79609375 1.20859375 -8.8421875 0.6671875 -7.859375 0.109375 C-4.62118959 -1.14697016 -3.24496084 -1.12178242 0 0 Z " fill="#0BA4FF" transform="translate(116,44)"/>
<path d="M0 0 C4.78784068 1.72362265 8.71739615 4.34737343 11 9 C11.94187372 14.03697686 11.5717539 17.83531614 9.3125 22.4375 C6.28115306 25.79656012 4.25860352 27.69355631 -0.33203125 28.31640625 C-6.04951809 28.58213652 -9.60250453 27.96847152 -14 24 C-17.16243115 20.31049699 -17.52750628 16.91831653 -17.34765625 12.2109375 C-16.58194456 7.3413553 -13.82243895 4.694504 -10.1875 1.625 C-6.37985365 -0.31615304 -4.22575274 -0.52821909 0 0 Z " fill="#232C4F" transform="translate(101,121)"/>
<path d="M0 0 C0.66 0 1.32 0 2 0 C3.81814105 3.91407227 5.62852845 7.83168244 7.4375 11.75 C7.95376953 12.86117187 8.47003906 13.97234375 9.00195312 15.1171875 C9.49501953 16.18710938 9.98808594 17.25703125 10.49609375 18.359375 C10.95169678 19.34389648 11.4072998 20.32841797 11.87670898 21.34277344 C12.82085314 23.57621508 13.50669313 25.63409046 14 28 C12.02 28 10.04 28 8 28 C7.67 26.68 7.34 25.36 7 24 C3.04 24 -0.92 24 -5 24 C-5.33 25.32 -5.66 26.64 -6 28 C-7.98 28 -9.96 28 -12 28 C-11.38253379 24.12624436 -10.2081036 21.00287982 -8.49609375 17.48046875 C-8.00302734 16.45888672 -7.50996094 15.43730469 -7.00195312 14.38476562 C-6.48568359 13.32966797 -5.96941406 12.27457031 -5.4375 11.1875 C-4.65729492 9.57584961 -4.65729492 9.57584961 -3.86132812 7.93164062 C-2.5792955 5.28524301 -1.29203889 2.6415229 0 0 Z " fill="#212A4D" transform="translate(179,121)"/>
<path d="M0 0 C5.61 0 11.22 0 17 0 C17 1.65 17 3.3 17 5 C13.37 5 9.74 5 6 5 C6 6.65 6 8.3 6 10 C9.3 10 12.6 10 16 10 C16 11.98 16 13.96 16 16 C12.7 16 9.4 16 6 16 C6 17.65 6 19.3 6 21 C9.63 21 13.26 21 17 21 C17 22.98 17 24.96 17 27 C11.39 27 5.78 27 0 27 C0 18.09 0 9.18 0 0 Z " fill="#1F294C" transform="translate(222,122)"/>
<path d="M0 0 C3.0625 2.5 3.0625 2.5 5 5 C3.77734375 6.53125 3.77734375 6.53125 2 8 C-0.12109375 7.96875 -0.12109375 7.96875 -2.4375 7.5 C-5.38768873 7.08197652 -6.72017441 6.89762478 -9.5625 7.9375 C-11.79819591 11.1452376 -11.63799158 14.21930918 -11 18 C-10.03882095 20.12870693 -10.03882095 20.12870693 -8 21 C-5.01634757 21.25392787 -2.67485648 21.21209775 0.1875 20.3125 C0.785625 20.209375 1.38375 20.10625 2 20 C3.75 21.4375 3.75 21.4375 5 23 C4 26 4 26 2.27734375 27.1640625 C-2.03983559 28.74875612 -6.47941943 28.54408176 -11 28 C-14.9162455 25.79711191 -17.25289859 23.13787177 -19 19 C-19.71043399 14.32153227 -19.47250211 10.96317737 -17.375 6.6875 C-12.39695591 1.05445011 -7.52607591 -1.6739985 0 0 Z " fill="#242E50" transform="translate(73,121)"/>
<path d="M0 0 C5.94 0 11.88 0 18 0 C18 1.65 18 3.3 18 5 C16.02 5 14.04 5 12 5 C12 12.26 12 19.52 12 27 C10.02 27 8.04 27 6 27 C6 19.74 6 12.48 6 5 C4.02 5 2.04 5 0 5 C0 3.35 0 1.7 0 0 Z " fill="#1A2448" transform="translate(197,122)"/>
<path d="M0 0 C1.98 0 3.96 0 6 0 C6 6.93 6 13.86 6 21 C9.3 21 12.6 21 16 21 C16 22.98 16 24.96 16 27 C10.72 27 5.44 27 0 27 C0 18.09 0 9.18 0 0 Z " fill="#202A4C" transform="translate(144,122)"/>
<path d="M0 0 C1.98 0 3.96 0 6 0 C6 6.93 6 13.86 6 21 C9.3 21 12.6 21 16 21 C16 22.98 16 24.96 16 27 C10.72 27 5.44 27 0 27 C0 18.09 0 9.18 0 0 Z " fill="#202A4C" transform="translate(120,122)"/>
<path d="M0 0 C2.5 1.5625 2.5 1.5625 4 4 C4.56288002 7.94016013 4.60396028 10.05782196 2.4375 13.4375 C-0.94217804 15.60396028 -3.05983987 15.56288002 -7 15 C-9.4375 13.5 -9.4375 13.5 -11 11 C-11.6227188 7.48305406 -11.63278358 4.26556715 -10 1 C-6.73443285 -0.63278358 -3.51694594 -0.6227188 0 0 Z " fill="#F7F7F8" transform="translate(102,128)"/>
<path d="M0 0 C3.96 0 7.92 0 12 0 C12.33 1.32 12.66 2.64 13 4 C16.465 3.505 16.465 3.505 20 3 C20 3.66 20 4.32 20 5 C11.09 5 2.18 5 -7 5 C-7 4.67 -7 4.34 -7 4 C-5.02 4 -3.04 4 -1 4 C-0.67 2.68 -0.34 1.36 0 0 Z " fill="#EFEFF2" transform="translate(174,145)"/>
<path d="M0 0 C0.66 0 1.32 0 2 0 C2.66 1.98 3.32 3.96 4 6 C2.02 6 0.04 6 -2 6 C-1.34 4.02 -0.68 2.04 0 0 Z " fill="#CDCFD6" transform="translate(179,134)"/>
<path d="M0 0 C0.66 0.66 1.32 1.32 2 2 C3.32 2 4.64 2 6 2 C5.67 3.32 5.34 4.64 5 6 C3.35 6 1.7 6 0 6 C0 4.02 0 2.04 0 0 Z " fill="#A9AAAE" transform="translate(239,144)"/>
</svg>
