<svg width="281" height="220" viewBox="0 0 281 220" fill="none" xmlns="http://www.w3.org/2000/svg">
<path fill-rule="evenodd" clip-rule="evenodd" d="M64.3083 41.4885L139.641 0L152.329 6.98787L92.2354 40.328L139.637 66.4338L199.731 33.0971L214.969 41.4885L139.641 82.9773L64.3083 41.4885Z" fill="#00D2FF"/>
<path fill-rule="evenodd" clip-rule="evenodd" d="M64.3083 107.663L86.1552 95.8432L98.8439 102.834L92.2354 106.502L139.637 132.608L199.731 99.2714L214.969 107.663L139.641 149.152L64.3083 107.663Z" fill="#016AFB"/>
<path fill-rule="evenodd" clip-rule="evenodd" d="M64.3083 74.5756L86.1552 62.7593L98.8439 69.7473L92.2354 73.4149L139.637 99.5207L199.731 66.1842L214.969 74.5756L139.641 116.064L64.3083 74.5756Z" fill="#03A0FF"/>
<path d="M219.837 218.661C219.255 218.661 218.734 218.142 218.734 217.569V186.904H210.441C209.801 186.904 209.337 186.385 209.337 185.811V179.55C209.337 178.974 209.804 178.458 210.441 178.458H236.195C236.835 178.458 237.298 178.977 237.298 179.55V185.811C237.298 186.388 236.832 186.904 236.195 186.904H227.902V217.569C227.902 218.145 227.377 218.661 226.799 218.661H219.837Z" fill="#162044"/>
<path fill-rule="evenodd" clip-rule="evenodd" d="M166.835 218.661H173.211C174.372 218.661 175.009 217.973 175.299 217.282L177.386 212.687H193.165L195.253 217.225C195.774 218.317 196.238 218.661 197.282 218.661H203.723C204.594 218.661 205.058 217.916 204.71 217.168L186.554 178.518C186.381 178.174 185.975 177.888 185.567 177.888H184.988C184.583 177.888 184.177 178.174 184.003 178.518L165.847 217.168C165.5 217.913 165.963 218.661 166.835 218.661ZM180.865 204.877L185.213 195.403H185.271L189.678 204.877H180.865Z" fill="#162044"/>
<path d="M133.61 218.661C132.97 218.661 132.507 218.142 132.507 217.569L132.504 217.566V179.55C132.504 178.974 132.97 178.458 133.607 178.458H140.51C141.092 178.458 141.613 178.977 141.613 179.55V210.216H155.42C156.06 210.216 156.523 210.735 156.523 211.308V217.569C156.523 218.145 156.058 218.661 155.42 218.661H133.61Z" fill="#162044"/>
<path d="M98.3115 218.661C97.6719 218.661 97.2081 218.142 97.2081 217.569L97.2054 217.566V179.55C97.2054 178.974 97.6719 178.458 98.3087 178.458H105.212C105.794 178.458 106.315 178.977 106.315 179.55V210.216H120.122C120.762 210.216 121.225 210.735 121.225 211.308V217.569C121.225 218.145 120.759 218.661 120.122 218.661H98.3115Z" fill="#162044"/>
<path d="M20.9388 219.232C9.33881 219.232 0 210.101 0 198.617V198.614H0.00275513C0.00275513 187.127 9.34157 177.882 20.9415 177.882C26.7415 177.882 31.0356 179.662 34.9797 183.223C35.5007 183.681 35.5007 184.372 35.0376 184.831L30.5119 189.484C30.1066 189.885 29.4664 189.885 29.0612 189.484C26.9152 187.589 24.0717 186.554 21.231 186.554C14.6784 186.554 9.86257 192.009 9.86257 198.385C9.86257 204.76 14.7329 210.044 21.2888 210.044C24.0138 210.044 26.973 209.066 29.0612 207.286C29.4664 206.942 30.2224 206.942 30.5698 207.343L35.0927 212.111C35.498 212.512 35.4401 213.26 35.0348 213.662C31.0908 217.451 26.1019 219.232 20.9388 219.232Z" fill="#162044"/>
<path fill-rule="evenodd" clip-rule="evenodd" d="M44.2503 198.617C44.2503 210.101 53.4733 219.232 65.076 219.232C76.6794 219.232 85.9569 210.101 85.9569 198.617C85.9569 187.133 76.6766 177.885 65.076 177.885C53.4761 177.885 44.2503 187.13 44.2503 198.617ZM53.5346 198.617C53.5346 192.299 58.755 187.075 65.0767 187.075C71.3977 187.075 76.6766 192.302 76.6766 198.617C76.6766 204.932 71.4556 210.044 65.0767 210.044C58.6971 210.044 53.5346 204.875 53.5346 198.617Z" fill="#162044"/>
<path fill-rule="evenodd" clip-rule="evenodd" d="M246.715 217.586C246.715 218.159 247.178 218.678 247.818 218.678H271.832C272.469 218.678 272.935 218.162 272.935 217.586V211.325C272.935 210.752 272.472 210.233 271.832 210.233H255.764V202.481H268.988C269.568 202.481 270.092 202.023 270.092 201.389V195.128C270.092 194.555 269.571 194.036 268.988 194.036H255.764V186.915H271.832C272.469 186.915 272.935 186.399 272.935 185.823V179.562C272.935 178.989 272.472 178.47 271.832 178.47H247.818C247.181 178.47 246.715 178.986 246.715 179.562V217.577V217.586Z" fill="#162044"/>
<circle cx="278.21" cy="216.345" r="2.06748" stroke="black" stroke-width="0.710566"/>
<path d="M278.237 215.294C278.398 215.294 278.534 215.322 278.643 215.378C278.753 215.434 278.836 215.512 278.892 215.613C278.949 215.714 278.977 215.832 278.977 215.966C278.977 216.101 278.949 216.217 278.891 216.317C278.835 216.415 278.751 216.492 278.64 216.546C278.627 216.552 278.612 216.556 278.598 216.562L279.054 217.396H278.63L278.217 216.626H277.829V217.396H277.448V215.294H278.237ZM277.829 216.31H278.18C278.275 216.31 278.352 216.297 278.412 216.271C278.472 216.244 278.517 216.205 278.546 216.154C278.575 216.103 278.59 216.04 278.59 215.966C278.59 215.891 278.575 215.827 278.546 215.775C278.516 215.721 278.471 215.681 278.411 215.654C278.351 215.626 278.273 215.612 278.179 215.612H277.829V216.31Z" fill="black"/>
</svg>
