<?xml version="1.0" encoding="utf-8"?>
<!-- Generator: Adobe Illustrator 27.9.0, SVG Export Plug-In . SVG Version: 6.00 Build 0)  -->
<svg version="1.1" id="Layer_1" xmlns="http://www.w3.org/2000/svg" xmlns:xlink="http://www.w3.org/1999/xlink" x="0px" y="0px"
	 viewBox="0 0 600 300" style="enable-background:new 0 0 600 300;" xml:space="preserve">
<style type="text/css">
	.st0{fill:#686868;}
	.st1{fill:#F5F4F2;}
	.st2{fill:#DEDEFC;}
	.st3{fill:#FFFFFF;}
	.st4{fill:#C9C6FA;}
	.st5{fill:#163B36;}
</style>
<rect class="st0" width="600" height="300"/>
<path class="st1" d="M174,166.4h8.6v76.5H174v-6.9h-0.2c-3.3,4.2-8.4,8.2-17,8.2c-13.7,0-24.5-10.8-24.5-28.7s10.8-28.7,24.5-28.7
	c8.8,0,13.9,3.8,17,8.6h0.2V166.4L174,166.4z M174,215.7c0-12.8-6.4-21.2-16.4-21.2c-11.3,0-16.8,10.6-16.8,21.2s5.7,21.2,16.8,21.2
	C167.6,236.9,174,228.5,174,215.7L174,215.7z"/>
<path class="st1" d="M214.5,194.3c-10.4,0-13.7,3.1-14.4,10.8h-8.6c0.4-10.4,7.1-18.3,23-18.3c10.4,0,19.7,4,19.7,17.2v26.5
	c0,4.2,0.7,6.6,6.2,6v6c-1.6,0.7-3.3,0.9-5.1,0.9c-5.1,0-8.2-1.3-9.7-7.3h-0.2c-3.3,5.1-9.5,8.4-18.6,8.4
	c-11.1,0-17.9-6.4-17.9-15.5c0-12.4,9.3-15.7,23.2-18.3c9.3-1.8,13.5-2.9,13.5-8.4C225.5,198.1,223.1,194.3,214.5,194.3L214.5,194.3
	z M225.5,221.9v-9.1c-1.6,1.6-6.9,3.1-12.6,4.2c-10.6,2.2-15.5,4.9-15.5,11.5c0,5.3,3.3,8.4,10.2,8.4
	C217.8,236.9,225.5,232.3,225.5,221.9L225.5,221.9z"/>
<path class="st1" d="M283.4,188.3h8.6v51.5c0,14.6-9.3,21.9-24.1,21.9c-14.8,0-23.9-8-24.8-17.2h8.6c1.1,5.5,5.5,9.7,15.7,9.7
	s16.1-4.4,16.1-14.6v-8.2h-0.2c-3.3,4.6-8.4,8.6-17.2,8.6c-13.5,0-24.3-8.6-24.3-26.5s10.8-26.5,24.3-26.5c9.1,0,14.1,4,17.2,8.2
	h0.2L283.4,188.3L283.4,188.3z M283.4,213.5c0-12.8-6.4-19.2-16.4-19.2c-11.3,0-16.8,8.4-16.8,19.2c0,10.8,5.7,19.2,16.8,19.2
	C277,232.7,283.4,226.3,283.4,213.5L283.4,213.5L283.4,213.5z"/>
<path class="st1" d="M344.4,227.9c0,9.9-9.1,16.4-21.4,16.4c-16.6,0-24.3-8-25-19.7h8.6c0.4,6.2,2.7,12.2,16.4,12.2
	c9.3,0,13-4.9,13-8.4c0-8-7.1-8.4-15-10.2c-8.4-2-20.8-3.1-20.8-15.9c0-8.6,7.5-15.5,20.3-15.5c13.5,0,20.8,7.7,21.7,17h-8.6
	c-0.9-4.2-2.9-9.7-13-9.7c-7.7,0-11.9,3.1-11.9,7.3c0,6.4,7.3,6.9,15,8.8C333.6,212.9,344.4,214.4,344.4,227.9L344.4,227.9z"/>
<path class="st1" d="M373.4,195.8h-10.6v32.7c0,6.2,3.5,7.3,10.6,6.6v7.5c-2.2,0.4-4.2,0.7-6.4,0.7c-7.3,0-12.8-2.9-12.8-13.9v-33.6
	h-8v-7.5h8v-18.1h8.6v18.1h10.6V195.8L373.4,195.8z"/>
<path class="st1" d="M418.9,226.1h8.6c-2.9,10.2-10.6,18.3-24.1,18.3c-16.6,0-26.5-11.7-26.5-28.7c0-18.1,10.2-28.7,26.3-28.7
	c17,0,25.4,11.7,25.4,30.9h-43.1c0,9.9,6,19,17.7,19C413.8,236.9,417.8,229.9,418.9,226.1L418.9,226.1z M385.1,210.4h34.5
	c0-8.8-6.6-16.1-16.8-16.1S385.1,201.6,385.1,210.4z"/>
<path class="st1" d="M463.6,187.2v8.6h-0.2c-11.9-2-20.1,6.4-20.1,18.1v29.2h-8.6v-54.8h8.6v10.8h0.2c2.9-7.1,7.3-12.4,15-12.4
	C460.3,186.8,461.8,187,463.6,187.2L463.6,187.2L463.6,187.2z"/>
<path class="st2" d="M277.5,150.7c0,0.7,0.2,1.3,0.4,2c0.2,0.7,0.7,1.1,1.1,1.6c0.4,0.4,1.1,0.9,1.8,1.1c0.7,0.2,1.3,0.2,2,0.2
	c25.6-1.8,50-20.1,57.7-48.4c0.4-1.6,1.6-2.4,3.3-2.4c0.9,0,1.6,0.4,2.2,1.1c0.7,0.7,0.9,1.3,0.9,2.2c0,6.4-8.2,23-19.9,32.5
	c-0.7,0.4-1.1,1.1-1.3,1.8c-0.2,0.7-0.4,1.6-0.4,2.2c0,0.7,0.2,1.3,0.4,1.8c0.2,0.7,0.7,1.1,1.1,1.6c0.4,0.4,0.9,0.9,1.6,1.1
	c0.7,0.2,1.3,0.4,1.8,0.2c1.1,0,2.7-0.7,4.6-2.4c8.2-7.3,23.7-28.1,23.7-50.8c0-33.4-25.6-61.9-61.7-61.9
	c-32.1,0-59.9,26.1-59.9,56.4c0,20.1,15.9,35.1,36.9,35.1c16.1,0,30.9-11.5,35.1-27.2c0.4-1.6,1.6-2.4,3.3-2.4
	c0.9,0,1.6,0.4,2.2,1.1c0.7,0.7,0.9,1.3,0.9,2.2c0,7.1-13.5,32.1-40.9,32.1c-6.6,0-14.8-1.8-20.3-5.1c-0.7-0.4-1.6-0.7-2.4-0.7
	c-0.7,0-1.3,0-2,0.2c-0.7,0.2-1.1,0.7-1.6,1.1c-0.4,0.4-0.9,1.1-1.1,1.6c-0.2,0.7-0.4,1.3-0.2,2c0,0.9,0.2,1.6,0.7,2.4
	c0.4,0.7,1.1,1.3,1.8,1.8c7.5,4.4,16.6,6.6,25.6,6.6c22.8,0,43.8-15.5,49.7-38.5c0.4-1.6,1.6-2.4,3.3-2.4c0.9,0,1.6,0.4,2.2,1.1
	c0.7,0.7,0.9,1.3,0.9,2.2c0,9.5-16.8,39.8-49.1,42.2c-1.3,0-2.4,0.7-3.3,1.6C278.1,148.3,277.4,149.4,277.5,150.7L277.5,150.7
	L277.5,150.7z"/>
<path class="st3" d="M309.5,72.3c4.4,0,8.6,1.1,12.4,3.5c0.4-2,0.7-4.2,0.7-6.2c0-9.7-7.3-18.3-16.4-18.3c-7.1,0-11.5,5.7-11.5,13
	c0,4,1.3,7.7,3.8,10.6C302,73.2,305.8,72.3,309.5,72.3C309.5,72.3,309.5,72.3,309.5,72.3z"/>
<path class="st4" d="M330.5,107.4c1.3-4.2,1.8-7.3,1.8-9.3c0-0.9-0.4-1.6-1.1-2.2S329.8,95,329,95s-1.6,0.2-2.2,0.9
	c-0.7,0.4-1.1,1.1-1.1,2c-0.4,1.3-1.1,5.3-1.8,7.7c0.2-0.9,0.7-1.8,0.9-2.7c0.4-1.6,1.6-2.4,3.3-2.4c0.9,0,1.6,0.4,2.2,1.1
	s0.9,1.3,0.9,2.2C331.2,105,331,106.3,330.5,107.4L330.5,107.4L330.5,107.4z"/>
<path class="st4" d="M348,103c0-0.9-0.4-1.6-0.9-2.2c-0.7-0.7-1.3-0.9-2.2-0.9c-0.7,0-1.6,0.2-2.2,0.9c-0.7,0.4-1.1,1.1-1.1,2
	c-0.4,1.6-1.1,5.3-1.8,7.7l0,0c0.4-1.1,0.7-2.2,0.9-3.3c0.4-1.6,1.6-2.4,3.3-2.4c0.9,0,1.6,0.4,2.2,1.1c0.7,0.7,0.9,1.3,0.9,2.2
	c0,1.1-0.2,2-0.4,3.1C347.5,107.4,348,104.8,348,103L348,103z"/>
<path class="st5" d="M309.5,72.3c2.2,0,4.4,0.2,6.4,0.9c1.1-1.6,1.8-3.3,1.6-5.3c0-1.8-0.9-3.8-2-5.1c-1.3-1.3-2.9-2.2-4.9-2.7
	c-1.8-0.2-3.8,0-5.3,1.1l3.3,5.5l-6.2-2.7c-0.9,1.3-1.3,2.9-1.3,4.6c0,1.6,0.7,3.1,1.6,4.4C304.9,72.5,307.1,72.3,309.5,72.3
	L309.5,72.3L309.5,72.3z"/>
<path class="st4" d="M261.1,107.9c2.7,0,4.9-2.2,4.9-4.9c0-2.7-2.2-4.9-4.9-4.9s-4.9,2.2-4.9,4.9
	C256.2,105.6,258.5,107.9,261.1,107.9z"/>
<path class="st4" d="M261.1,88.6c2.7,0,4.9-2.2,4.9-4.9s-2.2-4.9-4.9-4.9s-4.9,2.2-4.9,4.9S258.5,88.6,261.1,88.6z"/>
<path class="st4" d="M251.4,98.4c2.7,0,4.9-2.2,4.9-4.9s-2.2-4.9-4.9-4.9c-2.7,0-4.9,2.2-4.9,4.9C246.7,96.1,248.7,98.4,251.4,98.4z
	"/>
<path class="st4" d="M273,125.8h0.9c16.1,0,30.9-11.5,35.1-27.2c0.4-1.6,1.6-2.4,3.3-2.4c0.9,0,1.6,0.4,2.2,1.1
	c0.7,0.7,0.9,1.3,0.9,2.2c0,1.8-0.4,3.3-1.1,4.9c0.2-0.2,0.2-0.4,0.2-0.7c1.1-2.9,1.8-5.7,1.8-8.8c0-4.6-3.3-7.7-8-7.7
	c-8.2,0-9.7,7.1-13.3,14.8c-3.5,8-10.2,16.6-26.7,16.6s-34.9-12.2-30.7-36.7c0-0.2,0-0.7,0.2-0.9c-0.7,3.1-0.9,6.4-0.9,9.7
	C237,110.3,252.5,125.3,273,125.8L273,125.8z"/>
</svg>
