<svg xmlns="http://www.w3.org/2000/svg" xmlns:xlink="http://www.w3.org/1999/xlink" width="300" height="150"  viewBox="0 0 300 150">
    <defs>
        <style>
            .cls-1 {
            fill: url(#linear-gradient);
            }

            .cls-2 {
            fill: url(#linear-gradient-2);
            }

            .cls-3 {
            fill: url(#linear-gradient-3);
            }

            .cls-4 {
            fill: url(#linear-gradient-4);
            }

            .cls-5 {
            fill: url(#linear-gradient-5);
            }
        </style>
        <linearGradient id="linear-gradient" x1="6.58" y1="6.58" x2="38" y2="38" gradientUnits="userSpaceOnUse">
            <stop offset="0" stop-color="#91d443" />
            <stop offset="1" stop-color="#48bfe0" />
        </linearGradient>
        <linearGradient id="linear-gradient-2" x1="14.39" y1="-1.24" x2="45.82" y2="30.18" xlink:href="#linear-gradient" />
        <linearGradient id="linear-gradient-3" x1="22.18" y1="-9.03" x2="53.6" y2="22.4" xlink:href="#linear-gradient" />
        <linearGradient id="linear-gradient-4" x1="-1.24" y1="14.39" x2="30.18" y2="45.82" xlink:href="#linear-gradient" />
        <linearGradient id="linear-gradient-5" x1="-9.03" y1="22.18" x2="22.4" y2="53.6" xlink:href="#linear-gradient" />
    </defs>
    <title>color_black</title>
    <g id="Layer_1" transform="matrix(1.2 0 0 1.2 30 50)">
        <path d="M58.17,30.79A8,8,0,0,1,56,25a7.65,7.65,0,0,1,2.25-5.78A7.47,7.47,0,0,1,63.59,17a5.89,5.89,0,0,1,5,2.63V11.12h3.27V32.78H68.6V30.44A6.06,6.06,0,0,1,63.31,33,7,7,0,0,1,58.17,30.79Zm1.08-5.71a4.86,4.86,0,0,0,1.43,3.63A4.64,4.64,0,0,0,64,30.12a4.33,4.33,0,0,0,3.27-1.42,5.07,5.07,0,0,0,1.34-3.63,5.33,5.33,0,0,0-1.34-3.71A4.27,4.27,0,0,0,64,19.88a4.45,4.45,0,0,0-3.36,1.49A5.22,5.22,0,0,0,59.25,25.09Z" />
        <path d="M91,26.44H78.87a3.54,3.54,0,0,0,1.55,2.73,6,6,0,0,0,7.71-.8l1.87,2A8.68,8.68,0,0,1,83.45,33a7.78,7.78,0,0,1-5.56-2.17A7.67,7.67,0,0,1,75.6,25a7.55,7.55,0,0,1,2.34-5.82A7.84,7.84,0,0,1,83.44,17a8,8,0,0,1,5.39,1.91A6.59,6.59,0,0,1,91,24.2ZM78.87,23.87h8.9a3.74,3.74,0,0,0-1.23-3,4.48,4.48,0,0,0-3-1.05,5.17,5.17,0,0,0-3.23,1.1A3.53,3.53,0,0,0,78.87,23.87Z" />
        <path d="M103,17a7.39,7.39,0,0,1,5.34,2.16,7.66,7.66,0,0,1,2.22,5.75,8,8,0,0,1-2.2,5.84,6.83,6.83,0,0,1-10.41-.32v2.34H94.64V11.12H97.9V20A5.82,5.82,0,0,1,103,17Zm-5.11,8a5.07,5.07,0,0,0,1.34,3.63,4.34,4.34,0,0,0,3.27,1.42,4.64,4.64,0,0,0,3.36-1.4,4.86,4.86,0,0,0,1.43-3.63,5.17,5.17,0,0,0-1.4-3.71,4.47,4.47,0,0,0-3.36-1.47,4.29,4.29,0,0,0-3.3,1.47A5.28,5.28,0,0,0,97.85,25Z" />
        <path d="M128.7,26.44H116.53a3.54,3.54,0,0,0,1.55,2.73,6,6,0,0,0,7.71-.8l1.87,2a8.68,8.68,0,0,1-6.54,2.6,7.78,7.78,0,0,1-5.56-2.17A7.67,7.67,0,0,1,113.26,25a7.55,7.55,0,0,1,2.34-5.82A7.84,7.84,0,0,1,121.1,17a8,8,0,0,1,5.39,1.91,6.59,6.59,0,0,1,2.22,5.27Zm-12.17-2.57h8.9a3.74,3.74,0,0,0-1.23-3,4.48,4.48,0,0,0-3-1.05,5.17,5.17,0,0,0-3.23,1.1A3.53,3.53,0,0,0,116.53,23.87Z" />
        <path d="M131.8,20.11v-2.8h12.14v2.95l-8.73,9.69h9.2v2.83H131.21V29.6l8.5-9.49Z" />
        <path d="M148.29,14.15a2,2,0,1,1,1.46.61A2,2,0,0,1,148.29,14.15Zm3.07,18.62h-3.27V17.25h3.27Z" />
        <path d="M166.94,25.66V17.25h3.27V32.78h-3.27V29.95a6.1,6.1,0,0,1-9.41,1.46,6.25,6.25,0,0,1-1.62-4.64V17.25h3.27v8.52q0,4.29,3.56,4.29a4.28,4.28,0,0,0,2.95-1.12A4.18,4.18,0,0,0,166.94,25.66Z" />
        <path d="M178.21,24.37v8.41h-3.27V17.25h3.27v2.83a5.18,5.18,0,0,1,2.12-2.25,6,6,0,0,1,3.05-.82,4.94,4.94,0,0,1,5,3,7,7,0,0,1,5.75-3,5.78,5.78,0,0,1,4.25,1.61A6.25,6.25,0,0,1,200,23.26v9.52h-3.27V24.25q0-4.29-3.56-4.29a4.32,4.32,0,0,0-2.9,1.07,4,4,0,0,0-1.3,3.11v8.64h-3.27V24.25A5.4,5.4,0,0,0,184.9,21a2.92,2.92,0,0,0-2.48-1,4.28,4.28,0,0,0-2.95,1.12A4.18,4.18,0,0,0,178.21,24.37Z" />
        <path class="cls-1" d="M31.26,38.09a5.55,5.55,0,0,0,5.54,5.54h6.84V36.79a5.55,5.55,0,0,0-5.54-5.54h-1.3A8.8,8.8,0,0,1,28,22.46v-1.3a5.55,5.55,0,0,0-5.54-5.54h-1.3a8.8,8.8,0,0,1-8.79-8.79h0V5.54A5.55,5.55,0,0,0,6.84,0H0V6.84a5.55,5.55,0,0,0,5.54,5.54h1.3a8.8,8.8,0,0,1,8.79,8.79v1.3A5.55,5.55,0,0,0,21.17,28h1.3a8.8,8.8,0,0,1,8.79,8.79h0Z" />
        <path class="cls-2" d="M43.64,21.17a5.55,5.55,0,0,0-5.54-5.54h-1.3A8.8,8.8,0,0,1,28,6.84V5.54A5.55,5.55,0,0,0,22.47,0H15.63V6.92a5.55,5.55,0,0,0,5.54,5.46h1.3a8.8,8.8,0,0,1,8.79,8.79h0v1.3A5.55,5.55,0,0,0,36.78,28h6.86Z" />
        <path class="cls-3" d="M43.64,5.5A5.54,5.54,0,0,0,38.32,0H31.15V6.9a5.55,5.55,0,0,0,5.54,5.48h6.95Z" />
        <path class="cls-4" d="M0,22.48A5.55,5.55,0,0,0,5.55,28h1.3a8.8,8.8,0,0,1,8.79,8.79v1.3a5.55,5.55,0,0,0,5.54,5.54H28V36.72a5.55,5.55,0,0,0-5.54-5.46h-1.3a8.8,8.8,0,0,1-8.79-8.79h0v-1.3a5.55,5.55,0,0,0-5.52-5.54H0Z" />
        <path class="cls-5" d="M0,38.14a5.54,5.54,0,0,0,5.32,5.5h7.17v-6.9A5.55,5.55,0,0,0,7,31.26H0Z" />
    </g>
</svg>