<?xml version="1.0" encoding="UTF-8"?><svg id="Layer_1" xmlns="http://www.w3.org/2000/svg" xmlns:xlink="http://www.w3.org/1999/xlink" viewBox="0 0 600 300"><defs><style>.cls-1{clip-path:url(#clippath);}.cls-2{fill:none;}.cls-2,.cls-3,.cls-4,.cls-5,.cls-6,.cls-7,.cls-8,.cls-9,.cls-10,.cls-11,.cls-12,.cls-13,.cls-14,.cls-15,.cls-16,.cls-17,.cls-18,.cls-19,.cls-20,.cls-21,.cls-22,.cls-23,.cls-24,.cls-25,.cls-26,.cls-27,.cls-28,.cls-29,.cls-30,.cls-31,.cls-32,.cls-33,.cls-34,.cls-35,.cls-36,.cls-37,.cls-38,.cls-39,.cls-40,.cls-41,.cls-42{stroke-width:0px;}.cls-3{opacity:.6;}.cls-3,.cls-13,.cls-14,.cls-15,.cls-16,.cls-17,.cls-18,.cls-19,.cls-20,.cls-21,.cls-30,.cls-31{isolation:isolate;}.cls-3,.cls-15,.cls-20,.cls-38{fill:#8b4fba;}.cls-4{fill:url(#linear-gradient);}.cls-5{fill:url(#linear-gradient-11);}.cls-6{fill:url(#linear-gradient-12);}.cls-7{fill:url(#linear-gradient-13);}.cls-8{fill:url(#linear-gradient-10);}.cls-9{fill:url(#linear-gradient-17);}.cls-10{fill:url(#linear-gradient-16);}.cls-11{fill:url(#linear-gradient-15);}.cls-12{fill:url(#linear-gradient-14);}.cls-13,.cls-14,.cls-15,.cls-16,.cls-43{opacity:.2;}.cls-13,.cls-21,.cls-36{fill:#2b2b2b;}.cls-14{fill:#430a1d;}.cls-16,.cls-17,.cls-39{fill:#fff;}.cls-44{clip-path:url(#clippath-1);}.cls-45{clip-path:url(#clippath-2);}.cls-17,.cls-18{opacity:.3;}.cls-18,.cls-32{fill:#f6e8a0;}.cls-19{fill:url(#radial-gradient);}.cls-19,.cls-30,.cls-31{opacity:.7;}.cls-20,.cls-21{opacity:.4;}.cls-22{fill:url(#linear-gradient-4);}.cls-23{fill:url(#linear-gradient-2);}.cls-24{fill:url(#linear-gradient-3);}.cls-25{fill:url(#linear-gradient-8);}.cls-26{fill:url(#linear-gradient-9);}.cls-27{fill:url(#linear-gradient-7);}.cls-28{fill:url(#linear-gradient-5);}.cls-29{fill:url(#linear-gradient-6);}.cls-30{fill:url(#radial-gradient-2);}.cls-31{fill:url(#radial-gradient-3);}.cls-33{fill:#f8d285;}.cls-34{fill:#f9e0e7;}.cls-35{fill:#6500c6;}.cls-37{fill:#0d0d0d;}.cls-40{fill:#e65271;}.cls-41{fill:#e65270;}.cls-42{fill:#fbfafc;}</style><symbol id="New_Symbol_2" viewBox="0 0 6 7"><path class="cls-39" d="m3,7c-.2,0-.4-.1-.5-.2l-2-1.2c-.3-.2-.5-.5-.5-.9v-2.5c0-.3.2-.7.5-.8L2.5.2c.1-.1.3-.2.5-.2s.4.1.5.2l2,1.2c.3.2.5.5.5.9v2.5c0,.3-.2.7-.5.8l-2,1.2c-.1.1-.3.2-.5.2Z"/></symbol><linearGradient id="linear-gradient" x1="74500.65" y1="83.3" x2="74529.12" y2="216.15" gradientTransform="translate(74530.2 -101.96) rotate(-180) scale(1 -1)" gradientUnits="userSpaceOnUse"><stop offset=".38" stop-color="#faa100"/><stop offset=".66" stop-color="#bf73f2"/><stop offset=".66" stop-color="#c370e6"/><stop offset=".69" stop-color="#cc68c7"/><stop offset=".71" stop-color="#d461ab"/><stop offset=".73" stop-color="#db5b95"/><stop offset=".76" stop-color="#e05784"/><stop offset=".8" stop-color="#e35479"/><stop offset=".85" stop-color="#e55272"/><stop offset="1" stop-color="#e65270"/></linearGradient><linearGradient id="linear-gradient-2" x1="74484.62" y1="81.52" x2="74514.94" y2="223.03" gradientTransform="translate(74530.2 -101.96) rotate(-180) scale(1 -1)" gradientUnits="userSpaceOnUse"><stop offset=".38" stop-color="#faa100"/><stop offset=".66" stop-color="#bf73f2"/><stop offset=".66" stop-color="#c370e6"/><stop offset=".69" stop-color="#cc68c7"/><stop offset=".71" stop-color="#d461ab"/><stop offset=".73" stop-color="#db5b95"/><stop offset=".76" stop-color="#e05784"/><stop offset=".8" stop-color="#e35479"/><stop offset=".85" stop-color="#e55272"/><stop offset="1" stop-color="#e65270"/></linearGradient><linearGradient id="linear-gradient-3" x1="74479.73" y1="90.49" x2="74481.54" y2="174.44" gradientTransform="translate(74530.2 -101.96) rotate(-180) scale(1 -1)" gradientUnits="userSpaceOnUse"><stop offset="0" stop-color="#faa7b5"/><stop offset=".38" stop-color="#faa100"/><stop offset=".73" stop-color="#bf73f2"/></linearGradient><linearGradient id="linear-gradient-4" x1="74502.07" y1="99.12" x2="74481.8" y2="134.03" gradientTransform="translate(74530.2 -101.96) rotate(-180) scale(1 -1)" gradientUnits="userSpaceOnUse"><stop offset="0" stop-color="#f6e8a0"/><stop offset="1" stop-color="#e65271"/></linearGradient><linearGradient id="linear-gradient-5" x1="74498.49" y1="120.09" x2="74481.01" y2="150.19" gradientTransform="translate(74530.2 -101.96) rotate(-180) scale(1 -1)" gradientUnits="userSpaceOnUse"><stop offset="0" stop-color="#f6e8a0"/><stop offset="1" stop-color="#e65271"/></linearGradient><linearGradient id="linear-gradient-6" x1="74459.43" y1="97.85" x2="74461.45" y2="133.02" gradientTransform="translate(74530.2 -101.96) rotate(-180) scale(1 -1)" gradientUnits="userSpaceOnUse"><stop offset="0" stop-color="#f6e8a0"/><stop offset="1" stop-color="#e65271"/></linearGradient><linearGradient id="linear-gradient-7" x1="74461.32" y1="132.97" x2="74472.94" y2="81.5" gradientTransform="translate(74530.2 -101.96) rotate(-180) scale(1 -1)" gradientUnits="userSpaceOnUse"><stop offset="0" stop-color="#e65271"/><stop offset=".38" stop-color="#faa100"/></linearGradient><linearGradient id="linear-gradient-8" x1="74501.64" y1="107.2" x2="74458.63" y2="143.84" gradientTransform="translate(74530.2 -101.96) rotate(-180) scale(1 -1)" gradientUnits="userSpaceOnUse"><stop offset="0" stop-color="#f6e8a0"/><stop offset="1" stop-color="#e65271"/></linearGradient><linearGradient id="linear-gradient-9" x1="74462.85" y1="132.85" x2="74504.65" y2="144.21" gradientTransform="translate(74530.2 -101.96) rotate(-180) scale(1 -1)" gradientUnits="userSpaceOnUse"><stop offset="0" stop-color="#faa7b5"/><stop offset=".38" stop-color="#faa100"/><stop offset=".73" stop-color="#bf73f2"/></linearGradient><linearGradient id="linear-gradient-10" x1="74351.61" y1="83.97" x2="74547.92" y2="189.22" gradientTransform="translate(74530.2 -101.96) rotate(-180) scale(1 -1)" gradientUnits="userSpaceOnUse"><stop offset="0" stop-color="#faa7b5"/><stop offset=".38" stop-color="#faa100"/><stop offset=".73" stop-color="#bf73f2"/></linearGradient><radialGradient id="radial-gradient" cx="143734.89" cy="-7266.31" fx="143734.89" fy="-7266.31" r="14.88" gradientTransform="translate(63941.99 26398.54) rotate(-163.15) scale(.48 -.92)" gradientUnits="userSpaceOnUse"><stop offset="0" stop-color="#fff"/><stop offset="1" stop-color="#fff" stop-opacity="0"/></radialGradient><radialGradient id="radial-gradient-2" cx="125310.78" cy="-53323.52" fx="125310.78" fy="-53323.52" r="23.26" gradientTransform="translate(59992.95 25553.38) rotate(-180) scale(.48 -.48)" gradientUnits="userSpaceOnUse"><stop offset="0" stop-color="#fff"/><stop offset="1" stop-color="#fff" stop-opacity="0"/></radialGradient><radialGradient id="radial-gradient-3" cx="125310.8" cy="-53323.51" fx="125310.8" fy="-53323.51" r="23.25" gradientTransform="translate(59992.95 25553.38) rotate(-180) scale(.48 -.48)" gradientUnits="userSpaceOnUse"><stop offset="0" stop-color="#fff"/><stop offset="1" stop-color="#fff" stop-opacity="0"/></radialGradient><linearGradient id="linear-gradient-11" x1="74432.26" y1="174.66" x2="74443.27" y2="199.49" gradientTransform="translate(74530.2 -101.96) rotate(-180) scale(1 -1)" gradientUnits="userSpaceOnUse"><stop offset="0" stop-color="#faa7b5"/><stop offset=".38" stop-color="#faa100"/></linearGradient><linearGradient id="linear-gradient-12" x1="74505.52" y1="102.98" x2="74514.55" y2="171.59" gradientTransform="translate(74530.2 -101.96) rotate(-180) scale(1 -1)" gradientUnits="userSpaceOnUse"><stop offset="0" stop-color="#faa7b5"/><stop offset=".38" stop-color="#faa100"/><stop offset=".73" stop-color="#bf73f2"/></linearGradient><linearGradient id="linear-gradient-13" x1="74513.18" y1="101.98" x2="74522.21" y2="170.58" gradientTransform="translate(74530.2 -101.96) rotate(-180) scale(1 -1)" gradientUnits="userSpaceOnUse"><stop offset="0" stop-color="#faa7b5"/><stop offset=".38" stop-color="#faa100"/><stop offset=".73" stop-color="#bf73f2"/></linearGradient><linearGradient id="linear-gradient-14" x1="74526.38" y1="131.23" x2="74522.33" y2="178.97" gradientTransform="translate(74530.2 -101.96) rotate(-180) scale(1 -1)" gradientUnits="userSpaceOnUse"><stop offset="0" stop-color="#faa7b5"/><stop offset=".38" stop-color="#faa100"/><stop offset=".73" stop-color="#bf73f2"/></linearGradient><linearGradient id="linear-gradient-15" x1="74454.29" y1="91.03" x2="74456.1" y2="174.99" gradientTransform="translate(74530.2 -101.96) rotate(-180) scale(1 -1)" gradientUnits="userSpaceOnUse"><stop offset="0" stop-color="#faa7b5"/><stop offset=".38" stop-color="#faa100"/><stop offset=".73" stop-color="#bf73f2"/></linearGradient><linearGradient id="linear-gradient-16" x1="74437.24" y1="155.25" x2="74441.7" y2="162.63" gradientTransform="translate(74530.2 -101.96) rotate(-180) scale(1 -1)" gradientUnits="userSpaceOnUse"><stop offset="0" stop-color="#faa7b5"/><stop offset=".38" stop-color="#faa100"/><stop offset=".73" stop-color="#bf73f2"/></linearGradient><clipPath id="clippath-1"><rect class="cls-2" x="88.86" y="55.4" width="1.2" height="1.4"/></clipPath><clipPath id="clippath-2"><rect class="cls-2" x="88.91" y="55.43" width="1.21" height="1.41"/></clipPath><linearGradient id="linear-gradient-17" x1="74451.84" y1="118.26" x2="74451.84" y2="118.26" gradientTransform="translate(74530.2 -101.96) rotate(-180) scale(1 -1)" gradientUnits="userSpaceOnUse"><stop offset="0" stop-color="#e65271"/><stop offset=".38" stop-color="#faa100"/></linearGradient><symbol id="New_Symbol_3" viewBox="0 0 100.9 101.6"><path class="cls-41" d="m64.56,101h-28.3c-2.8,0-5.6-.4-8.1-1-10-2.6-17.6-8.6-22.5-17.6-2.4-4.4-3.7-9.2-4-14.5-.1-2.3,0-4.7.4-7.1,0-.3.1-.6.1-.9l.1-.6.2.2c.1.1.1.2.2.3.1.3.2.6.3,1,.2.7.4,1.4.6,2,1.7,4.9,4.3,9.4,7.9,13.9.1.2.3.4.3.6,1.2,3.8,3.4,7,6.3,9.7,2.9,2.6,6.4,4.5,10.3,5.8-2.5-1.1-4.9-2.5-7-4.1-3.4-2.7-5.9-6-7.4-9.9-.1-.4-.3-.9-.1-1.4.1-.2.1-.4.2-.5,0-.1.1-.3.1-.4.8-2.6,2-4.6,3.6-6.1,1.5-1.5,3.5-2.5,6-3.3,2.3-.7,4.8-1,7.1-1.3l1-.1c1.3-.2,2.7-.4,4-.6l.8-.1c.3,0,.6-.1.9-.2l.7-.2-.2.3v.1c-1.2,1.4-2.3,2.9-3.1,4.5-.1.1-.2.3-.4.3-.2.1-.3.1-.5.2-.6.2-1.1.4-1.7.5s-1.3.2-1.9.3c-.5.1-1,.1-1.5.2-1.7.3-2.9.8-3.9,1.6.2-.1.4-.1.6-.1.3,0,.6-.1.9-.2,1.5-.5,3.2-.8,5.3-.8h2.1l-.1.2c-1.5,4.8-1.4,9.6.1,14.2-.7-3.1-.8-6-.4-8.7.6-4.2,2.5-7.9,5.6-10.9,2.1-2,4.7-3.7,7.9-5.1,2.8-1.3,5.8-2,8.6-2.7l.5-.1c2-.5,4-1,6-1.6,3-.9,5.6-2.3,7.7-4.3.3-.3.7-.6,1-1,2-2.6,4.4-4.5,7.3-5.7.1,0,.2-.1.2-.2.9-1.5,2-2.6,3.4-3.4.7-.2,1-.3,1.3-.3.4,0,.7.1,1.1.4.1.1.3.2.4.3.5.5.9,1.1,1.2,1.9,0,.1.1.1.2.1.3,0,.7.1,1.1.2,5.8,1.2,9.9,5.6,10.6,11.7v.5c0,.4.1.8.2,1.1.1.5.4.9.6,1.3,0,.2.1.4.2.6.1.2.2.3.2.5.2.4.4.8.5,1.2.2.6.3,1.3.1,1.9-.1.3-.2.3-.3.3s-.1,0-.2-.1c-.2-.1-.3-.2-.5-.3q-.1-.1-.2-.2c-.1-.1-.2-.1-.2-.2-.2-.1-.4-.3-.6-.4-.1,0-.1-.1-.2-.1s-.1,0-.2.1l.3.2c.5.4,1,.9,1.5,1.3.1.1.2.3.2.4-.1.9-.4,1.7-.9,2.2-.7.7-1.4,1-2.2,1h-.5c0,.3-.1.4-.4.6-1.6.9-3.2,1.3-4.8,1.3h-.3c-1.1,0-2.2.3-3.4,1-.4.2-.8.4-1.1.5-1,.3-2.1.4-3,.4.4.1.8.1,1.3.1h1.5c.2,0,.3,0,.4.1.8.3,1.7.8,2.4,1.2.2.1.3.1.4.1h.2l.2-.1c.4-.2.9-.3,1.3-.5,1-.4,1.8-.6,2.7-.6h.7c.6.1,1.2.2,1.9.6.3.2.7.5.7,1.1l.1.1q.1.1.2.2c.1.1.2.1.2.2.5.4.7,1,.6,1.6,0,.2-.1.6-.4.6-.1,0-.2,0-.4-.1-.1,0-.1-.1-.2-.1.2.1.3.2.5.3.4.3.6.7.6,1.2,0,1.2-1.3,2.3-2.6,2.3h-.5c-.4-.1-.9-.2-1.1-.7h-.2c-.3,0-.5,0-.8.1h-.1c-.4.1-.9.2-1.3.2h-.5c-.2,0-.4-.1-.6-.1h-.1c-.2.7-.6,1.5-1.1,2.1-1.1,1.4-2.6,2.5-4.6,3.1-1.4.5-3,.7-4.6.7-.8,0-1.7-.1-2.6-.2-3.5-.5-6-2.4-7.4-5.7-.2-.6-.4-1.1-.5-1.7-.1-.3-.1-.6-.2-.8-.4-1.4-.9-2.7-1.6-3.9-1.2-2.1-2.7-3.6-4.6-4.6-1.5-.8-3.1-1.2-4.9-1.2-.7,0-1.5.1-2.3.2-.2,0-.3.1-.5.1.5,0,1.1.1,1.6.1,2.4.2,4.6,1,6.6,2.2,2.6,1.7,4.2,3.7,4.9,6.3.4,1.5.9,2.9,1.6,4.3.4.8.9,1.8,1.7,2.5,1,1.1,2.4,1.9,4.2,2.4.5.1,1,.3,1.5.5.3.1.5.3.6.6.3.8.4,1.5.2,2.3-.2,1.1-.7,2.1-1.6,3.1-.7.8-1.5,1.4-2.4,1.9-.4.3-.8.6-1.2.9-.3.3-.5.6-.4,1,0,.6.1.6.2.6s.2,0,.5-.1c.1,0,.2-.1.3-.1l.7-.3c.4-.2.8-.3,1.2-.5.9-.4,1.7-.5,2.5-.5.4,0,.9.1,1.3.2,1.5.4,2.5,1.3,3,2.7.1.4.1.7-.1,1-.1.2-.3.3-.5.3s-.4-.2-.5-.3-.1-.2-.1-.3v-.1c-.1-.5-.3-.8-.6-1.1.5.7.7,1.4.7,2.2s-.6,1.4-1.5,1.4h-.1c-.3,0-.5-.2-.5-.5v-1.7c-.1-.4-.3-.7-.8-.9h-.1c.1.1.3.2.3.3.2.3.3.6.4.9.2.8,0,1.5-.6,1.9-.3.2-.7.3-1,.3h-.4c-.5,0-1-.1-1.5-.2l-.2-.1c-.5-.1-.9-.2-1.3-.2-.3,0-.7.1-1,.1h-.2c-2.5.5-4.8.7-7,.7l-.5-.3Z"/><path class="cls-14" d="m85.16,71.4s-3.7,4.5-10.1,1.9c-5.8-2.3-3.6-8.7-3.6-8.7,0,0,1,4,4,5.5,4.3,2.2,9.7,1.3,9.7,1.3Z"/><path class="cls-14" d="m66.76,73.4c.8.8.8,1.7,1.1,2.7.5,1.9,1.1,3.6,2.3,5.2,1.2,1.5,2.6,2.6,4.4,3.3,1.6.6,3.6.4,3.3,2.8l-.5,2c-4,0-7.8-1.8-9.4-5.9-1.4-3.5.2-7.8-3.9-13.7.4.3,2.3,3.1,2.7,3.6Z"/><g class="cls-43"><path class="cls-36" d="m65.16,71.6c.1.2.1.5.2.8-.1-.2-.2-.5-.2-.8Z"/></g><path class="cls-4" d="m18.16,87c-15.2-1.5-17-16.7-17-16.7,0,0-.8-7,1.1-13.9,1.2,12.5,11.2,21.2,11.2,21.2,0,0,2.2,7.2,4.7,9.4Z"/><path class="cls-13" d="m14.26,81.2s-3.2.3-7.5-4.9c4.1,7.5,9.4,7.6,9.4,7.6l-1.9-2.7Z"/><path class="cls-23" d="m22.56,89.9c-.8-14,7.4-7.5,11.7-15,1.2-6.5,4.8-10.6,4.8-10.6,0,0-25.5-4.8-25.9,13.8.9,4,4.8,7.9,7.2,10-.5-1.1-6.6-17.8,13.7-16.5-7-.6-17.1,6.7-12.3,17.7.5.4.8.6.8.6Z"/><path class="cls-16" d="m29.46,69.7c-5.3,2-14.2,2-11.7,15.4-.4.3-2.4-2.9-1.9-2.5-2.4-12.1,8.2-11.4,13.6-12.9Z"/><path class="cls-3" d="m36.16,64.9c5.1-2,1,3.7.2,4.6-1.7,2.1-5.9,1.4-8.2,2.1-1.3.4-6.5,1.2-8.3,6.1-.8,2.2-1.1,5.8.6,10.1-.4.3-3.1-2.6-2.6-2.3-4.3-19.2,16.1-12.3,18.3-20.6Z"/><path class="cls-34" d="m87.06,57c.1-.4.4-.9.7-1.2q.1,0,.2.1c.5-.3,1.3-.3,1.9-.3.4,0,.9-.1,1.3,0,.5.2.5.8.7,1.2.4.8,1.7.8,1.7,1.9,0,.5.1,1.2,0,1.7-.1.4-.5.3-.9.3h-3.3l-1.5-1.1c-.4.1-.7-.7-.8-1-.1-.5-.1-1.2,0-1.6Z"/><path class="cls-39" d="m92.26,58.5c.2-.1.5-.4.6-.6.1-.1.1-.2.2-.2.5,0,.5.6.4,1,0,.4-.2.8-.3,1.2-.2,0-.2-.2-.4-.3h-.5c-.2,0-.5.1-.7.1l.7-1.2Z"/><path class="cls-24" d="m31.46,37.9l.1-.1c2-1.9,3.1-4.3,3.7-7,.4-1.8-.1-3.3-.9-4.8l-.1-.1c-.2.5-.3,1-.5,1.5-.4,1.2-.9,2.3-1.7,3.3-.3.4-13.6,7.8-12.2,24.1v.3c.2-.2.5-.5.7-.7.9-.7,1.9-1.1,3-1.4,2-.5,3.9-1,5.9-1.5,2.2-.5,4.5-1.1,6.6-1.9,1.2-.5,2.4-1.1,3.4-1.8,1.6-1.1,3-2.4,4.2-4,.7-.9,1-1.6,1.3-2.6.2.5.1,2-.2,3-.3,1-.8,1.9-1.5,2.6.2-.1.3-.1.5-.2,2-1.1,3.7-2.4,5-4.2.8-1.2,1.3-2.6,1.4-4.1v-.1c.4,1.9.3,5-1.7,7.2.7-.2,1.3-.5,2-.7.6-.2.9-.5,1.2-1,1.4-2.1,2.5-4.4,3.1-6.9.5-1.9.6-3.8.1-5.8-.6-2.2-1.9-3.9-3.7-5.2-1.2-.9-2.6-1.6-4.1-2.2-.1,0-.2-.1-.3-.1l-.1-.1c.5.1.9.3,1.4.4,2.1.6,4,1.4,5.8,2.7,1.6,1.1,2.8,2.6,3.4,4.4.5,1.7.5,3.4.1,5.1-.6,2.5-1.7,4.7-3.1,6.7,0,.2,0,.3-.1.3v.1q.1,0,.1-.1c2.9-1.5,5.5-3.4,7.6-6,2-2.5,3.5-5.3,4.2-8.4.9-4-.1-7.5-2.7-10.6-1.6-2-3.6-3.5-5.9-4.7-2.9-1.6-5.9-2.6-9.2-3.1-1.8-.3-3.7-.3-5.5,0-1,.2-1.7.5-2.8,1.1.1-.1.3-.2.4-.4,1-.8,2.2-1.2,3.4-1.4,2-.4,4-.4,6.1-.2,3.1.4,6.1,1.2,9,2.6.3.1.6.3.9.4v-.7c0-.3.2-.5.5-.6.3,0,.4.1.5.3,0,.2.1.4.1.7.1.5.3.9.6,1.3l.1.1h.1v-1.5c0-.1.1-.2.1-.2.1,0,.2,0,.3.1.1.2.3.4.3.6.1.4.2.9.3,1.3.1.3.2.5.4.8.2.2.4.2.5-.1s.1-.6.1-.9v-.3c0-.1.1-.1.1-.2.1.1.2.1.2.2.1.2.1.4.1.5v1.2c0,.2.1.4.2.6.1.2.3.2.4,0,.1-.3.1-.7.2-1,0-.2.1-.4.1-.7.3.2.3.5.4.7.1.6.1,1.3.2,1.9,0,.5.2.9.5,1.3.5.8,1,1.6,1.4,2.3.2.4.5.4.7,0,.3-.5.4-1,.7-1.5.1-.2.2-.4.3-.7,0-.1.1-.2.2-.3.3.2.3.4.3.7-.1.4-.2.7-.3,1.1-.1.4-.2.8-.3,1.2,0,.2,0,.4.1.5.1.2.3.3.4.1.2-.2.3-.4.5-.6.1-.1.2-.2.4-.2.1.1.2.3.2.4,0,.3-.1.6-.2.9-.2.6-.5,1.1-.7,1.7-.1.4-.2.9-.2,1.3,0,.1.1.3.2.3s.3-.1.3-.1c.4-.4.7-.8,1.1-1.2l.3-.3s.1,0,.1.1c0,.2,0,.5-.1.7-.1.4-.3.7-.5,1-.3.5-.7,1-1,1.5-.6.9-1,2-1.3,3.1-.2.8-.4,1.6-.7,2.3,0,.1-.1.2-.1.3.2-.3.4-.6.6-1,.4-.7.9-1.3,1.6-1.7.3-.2.7-.4,1.1-.6,1.9-.7,3.9-1.4,5.7-2.3.5-.3,1-.6,1.5-.9.6-.4.8-1,.6-1.8-.1-.5-.3-1-.4-1.6-.3.5-.6,1-.9,1.4s-.7.8-1.3,1.1q.1-.1.1-.2c.8-1.1,1.3-2.4,1.6-3.7v-.4c-.2-1-.1-1.9,0-2.9v-.6c0-.1-.1-.2-.2-.2s-.2,0-.2.1c-.2.3-.4.5-.5.8-.5,1.2-1,2.3-1.5,3.5-.5,1.7-1.2,3.2-2.2,4.4-.5.6-1,1-1.6,1.4-.1.1-.3.1-.4.2,1-1,1.2-2.4,1.3-3.7.1-1.7,0-3.4,0-5.2,0-1.9.2-3.7.7-5.5,0-.1,0-.2-.1-.2-.2-.3-.4-.6-.5-.9-.3-.7-.5-1.3-.8-2q-.2-.4-.6-.4c-.5,0-.7-.2-1-.5-.2-.2-.3-.2-.4,0-.1.3-.2.6-.4.9-.1.1-.2.2-.3.3-.1-.1-.2-.2-.2-.3,0-.4,0-.7-.1-1.1,0-.2,0-.4-.1-.5,0-.1-.2-.2-.2-.2-.1,0-.2.1-.2.2-.1.3-.1.5-.2.8-.1.2-.2.2-.3.1-.9-1.3-2.2-2.2-3.5-2.9-.4-.2-.8-.5-1.2-.7h-.1c0,.4.1.9.1,1.3,0,0-.1,0-.1.1-.1-.1-.3-.2-.4-.3-.3-.3-.5-.6-.7-.9-.5-.6-1.2-1-1.8-1.2.2.7.4,1.3.6,2h-.1c-.1-.1-.1-.2-.2-.2-.2-.2-.3-.5-.4-.7-.6-1.1-1.5-1.7-2.7-1.9-.8-.1-1.6-.2-2.5-.3-.6,0-1.2-.1-1.7-.4-.4-.2-.8-.3-1.2-.4h-.2v.3c.2.4.4.7.6,1.1.1.1.1.3.2.4l-.1.1c0-.4-.1-.5-.2-.5-.5-.3-1.1-.5-1.6-.8s-1.1-.3-1.7-.4c-1.8-.1-3.5,0-5.2.5-1,.3-2,.8-2.9,1.5h.3c1-.2,2.1-.4,3.1-.4.7,0,1.4.1,2.1.5.1.1.2.2.2.3-.1.1-.3.1-.4.1-.3,0-.7-.2-1-.2-.9-.1-2,.2-3,.5-2.4.7-4.7,1.8-6.7,3.3-.5.4-1,.7-1.5,1-1,.6-1.8,1.5-2.5,2.5-.1.1-.1.2-.2.4-.1.4,0,.7.3.9.2.1.5.2.8.3,3.7.9,6.4,3.9,6.8,7.6.2,1.4.4,2.8.3,4.2-.2,3.3-1.3,6.1-3.5,8.5-1.3,1.4-2.8,2.6-4.5,3.6h-.2Z"/><path class="cls-15" d="m78.36,16.3c-1.6,12.1-6.9,9.4-10.5,16.2-.2-.3-.6,1.8.3-2,.9-3.9,3.4-2.1,5.8-6.5,3.1-5.6,2.5-6.1,4.4-7.7Z"/><path class="cls-17" d="m62.26,16.5c-.6,3.5-5.5,3.3-9.7,1.8-4.6-1.6-14.1-2.1-14.8-.2-.4.4-1.1-1.4-1.1-1.4,0,0,7.2-7.9,19.3.4-.5-.8,4.3-3,4.3-3,0,0,1.4-.3,2,2.4Z"/><path class="cls-15" d="m37.26,49.9c.3.6,2.4.2,2.6-.8-3.1-3.6,5.1-10.1-2.5-18.7,5,13.2-5.7,13.8-.1,19.5Z"/><path class="cls-3" d="m37.26,49.9c.3.6.2.5.4-.6-3.1-3.6,5.2-8.8-.3-18.9,5,13.2-5.7,13.8-.1,19.5Z"/><path class="cls-22" d="m48.76,47.3c15.1-15.9-4-13.3-10.3-24.1v-.6c0-1.5-.4-2.9-1-4.2,5.8,8.7,20.6,1,17.8,18.7-.2,1-2.3,10-6.5,10.2Z"/><path class="cls-28" d="m48.76,47.3c-6.3,3-11.7,3.1-11.4,2.2,12.4-8.4,2.4-17,.1-25.2.2-.7,1.2-.9,1.2-1.6v-.2c.2.8.6,1.1,1,1.5,5.6,5.7,23.9,7.7,9.1,23.3Z"/><path class="cls-40" d="m46.76,47.1c9.6-14.3-8.3-17-8.2-21.6-1.4,9.3,15.8,13.3-.3,24.5-.3.9,2.3.1,8.5-2.9Z"/><path class="cls-29" d="m73.56,22.2c.8,1.3-.1,2.8-1,4.2-.8,1.3-2.8.9-4.1,4l.1-2.4c1.5-2.6-1-6.1-1.7-8.6-1.2-4.1-2.5-7.9-.9-12,.1-.3.2-.6.3-.9.8.6,1.4,1.2,2.1,2,.4.6.3-1.5.9-1.1.4.3,0,1.8.4,2.1.5.4.7-1.9,1.1-1.4.8,1.2,1.2.4,1.6.8.3.3,1,2.8,1.3,3.1s.5.7.8,1c-.2,1.8-.5,3.8-1.1,5.4-.7,1.6-.7,2.3.2,3.8Z"/><path class="cls-40" d="m52.26,3.5h.1c.4,0-1.1-2-.7-2,.8,0,1.8.8,2.5.8,1.6.1,3.2.1,4.5.7,1.3.6,1.9,2.5,2.2,2.6s-.7-2.2-.4-2.1c.5.2.9.4,1.2.7,1.3,1.9,1.7,11.1-.2,10.8-2-.2,3.2.7,3.2.6,1.7-6.5-2.1-10.5-1.9-10.3.2.3.4.5.6.6.4.2-.3-1.6.1-1.3,1.2.7,2,1.2,2.7,1.8,0,0,0,.1.1.1.5-.2,3.7-1,1.3,10.4,3.7-7.4.8-10.3,1.1-10,1.3,1.4,1.6,4.8,1.7,6.8.2,1.9-1,6.2-2.6,7.7-1.1,1-1.1-.2-1.5-1.2-.7-1.6-1.9-2.9-3-4.2-.8-1-1.8-1.7-2.8-2.5-1-.9-1.5-2.3-2.4-3.3-.8-.9-1.8-1.7-2.5-2.6-.9-1.1-1.4-2.3-2.4-3.3-.2-.3-.6-.5-.9-.8Z"/><path class="cls-27" d="m59.26,2.5c2.2,0,3.6,1.1,5.5,2.1,1.5.9,3.4.9,4.7,2,1.7,1.6,2.5,3.1,2.8,5.4.4,2.6.4,5.9-.1,8.5-.3,1.3-1.2,4-2.2,5l-1.2-.8c-2.3-6-9.4-8.5-12.1-14.5-.8-1.8-1.1-4-1.1-6-.1-2,2.1-1.7,3.7-1.7Z"/><path class="cls-32" d="m37.06,17.7c-1.3-2-3.4-3.5-5.8-4-.6-.1-1.7-.5-.6-1.8,1.2-1.8,2.8-2.5,3.7-3.2,3.6-2.7,2.1-3,4.2-3.2.8-.1.6-.2,1,0s-.3-.1-.6-.3c-2.4-1.6-2.2,1.6-1.2.9,3-2.3,10-4,11.9-3.6.3,0,2.2,1.2,2.5,1.2.4,0-1.1-2-.7-2,.8,0,1.8.8,2.5.8,1.5.1,6.1,2.2,6.1,7.8,0,1.7.1,2.9-.1,4-1.4,8.1-18.5-3.3-22.9,3.4Z"/><path class="cls-39" d="m57.46,12.6c-.8-1-5.9-2.8-5.9-2.8,0,0-8.5-2.9-16.4,5.4,4-3.2,11.1-1.9,16.2-1.3.7.1-1.5-.6-.9-.8,1.9-.7,3.7,1.3,5.6.9.8-.1,1.4-.5,1.4-1.4Z"/><path class="cls-32" d="m50.96,11.3c-3.1-.8-6.3.4-6.9.4.3-.4.7-1.4,3.1-1.8.5-.1,1.6,0,2.2,0,1,0,1.6.2,2.5.7.6.3,1.9.6,2.4.5,0,0,4.8.4,3.2,2-1.6,1.6-3.9-2.1-9-.9-.1-.2,1.1-1,2.5-.9Z"/><path class="cls-33" d="m46.16,4.5c-2-1.3-5.4-.2-5.9-.2,0,0,0-.1.1-.1,3-2.3,7.5-2.1,9.4-1.8h.1c.4.2,1.8.9,2.3,1.1,2.9,1.7,7.6,5.2,8,10.8-1.7-.7-2.9-1.5-3.8-2.2-.3-.2-7.3-7.6-25.9,1.2,0,0-.5-.3-.2-.9,4.2-6.7,11.9-8.7,24.1-2.3-1.7-2.1-2.6-3.9-8.2-5.6Z"/><path class="cls-25" d="m58.06,42.4c6.9-7,9.7-12.3,6.4-18-5.4-9.2-22,.4-29.2-8.9.8.9,2.4,2.6,4,3.5,5.4,3.5,15.4,2.4,18.7,5.1,4,3.5,5,10.5.1,18.3Z"/><path class="cls-26" d="m35.66,27.7c0,.5,1.1,3.2.9,3.8-1.4,5.4-7.7,8-7.7,8,0,0-7,2.8-8.2,15.8-1.3.9-1.1-1-1.1-1.9.8-17,15-15.1,16.1-25.7Z"/><path class="cls-8" d="m59.56,55.7c-.1,0-.2-.1-.3-.1-.6-.2-1.3-.4-1.9-.5-.2-.1-.4-.2-.6-.2v-.1c.2,0,.4-.1.7-.1h2.7c1.3,0,2.5,0,3.7-.4.6-.2,1.2-.5,1.7-.8,5.7-3.2,9.8-7.8,12.2-13.9.5-1.2.9-2.5,1.2-3.8v-.3c-.1.1-.2.1-.2.1-3.5,2.4-7.3,4-11.5,4.8-1.5.3-3,.4-4.5.5-.1,0-.3,0-.3.1-2.3,2.3-5,4.1-7.9,5.5-2.3,1.1-4.7,1.8-7.2,2.3-3.2.6-6.4,1.2-9.6,1.8-3.9.8-7.9,1.6-11.7,2.9-2.4.8-4.8,1.8-6.9,3.2-1.6,1.1-3,2.3-4.1,4-.4.6-.6,1.2-.9,1.9-.1.1-.1.2-.2.3-2.1,2.1-3,4.6-2.6,7.5.2,2.2,1,4.2,2.1,6,.1.2.2.4.3.6.1-.5.1-1,.2-1.5.5-3.3,2.2-5.8,5.1-7.5,1.7-1,3.5-1.6,5.4-2,2.1-.5,4.2-.8,6.3-1.2,2.6-.5,5.1-.8,7.6-1.6.5-.2,1-.3,1.4-.5.6-.2,1.2-.5,1.7-.9,1.8-1.3,3.7-2.3,5.7-3.1q.1,0,.2-.1h-6.9c-2,0-4.1.1-6.1.3-2.8.4-5.5,1.1-8.1,2.1-3.1,1.2-6,2.7-8.9,4.4-.1,0-.2.1-.3.1.1,0,.1-.1.2-.1,3.1-2.4,6.4-4.4,10.1-5.8,2.5-1,5.2-1.6,7.9-1.9,2.4-.3,4.8-.2,7.2-.1,2.2.1,4.2.2,6.3.4.2,0,.4,0,.5-.1,2.1-.6,4.2-1,6.3-1.3,1.3-.2,2.5-.5,3.7-.7.2,0,.2-.1.3-.2q0,.1,0,0Z"/><path class="cls-16" d="m21.36,62.7c8.1-9.7,29.2-4.6,38.2-7-5.7,3.3-10.3,2.7-10.3,2.7,0,0-19.4-2.1-27.9,4.3Z"/><path class="cls-40" d="m83.56,25.9c-.3,0-.5.1-.7.1-.7.2-1.5.4-2.2.7-.7.3-1.3.8-1.8,1.2-1.1.9-2.1,1.8-3.2,2.7-.9.7-1.8,1.4-2.9,1.7-.4.1-.7.2-1.1.2,1.5-.7,2.3-2,3.1-3.4h-.1c-2.2,1.1-4.4,2.3-6.4,3.8-.5.4-.9.9-1.2,1.5-.5,1-1.1,1.9-1.6,2.9,0,0-.1.1-.1.2.5-.1.9-.2,1.3-.3,1.7-.4,3.4-1.2,5-2,2.5-1.3,4.9-2.8,7.2-4.4.1,0,.1-.1.2-.1,0,0,0,.1-.1.1-2.7,2.7-5.8,5-9.4,6.4-1.5.6-3.1,1.1-4.8,1.2q-.1,0-.2.1c-.4.4-.7.9-1.1,1.4,1-.2,2-.4,2.9-.6,2.7-.6,5.3-1.4,7.8-2.5,1.8-.8,3.6-1.8,5.1-3.2,1.9-1.8,3.4-4,4.2-6.6-.1-.2,0-.6.1-1.1Z"/><path class="cls-3" d="m37.46,50.6c.8-.3,1.7-.6,2.6-1,11.4-3.5,15.1-6.4,15.1-6.4l11.4-8.4s1.9,1.4,4.3-.4c-1.6,2-6.7,3.5-6.7,3.5,0,0-.2,1.5-1.9,2.7,4.5-1.5,12-1.1,17.2-5.8-3.9,11.1-13.7,2.6-23.2,9.6-1.1.6-15.5,4.3-8.3,4.1,7.2-.3,11.9,4.6,17.9,3-5.7,2-10.6-1.2-18.5-1.8,1.3.3,2.9.9,3.6,1.9-2.8-2-8.4-2.1-9.7-1.7-1.2.2-2.4.4-3.8.7Z"/><path class="cls-13" d="m64.66,54c-8.2,3.3-37.3-6.2-50.4,8.5,0,0-1-.4,4.2-6.3,20.4-9.7,35.7-.5,46.2-2.2Z"/><path class="cls-19" d="m77.36,41c2.4-1.4.5,2-2,4-9.6,6.7-13.9-1-23.4,2.7,14.5-8,15.9,2,25.4-6.7Z"/><path class="cls-15" d="m76.56,42.9c2.5-1.4,1.2.1-1.2,2.1-9.6,6.7-13.9-1-23.4,2.7,9.3-5.2,15.2,3.9,24.6-4.8Z"/><path class="cls-30" d="m29.26,39.3c-4.4,4.1-1,13-1,13l-3.2.7c.1-.1-3.1-8.7,4.2-13.7Z"/><path class="cls-31" d="m36.86,32.5c3.3,6-5.5,14.1-.8,17-.1.4-2.7,1.7-2.6,1.3-5.9-9,3.8-11.2,2.5-16.8-6.8,9.3-6.9,11.1-3.6,17,0,0-.4.5-.8.2-5-3.8-6.4-8.1,5.3-18.7Z"/><path class="cls-15" d="m47.86,44.6c.2,2.8,2.2-1.7,2.5-4.9.2-11.7-11.7-8.8-12.2-18.3-1.2,10.8,11.7,10.5,9.7,23.2Z"/><path class="cls-17" d="m59.36,40c.2,2.8,5.8-4.4,6.1-7.5-1.9-20.1-22.6-7.9-28-15.3,4.5,8.1,33.4-3.2,21.9,22.8Z"/><path class="cls-5" d="m97.16,79c-.3.3-.6.5-.8.7s-.5.3-.7.4c-.6.3-1.2.3-1.8,0-1-.5-2-.5-3-.4-.3,0-.5.2-.6.5-1,2.1-2.8,3.5-5,4.4-.2.1-.4.2-.4.5-.1.7-.2,1.4,0,2,.3,1.1.9,1.9,1.9,2.5s2,1,3.1,1.3c1.3.3,2.7.5,4,.5.7,0,1.4-.1,2-.3,1.5-.5,2.4-1.4,2.8-3,.2-1,.4-2,.5-3,.2-2.3-.4-4.3-1.9-6.1q-.1.1-.1,0Z"/><path class="cls-18" d="m92.86,79.2c.1.7,1.4.9,2,.9,1.1,0,1.7-.6,2.4-1.4.1-.1.2-.3.3-.4,1.2.9,1.9,2.2,1.7,3.5-.3,2.3-3.2,3.8-6.4,3.4-2.2-.3-4-1.5-4.8-2.9.6-.7.8-1.7,1.6-2.3.7-.7,2.2-.8,3.2-.8Z"/><path class="cls-6" d="m15.46,57.5c.7.3,1.2.4,1.6.3-.5-2.5-.7-5-.7-7.6.1-2.8.6-5.5,1.8-8.1.2-.3.3-.6.5-.9v.1c-.7,1.7-1,3.4-1.1,5.2-.1,2.8.2,5.5.8,8.2q0,.1.1.2c.4-.3.8-.5,1.1-.8v-.2c-.1-1.6-.1-3.3.1-4.9.3-2.3.8-4.6,1.7-6.8,1.2-3.1,2.7-5.9,4.6-8.6,0-.1.1-.1.1-.2v-.1c-.3.1-.5.2-.8.3-1.8.6-3.5,1.4-5.1,2.2-.3.1-.5.3-.7.5-2.3,2.1-3.7,4.7-4.3,7.7-.1.4-.2.9-.3,1.4,0-.5,0-1,.1-1.5.2-2.4.7-4.7,1.5-7,.2-.6.1-1.1,0-1.6,0-.2-.1-.3-.2-.5-.1.1-.3.2-.4.4-.7,1.1-1.1,2.2-1.4,3.4-.5,1.8-.9,3.7-1.1,5.6-.2,1.8-.4,3.5-.4,5.3s.1,3.6.7,5.3c.3.8.7,1.6,1.2,2.2,0,.1.3.3.6.5q-.1,0,0,0Z"/><path class="cls-13" d="m23.56,33.3s-4.4.6-6.3,3.7-2.4,8.3-2.4,8.3c0,0-1,7.8,2.2,12.4-2.1-16.7,6.5-24.4,6.5-24.4Z"/><path class="cls-7" d="m15.46,57.5q-.1,0,0,0c-1-.4-1.7-1-2.3-1.7-.9-1.1-1.3-2.4-1.6-3.8-.4-2-.4-4.1-.3-6.2.1-1.2.3-2.3.4-3.5v-.2q-.1.1-.2.1c-3.4,3.5-6,7.6-7.6,12.2v.4c1,3.2,2.4,6.2,4.2,9,.7,1.2,1.6,2.3,2.4,3.5.1.1.1.2.2.3,0-.6.3-1.1.1-1.6-.3-.7-.5-1.5-.5-2.3,0-.3.1-.6.3-.9.2.6.4,1.2.8,1.6.1-.2.2-.5.1-.7-.3-1-.5-1.9-.5-3,0-.3.1-.6.2-.9.3.8.7,1.4,1.3,2l.1-.1c.7-1.5,1.6-2.8,2.7-4,.1,0,.1-.1.2-.2Z"/><path class="cls-13" d="m11.96,61.4s-5-9.8-2.7-18.2c.3-.2-.5.4-1.4,1.4-.1.2-1.8,11.3,1.6,16.1-4.6-5.4-2.4-15.1-2.6-14.8-.4.6-.8,1.3-1,2-2.3,11,5.7,17.5,5.7,17.5l.4-4Z"/><path class="cls-41" d="m88.46,96.6c-.2.3-.4.6-.6,1-.2.3-.2.7-.1,1,.1.4.4.6.9.5.4-.1.7-.1,1.1-.1s.4,0,.5.4c0,.1,0,.2.1.3.1.4.4.7.8.8.4.1.7-.2,1-.5.7-1,.1-2.3-1.1-2.4h-1.3l-.1-.1c.1-.1.2-.3.3-.4.3-.2.6-.2.9-.2,2,.2,4,0,5.7-1.2,1-.7,1.7-1.6,2.2-2.6h0c.1-.2.2-.4,0-.6-.1-.1-.4,0-.5,0-.8.2-1.5.6-2.3.8-1.1.3-2.3.3-3.5.3-1.6-.1-3.1-.3-4.6-.9-1.7-.6-3.2-1.5-4.4-2.7-.1-.1-.3-.3-.5-.4-.3-.2-.5-.1-.5.2,0,.2,0,.5.1.7.6,2.4,2,4.1,4.2,5.2.6.5,1.2.7,1.7.9Z"/><path class="cls-12" d="m2.46,51.6c-.1,8.7,2.7,16.3,8.6,22.7-.1-.6-.2-1.2-.2-1.8-.1-1-.1-2-.2-3,0-.2-.1-.4-.2-.5-2.2-3.2-4.2-6.4-5.8-9.9-.8-1.8-1.5-3.6-1.9-5.5-.2-.6-.2-1.3-.3-2Z"/><path class="cls-11" d="m73.76,23c1-1.8,2.1-3.5,2.5-5.6.1-.3,0-.7,0-1.1-.1-2,.1-3.9.7-5.8.1-.2.1-.3.1-.5,0-.1-.1-.3-.2-.4-.1-.1-.3-.1-.4,0-.5.3-.9.7-1.1,1.2-.6,1-.9,2-1.1,3.1-.6,3-.7,6-.6,9q.1,0,.1.1Z"/><path class="cls-20" d="m74.36,11.4c.2-.4,1-1.3,1.3-1.5l.7-.5c-.7,1.8-1,3.7-1,5.6,0,1.6.5,3.1.6,4.8.1,1.3-.5,2-1.2,3.1-.3.5-.7,1.5-1.4,1.5-.3-.8-.3-1.7-.3-2.6,0-1-.2-2-.1-2.9.1-1.9,1.1-6.8,1.4-7.5Z"/><path class="cls-41" d="m98.76,89.4q-.1,0,0,0c-.8,1.6-2.2,2.3-3.8,2.4-2.7.2-5.3-.3-7.8-1.4-1-.5-1.9-1.2-2.4-2.3-.2-.5-.3-1-.5-1.5-.5,0-1.2.5-1.2,1.1,0,.2.1.4.2.6.3.7.9,1.2,1.5,1.7,1.5,1.2,3.3,2,5.2,2.5,2.5.6,5,.6,7.5-.1.6-.2,1.1-.5,1.7-.8.4-.2.6-.6.6-1.1-.3-.5-.5-.9-1-1.1Z"/><path class="cls-21" d="m98.76,89.4q-.1,0,0,0c-.8,1.6-2.2,2.3-3.8,2.4-2.7.2-5.3-.3-7.8-1.4-1-.5-1.9-1.2-2.4-2.3-.2-.5-.3-1-.5-1.5-.5,0-1.2.5-1.2,1.1,0,.2.1.4.2.6.3.7.9,1.2,1.5,1.7,1.5,1.2,3.3,2,5.2,2.5,2.5.6,5,.6,7.5-.1.6-.2,1.1-.5,1.7-.8.4-.2.6-.6.6-1.1-.3-.5-.5-.9-1-1.1Z"/><path class="cls-37" d="m71.36,64.3c0,1,.2,1.9.6,2.8.9,1.8,2.3,2.9,4,3.6,1.5.7,3.1.9,4.8.8h.1c-1.2-.2-2.2-.5-3.3-.9-1.8-.7-3.4-1.8-4.6-3.3-.7-.8-1.2-1.7-1.5-2.7-.1-.1-.1-.2-.1-.3Z"/><path class="cls-37" d="m84.86,50.3c1.8-1.1,2.2-3.7,1-5.1.3,1.8-.1,3.5-1,5.1Z"/><path class="cls-37" d="m87.86,60.4c.9.7,1.9.9,3,.9.4,0,.9-.1,1.3-.1.2,0,.5,0,.7.1.4.1.6,0,.8-.4.3-1,.5-2,.4-3-.1-.5-.2-1-.4-1.4-.8-1.8-3.1-2.5-4.8-1.5-.2,0-.4.1-.6.3-.2.2-.4.4-.6.6.1.1.2.2.3.3.2.2.3.5.2.7-.2.9.2,1.5.9,1.9.5.3,1.1.5,1.7.7.3.1.6.2.9.2q.1,0,.2-.1c.5-.3.8-.7,1-1.2.1.3.1.8,0,1.2-.1.2,0,.8.1,1h0c-.1,0-.1-.1-.2-.1-.6-.4-1.3-.5-1.9-.6-.8-.1-1.6-.3-2.4-.8-.9-.6-1.3-1.4-1.4-2.4v-.1c-.7,1.6-.5,2.8.8,3.8Z"/><path class="cls-10" d="m88.96,57.1c0,.9.8,1.7,1.7,1.7s1.7-.8,1.7-1.7-.8-1.7-1.7-1.7c-.9,0-1.7.8-1.7,1.7Z"/><g class="cls-44"><g class="cls-45"><use width="6" height="7" transform="translate(90.12 55.43) rotate(-180) scale(.2 -.2)" xlink:href="#New_Symbol_2"/></g></g><path class="cls-39" d="m96.56,85.8c.3.2.8.1.9-.2.7-1.4.7-3-.1-4.4-.4-.8-1.6-.2-1.2.6.5.9.6,2.1.1,3-.1.4,0,.8.3,1Z"/><path class="cls-14" d="m22.56,89.8c-.4-12.3,7.2-8.3,10.5-13.5.3-.3.4-.7.6-1-3.8,2.1-14.4.7-11.1,14.5Z"/><path class="cls-13" d="m16.76,65.8c10.4-9,31-8,32.5-7.9-8.6,6.2-34.5.4-35.4,19.1-1.7-5.3.5-9.1,2.9-11.2Z"/><path class="cls-14" d="m33.46,75.8v4.6c0,1.9-2.4.9-3.3-1.8,2.3-.8,3.3-2.8,3.3-2.8Z"/><path class="cls-14" d="m32.16,76.7c1.7-3.1,0-5.8-.3-5.9,1-.1,2.9-1.9,3.4-2.5.7-1,.8-2.4.8-3.5,1.4-.1,2.4-.9,3.7-1.2-1.1,1-2.6,2.2-3.2,3.6-.6,1.2-1.1,2.6-1.5,3.9-.3,1.1-.6,2.1-.8,3.2-.1.8-.6,1.9-.5,2.7,0,0-.2,7.2,1.3,10.7-2.7-.9-4.2-3.1-4.6-4-.6-1-1.6-3.4-.3-4.9.6-.3,1.5-1.2,2-2.1Z"/><path class="cls-37" d="m6.66,86c5.5,7.6,12.8,12.4,21.9,14.5,3,.7,6.1.9,9.2.9h38.3c1.2,0,2.4-.1,3.6-.5,1.1-.4,2-1.1,2.5-2.2.7-1.6.1-3.7-1.4-4.8-1.1-.8-2.4-1.1-3.7-1-.4,0-.7.1-1.1.1h-.3c-.1,0-.2-.1-.3-.1.1-.1.1-.2.2-.3,1.4-1.2,2.4-2.6,2.8-4.4.2-.6.2-1.3.2-2v-.2c0-.3.1-.4.4-.5,1,0,2-.1,3-.2.5,0,.9-.2,1.5-.2-.1.1-.1.2-.2.2-.8.4-1.3,1-1.6,1.8-.3,1-.5,1.9-.5,3,.1,1.6.7,3.1,1.8,4.3.9,1.1,2.1,2,3.4,2.6.2.1.2.2.2.3-.2.5-.1,1.1,0,1.6.1.3.3.6.6.7.7.4,1.5.4,2.2.1,0,.1,0,.2.1.3.2.8.7,1.1,1.5,1.6h.6s0-.1.1-.1c1.4-.2,2-1.5,1.8-2.7,0-.3-.1-.6-.2-.9.6-.2,1.3-.3,1.9-.5,2.9-1,4.8-3,5.6-5.9.3-1.2.1-2.3-.8-3.1-.1-.1-.1-.2,0-.3.2-1.1.5-2.2.5-3.4.2-2.7-.7-5-2.5-7-.1-.1-.1-.2-.1-.4.1-.6.3-1.2.3-1.8.2-1.2-.3-2.2-1.1-3.1-.1-.1-.2-.2-.2-.3-.2-.7-.7-1.1-1.3-1.5-1.3-.6-2.6-.8-4-.5-.9.2-1.7.5-2.5.9-.4.2-.7.3-1,0-.1,0-.1-.1-.2-.1-.1-.1-.2-.2-.2-.3s.2-.2.3-.3c.6-.2,1.3-.4,2-.4.5,0,1,0,1.5-.1,1.6-.2,3.1-.8,4.5-1.6.1-.1.2-.1.3-.1,1.8-.3,3.3-1.7,3.6-3.5,0-.2,0-.4.1-.5.8-1.2.8-2.4.4-3.7-.3-.8-.7-1.6-1-2.4-.2-.4-.3-.9-.4-1.3-.1-1.3-.3-2.6-.6-3.8-.7-2.6-2-4.9-4.1-6.7-2.1-1.8-4.6-2.8-7.4-3.1-.2,0-.4-.1-.5-.3-.6-1.4-1.6-2.3-3-2.8-.4-.1-.7-.2-1.1,0-.5.2-1,.5-1.4.8-1.2.8-2.1,1.9-2.9,3.1-.1.1-.1.2-.2.2s-.3.1-.4,0c-.1,0-.1-.2-.1-.4,0-.1.1-.3.2-.4,2-2.9,3.3-6.2,3.9-9.7,0-.1.1-.2.2-.3l1.5-1.5c.8-.8,1.3-1.8,1.5-2.9.1-.3.1-.6.1-.9,0-.1-.1-.2-.1-.3-.1.3-.2.3-.3.4-.1.2-.2.4-.4.6-.1.1-.2.2-.3.4v-.1c.5-1.4.9-2.7,1.1-4.2,0-.4.1-.8.1-1.2,0-.3-.2-.5-.4-.4-.1,0-.2.1-.3.2-.8.8-1.7,1.4-2.7,1.9v-.1c0-.1-.1-.3-.1-.4-.3-1.7-.7-3.3-1.2-4.9-.4-1.2-.6-2.5-.4-3.8.1-.8.4-1.5,1.1-2,0,0,.1-.1.1-.2-.1,0-.1-.1-.2-.1-.9-.2-1.9-.1-2.4,1-.1.1-.1.2-.2.4l-.3-.6c-.2-.9-.2-1.7-.2-2.6.1-1.1.5-2.1,1-3,.1-.2.2-.5.3-.8.1-.5-.1-.8-.6-.8-.2,0-.5,0-.7.1-1.2.5-2.2,1.3-2.8,2.4-.1.1-.1.2-.2.3-.5-.5-.9-.9-1.2-1.6-.2-.4-.3-.8-.6-1.2-.1-.3-.3-.3-.4,0,0,.1-.1.1-.1.2-.1.2-.2.2-.4,0-.1-.2-.2-.3-.2-.5-.3-.9-.8-1.6-1.6-2.2,0,0-.1-.1-.2-.1,0,.3.1.5.1.7s.1.4.1.7h-.1c-.1,0-.1-.1-.2-.1-2.9-2-6.1-3.4-9.6-4.2-1.1-.2-2.2-.3-3.1-.9h-.1c-.2-.1-.3,0-.5.1-.1.1-.3.1-.4.1-.4,0-.8-.1-1.3-.1-.4,0-.8-.1-1.2-.2-.5-.2-1.1-.9-1.7-.9h-.5c-.1,0-.3.4-.4.6-.2.3-.5.6-.8.6-2.2.1-4.3.4-6.4,1-3.2.8-6.2,2-8.9,4-2,1.4-3.6,3.1-4.8,5.2-.2.4-.4.9-.6,1.4-.1.4-.2.7-.1,1.1.1.3.3.5.6.4,1.8-.3,3.2.4,4.6,1.4s2.4,2.3,3,3.8c.9,2.3.4,4.4-1.2,6.3-.2.2-.4.4-.6.6-.1-.3-.1-.5-.2-.8-.4-1.3-.9-2.5-1.8-3.4-.5-.6-.7.1-.6,1.2.3,2.2-.4,4.1-1.9,5.7-.1.1-.2.2-.4.2-1.6.6-3.3,1.1-4.9,1.7-2.9,1.1-5.7,2.4-8.3,4,0,0-.1,0-.1.1-.3-.2-.4-.4-.3-.7,0-.4.1-.7.1-1.1v-.1c.1-.6-.2-.8-.7-.6-.3.1-.6.4-.8.6-.7.8-1.1,1.8-1.5,2.7-.2.5-.4,1-.6,1.5-.1.2-.2.4-.4.5-2.3,1.9-4.4,4-6.2,6.5-1.6,2.1-2.9,4.3-4,6.6,0,.1-.1.1-.1.2l-.1.1c-.3-2.2-.3-4.3-.1-6.3-.2.6-.3,1.2-.5,1.8-.6,2.5-.8,5-.6,7.6,0,.1,0,.3-.1.4-.8,2.4-1.3,4.8-1.5,7.4-.8,8.7,1.3,16.7,6.5,23.8Zm-2.1-26.9c1.6,3.5,3.6,6.8,5.8,9.9.1.2.2.3.2.5,0,1,.1,2,.2,3,0,.6.2,1.2.2,1.8-5.8-6.4-8.6-14-8.6-22.7.1.7.2,1.3.3,1.9.4,2,1.1,3.8,1.9,5.6Zm21.5-25.8h0c-.1.1-.1.2-.2.3-1.9,2.7-3.5,5.5-4.6,8.6-.8,2.2-1.4,4.4-1.6,6.8-.2,1.6-.2,3.3,0,4.9v.2c-.4.3-.8.5-1.1.8,0-.1,0-.2-.1-.2-.7-2.7-1-5.4-.9-8.2.1-1.8.4-3.5,1.1-5.2v-.1c-.2.3-.4.6-.5.9-1.2,2.6-1.7,5.3-1.8,8.1-.1,2.5.2,5.1.7,7.6-.4.2-.9.1-1.6-.3,0,.1,0,.2-.1.2-1.1,1.2-2,2.6-2.7,4,0,0,0,.1-.1.1-.5-.6-1-1.2-1.3-2-.1.3-.2.6-.2.9-.1,1,.2,2,.5,3,.1.3.1.5-.1.7-.5-.4-.6-1-.8-1.6-.2.3-.3.6-.3.9,0,.8.2,1.6.5,2.3.2.6-.1,1.1-.1,1.6-.1-.1-.2-.2-.2-.3-.8-1.2-1.6-2.3-2.4-3.5-1.8-2.8-3.2-5.8-4.2-9,0-.1-.1-.3,0-.4,1.7-4.6,4.2-8.7,7.6-12.2,0,0,.1-.1.2-.1v.2c-.1,1.2-.3,2.3-.4,3.5-.2,2.1-.1,4.1.3,6.2.3,1.4.7,2.7,1.6,3.8.6.8,1.3,1.4,2.2,1.8-.2-.2-.5-.4-.7-.7-.5-.7-.9-1.4-1.2-2.2-.6-1.7-.7-3.5-.7-5.3s.1-3.5.4-5.3c.3-1.9.6-3.7,1.1-5.6.3-1.2.8-2.3,1.4-3.4.1-.1.3-.3.4-.4.1.2.2.3.2.5.1.5.2,1.1,0,1.6-.8,2.3-1.3,4.6-1.5,7,0,.5-.1,1-.1,1.5.1-.5.2-.9.3-1.4.6-3,2-5.6,4.3-7.7.2-.2.5-.4.7-.5,1.7-.9,3.4-1.6,5.1-2.2.4,0,.6-.1.9-.2Zm51.1-23.3c0,.2-.1.3-.1.5-.6,1.9-.8,3.8-.7,5.8v1.1c-.4,2.1-1.5,3.8-2.5,5.6v-.1c-.1-3,0-6,.6-9,.2-1.1.5-2.1,1.1-3.1.3-.5.6-.9,1.1-1.2.2-.1.3-.1.4,0,0,.1.1.3.1.4Zm1.2,16c-.5.3-1,.7-1.5.9-1.8.9-3.8,1.6-5.7,2.3-.4.1-.7.3-1.1.6-.7.4-1.2,1.1-1.6,1.7-.2.3-.4.6-.6,1,0-.1,0-.2.1-.3.2-.8.5-1.5.7-2.3.3-1.1.7-2.1,1.3-3.1.3-.5.7-1,1-1.5.2-.3.4-.7.5-1,.1-.2.1-.5.1-.7h-.1l-.3.3c-.4.4-.7.8-1.1,1.2-.1.1-.3.2-.3.1-.1,0-.2-.2-.2-.3,0-.4.1-.9.2-1.3.2-.6.5-1.1.7-1.7.1-.3.2-.6.2-.9,0-.1-.1-.3-.2-.4-.1.1-.3.1-.4.2-.2.2-.3.4-.5.6s-.3.1-.4-.1-.1-.3-.1-.5c.1-.4.2-.8.3-1.2.1-.4.2-.7.3-1.1,0-.2,0-.5-.3-.7-.1.1-.1.2-.2.3-.1.2-.2.4-.3.7-.2.5-.4,1-.7,1.5-.2.4-.4.4-.7,0-.5-.8-.9-1.6-1.4-2.3-.3-.4-.5-.8-.5-1.3-.1-.6-.1-1.3-.2-1.9,0-.2-.1-.5-.4-.7-.1.3-.1.5-.1.7-.1.3-.1.7-.2,1-.1.2-.2.3-.4,0-.1-.2-.2-.4-.2-.6v-1.2c0-.2-.1-.4-.1-.5s-.1-.1-.2-.2c0,.1-.1.1-.1.2v.3c0,.3-.1.6-.1.9-.1.3-.3.4-.5.1-.2-.2-.3-.5-.4-.8-.1-.4-.2-.9-.3-1.3-.1-.2-.2-.4-.3-.6,0-.1-.2-.1-.3-.1s-.1.1-.1.2v1.5h-.1l-.1-.1c-.3-.4-.6-.8-.6-1.3,0-.2,0-.4-.1-.7s-.2-.4-.5-.3c-.3,0-.4.2-.5.6v.7c-.3-.2-.6-.3-.9-.4-2.8-1.4-5.8-2.3-9-2.6-2-.2-4.1-.2-6.1.2-1.1.1-2.3.5-3.3,1.2-.1.1-.3.2-.4.4,1.1-.6,1.8-.9,2.8-1.1,1.8-.4,3.7-.3,5.5,0,3.2.5,6.3,1.5,9.2,3.1,2.2,1.1,4.2,2.6,5.9,4.6.1.1.2.3.4.4-3.3-1.6-7.1,1.4-10.9.1,5.2,2.7,8.2-.8,11.1,1.5.7.6.9,2-.8,1.8-1.6-.2,2.4.6,3.2,4.8,0,.7-.1,1.4-.3,2.1-.7,3.2-2.2,5.9-4.2,8.4-2.1,2.6-4.7,4.5-7.6,6h-.1v-.1c0-.1.1-.1.1-.2,1.4-2.1,2.6-4.3,3.1-6.7.4-1.7.4-3.4-.1-5.1-.6-1.9-1.8-3.3-3.4-4.4-1.7-1.3-3.7-2.1-5.8-2.7-.4-.1-.9-.2-1.4-.4l.1.1c.1,0,.2.1.3.1,1.4.6,2.8,1.2,4.1,2.2,1.8,1.3,3.1,3,3.7,5.2.5,1.9.4,3.9-.1,5.8-.6,2.5-1.7,4.7-3.1,6.9-.3.4-.7.7-1.3.9-.7.2-1.3.5-2,.7,2.1-2.2,2.1-5.3,1.7-7.2v.1c-.1,1.5-.6,2.8-1.4,4.1-1.3,1.8-3,3.1-4.9,4.2-.1.1-.3.1-.5.2.7-.8,1.2-1.7,1.6-2.7.3-1,.4-2.5.2-3-.3,1-.6,1.7-1.3,2.6-1.2,1.5-2.6,2.9-4.2,4-1.1.7-2.2,1.4-3.4,1.8-2.2.8-4.4,1.3-6.6,1.9-2,.5-3.9,1-5.9,1.5-1.1.3-2.1.7-3,1.4-.3-.3-.6-1.5-.6-2.5-.1-11.6,9.1-17.9,12-21.1.8-.9,1.3-2.1,1.7-3.3.2-.5.3-1,.5-1.5l.1.1c.8,1.5,1.3,3.1.9,4.8-.6,2.7-1.7,5.1-3.7,7l-.1.1q.1-.1.2-.1c1.7-1,3.2-2.1,4.5-3.6,2.2-2.4,3.3-5.3,3.5-8.5.1-1.4-.1-2.8-.3-4.2-.4-3.7-3.1-6.7-6.8-7.6-.3-.1-.6-.2-.8-.3-.4-.2-.4-.5-.3-.9,0-.1.1-.3.2-.4.6-1,1.5-1.8,2.5-2.5.5-.3,1-.7,1.5-1,2.1-1.5,4.3-2.6,6.7-3.3,1-.3,2-.5,3.1-.4.3,0,.7.2,1,.2.1,0,.3-.1.4-.1-.1-.1-.1-.2-.2-.3-.6-.4-1.3-.5-2.1-.5-1.2,0-2.2.2-3.2.4h-.3c.8-.7,1.8-1.2,2.9-1.5,1.7-.5,3.5-.6,5.2-.5.6,0,1.1.1,1.7.4.4.3,1,.5,1.5.8.1.1.2.1.4.1l.1-.1c-.1-.1-.1-.3-.2-.4-.2-.4-.4-.7-.6-1.1v-.3h.2c.4.1.8.3,1.2.4.6.3,1.1.4,1.7.4.8.1,1.7.1,2.5.3,1.2.2,2.1.8,2.7,1.9.1.3.3.5.4.7.1.1.1.2.2.2h.1c-.2-.6-.4-1.3-.6-2,.6.1,1.3.6,1.8,1.2.3.3.5.6.7.9.1.1.2.2.4.3,0,0,.1,0,.1-.1-.1-.4-.1-.9-.1-1.3h.1c.4.2.8.5,1.2.7,1.3.8,2.6,1.7,3.5,2.9.1.2.2.1.3-.1.1-.3.1-.5.2-.8,0-.1.1-.2.2-.2s.2.1.2.2c.1.2.1.4.1.5,0,.4,0,.7.1,1.1,0,.1.1.2.2.3.1-.1.2-.2.3-.3.1-.3.3-.6.4-.9.1-.3.2-.3.4,0,.2.3.5.6,1,.5.4,0,.5,0,.6.4.3.7.5,1.3.8,2,.1.3.3.6.5.9,0,.1.1.2.1.2-.6,1.8-.7,3.6-.7,5.5v5.2c0,1.3-.3,2.7-1.3,3.7.1,0,.3-.1.4-.2.6-.3,1.2-.8,1.6-1.4,1-1.2,1.7-2.6,2.3-4.1.5-1.2,1-2.4,1.5-3.5.1-.3.3-.5.5-.8,0-.1.2-.1.2-.1.1,0,.1.1.2.2v.6c0,1-.1,1.9,0,2.9,0,.1.1.3,0,.4-.4,1.3-.8,2.6-1.6,3.7,0,0,0,.1-.1.2.6-.3,1-.6,1.3-1.1s.6-.9.9-1.4c.1.5.3,1,.4,1.6,0,1.1-.3,1.7-.9,2.1Zm.7,7.7c-1.5,1.4-3.2,2.4-5.1,3.2-2.5,1.1-5.1,1.9-7.8,2.5-1,.2-1.9.4-2.9.6.4-.5.8-1,1.1-1.4,0,0,.1-.1.2-.1,1.7-.2,3.3-.6,4.8-1.2,3.6-1.5,6.6-3.7,9.4-6.4,0,0,0-.1.1-.1-.1,0-.2.1-.2.1-2.3,1.6-4.7,3.1-7.2,4.4-1.6.8-3.2,1.6-5,2-.4.1-.8.2-1.3.3.1-.1.1-.2.1-.2.5-1,1.2-1.9,1.6-2.9.3-.6.7-1.1,1.2-1.5,2-1.5,4.2-2.7,6.4-3.8h.1c-.8,1.3-1.7,2.7-3.1,3.4.4-.1.8-.1,1.1-.2,1.1-.3,2.1-1,2.9-1.7,1.1-.9,2.1-1.9,3.2-2.7.6-.5,1.2-.9,1.8-1.2.7-.3,1.4-.5,2.2-.7.2-.1.4-.1.7-.1-.1.5-.1.9-.3,1.2-.6,2.5-2.1,4.7-4,6.5Zm-13.5,19.8c-.5.3-1.1.6-1.7.8-1.2.4-2.5.4-3.7.4h-2.7c-.2,0-.4.1-.7.1v.1c.2,0,.4.1.6.2.6.2,1.2.3,1.9.5.1,0,.2.1.3.2v.1c-.1-.1-.1,0-.2,0-1.3.2-2.5.5-3.8.7-2.1.3-4.2.7-6.2,1.3-.2.1-.4.1-.6.1-2.1-.1-4.1-.3-6.2-.4-2.4-.2-4.8-.2-7.2.1-2.7.3-5.4.9-7.9,1.9-3.7,1.4-7,3.4-10.1,5.8-.1,0-.1.1-.2.1.1,0,.2-.1.3-.1,2.8-1.7,5.8-3.2,8.9-4.4,2.6-1,5.3-1.7,8.1-2.1,2-.3,4-.3,6.1-.3h6.9q-.1,0-.2.1c-2,.8-4,1.8-5.7,3.1-.5.4-1.1.7-1.7.9-.5.2-.9.4-1.4.5-2.5.8-5,1.2-7.6,1.6-2.1.4-4.2.8-6.3,1.2-1.9.4-3.7,1.1-5.4,2-2.9,1.7-4.6,4.1-5.1,7.5-.1.5-.1,1.1-.2,1.5-.1-.2-.2-.4-.3-.6-1.1-1.9-1.9-3.9-2.1-6-.3-2.9.5-5.5,2.6-7.5.1-.1.1-.2.2-.3.3-.6.6-1.3.9-1.9,1-1.7,2.4-2.9,4.1-4,2.1-1.4,4.5-2.4,6.9-3.2,3.8-1.3,7.7-2.1,11.7-2.9,3.1-.6,6.3-1.2,9.5-1.8,2.5-.5,4.9-1.2,7.2-2.3,2.9-1.5,5.6-3.2,7.9-5.5.1-.1.2-.1.3-.1,1.5,0,3-.2,4.5-.5,4.2-.8,8-2.4,11.5-4.8.1,0,.1-.1.2-.1v.3c-.3,1.3-.7,2.6-1.2,3.8-2.4,6.1-6.5,10.7-12.2,13.9Zm33.5,31.7c-.1,1-.3,2-.5,3-.3,1.5-1.3,2.5-2.8,3-.7.2-1.4.3-2,.3-1.4,0-2.7-.2-4-.5-1.1-.3-2.2-.6-3.1-1.3-.9-.6-1.6-1.4-1.9-2.5-.2-.7-.1-1.4,0-2,0-.3.2-.4.4-.5,2.2-.9,3.9-2.2,5-4.4.1-.3.3-.4.6-.5,1-.1,2.1-.1,3,.4.6.3,1.2.3,1.8,0,.2-.1.5-.3.7-.4.3-.2.5-.5.8-.7,0,0,0,.1.1.1,1.5,1.7,2.2,3.8,1.9,6Zm-16.1,4.5c.2.1.3.2.5.4,1.3,1.2,2.8,2.1,4.4,2.7,1.5.6,3,.8,4.6.9,1.2.1,2.3.1,3.5-.3.8-.2,1.5-.5,2.3-.8.2-.1.4-.1.5,0,.2.1,0,.4,0,.6h0c-.5,1-1.2,1.9-2.2,2.6-1.7,1.2-3.7,1.5-5.7,1.2-.3,0-.6,0-.9.2-.1.1-.2.2-.3.4l.1.1h.2c.4,0,.8-.1,1.1,0,1.2.2,1.8,1.5,1.1,2.4-.2.3-.5.6-1,.5-.4-.1-.7-.4-.8-.8,0-.1,0-.2-.1-.3,0-.4-.1-.4-.5-.4s-.7.1-1.1.1c-.5.1-.8-.1-.9-.5-.1-.4-.1-.7.1-1,.2-.3.4-.7.6-1-.6-.2-1.2-.4-1.7-.7-2.2-1.1-3.6-2.8-4.2-5.2-.1-.2-.1-.5-.1-.7.1-.5.2-.6.5-.4Zm1.2-3c.2.5.3,1,.5,1.5.5,1.1,1.4,1.8,2.4,2.3,2.5,1.1,5.1,1.7,7.8,1.4,1.7-.1,3-.8,3.8-2.4h0c.5.2.8.6.9,1.2.1.5-.2.9-.6,1.1-.5.3-1.1.6-1.7.8-2.5.8-5,.7-7.5.1-1.9-.5-3.7-1.3-5.2-2.5-.6-.5-1.2-1-1.5-1.7-.1-.2-.2-.4-.2-.6.1-.7.7-1.2,1.3-1.2ZM4.96,74c-2-3.5-3.1-7.3-3.1-7.8,0-1.8.1-3.6.4-5.4.1-.4.1-.8.2-1.2.1.1.1.2.1.2.3,1,.6,2,.9,3,1.8,5.1,4.5,9.7,7.9,13.9.1.2.2.3.3.5.7,2.3,1.8,4.3,3.1,6.2-1.5-.6-3.2-.9-5.3-3.3,2.5,4.9,8.5,6.8,8.5,6.8,3.3,3,7.2,5,11.5,6.1.3.1.7.2,1,.3-.1-.1-.2-.1-.2-.1-3.2-1.1-6.1-2.7-8.8-4.8-3.3-2.6-5.8-5.8-7.3-9.8-.2-.4-.2-.8-.1-1.3.1-.3.2-.6.3-.9.7-2.3,1.8-4.4,3.6-6.1,1.7-1.6,3.7-2.6,6-3.2,2.7-.8,5.4-1.1,8.1-1.4,1.6-.2,3.2-.5,4.7-.7.4-.1.8-.2,1.3-.3q0,.1-.1.1c-1.2,1.4-2.3,2.9-3.1,4.6,0,.1-.2.2-.3.2-.7.2-1.5.5-2.2.7-1.1.2-2.2.3-3.4.5-5.9,1.2-7.8,4.4-7.8,4.3,1.8-1.9,4.7-2.5,5.5-2.7,1.8-.6,3.6-.8,5.5-.8.5,0,1.1,0,1.7.1-1.7,5.5-1.5,10.8.8,16v-.3c-.9-3.4-1.2-6.8-.7-10.3.6-4.2,2.4-7.8,5.5-10.8,2.3-2.2,5-3.8,7.9-5.1,2.8-1.2,5.6-2,8.6-2.7,2.2-.5,4.4-1,6.6-1.7,2.9-.9,5.5-2.2,7.8-4.3.3-.3.7-.6,1-1,1.9-2.4,4.2-4.4,7-5.6.2-.6.5-1.2,1-1.9.7-.9,1.5-1.7,2.5-2.4.3-.2.6-.3.9-.4.4-.1.6.1.7.4,0,.1.1.2.1.3.2.1.4.2.6.3.1.1.2.2.4.3.5.5.9,1.1,1.2,1.8.1.1.2.2.3.2.4,0,.7.1,1,.2,5.6,1.3,9.7,5.6,10.4,11.8.1.6.1,1.1.2,1.7.2.7.6,1.3.9,1.9.3.6.5,1.1.8,1.7.2.6.3,1.2.1,1.8-.1.2-.2.3-.3.2-.2-.1-.4-.3-.7-.5s-.5-.4-.8-.6c-.2-.1-.5-.1-.7.1l.1.1c.6.5,1.2,1,1.7,1.6.1.1.1.2.1.3-.1.8-.3,1.6-.9,2.1-.7.8-1.6,1.2-2.7.9,0,.4-.1.5-.3.6-1.5.8-3.1,1.3-4.9,1.3-1.3,0-2.4.4-3.5,1-.3.2-.7.4-1.1.5-1.2.3-2.4.4-3.6.4h-.3q.1.1.2.1c1,.2,2,.3,3,.2.3,0,.7-.1,1,0,.8.3,1.6.7,2.4,1.1.2.1.4.2.6.1.5-.2,1-.4,1.5-.6,1-.5,2.1-.7,3.3-.6.6.1,1.2.2,1.8.6.4.2.6.5.7,1,0,.1.1.1.1.2.1.1.3.3.5.4.4.4.6.9.6,1.5,0,.5-.2.6-.6.4-.2-.1-.4-.2-.6,0,.3.2.6.3.8.5.4.3.5.7.5,1.1,0,1.3-1.6,2.4-2.9,2.1-.4-.1-.8-.3-1.1-.7,0-.1-.1-.1-.2-.1-.3,0-.7,0-1,.1-.6.1-1.2.3-1.8.2-.3-.1-.6-.1-.9-.2-.2.8-.6,1.5-1.1,2.2-1.2,1.5-2.7,2.5-4.5,3-2.3.8-4.7.8-7.1.5-3.5-.5-5.9-2.4-7.2-5.6-.3-.8-.5-1.7-.7-2.5-.4-1.4-.9-2.7-1.6-3.9-1.1-2-2.6-3.6-4.7-4.7-2.3-1.2-4.7-1.4-7.2-1-.9,0-1.3.1-1.9.2.9.1,1.8.1,2.6.2,2.3.2,4.5.9,6.5,2.2,2.4,1.5,4.1,3.5,4.9,6.3.4,1.5,1,2.9,1.6,4.3.5.9,1,1.8,1.7,2.6,1.2,1.3,2.7,2,4.3,2.4.5.1,1,.3,1.5.5.2.1.4.3.5.5.3.7.4,1.4.2,2.2-.2,1.2-.8,2.2-1.6,3.1-.7.8-1.5,1.3-2.3,1.9-.4.3-.8.6-1.2.9-.3.3-.5.6-.5,1.1,0,.8.1.9.8.6.1,0,.2-.1.4-.1.6-.3,1.2-.5,1.9-.8,1.2-.5,2.4-.7,3.7-.4,1.4.3,2.4,1.2,2.9,2.6.1.3.1.6,0,.9-.1.1-.3.3-.4.3s-.3-.1-.4-.3c-.1-.2-.1-.4-.1-.5-.1-.5-.4-1-.9-1.3-.1-.1-.2-.1-.3-.1.7.7,1.1,1.6,1.1,2.6,0,.8-.6,1.3-1.4,1.2-.2,0-.4-.1-.4-.3v-1.8c-.1-.5-.4-.8-.9-1-.2-.1-.5,0-.7.1.3.1.6.2.8.5.2.3.3.6.4.9.2.7.1,1.3-.5,1.7-.3.2-.6.3-1,.3-.7.1-1.4-.1-2.1-.3-.6-.1-1.1-.2-1.5-.2s-.8.1-1.2.2c-2.4.4-4.8.3-7.3.2h-28.2c-2.7,0-5.4-.3-8-1-10-2.6-17.5-8-22.4-17.1-2.2-4-3.4-8.3-3.9-12.8,0-.5,2.9,5,2.9,4.5Z"/><path class="cls-41" d="m83.16,50.4c-.8-1.8-.8-2.5.1-4.2.7-1.3,2.6-.1,2.3-1.6-.1-1.3-1.4-2.6-1.6-2.9-.3-.4-.5-.7-.9-.6s-.8.3-1.1.5c-1.1.8-2.2,1.8-3,2.9-1.5,2.1-.9,3.3.9,4.9.7.8,3.4,1.2,3.3,1Z"/><path class="cls-13" d="m81.46,43.6c.4-.5,1.1-1,1.9-1.4.4-.3-.8,2.9-1.1,3.7-1.1,2.7.3,4.4-.1,4.2-.8-.5-2-2.1-2.1-3.1-.1-1.1.7-2.6,1.4-3.4Z"/><path class="cls-37" d="m82.86,50.2c-.8-1.8-.8-2.5.1-4.2.7-1.3,1-2.6.8-4,0-.2-.1-.3-.1-.5-.1-.4-.4-.6-.8-.5-.4.1-.8.2-1.1.5-1.1.8-2.2,1.8-3,2.9-1.4,1.5-1.3,2.6-.4,3.8.3.3.4.3.7.4.4.1.5-.5.4-.8-.3-.6-.5-1.1-.6-1.5-.1-1.1.5-2.2,1.2-3,.7-.7,2.1-1.9,3-2.2.2.9-.3,2.6-.6,3.5-.4,1-1.5,2.9-1.2,4.1,0,0,.4,1.1.8,1.4.6.3.8.1.8.1Z"/><path class="cls-9" d="m78.36,16.3"/><g class="cls-43"><path class="cls-38" d="m31.86,70.9c-.1,0-.2,0-.3-.1.1,0,.2,0,.3.1Z"/></g><path class="cls-14" d="m83.56,85.9c1-1.5,2.1-2,3.3-3.2,1.2-1.1,2.1-2.5,3.3-3.5.9.2,2,0,2.9.1.7,1.7,4,.1,4.3-1l.4.7c.9,1.9-2.5,2-4.4,1.8-1.4-.1-7.2,1.4-7,9-.7,1-2.2,0-2.2,1.3,0,1.4,0,3.7,1.2,4.6-.3,1.2-1.5-.1-1.8-.5-.7-1.1-1.7-2.9-2-4.2-.4-2.3.9-3.5,2-5.1Z"/></symbol><clipPath id="clippath"><rect class="cls-2" x="86.24" y="43.27" width="215.55" height="204.76"/></clipPath></defs><rect class="cls-35" width="600" height="300"/><g class="cls-1"><use width="100.9" height="101.6" transform="translate(84.96 43.07) scale(2.14 2.01)" xlink:href="#New_Symbol_3"/></g><path class="cls-42" d="m315.34,188.74h41.1v9.29h-29.76v16.46h28.05v8.95h-28.05v25.24h-11.34v-59.93h0Z"/><path class="cls-42" d="m366.49,184.73h10.79v63.95h-10.79v-63.95Z"/><path class="cls-42" d="m389.06,194.25c0-1.66.67-3.04,1.95-4.24,1.28-1.2,2.93-1.84,4.88-1.84s3.66.57,5,1.72,2.01,2.58,2.01,4.36-.67,3.21-2.01,4.36c-1.34,1.15-2.99,1.72-5,1.72s-3.6-.63-4.88-1.84c-1.28-1.15-1.95-2.58-1.95-4.24Zm1.59,13.82h10.79v40.61h-10.79v-40.61Z"/><path class="cls-42" d="m414.54,208.07h10.24v6.54h.18c.98-2.01,2.62-3.84,5-5.39,2.38-1.55,5.18-2.35,8.41-2.35,2.8,0,5.24.46,7.26,1.38,2.01.92,3.66,2.18,4.94,3.67,1.28,1.55,2.26,3.27,2.8,5.22.61,1.95.91,4.01.91,6.08v25.35h-10.79v-22.48c0-1.2-.06-2.41-.24-3.73s-.55-2.47-1.16-3.5-1.4-1.89-2.5-2.58c-1.04-.69-2.44-1.03-4.21-1.03s-3.23.34-4.51.98c-1.28.63-2.32,1.49-3.11,2.52-.79,1.03-1.4,2.18-1.83,3.5s-.61,2.64-.61,4.01v22.31h-10.79v-40.49h0Z"/><path class="cls-42" d="m467.04,184.73h10.79v40.43h.24l16.34-17.09h13.84l-18.72,18.35,19.88,22.25h-14.33l-17.07-20.82h-.24v20.82h-10.79l.06-63.95h0Z"/></svg>