<svg width="300" height="150" viewBox="0 0 300 150" fill="none" xmlns="http://www.w3.org/2000/svg">
<g transform="translate(15, 58.69) scale(0.429252)">
<path d="M0.650024 21.92H7.10002V19.05C7.10002 13.01 8.64002 8.70998 11.6 5.83998C16.52 1.12998 26.96 0.51998 36.69 1.53998V14.34C30.65 14.24 26.45 14.34 26.45 20.59V21.92H36.69V33.59H26.45V74.14H7.10002V33.59H0.650024V21.92Z" fill="black"/>
<path d="M37.92 48.13C37.92 32.26 49.18 20.38 66.59 20.38C84 20.38 95.05 32.26 95.05 48.13C95.05 64 83.99 75.78 66.59 75.78C49.19 75.78 37.92 64.01 37.92 48.13ZM75.39 48.13C75.39 39.32 72.32 33.39 66.38 33.39C60.44 33.39 57.57 39.33 57.57 48.13C57.57 56.93 60.44 62.87 66.38 62.87C72.32 62.87 75.39 56.93 75.39 48.13Z" fill="black"/>
<path d="M178.5 29.08H178.81C183.01 23.35 188.33 20.27 195.6 20.27C207.68 20.27 213.93 28.36 213.93 40.34V74.13H194.58V45.05C194.58 39.62 192.33 36.04 187.31 36.04C182.29 36.04 179.43 40.34 179.43 45.97V74.13H160.08V21.91H178.51V29.08H178.5Z" fill="black"/>
<path d="M313.86 68.4H313.65C310.17 73.21 304.64 75.46 297.88 75.46C287.85 75.46 280.47 70.03 280.47 59.79C280.47 48.22 289.38 44.84 299.41 43.71C310.47 42.48 313.44 41.15 313.44 37.87C313.44 35 312.11 32.85 307.91 32.85C303.71 32.85 301.56 35.31 301.05 39.1H282.72C283.13 28.76 291.12 20.26 307.5 20.26C315.49 20.26 320.61 21.28 324.6 23.74C330.03 27.12 332.69 32.44 332.69 39.41V65.52C332.69 69.92 333 72.28 334.63 73.3V74.12H315.59C314.87 72.89 314.26 71.25 313.85 68.39L313.86 68.4ZM313.96 55.19V50.58C312.12 51.5 309.76 52.32 306.49 53.04C300.86 54.27 299.12 55.91 299.12 58.98C299.12 62.46 301.99 64 305.16 64C309.66 64 313.96 61.44 313.96 55.19Z" fill="black"/>
<path d="M396.8 21.92H377.45V74.14H396.8V21.92Z" fill="black"/>
<path d="M401.61 48.13C401.61 32.26 412.87 20.38 430.28 20.38C447.69 20.38 458.74 32.26 458.74 48.13C458.74 64 447.68 75.78 430.28 75.78C412.88 75.78 401.61 64.01 401.61 48.13ZM439.08 48.13C439.08 39.32 436.01 33.39 430.07 33.39C424.13 33.39 421.26 39.33 421.26 48.13C421.26 56.93 424.13 62.87 430.07 62.87C436.01 62.87 439.08 56.93 439.08 48.13Z" fill="black"/>
<path d="M481.99 29.08H482.3C486.5 23.35 491.82 20.27 499.09 20.27C511.17 20.27 517.42 28.36 517.42 40.34V74.13H498.07V45.05C498.07 39.62 495.82 36.04 490.8 36.04C485.78 36.04 482.92 40.34 482.92 45.97V74.13H463.57V21.91H482V29.08H481.99Z" fill="black"/>
<path d="M554.99 68.4H554.78C551.3 73.21 545.77 75.46 539.01 75.46C528.98 75.46 521.6 70.03 521.6 59.79C521.6 48.22 530.51 44.84 540.54 43.71C551.6 42.48 554.57 41.15 554.57 37.87C554.57 35 553.24 32.85 549.04 32.85C544.84 32.85 542.69 35.31 542.18 39.1H523.85C524.26 28.76 532.25 20.26 548.63 20.26C556.61 20.26 561.74 21.28 565.73 23.74C571.16 27.12 573.82 32.44 573.82 39.41V65.52C573.82 69.92 574.13 72.28 575.77 73.3V74.12H556.73C556.01 72.89 555.4 71.25 554.99 68.39V68.4ZM555.09 55.19V50.58C553.25 51.5 550.89 52.32 547.62 53.04C541.99 54.27 540.25 55.91 540.25 58.98C540.25 62.46 543.12 64 546.29 64C550.79 64 555.09 61.44 555.09 55.19Z" fill="black"/>
<path d="M581.2 0.929993V64.36L595.35 74.13H601.06V0.929993H581.2Z" fill="black"/>
<path d="M372.43 33.59V21.92H362.5V5.02997H343.56V12.17L357.51 21.91H343.56L336.8 21.92V33.59H343.56V59.08C343.56 71.57 350.01 75.16 362.71 75.16C366.19 75.16 369.26 74.65 372.23 73.93V59.7C366.19 60.11 362.5 60.01 362.5 54.79V33.6H372.43V33.59Z" fill="black"/>
<path d="M135 74.09V67.34H134.69C130.7 72.76 125.58 75.73 118.42 75.73C105.94 75.73 99.8 67.55 99.8 55.57V21.91H119.14V50.97C119.14 56.39 121.49 59.26 126.1 59.26C131.11 59.26 134.08 55.68 134.08 50.05V21.91H153.42V74.09H135Z" fill="black"/>
<path d="M218.59 47.89C218.59 31.52 228 20.26 241.92 20.26C249.39 20.26 253.07 23.02 256.45 27.42H256.76V0.919983H276.1V74.08H257.68V66.81H257.47C254.09 72.64 248.57 75.81 242.12 75.81C228.61 75.81 218.59 65.89 218.59 47.88V47.89ZM257.27 47.58C257.27 40.11 253.38 34.18 247.65 34.18C241.92 34.18 238.24 39.6 238.24 47.58C238.24 55.56 241.92 61.19 247.65 61.19C253.38 61.19 257.27 55.15 257.27 47.58Z" fill="black"/>
<path d="M608.93 53.11V59.34V67.22L618.85 74.13H628.27V59.34V53.11H608.93Z" fill="black"/>
<path d="M377.46 0.929993V7.11999V15L387.38 21.92H396.8V7.11999V0.929993H377.46Z" fill="black"/>
</g>
</svg>
