<?xml version="1.0" encoding="utf-8"?>
<!-- Generator: Adobe Illustrator 27.9.0, SVG Export Plug-In . SVG Version: 6.00 Build 0)  -->
<svg version="1.1" id="Layer_2_00000107562326800176494870000006248592701605967537_"
	 xmlns="http://www.w3.org/2000/svg" xmlns:xlink="http://www.w3.org/1999/xlink" x="0px" y="0px" viewBox="0 0 603 303"
	 style="enable-background:new 0 0 603 303;" xml:space="preserve">
<style type="text/css">
	.st0{fill:#FFFFFF;}
	.st1{clip-path:url(#SVGID_00000034783065381741653400000010429030232760440715_);}
	.st2{fill:#404041;}
	.st3{fill:#FF6310;}
</style>
<rect x="-0.2" y="0" class="st0" width="603" height="303"/>
<g>
	<g>
		<defs>
			<rect id="SVGID_1_" x="51.2" y="84.9" width="500" height="133.1"/>
		</defs>
		<clipPath id="SVGID_00000138543683259919577720000005845633575359876784_">
			<use xlink:href="#SVGID_1_"  style="overflow:visible;"/>
		</clipPath>
		
			<g id="GX_Logo-2_00000098192296153098290850000016835468826522104979_" style="clip-path:url(#SVGID_00000138543683259919577720000005845633575359876784_);">
			<path id="Path_349_00000031190631751744291970000000795394091279515550_" class="st2" d="M212.5,126.4c0.2,0.9,0.5,1.8,1,2.5
				c0.4,0.7,1.1,1.3,1.8,1.7c0.8,0.4,1.7,0.7,2.6,0.6c0.6,0,1.1-0.1,1.6-0.2c0.5-0.1,0.9-0.3,1.3-0.5c0.4-0.2,0.8-0.5,1.1-0.9
				c0.3-0.3,0.6-0.7,0.8-1.1v-11.5c-0.2-0.5-0.5-0.9-0.9-1.2c-0.3-0.4-0.8-0.6-1.2-0.9c-0.4-0.2-0.8-0.3-1.3-0.4
				c-0.5-0.1-1-0.2-1.5-0.2c-0.9,0-1.8,0.2-2.6,0.6c-0.7,0.4-1.3,1-1.8,1.7c-0.5,0.8-0.9,1.7-1.1,2.6c-0.2,1-0.4,2.1-0.4,3.2v0.5
				C212.2,124.3,212.3,125.4,212.5,126.4 M206,117.1c0.5-1.6,1.2-3.1,2.2-4.4c0.9-1.2,2.1-2.2,3.5-2.8c1.4-0.7,3-1,4.6-1
				c0.8,0,1.7,0.1,2.5,0.3c0.7,0.2,1.4,0.4,2.1,0.8c0.5,0.3,0.9,0.5,1.3,0.9c0.4,0.3,0.8,0.7,1.1,1.1l0.3-2.6h6.3v26.2
				c0,1.7-0.3,3.4-0.9,4.9c-0.6,1.4-1.5,2.6-2.6,3.6c-1.2,1-2.6,1.8-4.1,2.2c-1.7,0.5-3.5,0.8-5.2,0.8c-0.9,0-1.8-0.1-2.6-0.3
				c-0.9-0.2-1.9-0.4-2.8-0.8c-0.9-0.3-1.8-0.8-2.6-1.3c-0.8-0.5-1.5-1.2-2.1-1.9l3.1-4.2c0.4,0.5,0.9,1,1.5,1.4
				c1,0.7,2.1,1.3,3.3,1.5c0.6,0.1,1.2,0.2,1.8,0.2c0.9,0,1.8-0.1,2.7-0.4c0.8-0.3,1.4-0.7,2-1.3c0.5-0.5,0.9-1.2,1.1-1.9
				c0.3-0.8,0.4-1.6,0.4-2.5v-1.6c-0.3,0.4-0.7,0.7-1.1,1c-0.4,0.3-0.8,0.6-1.2,0.8c-0.6,0.3-1.3,0.6-2,0.8
				c-0.8,0.2-1.6,0.3-2.4,0.3c-1.6,0-3.1-0.3-4.5-1c-1.3-0.7-2.5-1.7-3.4-2.9c-1-1.3-1.7-2.8-2.2-4.3c-0.5-1.8-0.8-3.6-0.8-5.5v-0.5
				C205.2,120.8,205.4,118.9,206,117.1L206,117.1z"/>
			<path id="Path_350_00000052805389813869727740000006838442989435627185_" class="st2" d="M256.3,109.1c0.7,0.1,1.5,0.3,2.2,0.5
				l-1,6.9c-0.9-0.2-1.9-0.4-2.8-0.5c-0.9-0.1-1.8-0.2-2.7-0.2c-0.8,0-1.6,0.1-2.4,0.2c-0.7,0.1-1.3,0.4-1.9,0.7
				c-0.7,0.4-1.3,0.8-1.8,1.4c-0.5,0.6-0.9,1.3-1.2,2v16.3h-7v-27.1h6.5l0.3,3.8l0,0.6c1-1.5,2.4-2.7,4-3.6c1.5-0.9,3.3-1.3,5-1.3
				C254.4,108.8,255.3,108.9,256.3,109.1L256.3,109.1z"/>
			<path id="Path_351_00000062914424373792288230000002221446192909429384_" class="st2" d="M272.5,114.9c-0.6,0.3-1.2,0.7-1.7,1.2
				c-0.5,0.5-0.9,1.2-1.3,1.9c-0.3,0.8-0.6,1.6-0.8,2.4h11.4v-0.6c0-0.7-0.1-1.4-0.4-2.1c-0.3-0.6-0.6-1.2-1.1-1.7
				c-0.5-0.5-1.1-0.9-1.7-1.1c-0.7-0.3-1.5-0.4-2.3-0.4C273.9,114.5,273.2,114.6,272.5,114.9L272.5,114.9z M269.8,135.9
				c-1.6-0.6-3.1-1.6-4.4-2.8c-1.2-1.2-2.2-2.6-2.8-4.1c-0.7-1.6-1-3.4-1-5.1v-1c0-1.9,0.3-3.9,1-5.7c0.6-1.6,1.5-3.1,2.7-4.4
				c1.2-1.2,2.6-2.2,4.2-2.9c1.7-0.7,3.4-1,5.2-1c1.8,0,3.6,0.3,5.2,1c1.5,0.6,2.8,1.5,3.9,2.7c1.1,1.2,1.9,2.7,2.4,4.2
				c0.6,1.8,0.8,3.6,0.8,5.4v3h-18.4v0.1c0.2,0.9,0.5,1.8,0.9,2.6c0.4,0.7,0.9,1.3,1.5,1.8c0.6,0.6,1.4,1,2.2,1.3
				c0.9,0.3,1.8,0.5,2.7,0.5c1.4,0,2.7-0.3,4-0.8c1.2-0.5,2.3-1.3,3.1-2.3l3.5,3.8c-1.1,1.4-2.6,2.6-4.2,3.4
				c-2.1,1.1-4.5,1.6-6.8,1.5C273.5,137,271.6,136.6,269.8,135.9L269.8,135.9z"/>
			<path id="Path_352_00000068650016388710087080000008390244938548235164_" class="st2" d="M305.3,131.3c0.6-0.2,1.1-0.4,1.6-0.7
				c0.5-0.2,0.9-0.6,1.3-0.9c0.3-0.3,0.6-0.7,0.8-1v-4.7h-3.6c-0.9,0-1.9,0.1-2.8,0.3c-0.7,0.2-1.3,0.5-1.9,0.9
				c-0.5,0.4-0.8,0.8-1.1,1.4c-0.2,0.5-0.4,1.1-0.4,1.7c0,0.5,0.1,0.9,0.3,1.3c0.2,0.4,0.4,0.8,0.8,1c0.4,0.3,0.8,0.5,1.2,0.6
				c0.6,0.2,1.1,0.2,1.7,0.2C304,131.6,304.7,131.5,305.3,131.3L305.3,131.3z M309.6,135.3c-0.1-0.4-0.2-0.9-0.3-1.4
				c-0.4,0.4-0.8,0.8-1.3,1.2c-0.5,0.4-1.1,0.7-1.7,1c-0.7,0.3-1.3,0.5-2,0.7c-0.8,0.2-1.6,0.2-2.4,0.2c-1.3,0-2.6-0.2-3.8-0.6
				c-1.1-0.4-2.1-0.9-3-1.7c-0.8-0.7-1.5-1.6-2-2.6c-0.5-1-0.7-2.1-0.7-3.2c0-1.4,0.3-2.8,0.9-4c0.6-1.2,1.5-2.2,2.6-2.9
				c1.2-0.7,2.5-1.3,3.9-1.6c1.7-0.4,3.5-0.6,5.3-0.5h3.9v-1.6c0-0.6-0.1-1.2-0.3-1.7c-0.2-0.5-0.5-1-0.9-1.3
				c-0.5-0.4-1-0.7-1.6-0.9c-0.7-0.2-1.4-0.3-2.2-0.3c-0.6,0-1.3,0.1-1.9,0.3c-0.5,0.1-0.9,0.4-1.3,0.7c-0.3,0.3-0.5,0.6-0.7,1
				c-0.2,0.4-0.2,0.9-0.2,1.3h-7c0-1.1,0.3-2.3,0.8-3.3c0.5-1.1,1.3-2,2.2-2.7c1.1-0.8,2.3-1.5,3.6-1.9c1.6-0.5,3.2-0.7,4.8-0.7
				c1.5,0,3.1,0.2,4.6,0.6c1.3,0.4,2.6,1,3.7,1.8c1,0.8,1.9,1.8,2.4,3c0.6,1.3,0.9,2.7,0.9,4.1V130c0,1.2,0.1,2.4,0.3,3.6
				c0.2,0.9,0.4,1.7,0.8,2.5v0.4H310C309.8,136.1,309.7,135.7,309.6,135.3L309.6,135.3z"/>
			<path id="Path_353_00000028287232699467859660000010636307974807681717_" class="st2" d="M333.9,109.4H344v5.1h-10.1v11.7
				c0,0.8,0.1,1.7,0.3,2.5c0.2,0.6,0.5,1.1,1,1.6c0.4,0.4,0.9,0.7,1.5,0.9c0.6,0.2,1.3,0.3,2,0.3c0.5,0,1.1,0,1.6-0.1
				s1.1-0.1,1.6-0.2c0.5-0.1,1-0.1,1.4-0.2c0.4-0.1,0.8-0.2,1.1-0.3l0.7,4.8c-0.5,0.3-1.1,0.6-1.7,0.7c-0.7,0.2-1.4,0.4-2.1,0.5
				c-0.7,0.1-1.5,0.2-2.3,0.3c-0.8,0.1-1.6,0.1-2.3,0.1c-1.4,0-2.7-0.2-4-0.6c-1.2-0.4-2.2-1-3.1-1.8c-0.9-0.9-1.6-2-2-3.1
				c-0.5-1.5-0.7-3-0.7-4.6v-12.3h-6.2v-5.1h6.2v-6.6h7L333.9,109.4L333.9,109.4z"/>
			<path id="Path_354_00000082365685794607367670000001917563345644503996_" class="st2" d="M216.1,168.2c-0.6,0.3-1.2,0.7-1.7,1.2
				c-0.5,0.5-0.9,1.2-1.3,1.9c-0.3,0.8-0.6,1.6-0.8,2.4h11.4v-0.6c0-0.7-0.1-1.4-0.4-2.1c-0.3-0.6-0.6-1.2-1.1-1.7
				c-0.5-0.5-1.1-0.9-1.7-1.1c-0.7-0.3-1.5-0.4-2.3-0.4C217.5,167.8,216.8,167.9,216.1,168.2L216.1,168.2z M213.4,189.2
				c-1.6-0.6-3.1-1.6-4.4-2.8c-1.2-1.2-2.2-2.6-2.8-4.1c-0.7-1.6-1-3.4-1-5.1v-1c0-1.9,0.3-3.9,1-5.7c0.6-1.6,1.5-3.1,2.7-4.4
				c1.2-1.2,2.6-2.2,4.2-2.9c1.7-0.7,3.4-1,5.2-1c1.8,0,3.6,0.3,5.2,1c1.5,0.6,2.8,1.5,3.9,2.7c1.1,1.2,1.9,2.7,2.4,4.2
				c0.6,1.8,0.8,3.6,0.8,5.4v3h-18.4v0.1c0.2,0.9,0.5,1.8,0.9,2.6c0.4,0.7,0.9,1.3,1.5,1.8c0.6,0.6,1.4,1,2.2,1.3
				c0.9,0.3,1.8,0.5,2.7,0.5c1.4,0,2.7-0.3,4-0.8c1.2-0.5,2.3-1.3,3.1-2.3l3.5,3.8c-1.1,1.4-2.6,2.6-4.2,3.4
				c-2.1,1.1-4.5,1.6-6.8,1.5C217.1,190.3,215.2,190,213.4,189.2L213.4,189.2z"/>
			<path id="Path_355_00000127749194121671771430000006144929305591408316_" class="st2" d="M252.6,162.7h7.5L251,176l9.4,13.8h-7.5
				l-6.2-8.9l-6.2,8.9H233l9.4-13.8l-9.1-13.3h7.5l5.9,8.5L252.6,162.7L252.6,162.7z"/>
			<path id="Path_356_00000038410028336663682440000009810882251563157668_" class="st2" d="M281.8,172.7c-0.2-0.9-0.5-1.8-1-2.6
				c-0.4-0.7-1-1.3-1.7-1.7c-0.8-0.4-1.6-0.7-2.5-0.6c-0.5,0-1,0-1.6,0.2c-0.4,0.1-0.9,0.3-1.3,0.5c-0.4,0.2-0.8,0.5-1.1,0.9
				c-0.3,0.4-0.6,0.8-0.8,1.2v11.3c0.2,0.4,0.5,0.8,0.8,1.2c0.6,0.7,1.5,1.2,2.4,1.4c0.5,0.1,1.1,0.2,1.7,0.2c0.9,0,1.8-0.2,2.5-0.7
				c0.7-0.4,1.3-1.1,1.7-1.8c0.5-0.8,0.8-1.7,1-2.6c0.2-1,0.3-2.1,0.3-3.2v-0.5C282.1,174.9,282,173.8,281.8,172.7L281.8,172.7z
				 M264.8,162.7h6.4l0.3,2.7c0.4-0.4,0.8-0.9,1.2-1.2c0.4-0.4,0.9-0.7,1.4-0.9c0.6-0.3,1.3-0.6,2-0.7c0.8-0.2,1.6-0.3,2.3-0.3
				c1.6,0,3.1,0.3,4.6,1c1.3,0.7,2.5,1.6,3.3,2.8c0.9,1.3,1.6,2.8,2,4.4c0.5,1.8,0.7,3.7,0.7,5.6v0.5c0,1.9-0.2,3.7-0.7,5.5
				c-0.4,1.6-1.1,3-2,4.4c-0.9,1.2-2,2.2-3.3,2.9c-1.4,0.7-3,1.1-4.5,1.1c-0.8,0-1.7-0.1-2.5-0.3c-0.7-0.2-1.5-0.5-2.1-0.8
				c-0.4-0.2-0.8-0.5-1.1-0.8c-0.4-0.3-0.7-0.6-1-1v12.8h-7L264.8,162.7L264.8,162.7z"/>
			<path id="Path_357_00000174592105357612469420000014419388410540356235_" class="st2" d="M304.6,168.2c-0.6,0.3-1.2,0.7-1.7,1.2
				c-0.5,0.5-0.9,1.2-1.3,1.9c-0.3,0.8-0.6,1.6-0.8,2.4h11.4v-0.6c0-0.7-0.1-1.4-0.4-2.1c-0.3-0.6-0.6-1.2-1.1-1.7
				c-0.5-0.5-1.1-0.9-1.7-1.1c-0.7-0.3-1.5-0.4-2.3-0.4C306.1,167.8,305.3,167.9,304.6,168.2L304.6,168.2z M301.9,189.2
				c-1.6-0.6-3.1-1.6-4.4-2.8c-1.2-1.2-2.2-2.6-2.8-4.1c-0.7-1.6-1-3.4-1-5.1v-1c0-1.9,0.3-3.9,1-5.7c0.6-1.6,1.5-3.1,2.7-4.4
				c1.2-1.2,2.6-2.2,4.2-2.9c1.7-0.7,3.4-1,5.2-1c1.8,0,3.6,0.3,5.2,1c1.5,0.6,2.8,1.5,3.9,2.7c1.1,1.2,1.9,2.7,2.4,4.2
				c0.6,1.8,0.8,3.6,0.8,5.4v3h-18.4v0.1c0.2,0.9,0.5,1.8,0.9,2.6c0.4,0.7,0.9,1.3,1.5,1.8c0.6,0.6,1.4,1,2.2,1.3
				c0.9,0.3,1.8,0.5,2.7,0.5c1.4,0,2.7-0.3,4-0.8c1.2-0.5,2.3-1.3,3.1-2.3l3.5,3.8c-1.1,1.4-2.6,2.6-4.2,3.4
				c-2.1,1.1-4.5,1.6-6.8,1.5C305.7,190.3,303.7,190,301.9,189.2L301.9,189.2z"/>
			<path id="Path_358_00000105387522191498399420000002807684456603658388_" class="st2" d="M338.9,184.4c0.6-0.2,1.1-0.5,1.6-0.9
				c0.5-0.4,0.8-0.8,1.1-1.3c0.3-0.5,0.4-1.1,0.3-1.7h6.6c0,1.4-0.3,2.7-0.9,3.9c-0.6,1.2-1.5,2.3-2.5,3.1c-1.1,0.9-2.3,1.6-3.7,2
				c-1.4,0.5-2.9,0.7-4.4,0.7c-1.9,0-3.8-0.3-5.5-1.1c-1.5-0.7-2.9-1.7-4-2.9c-1.1-1.3-1.9-2.8-2.4-4.3c-0.6-1.7-0.8-3.5-0.8-5.3
				v-0.8c0-1.8,0.3-3.6,0.8-5.3c0.5-1.6,1.3-3.1,2.4-4.3c1.1-1.3,2.4-2.3,4-2.9c1.7-0.7,3.6-1.1,5.5-1.1c1.6,0,3.1,0.2,4.6,0.8
				c1.3,0.5,2.6,1.2,3.7,2.1c1,0.9,1.8,2.1,2.4,3.3c0.6,1.4,0.9,2.9,0.8,4.3h-6.6c0-0.6-0.1-1.3-0.3-1.9c-0.2-0.6-0.6-1.1-1-1.6
				c-0.5-0.4-1-0.8-1.6-1c-0.7-0.3-1.4-0.4-2.1-0.4c-1,0-1.9,0.2-2.7,0.7c-0.7,0.4-1.3,1.1-1.7,1.8c-0.5,0.8-0.8,1.7-0.9,2.6
				c-0.2,1-0.3,2-0.3,3v0.8c0,1,0.1,2,0.3,3c0.1,0.9,0.4,1.8,0.9,2.6c0.4,0.7,1,1.4,1.7,1.8c0.8,0.5,1.8,0.7,2.8,0.7
				C337.6,184.7,338.2,184.6,338.9,184.4L338.9,184.4z"/>
			<path id="Path_359_00000150092689850432957990000008863453052243727026_" class="st2" d="M365.7,162.7h10.1v5.1h-10.1v11.7
				c0,0.8,0.1,1.7,0.3,2.5c0.2,0.6,0.5,1.1,1,1.6c0.4,0.4,0.9,0.7,1.5,0.9c0.6,0.2,1.3,0.3,2,0.3c0.5,0,1.1,0,1.6-0.1
				c0.6-0.1,1.1-0.1,1.6-0.2c0.5-0.1,1-0.1,1.4-0.2c0.4-0.1,0.8-0.2,1.1-0.3l0.7,4.8c-0.5,0.3-1.1,0.6-1.7,0.7
				c-0.7,0.2-1.4,0.4-2.1,0.5c-0.7,0.1-1.5,0.2-2.3,0.3s-1.6,0.1-2.3,0.1c-1.4,0-2.7-0.2-4-0.6c-1.2-0.4-2.2-1-3.1-1.8
				c-0.9-0.9-1.6-2-2-3.1c-0.5-1.5-0.7-3-0.7-4.6v-12.3h-6.2v-5.1h6.2V156h7L365.7,162.7L365.7,162.7z"/>
			<path id="Path_360_00000177457474311095221030000009451769987745814169_" class="st2" d="M394.3,184.6c0.6-0.2,1.1-0.4,1.6-0.7
				c0.5-0.2,0.9-0.6,1.3-0.9c0.3-0.3,0.6-0.7,0.8-1v-4.7h-3.6c-0.9,0-1.9,0.1-2.8,0.3c-0.7,0.2-1.3,0.5-1.9,0.9
				c-0.5,0.4-0.8,0.8-1.1,1.4c-0.2,0.5-0.4,1.1-0.4,1.7c0,0.5,0.1,0.9,0.3,1.3c0.2,0.4,0.4,0.8,0.8,1c0.4,0.3,0.8,0.5,1.2,0.6
				c0.6,0.2,1.1,0.2,1.7,0.2C393,184.9,393.6,184.8,394.3,184.6L394.3,184.6z M398.5,188.6c-0.1-0.4-0.2-0.9-0.3-1.4
				c-0.4,0.4-0.8,0.8-1.3,1.2c-0.5,0.4-1.1,0.7-1.7,1c-0.7,0.3-1.3,0.5-2,0.7c-0.8,0.2-1.6,0.2-2.4,0.2c-1.3,0-2.6-0.2-3.8-0.6
				c-1.1-0.4-2.1-0.9-3-1.7c-0.8-0.7-1.5-1.6-2-2.6c-0.5-1-0.7-2.1-0.7-3.2c0-1.4,0.3-2.8,0.9-4c0.6-1.2,1.5-2.2,2.6-2.9
				c1.2-0.7,2.5-1.3,3.9-1.6c1.7-0.4,3.5-0.6,5.3-0.5h3.9v-1.6c0-0.6-0.1-1.2-0.3-1.7c-0.2-0.5-0.5-1-0.9-1.3
				c-0.5-0.4-1-0.7-1.6-0.9c-0.7-0.2-1.4-0.3-2.2-0.3c-0.6,0-1.3,0.1-1.9,0.3c-0.5,0.1-0.9,0.4-1.3,0.7c-0.3,0.3-0.5,0.6-0.7,1
				c-0.1,0.4-0.2,0.9-0.2,1.3h-7c0-1.1,0.3-2.3,0.8-3.3c0.5-1.1,1.3-2,2.2-2.7c1.1-0.8,2.3-1.5,3.6-1.9c1.6-0.5,3.2-0.7,4.8-0.7
				c1.5,0,3.1,0.2,4.6,0.6c1.3,0.4,2.6,1,3.7,1.8c1,0.8,1.9,1.8,2.4,3c0.6,1.3,0.9,2.7,0.9,4.1v11.6c0,1.2,0.1,2.4,0.3,3.6
				c0.2,0.9,0.4,1.7,0.8,2.5v0.4H399C398.8,189.4,398.6,189,398.5,188.6L398.5,188.6z"/>
			<path id="Path_361_00000161597885004538141620000001756561141272111233_" class="st2" d="M423.2,162.7h10.1v5.1h-10.1v11.7
				c0,0.8,0.1,1.7,0.3,2.5c0.2,0.6,0.5,1.1,1,1.6c0.4,0.4,0.9,0.7,1.5,0.9c0.6,0.2,1.3,0.3,2,0.3c0.5,0,1.1,0,1.6-0.1
				c0.6-0.1,1.1-0.1,1.6-0.2c0.5-0.1,1-0.1,1.4-0.2c0.4-0.1,0.8-0.2,1.1-0.3l0.7,4.8c-0.5,0.3-1.1,0.6-1.7,0.7
				c-0.7,0.2-1.4,0.4-2.1,0.5c-0.7,0.1-1.5,0.2-2.3,0.3c-0.8,0.1-1.6,0.1-2.3,0.1c-1.4,0-2.7-0.2-4-0.6c-1.2-0.4-2.2-1-3.1-1.8
				c-0.9-0.9-1.6-2-2-3.1c-0.5-1.5-0.7-3-0.7-4.6v-12.3H410v-5.1h6.2V156h7L423.2,162.7L423.2,162.7z"/>
			<path id="Path_362_00000146459766276216068860000014274477266109204413_" class="st2" d="M447.8,154.2c0.2-0.4,0.5-0.9,0.8-1.2
				c0.4-0.3,0.8-0.6,1.3-0.8c0.5-0.2,1.1-0.3,1.6-0.3c1.1-0.1,2.1,0.3,2.9,1c1.5,1.5,1.5,3.9,0,5.3c-0.8,0.7-1.9,1.1-2.9,1
				c-0.6,0-1.1-0.1-1.6-0.3c-0.5-0.2-0.9-0.4-1.3-0.8c-0.4-0.3-0.6-0.7-0.8-1.2c-0.2-0.5-0.3-1-0.3-1.5
				C447.5,155.2,447.6,154.7,447.8,154.2L447.8,154.2z M455,162.7v21.4h7.3v5.7h-22.1v-5.7h7.7v-15.8h-7.7v-5.7H455L455,162.7z"/>
			<path id="Path_363_00000146484465444912118360000008760848809232581032_" class="st2" d="M472.8,179.7c0.2,0.9,0.5,1.8,1,2.6
				c0.4,0.7,1.1,1.3,1.8,1.8c0.8,0.5,1.8,0.7,2.7,0.7c0.9,0,1.8-0.2,2.6-0.7c0.7-0.4,1.4-1,1.8-1.8c0.5-0.8,0.8-1.7,1-2.6
				c0.2-1.1,0.3-2.1,0.3-3.2V176c0-1.1-0.1-2.1-0.3-3.1c-0.2-0.9-0.5-1.8-1-2.6c-0.9-1.6-2.7-2.5-4.5-2.4c-0.9,0-1.8,0.2-2.7,0.7
				c-0.7,0.4-1.4,1-1.8,1.8c-0.5,0.8-0.8,1.7-1,2.6c-0.2,1-0.3,2.1-0.3,3.1v0.5C472.4,177.6,472.6,178.6,472.8,179.7L472.8,179.7z
				 M466.3,170.5c0.5-1.6,1.4-3.1,2.5-4.4c1.1-1.2,2.5-2.2,4-2.9c3.5-1.4,7.4-1.4,10.9,0c1.5,0.7,2.9,1.7,4,2.9
				c1.1,1.3,2,2.8,2.5,4.4c0.6,1.8,0.9,3.6,0.9,5.5v0.5c0,1.9-0.3,3.7-0.9,5.5c-0.5,1.6-1.4,3.1-2.5,4.4c-1.1,1.2-2.5,2.2-4,2.9
				c-1.7,0.7-3.6,1.1-5.4,1c-1.9,0-3.7-0.3-5.4-1c-1.5-0.7-2.9-1.6-4-2.9c-1.1-1.3-2-2.8-2.5-4.4c-0.6-1.8-0.9-3.6-0.9-5.5V176
				C465.5,174.1,465.8,172.3,466.3,170.5L466.3,170.5z"/>
			<path id="Path_364_00000010996821087224557200000001696294620725773972_" class="st2" d="M496.9,162.7h6.3l0.4,3.8
				c0.3-0.5,0.7-1,1.2-1.4c0.4-0.4,0.9-0.8,1.3-1.1c0.8-0.6,1.7-1,2.6-1.3c1-0.3,2-0.5,3-0.5c1.3,0,2.5,0.2,3.8,0.6
				c1.1,0.4,2.1,1,3,1.9c0.9,1,1.5,2.1,1.9,3.4c0.5,1.6,0.7,3.3,0.7,5v16.7h-7v-16.6c0-0.9-0.1-1.8-0.4-2.6c-0.2-0.6-0.6-1.2-1-1.6
				c-0.5-0.4-1-0.7-1.6-0.8c-0.7-0.2-1.4-0.2-2.2-0.2c-0.6,0-1.2,0.1-1.8,0.2c-0.5,0.1-1,0.4-1.5,0.7c-0.4,0.2-0.7,0.5-1,0.8
				c-0.3,0.3-0.6,0.6-0.8,1v19.3h-7L496.9,162.7L496.9,162.7z"/>
			<path id="Path_365_00000079460698609042980810000015149589163849680289_" class="st2" d="M544.2,181.2c-0.3-0.4-0.6-0.7-1-0.9
				c-0.6-0.3-1.3-0.6-2-0.8c-0.8-0.2-1.9-0.5-3.1-0.7c-1.5-0.3-2.9-0.7-4.3-1.2c-1.2-0.4-2.3-1-3.4-1.7c-0.9-0.6-1.6-1.4-2.2-2.3
				c-0.5-0.9-0.8-2-0.8-3.1c0-1.1,0.3-2.2,0.8-3.2c0.6-1.1,1.3-2,2.3-2.7c1.1-0.8,2.3-1.4,3.7-1.8c1.6-0.5,3.2-0.7,4.9-0.7
				c1.7,0,3.4,0.2,5.1,0.7c1.4,0.4,2.7,1,3.8,1.8c1,0.7,1.8,1.7,2.4,2.8c0.6,1.1,0.8,2.3,0.8,3.5h-7c0-0.4-0.1-0.9-0.2-1.3
				c-0.2-0.4-0.4-0.8-0.7-1.1c-0.5-0.5-1.1-0.8-1.7-1c-0.8-0.3-1.7-0.4-2.6-0.4c-0.8,0-1.5,0.1-2.2,0.3c-0.6,0.1-1.1,0.4-1.6,0.7
				c-0.3,0.2-0.6,0.6-0.8,0.9c-0.2,0.3-0.3,0.7-0.3,1.1c0,0.4,0.1,0.8,0.3,1.1c0.2,0.4,0.5,0.7,0.9,0.9c0.5,0.3,1.1,0.6,1.7,0.8
				c0.9,0.3,1.9,0.5,2.8,0.6c1.5,0.2,3.1,0.6,4.6,1c1.3,0.4,2.5,0.9,3.6,1.6c1,0.6,1.8,1.4,2.4,2.4c0.6,1,0.9,2.2,0.9,3.4
				c0,1.2-0.3,2.3-0.9,3.3c-0.6,1-1.4,1.9-2.4,2.6c-1.2,0.8-2.5,1.4-3.9,1.7c-1.6,0.4-3.3,0.6-5,0.6c-1.8,0-3.7-0.2-5.4-0.8
				c-1.4-0.5-2.8-1.2-3.9-2.1c-1-0.8-1.8-1.8-2.4-2.9c-0.5-1-0.8-2.1-0.8-3.3h6.6c0,0.7,0.2,1.3,0.6,1.9c0.3,0.5,0.8,1,1.4,1.3
				c0.6,0.3,1.2,0.6,1.9,0.7c1.5,0.3,3.1,0.3,4.6,0c0.6-0.1,1.1-0.3,1.7-0.6c0.4-0.2,0.7-0.5,0.9-0.9c0.2-0.3,0.3-0.7,0.3-1.2
				C544.5,181.9,544.4,181.6,544.2,181.2L544.2,181.2z"/>
			<path id="Path_366_00000067919238412025417300000012234314692769849786_" class="st3" d="M155.5,145.6h-29.4
				c-4.6,0-8.3,3.7-8.3,8.3s3.7,8.3,8.3,8.3h10.7l11.8,11.8c3.6-4.9,6-10.7,6.9-16.7c0.3-1.9,0.4-3.9,0.4-5.8
				C156,149.5,155.8,147.6,155.5,145.6L155.5,145.6z M167.3,145.5c0.2,2,0.4,4,0.4,6c0,27.5-22.3,49.8-49.8,49.9
				c-11.2,0-22.1-3.8-30.9-10.7l-11.9,11.9c28.2,23.6,70.1,19.9,93.7-8.3c10-12,15.5-27.1,15.5-42.7c0-2-0.1-4-0.3-6L167.3,145.5
				L167.3,145.5z M117.8,113.3c-8.1,0-16,2.6-22.6,7.4l11.9,11.9c5-2.8,10.9-3.5,16.5-2l6.3-15.3
				C126.1,113.9,121.9,113.3,117.8,113.3L117.8,113.3z M78.7,182.3c-17.1-21.6-13.4-52.9,8.2-70c18.1-14.3,43.7-14.3,61.8,0
				l11.9-11.9c-28.2-23.6-70.1-19.9-93.7,8.3c-20.7,24.7-20.7,60.8,0,85.5L78.7,182.3z M140.3,182.3c-17,12.5-40.9,8.7-53.4-8.3
				c-9.8-13.4-9.8-31.7,0-45.1l11.9,11.9c-5.9,10.4-2.2,23.6,8.3,29.5c6.6,3.7,14.7,3.7,21.3,0L140.3,182.3L140.3,182.3z"/>
		</g>
	</g>
</g>
</svg>
