<?xml version="1.0" encoding="utf-8"?>
<!-- Generator: Adobe Illustrator 27.9.0, SVG Export Plug-In . SVG Version: 6.00 Build 0)  -->
<svg version="1.1" id="Layer_2_00000025409204102716839700000007188190934644404881_"
	 xmlns="http://www.w3.org/2000/svg" xmlns:xlink="http://www.w3.org/1999/xlink" x="0px" y="0px" viewBox="0 0 600 300"
	 style="enable-background:new 0 0 600 300;" xml:space="preserve">
<style type="text/css">
	.st0{fill:none;}
	.st1{fill:#FFB567;}
	.st2{fill:#351D36;}
</style>
<path class="st0" d="M0.2,50L0.2,50C0.4,22.3,23.1,0,51,0h498.3C577.4,0,600,22.3,600,50l0,0v200c0,27.6-22.6,50-50.7,50H50.9
	C23,300.1,0.1,277.9,0,250.3V250L0.2,50z"/>
<g>
	<path class="st1" d="M208.3,145c-12.2-1.7-22-11.2-23.7-23.4l-2.5-18.3h-0.8l-17.8-2.4c-12.2-1.7-22-11.2-23.7-23.4l-2.4-18.3h-5
		l-2.5,18.4c-1.7,12-11.4,21.7-23.7,23.4l-17.8,2.4h-0.7L85,121.8c-1.7,12-11.4,21.7-23.7,23.4l-18.5,2.5v4.9l18.5,2.5
		c12.2,1.7,22,11.2,23.7,23.4l2.5,18.3h0.4l17.9,2.5c12.2,1.7,22,11.2,23.7,23.4l2.5,18.3h5l2.5-18.3c1.7-12,11.4-21.7,23.7-23.4
		l17.9-2.5h0.5l2.5-18.3c1.7-12,11.4-21.7,23.7-23.4l18.5-2.5v-4.9L208.3,145z M163.5,111.1l12.7-1.8l-1.8,12.4
		c-1.7,12-11.4,21.7-23.7,23.4l-12.7,1.8l1.8-12.4C141.5,122.3,151.3,112.7,163.5,111.1z M129.8,134.3l1.8,12.4l-12.7-1.8
		c-12.2-1.7-22-11.2-23.7-23.4l-1.8-12.4l12.7,1.8C118.3,112.7,128.1,122.3,129.8,134.3z M106.1,188.9l-12.7,1.8l1.8-12.4
		c1.7-12,11.4-21.6,23.7-23.3l12.7-1.8l-1.8,12.4C128.1,177.7,118.3,187.3,106.1,188.9z M139.8,165.7l-1.8-12.4l12.7,1.8
		c12.2,1.7,22,11.2,23.7,23.4l1.8,12.4l-12.7-1.8C151.3,187.3,141.5,177.7,139.8,165.7z"/>
	<path class="st2" d="M327,115.5c11.6,0,22,5.1,24.9,16.7h25.8c-2.5-23.9-23.1-39.4-50-39.4c-34.6,0-57.3,24-57.3,57.4
		c0,33.9,22,56.5,53.3,56.5c13.3,0,25.5-4.7,31.6-11.6l1.3,10h21v-63.5h-52.7v21.2h29.6c-1.1,11.5-9.3,21.4-27.7,21.4
		c-17.8,0-30.6-11.1-30.6-33.3C296.1,129.4,306.7,115.5,327,115.5z"/>
	<path class="st2" d="M444.1,130.4c-3.3-0.7-6.2-1.1-9-1.1c-10.2,0-16.8,4.9-20.1,12.2l-1.2-11.1h-21.9v74.6h23.3v-32.4
		c0-14.8,8-20.6,21.4-20.6h7.4L444.1,130.4L444.1,130.4z"/>
	<path class="st2" d="M472.7,207c11.4,0,21.4-4.9,23.7-11.8l1.5,9.9h20.6v-43.5c0-21.4-12.3-33.4-34.4-33.4
		c-21.7,0-35.8,11.1-35.8,27.9h19.5c0-6.7,5.3-10.5,15.1-10.5c8.3,0,12.8,3.9,12.8,11.2v1.2l-21.2,1.6c-18.1,1.3-27.9,9.9-27.9,23.5
		C446.6,197.7,456.7,207,472.7,207z M480.8,190c-7.1,0-10.4-2.5-10.4-7.9c0-4.8,3.6-7,13.8-7.9l11.7-1.1v4.1
		C496,185.6,489.8,190,480.8,190z"/>
	<path class="st2" d="M543.8,118.7c7.3,0,13.2-5.8,13.2-13.1s-5.9-13-13.2-13c-7.4,0-13.3,5.7-13.3,13
		C530.6,112.8,536.4,118.7,543.8,118.7z M532.3,204.9h23.3v-74.7h-23.3V204.9z"/>
</g>
</svg>
