<?xml version="1.0" encoding="UTF-8" standalone="no"?>
<svg
   viewBox="0 0 300 150"
   height="150"
   width="300"
   xml:space="preserve"
   id="svg2"
   version="1.1"
   sodipodi:docname="ibm_logo_bkgd2.svg"
   inkscape:version="1.4.2 (ebf0e940, 2025-05-08)"
   xmlns:inkscape="http://www.inkscape.org/namespaces/inkscape"
   xmlns:sodipodi="http://sodipodi.sourceforge.net/DTD/sodipodi-0.dtd"
   xmlns="http://www.w3.org/2000/svg"
   xmlns:svg="http://www.w3.org/2000/svg"
   xmlns:rdf="http://www.w3.org/1999/02/22-rdf-syntax-ns#"
   xmlns:cc="http://creativecommons.org/ns#"
   xmlns:dc="http://purl.org/dc/elements/1.1/"><sodipodi:namedview
     id="namedview1"
     pagecolor="#ffffff"
     bordercolor="#000000"
     borderopacity="0.25"
     inkscape:showpageshadow="2"
     inkscape:pageopacity="0.0"
     inkscape:pagecheckerboard="0"
     inkscape:deskcolor="#d1d1d1"
     inkscape:zoom="1.869929"
     inkscape:cx="238.77912"
     inkscape:cy="135.56664"
     inkscape:window-width="1800"
     inkscape:window-height="1050"
     inkscape:window-x="0"
     inkscape:window-y="1124"
     inkscape:window-maximized="0"
     inkscape:current-layer="svg2"><inkscape:page
       x="0"
       y="0"
       width="300"
       height="150"
       id="page2"
       margin="0"
       bleed="0" /></sodipodi:namedview><metadata
     id="metadata8"><rdf:RDF><cc:Work
         rdf:about=""><dc:format>image/svg+xml</dc:format><dc:type
           rdf:resource="http://purl.org/dc/dcmitype/StillImage" /></cc:Work></rdf:RDF></metadata><defs
     id="defs6" /><rect
     style="fill:none;stroke-width:0.843515"
     id="rect1"
     width="300"
     height="150"
     x="0"
     y="0" /><g
     transform="matrix(0.54144417,0,0,-0.63128155,-45.115964,226.32514)"
     id="g10"><g
       transform="scale(0.1)"
       id="g12"><path
         id="path14"
         style="fill:#455fb5;fill-opacity:1;fill-rule:nonzero;stroke:none"
         d="M 4448.26,3050 4410,3160 h -630 v -110 z m 73.03,-210 -38.25,110 H 3780 V 2840 Z M 4990,1580 h 550 v 110 h -550 z m 0,210 h 550 v 110 h -550 z m 0,210 h 330 v 110 h -330 z m 330,320 h -330 v -110 h 330 z m -330,100 h 330 v 110 H 4690.93 L 4660,2441.09 4629.08,2530 H 4000 v -110 h 330 v 101.09 L 4365.49,2420 h 589.03 l 35.48,101.08 z m 330,320 H 4763.96 L 4725.7,2630 H 5320 Z M 4000,2210 h 330 v 110 h -330 z m 0,-210 h 330 v 110 h -330 z m -220,-210 h 550 v 110 h -550 z m 0,-210 h 550 v 110 h -550 z m 1130,1580 -38.24,-110 H 5540 v 110 z M 4798.73,2840 H 5540 v 110 H 4836.98 Z M 4000,2630 h 594.31 l -38.26,110 H 4000 Z m 439.22,-420 h 441.58 l 38.61,110 h -518.8 z m 73.72,-210 h 294.13 l 38.62,110 h -371.36 z m 73.72,-210 h 146.69 l 38.61,110 h -223.91 z m 73.34,-210 38.23,110 h -76.46 z m -2200,0 h 810 c 110,0 208.64,41.69 283.34,110 H 2460 Z m 860,530 v -110 h 370 c 0,38.09 -5.21,74.92 -14.71,110 z m -640,-110 h 330 v 110 h -330 z m 640,630 h 355.29 c 9.5,35.08 14.71,71.92 14.71,110 h -370 z m -640,0 h 330 v 110 h -330 z m 590,530 h -810 v -110 h 1093.33 c -74.69,68.31 -174.13,110 -283.33,110 z m 363.67,-210 H 2460 v -110 h 1217.93 c -9.56,39.11 -24.6,76.04 -44.26,110 z M 2680,2530 v -110 h 861.8 c 36.53,31.05 67.58,68.26 91.75,110 z m 861.8,-210 H 2680 v -110 h 953.55 c -24.17,41.74 -55.22,78.95 -91.75,110 z M 2460,1790 h 1173.67 c 19.66,33.96 34.7,70.89 44.26,110 H 2460 Z m -880,1260 h 770 v 110 h -770 z m 0,-210 h 770 v 110 h -770 z m 550,-100 h -330 v -110 h 330 z m -330,-320 h 330 v 110 h -330 z m 0,-210 h 330 v 110 h -330 z m 0,-210 h 330 v 110 h -330 z m -220,-210 h 770 v 110 h -770 z m 0,-100 h 770 v -110 h -770 z m 4165.9,-26.27 c 6.72,0 10.5,2.94 10.5,9.24 v 6.3 c 0,6.3 -3.78,9.24 -10.5,9.24 h -15.97 v -24.78 z m -15.97,-46.21 h -21.42 v 87.79 h 39.91 c 19.74,0 29.82,-11.76 29.82,-27.72 0,-13.86 -6.3,-22.69 -15.96,-26.47 l 19.74,-33.6 h -23.52 l -16.38,30.24 h -12.19 z m 76.88,39.06 v 10.93 c 0,35.28 -27.73,63.01 -64.27,63.01 -36.55,0 -64.28,-27.73 -64.28,-63.01 v -10.93 c 0,-35.28 27.73,-63.01 64.28,-63.01 36.54,0 64.27,27.73 64.27,63.01 z m -148.28,5.47 c 0,49.14 37.38,86.53 84.01,86.53 46.62,0 84.01,-37.39 84.01,-86.53 0,-49.15 -37.39,-86.54 -84.01,-86.54 -46.63,0 -84.01,37.39 -84.01,86.54" /></g></g></svg>
