<svg id="Layer_1" data-name="Layer 1" xmlns="http://www.w3.org/2000/svg" viewBox="0 0 141.16 141.16"><defs><style>.cls-1,.cls-3{fill:#fff;}.cls-1{stroke:#74a4bc;stroke-miterlimit:10;}.cls-2{fill:#74a4bc;}</style></defs><circle class="cls-1" cx="70.5" cy="70.52" r="69.69"/><polygon class="cls-2" points="103.97 37.92 25.34 37.92 25.34 71.9 25.34 105.89 103.97 105.89 128.06 71.9 103.97 37.92"/><path class="cls-3" d="M103.49,86.41a1.45,1.45,0,0,1,.45,1.11,1.57,1.57,0,0,1-.45,1.15,1.58,1.58,0,0,1-1.15.45h-19a1.58,1.58,0,0,1-1.15-.45,1.57,1.57,0,0,1-.45-1.15v-34a1.5,1.5,0,0,1,.48-1.14,1.72,1.72,0,0,1,1.22-.45,1.65,1.65,0,0,1,1.17.45,1.5,1.5,0,0,1,.48,1.14V86h17.21A1.65,1.65,0,0,1,103.49,86.41Z"/><path class="cls-3" d="M72.42,80.35a17.46,17.46,0,0,1-31,0,22.35,22.35,0,0,1,0-19.71,17,17,0,0,1,6.32-6.8A17.39,17.39,0,0,1,56.9,51.4a17.37,17.37,0,0,1,9.19,2.44,17,17,0,0,1,6.33,6.8,22.44,22.44,0,0,1,0,19.71Zm-3-18.09a13.74,13.74,0,0,0-5.1-5.66,14.8,14.8,0,0,0-14.93,0,13.74,13.74,0,0,0-5.1,5.66,19.46,19.46,0,0,0,0,16.52,13.68,13.68,0,0,0,5.1,5.66,14.8,14.8,0,0,0,14.93,0,13.68,13.68,0,0,0,5.1-5.66,19.56,19.56,0,0,0,0-16.52Z"/></svg>