<svg width="147" height="58" viewBox="0 0 147 58" fill="none" xmlns="http://www.w3.org/2000/svg">
<rect width="147" height="58" fill="#24186C"/>
<path d="M54.4375 17.9346H51.8125V40.7471H54.4375V17.9346ZM74.125 38.4971H62.6875V17.9346H60.0625V40.7471H74.125V38.4971ZM79.5625 31.8096C79.5625 37.8721 82.6875 40.9971 88.625 40.9971C94.5625 40.9971 97.6875 37.8096 97.6875 31.8096V17.9346H95.0625V32.0596C95.0625 36.4971 92.875 38.7471 88.625 38.7471C84.375 38.7471 82.1875 36.4971 82.1875 32.0596V17.9346H79.5625V31.8096ZM105.312 17.9346H103.125V40.7471H105.562L105.5 23.9346L113 40.7471H114.812L122.25 23.8096V40.7471H124.688V17.9346H122.5L113.938 37.6221L105.312 17.9346Z" fill="white"/>
<path d="M54.4375 17.9346H55.4375V16.9346H54.4375V17.9346ZM51.8125 17.9346V16.9346H50.8125V17.9346H51.8125ZM51.8125 40.7471H50.8125V41.7471H51.8125V40.7471ZM54.4375 40.7471V41.7471H55.4375V40.7471H54.4375ZM54.4375 16.9346H51.8125V18.9346H54.4375V16.9346ZM50.8125 17.9346V40.7471H52.8125V17.9346H50.8125ZM51.8125 41.7471H54.4375V39.7471H51.8125V41.7471ZM55.4375 40.7471V17.9346H53.4375V40.7471H55.4375ZM74.125 38.4971H75.125V37.4971H74.125V38.4971ZM62.6875 38.4971H61.6875V39.4971H62.6875V38.4971ZM62.6875 17.9346H63.6875V16.9346H62.6875V17.9346ZM60.0625 17.9346V16.9346H59.0625V17.9346H60.0625ZM60.0625 40.7471H59.0625V41.7471H60.0625V40.7471ZM74.125 40.7471V41.7471H75.125V40.7471H74.125ZM74.125 37.4971H62.6875V39.4971H74.125V37.4971ZM63.6875 38.4971V17.9346H61.6875V38.4971H63.6875ZM62.6875 16.9346H60.0625V18.9346H62.6875V16.9346ZM59.0625 17.9346V40.7471H61.0625V17.9346H59.0625ZM60.0625 41.7471H74.125V39.7471H60.0625V41.7471ZM75.125 40.7471V38.4971H73.125V40.7471H75.125ZM97.6875 17.9346H98.6875V16.9346H97.6875V17.9346ZM95.0625 17.9346V16.9346H94.0625V17.9346H95.0625ZM82.1875 17.9346H83.1875V16.9346H82.1875V17.9346ZM79.5625 17.9346V16.9346H78.5625V17.9346H79.5625ZM78.5625 31.8096C78.5625 35.0027 79.3868 37.5924 81.1565 39.3802C82.9279 41.1698 85.4891 41.9971 88.625 41.9971V39.9971C85.8234 39.9971 83.8533 39.2618 82.5779 37.9733C81.3007 36.683 80.5625 34.679 80.5625 31.8096H78.5625ZM88.625 41.9971C91.7661 41.9971 94.3261 41.1514 96.0953 39.355C97.862 37.5611 98.6875 34.974 98.6875 31.8096H96.6875C96.6875 34.6452 95.9505 36.6518 94.6703 37.9516C93.3927 39.2489 91.4214 39.9971 88.625 39.9971V41.9971ZM98.6875 31.8096V17.9346H96.6875V31.8096H98.6875ZM97.6875 16.9346H95.0625V18.9346H97.6875V16.9346ZM94.0625 17.9346V32.0596H96.0625V17.9346H94.0625ZM94.0625 32.0596C94.0625 34.1276 93.5528 35.5078 92.7179 36.373C91.8892 37.2318 90.581 37.7471 88.625 37.7471V39.7471C90.919 39.7471 92.8296 39.1374 94.1571 37.7618C95.4784 36.3926 96.0625 34.429 96.0625 32.0596H94.0625ZM88.625 37.7471C86.669 37.7471 85.3608 37.2318 84.5321 36.373C83.6972 35.5078 83.1875 34.1276 83.1875 32.0596H81.1875C81.1875 34.429 81.7716 36.3926 83.0929 37.7618C84.4204 39.1374 86.331 39.7471 88.625 39.7471V37.7471ZM83.1875 32.0596V17.9346H81.1875V32.0596H83.1875ZM82.1875 16.9346H79.5625V18.9346H82.1875V16.9346ZM78.5625 17.9346V31.8096H80.5625V17.9346H78.5625ZM105.312 17.9346L106.228 17.5333L105.966 16.9346H105.312V17.9346ZM103.125 17.9346V16.9346H102.125V17.9346H103.125ZM103.125 40.7471H102.125V41.7471H103.125V40.7471ZM105.562 40.7471V41.7471H106.566L106.562 40.7434L105.562 40.7471ZM105.5 23.9346L106.413 23.5272L104.5 23.9383L105.5 23.9346ZM113 40.7471L112.087 41.1545L112.351 41.7471H113V40.7471ZM114.812 40.7471V41.7471H115.466L115.728 41.1491L114.812 40.7471ZM122.25 23.8096H123.25L121.334 23.4075L122.25 23.8096ZM122.25 40.7471H121.25V41.7471H122.25V40.7471ZM124.688 40.7471V41.7471H125.688V40.7471H124.688ZM124.688 17.9346H125.688V16.9346H124.688V17.9346ZM122.5 17.9346V16.9346H121.844L121.583 17.5357L122.5 17.9346ZM113.938 37.6221L113.022 38.0233L113.941 40.1217L114.855 38.0209L113.938 37.6221ZM105.312 16.9346H103.125V18.9346H105.312V16.9346ZM102.125 17.9346V40.7471H104.125V17.9346H102.125ZM103.125 41.7471H105.562V39.7471H103.125V41.7471ZM106.562 40.7434L106.5 23.9309L104.5 23.9383L104.563 40.7508L106.562 40.7434ZM104.587 24.342L112.087 41.1545L113.913 40.3397L106.413 23.5272L104.587 24.342ZM113 41.7471H114.812V39.7471H113V41.7471ZM115.728 41.1491L123.166 24.2116L121.334 23.4075L113.897 40.345L115.728 41.1491ZM121.25 23.8096V40.7471H123.25V23.8096H121.25ZM122.25 41.7471H124.688V39.7471H122.25V41.7471ZM125.688 40.7471V17.9346H123.688V40.7471H125.688ZM124.688 16.9346H122.5V18.9346H124.688V16.9346ZM121.583 17.5357L113.02 37.2232L114.855 38.0209L123.417 18.3334L121.583 17.5357ZM114.853 37.2208L106.228 17.5333L104.397 18.3358L113.022 38.0233L114.853 37.2208Z" fill="#F5F6FF"/>
<path d="M19.0469 19.0525L31.0347 42.5424L32.8651 21.301L19.0469 19.0525Z" fill="#3FDDEC"/>
<path d="M32.8538 21.301L31.0234 42.5424L42.9887 17.5498L32.8538 21.301Z" fill="url(#paint0_linear_897:5595)"/>
<path d="M42.8627 17.6209L29.479 15L19 19.0671L32.8521 21.2929L42.8627 17.6209Z" fill="#38B8CD"/>
<defs>
<linearGradient id="paint0_linear_897:5595" x1="37.0061" y1="17.5498" x2="37.0061" y2="42.5424" gradientUnits="userSpaceOnUse">
<stop stop-color="#48A1C8"/>
<stop offset="1" stop-color="#3FDDEC"/>
</linearGradient>
</defs>
</svg>
