<?xml version="1.0" encoding="utf-8"?>
<!-- Generator: Adobe Illustrator 27.9.0, SVG Export Plug-In . SVG Version: 6.00 Build 0)  -->
<svg version="1.1" id="Layer_2_00000055703618052163121790000008512157485269105582_"
	 xmlns="http://www.w3.org/2000/svg" xmlns:xlink="http://www.w3.org/1999/xlink" x="0px" y="0px" viewBox="0 0 600.2 300.2"
	 style="enable-background:new 0 0 600.2 300.2;" xml:space="preserve">
<style type="text/css">
	.st0{fill:#FFFFFF;}
	.st1{fill:#3CA0FF;}
</style>
<path class="st0" d="M60.9-0.3h478.4c33.4,0,60.8,29,60.8,65.1v169.9c0,35.5-27.4,65.1-60.8,65.1H60.9c-33.4,0-60.8-29-60.8-65.1
	V64.8C0.1,29.3,27.5-0.3,60.9-0.3z"/>
<g id="Page-1">
	<path id="logo_white-copy" class="st1" d="M529.9,138.2c4.1,4.1,5.9,9.5,5.9,16.8v26.3c0,3.2-2.7,5.9-5.9,5.9c-3.6,0-5.9-2.3-5.9-5
		v-2.3c-3.6,4.5-9.1,7.7-17.2,7.7c-10,0-19-5.9-19-16.8l0,0c0-11.8,9.1-17.2,22.2-17.2c5.9,0,10,0.9,14.5,2.3v-1.4
		c0-7.7-4.5-11.8-13.2-11.8c-4.5,0-8.6,0.9-11.8,2.3c-0.9,0-1.4,0.5-1.8,0.5c-2.7,0-5-2.3-5-5c0-2.3,1.4-4.1,3.2-5
		c5-1.8,10-3.2,17.2-3.2C519.9,131.8,525.8,134.1,529.9,138.2L529.9,138.2z M524,167.2v-3.6c-3.2-1.4-7.3-2.3-12.2-2.3
		c-7.7,0-12.7,3.2-12.7,9.1l0,0c0,5,4.5,8.2,10.4,8.2C517.7,178.5,524,174,524,167.2L524,167.2z M474.6,111.4c3.6,0,6.3,2.7,6.3,6.3
		v63.5c0,3.6-2.7,6.3-6.3,6.3c-3.2,0-5.9-2.7-5.9-6.3v-63.5C468.7,114.1,471.4,111.4,474.6,111.4z M433.3,131.4
		c16.3,0,28.6,12.7,28.6,28.1l0,0c0,15.4-12.2,28.1-28.6,28.1c-16.3,0-28.1-12.7-28.1-27.7l0,0C404.8,144.5,417,131.4,433.3,131.4
		L433.3,131.4z M449.2,159.9L449.2,159.9c0-9.5-6.8-17.7-16.3-17.7S417,150,417,159.5l0,0c0,9.5,6.8,17.2,16.3,17.2
		C443.3,177.2,449.2,169.5,449.2,159.9z M373,131.4c16.3,0,28.6,12.7,28.6,28.1l0,0c0,15.4-12.2,28.1-28.6,28.1
		c-16.3,0-28.1-12.7-28.1-27.7l0,0C344.4,144.5,356.7,131.4,373,131.4z M388.9,159.9L388.9,159.9c0-9.5-6.8-17.7-16.3-17.7
		s-15.9,7.7-15.9,17.2l0,0c0,9.5,6.8,17.2,16.3,17.2C383,177.2,388.9,169.5,388.9,159.9z M315.9,131.4c12.7,0,24.9,10,24.9,28.1l0,0
		c0,17.7-12.2,28.1-24.9,28.1c-9.1,0-14.5-4.5-18.1-9.5v2.7c0,3.2-2.7,6.3-6.3,6.3c-3.2,0-5.9-2.7-5.9-6.3v-63
		c0-3.6,2.7-6.3,5.9-6.3c3.6,0,6.3,2.7,6.3,6.3v24C301.8,135.9,307.2,131.3,315.9,131.4L315.9,131.4z M328.6,159.9L328.6,159.9
		c0-10.4-6.8-17.7-15.4-17.7c-8.2,0-15.4,6.8-15.4,17.2l0,0c0,10.4,7.3,17.2,15.4,17.2C321.3,177.2,328.6,170.4,328.6,159.9z
		 M253.7,131.4c16.8,0,25.4,14.1,25.4,26.8c0,3.6-2.7,5.9-5.9,5.9h-33.6c1.4,8.6,7.3,13.6,15.4,13.6c5,0,9.1-1.8,12.7-4.5
		c0.9-0.9,1.8-0.9,3.2-0.9c2.7,0,5,2.3,5,5c0,1.4-0.9,2.7-1.8,3.6c-5,4.5-10.9,7.3-19,7.3c-15.4,0-27.2-11.3-27.2-28.1l0,0
		C227.9,144.1,238.8,131.4,253.7,131.4L253.7,131.4z M240.1,155.8h27.2c-0.9-8.2-5.4-14.1-13.6-14.1
		C246.5,141.8,241,147.7,240.1,155.8z M202,146.8l24,29.9c0.9,1.4,1.8,2.7,1.8,4.5c0,3.6-2.7,6.3-6.3,6.3c-2.3,0-4.1-1.4-5.4-3.2
		l-22.7-29.5l-11.3,11.3v15c0,3.6-2.7,6.3-6.3,6.3s-6.3-2.7-6.3-6.3v-60.3c0-3.6,2.7-6.3,6.3-6.3s6.3,2.7,6.3,6.3v30.4l33.6-34
		c1.4-1.4,2.7-2.3,5-2.3c3.6,0,5.9,2.7,5.9,5.9c0,1.8-0.9,3.2-2.3,4.5L202,146.8L202,146.8z M100,164.5c-16.3,0-29-20-29-45.3
		s10.4-29,29-29s28.1,3.6,28.1,29S115,164.5,100,164.5z M133.1,187.6c1.4,2.3,0.5,5-1.8,6.3c-0.9,0.9-1.8,0.9-2.7,0.9
		c-1.8,0-3.2-0.9-4.1-2.3c-1.4-2.7-3.2-4.5-5-5.9c-1.8-1.8-3.6-3.2-6.3-5c-1.4-0.9-2.3-1.4-3.2-2.3c0,0.5,0.5,0.5,0.5,0.9
		c3.2,6.3,6.8,14.5,6.8,24.5c0,2.7-2.3,4.5-5,4.5c-2.7,0-5-2.3-5-4.5c0-7.3-2.7-14.5-5.4-20c-0.9-1.8-1.8-3.2-2.7-4.5
		c-0.9,1.4-1.8,2.7-2.7,4.1c-2.7,5.4-5.4,12.7-5.4,20c0,2.7-2.3,4.5-5,4.5c-2.7,0-5-2.3-5-4.5c0-9.5,3.2-18.1,6.8-24.5
		c0-0.5,0.5-0.5,0.5-0.9c-0.9,0.5-2.3,1.4-3.2,2.3c-2.3,1.8-4.5,3.2-6.3,5c-1.8,1.8-3.2,3.6-5,5.9c-1.4,2.3-4.1,3.2-6.8,1.8
		c-2.3-1.4-3.2-4.1-1.8-6.3c1.8-3.2,4.1-5.9,6.8-8.2c2.3-2.3,4.5-4.1,6.8-5.4c0.9-0.9,2.3-1.4,3.2-2.3c-0.9-0.5-2.3-1.4-3.2-2.3
		c-5-4.1-9.5-9.1-13.6-15.4c-1.4-2.3-0.5-5,1.8-6.3c2.3-1.4,5.4-0.5,6.8,1.8c3.2,5.4,7.3,10,10.9,12.7c4.1,3.2,8.6,4.5,12.7,5h2.7
		c4.5-0.5,8.6-1.8,12.7-5c4.1-3.2,7.7-7.3,10.9-12.7c1.4-2.3,4.1-3.2,6.8-1.8c2.3,1.4,3.2,4.1,1.8,6.3c-3.6,6.3-8.2,11.8-13.6,15.4
		c-0.9,0.9-2.3,1.4-3.2,2.3c0.9,0.5,2.3,1.4,3.2,2.3c2.3,1.8,4.5,3.2,6.8,5.4C128.5,181.7,130.8,184.4,133.1,187.6L133.1,187.6z
		 M93.2,148.1c-2.7,0-5,2.3-5,4.5c0,2.7,2.3,4.5,5,4.5c2.7,0,5-2.3,5-4.5S95.9,148.1,93.2,148.1z M105.9,148.1c-2.7,0-5,2.3-5,4.5
		c0,2.7,2.3,4.5,5,4.5c2.7,0,5-2.3,5-4.5S108.6,148.1,105.9,148.1z"/>
</g>
</svg>
