<?xml version="1.0" encoding="UTF-8" standalone="no"?>
<!-- Generator: Adobe Illustrator 26.5.0, SVG Export Plug-In . SVG Version: 6.00 Build 0)  -->

<svg
   version="1.1"
   id="Layer_1"
   x="0px"
   y="0px"
   viewBox="0 0 300.00001 149.99999"
   xml:space="preserve"
   sodipodi:docname="Logocombo_SnapLogic_RGB.svg"
   width="300"
   height="150"
   inkscape:version="1.1.2 (0a00cf5339, 2022-02-04)"
   inkscape:export-filename="/home/michael/Projects/openlineage/OpenLineage/website/static/img/Logocombo_SnapLogic_RGB.png"
   inkscape:export-xdpi="96"
   inkscape:export-ydpi="96"
   xmlns:inkscape="http://www.inkscape.org/namespaces/inkscape"
   xmlns:sodipodi="http://sodipodi.sourceforge.net/DTD/sodipodi-0.dtd"
   xmlns="http://www.w3.org/2000/svg"
   xmlns:svg="http://www.w3.org/2000/svg"><defs
   id="defs174" /><sodipodi:namedview
   id="namedview172"
   pagecolor="#ffffff"
   bordercolor="#666666"
   borderopacity="1.0"
   inkscape:pageshadow="2"
   inkscape:pageopacity="0.0"
   inkscape:pagecheckerboard="0"
   showgrid="false"
   height="249.60001px"
   inkscape:zoom="3.2935561"
   inkscape:cx="60.724638"
   inkscape:cy="72.110507"
   inkscape:window-width="1880"
   inkscape:window-height="1041"
   inkscape:window-x="40"
   inkscape:window-y="0"
   inkscape:window-maximized="0"
   inkscape:current-layer="Layer_1"
   lock-margins="true" />
<style
   type="text/css"
   id="style131">
	.st0{fill:#003399;}
	.st1{fill:#FFFFFF;}
</style>
<g
   id="g169"
   transform="matrix(0.60168042,0,0,0.60168042,-1.2925425,26.654978)">
	<g
   id="g157">
		<g
   id="g141">
			<path
   class="st0"
   d="m 175.5,55.2 c -1.2,-2.8 -3.1,-5.1 -5.7,-6.8 -2.6,-1.7 -5.5,-2.5 -8.8,-2.5 -3.2,0 -6.2,0.7 -8.9,2.2 -1.4,0.8 -2.8,1.8 -4.1,3 v -4.2 h -8.6 V 89.7 H 148 V 73.5 c 0,-6.2 0.4,-9 0.7,-10.2 0.7,-2.6 2.1,-4.8 4.2,-6.6 2.1,-1.7 4.5,-2.6 7.1,-2.6 2.2,0 4.1,0.5 5.4,1.6 1.3,1 2.2,2.7 2.7,4.9 0.2,0.9 0.5,3.2 0.5,8.6 v 20.5 h 8.6 v -22 c 0,-5.5 -0.5,-9.8 -1.7,-12.5"
   id="path133" />
			<path
   class="st0"
   d="m 248.5,59.2 c 0.2,-0.2 0.4,-0.4 0.5,-0.5 2.6,-2.6 5.8,-3.9 9.8,-3.9 l 0.1,-1.3 v 1.3 c 3.6,0 6.7,1.4 9.6,4.2 l 0.1,0.1 c 0.1,0.1 0.2,0.2 0.4,0.4 2.4,2.3 3.5,5.3 3.5,9.1 0,3.8 -1.3,6.9 -4,9.6 -2.7,2.7 -5.9,4 -9.8,4 -4.1,0 -7.2,-1.2 -9.7,-3.5 -1.3,-1.2 -2.3,-2.8 -3.1,-4.8 -0.7,-1.8 -1.1,-3.6 -1.1,-5.3 0.1,-3.8 1.3,-7 3.7,-9.4 m 25.9,-6 c -4.3,-4.3 -9.5,-6.5 -15.5,-6.5 -5.1,0 -9.6,1.6 -13.7,4.9 V 47 h -8.3 v 74.8 h 8.3 v -36 c 3.8,3.1 8.4,4.7 13.7,4.7 2.9,0 5.8,-0.6 8.4,-1.6 4.1,-1.6 7.4,-4.3 9.8,-8 2.5,-3.7 3.7,-7.8 3.7,-12.2 0.1,-6 -2.1,-11.3 -6.4,-15.5"
   id="path135" />
			<path
   class="st0"
   d="m 121.5,64 c -3.6,-1.8 -5,-3 -5.5,-3.7 -0.7,-0.8 -1,-1.6 -1,-2.5 0,-1 0.4,-1.7 1.2,-2.5 0.8,-0.8 1.8,-1.2 3,-1.2 2.1,0 4.3,1.2 6.7,3.4 l 1.3,1.2 5.7,-5.9 -1.3,-1.2 c -4,-3.8 -8.1,-5.8 -12.1,-5.8 -3.6,0 -6.6,1.2 -8.9,3.5 -2.4,2.3 -3.6,5.2 -3.6,8.7 0,2.7 0.8,5.1 2.3,7.1 1.4,2 4.1,4 7.9,6 3.8,2 5.3,3.1 5.8,3.7 0.7,0.8 1,1.7 1,2.7 0,1.3 -0.5,2.3 -1.6,3.3 -1.1,1 -2.4,1.5 -4,1.5 -2.4,0 -4.7,-1.3 -6.9,-3.8 l -1.3,-1.5 -5.5,6.2 0.9,1.2 c 1.5,1.9 3.4,3.5 5.7,4.6 2.3,1.1 4.7,1.7 7.3,1.7 3.9,0 7.1,-1.3 9.7,-3.9 2.6,-2.6 3.9,-5.7 3.9,-9.4 0,-2.7 -0.8,-5.1 -2.3,-7.2 -1.7,-2.1 -4.5,-4.1 -8.4,-6.2"
   id="path137" />
			<path
   class="st0"
   d="m 220.3,68.6 c 0,2.7 -0.6,5.1 -1.8,7.2 -1.2,2.1 -2.9,3.7 -5,5 -4.3,2.4 -9.7,2.4 -13.8,0 -2.1,-1.2 -3.8,-3 -5.1,-5.2 -1.3,-2.2 -1.9,-4.6 -1.9,-7.1 0,-2.5 0.6,-4.8 1.9,-7.1 1.2,-2.2 2.9,-3.9 5,-5.2 2.1,-1.2 4.4,-1.8 6.9,-1.8 3.9,0 7.1,1.4 9.8,4 2.6,2.8 4,6.2 4,10.2 M 219.9,47 v 4.3 c -1.3,-1.2 -2.8,-2.2 -4.3,-3 -2.9,-1.5 -6.1,-2.3 -9.6,-2.3 -6,0 -11.3,2.2 -15.6,6.6 -4.3,4.3 -6.5,9.6 -6.5,15.7 0,6.2 2.2,11.6 6.4,15.9 4.3,4.4 9.5,6.6 15.5,6.6 3.4,0 6.6,-0.7 9.4,-2.1 1.6,-0.8 3.1,-1.8 4.6,-3 v 4.2 h 8.5 V 47 Z"
   id="path139" />
		</g>
		<polygon
   class="st0"
   points="315.7,89.1 315.7,80.8 296.5,80.8 296.5,19 287.8,19 287.8,89.1 "
   id="polygon143" />
		<path
   class="st0"
   d="m 468.1,77.7 -0.9,0.9 c -2.7,2.7 -5.9,4 -9.8,4 -3.9,0 -7.1,-1.3 -9.6,-3.8 -2.5,-2.6 -3.7,-5.8 -3.7,-9.8 0,-4 1.1,-7.2 3.4,-9.5 0.2,-0.2 0.4,-0.4 0.5,-0.5 2.5,-2.5 5.6,-3.7 9.4,-3.7 3.9,0 7,1.3 9.6,3.9 l 0.9,0.9 5.7,-5.9 -0.9,-0.9 c -4.3,-4.1 -9.4,-6.1 -15.3,-6.1 -6,0 -11.2,2.1 -15.5,6.4 -4.2,4.2 -6.4,9.4 -6.4,15.5 0,6.1 2.1,11.3 6.3,15.5 4.2,4.2 9.4,6.3 15.5,6.3 6,0 11.3,-2.1 15.6,-6.3 l 0.9,-0.9 z"
   id="path145" />
		<path
   class="st0"
   d="m 400.9,129.9 c -2.6,2.6 -5.6,3.9 -9.1,3.9 -3.5,0 -6.7,-1.4 -9.6,-4.4 -2.6,-2.6 -3.9,-5.7 -3.9,-9.6 0,-4 1.3,-7.2 3.9,-9.8 l 0.3,-0.3 c 2.6,-2.6 5.7,-3.9 9.3,-3.9 3.6,0 6.8,1.4 9.6,4.2 2.5,2.5 3.7,5.7 3.7,9.8 0,4 -1.4,7.3 -4.2,10.1 M 378.3,69.1 c 0,-4 1.3,-7.2 3.9,-9.8 l 0.3,-0.3 c 2.6,-2.6 5.7,-3.9 9.3,-3.9 3.6,0 6.8,1.4 9.6,4.2 2.5,2.5 3.7,5.7 3.7,9.8 0,4 -1.4,7.3 -4.2,10.1 -2.6,2.6 -5.6,3.9 -9.1,3.9 -3.5,0 -6.7,-1.4 -9.6,-4.4 -2.7,-2.6 -3.9,-5.8 -3.9,-9.6 m -28.1,10 c -2.6,2.6 -5.6,3.9 -9.1,3.9 -3.5,0 -6.7,-1.4 -9.6,-4.4 -2.6,-2.6 -3.9,-5.7 -3.9,-9.6 0,-4 1.3,-7.2 3.9,-9.8 l 0.3,-0.3 c 2.6,-2.6 5.7,-3.9 9.3,-3.9 3.6,0 6.8,1.4 9.6,4.2 2.5,2.5 3.7,5.7 3.7,9.8 0,4 -1.4,7.3 -4.2,10.1 m 45.7,19.1 v -7.7 c 4.3,-0.8 8.1,-2.7 11.3,-5.9 4.2,-4.1 6.3,-9.3 6.3,-15.5 0,-6.2 -2.1,-11.5 -6.3,-15.7 -4.2,-4.2 -9.4,-6.3 -15.4,-6.3 -6.1,0 -11.3,2.2 -15.6,6.4 -3.2,3.2 -5.2,7 -6,11.2 h -7.7 c -0.8,-4.4 -2.7,-8.2 -5.9,-11.4 -4.2,-4.2 -9.4,-6.3 -15.4,-6.3 -6.1,0 -11.3,2.2 -15.6,6.4 -4.3,4.3 -6.4,9.5 -6.4,15.6 0,2.8 0.5,5.6 1.6,8.3 1.1,2.9 2.7,5.3 4.7,7.2 4.4,4.2 9.7,6.3 15.7,6.3 6,0 11.2,-2.1 15.5,-6.3 3.2,-3.1 5.2,-6.9 5.9,-11.3 h 7.7 c 0.3,1.4 0.7,2.8 1.2,4.2 1.1,2.9 2.7,5.3 4.7,7.2 3.3,3.1 7.1,5.1 11.3,5.9 v 7.8 c -4.2,0.8 -8,2.8 -11.2,6 -4.3,4.3 -6.4,9.5 -6.4,15.6 0,2.8 0.5,5.6 1.6,8.3 1.1,2.9 2.7,5.3 4.7,7.2 4.4,4.2 9.7,6.3 15.7,6.3 6,0 11.2,-2.1 15.5,-6.3 4.2,-4.1 6.3,-9.3 6.3,-15.5 0,-6.2 -2.1,-11.5 -6.3,-15.7 -3.4,-3.3 -7.2,-5.3 -11.5,-6"
   id="path147" />
		<rect
   x="420.10001"
   y="48.200001"
   class="st0"
   width="8.8999996"
   height="40.900002"
   id="rect149" />
		<path
   class="st0"
   d="m 424.5,44.9 c 1.6,0 3.1,-0.6 4.2,-1.7 1.2,-1.2 1.7,-2.6 1.7,-4.2 0,-1.6 -0.6,-3.1 -1.7,-4.2 -1.1,-1.1 -2.6,-1.7 -4.2,-1.7 -1.6,0 -3.1,0.6 -4.2,1.7 -1.1,1.1 -1.7,2.6 -1.7,4.2 0,1.6 0.6,3 1.7,4.2 1.2,1.1 2.7,1.7 4.2,1.7"
   id="path151" />
		<g
   id="g155">
			<path
   class="st0"
   d="m 482.6,48.8 c 2.7,0 5,2.2 5,5 0,2.8 -2.2,5 -5,5 -2.8,0 -5,-2.2 -5,-5 0,-2.8 2.2,-5 5,-5 z m 0,9.4 c 2.5,0 4.5,-2 4.5,-4.5 0,-2.5 -2,-4.5 -4.5,-4.5 -2.5,0 -4.5,2 -4.5,4.5 0,2.5 2,4.5 4.5,4.5 z m 0.8,-4 1.3,1.9 c 0.1,0.2 0,0.2 -0.2,0.2 H 484 c -0.1,0 -0.2,0 -0.3,-0.1 l -1.2,-1.9 h -0.7 v 1.9 c 0,0.1 0,0.1 -0.2,0.1 H 481 c -0.1,0 -0.2,0 -0.2,-0.1 v -4.7 c 0,-0.1 0.1,-0.1 0.2,-0.1 h 1.7 c 0.8,0 1.8,0.3 1.8,1.5 0,0.7 -0.5,1.1 -1.1,1.3 z m -0.7,-0.7 c 0.6,0 0.9,-0.3 0.9,-0.8 0,-0.5 -0.3,-0.7 -0.9,-0.7 h -1 v 1.5 z"
   id="path153" />
		</g>
	</g>
	<g
   id="g167">
		<circle
   class="st0"
   cx="49.900002"
   cy="67.099998"
   r="34.599998"
   id="circle159" />
		<g
   id="g165">
			<g
   id="g163">
				<path
   class="st1"
   d="m 63,80.7 c -1,1 -2.1,1.5 -3.5,1.5 -1.4,0 -2.6,-0.6 -3.7,-1.7 -1,-1 -1.5,-2.2 -1.5,-3.7 0,-1.5 0.5,-2.8 1.5,-3.7 L 55.9,73 c 1,-1 2.2,-1.5 3.6,-1.5 1.4,0 2.6,0.5 3.7,1.6 1,1 1.4,2.2 1.4,3.7 0,1.6 -0.6,2.8 -1.6,3.9 M 54.4,57.5 c 0,-1.5 0.5,-2.8 1.5,-3.7 L 56,53.7 c 1,-1 2.2,-1.5 3.6,-1.5 1.4,0 2.6,0.5 3.7,1.6 1,1 1.4,2.2 1.4,3.7 0,1.5 -0.5,2.8 -1.6,3.9 -1,1 -2.1,1.5 -3.5,1.5 -1.4,0 -2.6,-0.6 -3.7,-1.7 -1.1,-1 -1.5,-2.2 -1.5,-3.7 m -10.7,3.9 c -1,1 -2.1,1.5 -3.5,1.5 -1.3,0 -2.6,-0.6 -3.7,-1.7 -1,-1 -1.5,-2.2 -1.5,-3.7 0,-1.5 0.5,-2.7 1.5,-3.7 l 0.1,-0.1 c 1,-1 2.2,-1.5 3.6,-1.5 1.4,0 2.6,0.5 3.7,1.6 1,1 1.4,2.2 1.4,3.7 0,1.5 -0.6,2.8 -1.6,3.9 m 17.4,7.2 v -2.9 c 1.6,-0.3 3.1,-1 4.3,-2.3 1.6,-1.5 2.4,-3.5 2.4,-5.9 0,-2.4 -0.8,-4.4 -2.4,-6 -1.6,-1.6 -3.6,-2.4 -5.9,-2.4 -2.3,0 -4.3,0.8 -5.9,2.4 -1.2,1.2 -2,2.7 -2.3,4.3 h -2.9 c -0.3,-1.7 -1,-3.1 -2.3,-4.3 -1.6,-1.6 -3.6,-2.4 -5.9,-2.4 -2.3,0 -4.3,0.8 -5.9,2.4 -1.6,1.6 -2.4,3.6 -2.4,5.9 0,1.1 0.2,2.1 0.6,3.2 0.4,1.1 1,2 1.8,2.7 1.7,1.6 3.7,2.4 6,2.4 2.3,0 4.3,-0.8 5.9,-2.4 1.2,-1.2 2,-2.6 2.3,-4.3 h 2.9 c 0.1,0.6 0.3,1.1 0.5,1.6 0.4,1.1 1,2 1.8,2.7 1.2,1.2 2.7,1.9 4.3,2.2 v 3 c -1.6,0.3 -3,1.1 -4.3,2.3 -1.6,1.6 -2.4,3.6 -2.4,5.9 0,1.1 0.2,2.1 0.6,3.2 0.4,1.1 1,2 1.8,2.7 1.7,1.6 3.7,2.4 6,2.4 2.3,0 4.3,-0.8 5.9,-2.4 1.6,-1.5 2.4,-3.5 2.4,-5.9 0,-2.4 -0.8,-4.4 -2.4,-6 -1.4,-1.1 -2.9,-1.8 -4.5,-2.1"
   id="path161" />
			</g>
		</g>
	</g>
</g>
</svg>
