<svg xmlns="http://www.w3.org/2000/svg" width="300" height="150" viewBox="-50 275 1300 650">
    <path d="M482.6 537.7c-12.8 0-25.3 5.4-33.5 16.5-7-11.4-18.8-16.5-34.4-16.5-11.2 0-22.3 4.2-30.5 12.8l-4.6-9.5h-17.9v118.1h27.4v-72.3c.7-15.3 10-23.3 20.9-23.3 11.4 0 19.5 8.4 19.5 25.6v70h27.7v-73.7c1.4-15.1 10.2-21.9 20.7-21.9 11.4 0 19.5 8.4 19.5 25.6v70h27.7v-68.6c0-37-15.5-52.8-42.5-52.8zM626.7 540.9l-4.6 9.3c-8.6-8.6-20.9-12.6-35.4-12.6-28.4 0-46 14.7-46 49.8v25.1c0 35.1 17.7 49.8 46 49.8 14.4 0 26.7-4 35.4-12.6l4.6 9.3h18.6V540.9h-18.6zm-9.1 74.9c-1.9 13.9-11.2 20.7-24.9 20.7-15.6 0-24.4-7.9-24.4-25.3v-22.3c0-17.4 8.8-25.4 24.4-25.4 14 0 23 6.8 24.9 20.7v31.6zM709.8 633.5c-13.5 0-20.2-7.4-20.2-24.2v-42.8h29.5v-25.6h-29.5V511h-27.7v103.6c0 30 14.2 44.4 42.1 44.4h16.7v-25.6h-10.9zM787.1 496.3v162.8h27.7V496.3h-27.7zM836.9 496.3v162.8h27.7V496.3h-27.7zM886.8 496.3v29.5h28.4v-29.5h-28.4zm.5 44.6V659H915V540.9h-27.7zM736.9 496.3v29.5h28.4v-29.5h-28.4zm.4 44.6V659H765V540.9h-27.7zM982.5 537.7c-33.5 0-52.1 19.3-52.1 50.2v24.2c0 30.9 18.8 50.2 52.3 50.2s52.1-19.3 52.1-50.2v-24.2c.1-30.9-18.5-50.2-52.3-50.2zm24.7 73.5c0 16.8-7.7 25.6-24.7 25.6-16.7 0-24.4-8.8-24.4-25.6v-22.3c0-16.7 7.7-25.6 24.7-25.6s24.4 8.8 24.4 25.6v22.3zM1109 537.7c-14 0-26.7 4.4-35.6 13.5l-5.1-10.2h-17.9v118.1h27.5v-72.3c.7-15.6 11.9-23.3 24.6-23.3 14 0 23.5 8.6 23.5 26.8v68.8h27.7v-68.6c-.1-37.2-17.5-52.8-44.7-52.8zM287.1 513.9 195.5 461c-11.9-6.8-26.5-6.8-38.4 0l-91.6 52.9c-11.9 6.8-19.2 19.5-19.2 33.2v105.8c0 13.7 7.3 26.4 19.2 33.2l91.6 52.9c11.9 6.9 26.5 6.9 38.4 0l91.6-52.9c11.9-6.9 19.2-19.5 19.2-33.2V547.1c0-13.7-7.3-26.4-19.2-33.2zM89 664.6c-3.9 0-7.7-1.3-10.9-4-6.9-6-7.7-16.5-1.7-23.4l87.4-100.9c6-6.9 16.5-7.7 23.4-1.7 6.9 6 7.7 16.5 1.7 23.4l-87.4 100.9c-3.3 3.8-7.9 5.7-12.5 5.7zm185.6-4c-3.1 2.7-7 4-10.8 4-4.7 0-9.3-2-12.6-5.8l-41.8-48.9-41.9 48.9c-3.3 3.8-7.9 5.8-12.6 5.8-3.8 0-7.6-1.3-10.8-4-7-6-7.8-16.4-1.8-23.4l54.1-63.2c.1-.2.3-.3.4-.5.3-.4.7-.8 1.1-1.1l.2-.2c.4-.4.8-.7 1.3-1.1h.1c.2-.2.5-.3.7-.5.2-.2.5-.3.8-.5 0 0 .1 0 .1-.1.8-.4 1.5-.8 2.3-1.1.3-.1.5-.2.8-.3.2-.1.4-.1.6-.2.4-.1.7-.2 1.1-.3.3-.1.6-.1.9-.2.2 0 .5-.1.8-.1h3.7c.2 0 .5.1.8.1.3 0 .6.1.9.2.3 0 .5.1.8.2.1 0 .2.1.4.1.2.1.4.1.5.2.2.1.5.2.7.2.1 0 .1.1.2.1.2.1.5.2.7.3 1.1.5 2.2 1.1 3.2 1.9.2.2.4.3.6.5.2.2.5.4.7.6l.7.7c.2.2.4.5.6.7l.2.2 54.3 63.4c5.8 7 5 17.5-2 23.4z"
          fill="#19e57f"/>
    <path d="M196.8 573.6c-.1.1-.2.2-.3.4l.3-.4zM198.1 572.2l-.2.2c.1-.1.2-.1.2-.2zM197.9 572.4l-1.1 1.1c.4-.4.8-.7 1.1-1.1zM199.4 571.1c-.4.3-.9.7-1.3 1.1l.4-.4c.4-.2.6-.5.9-.7zM201 570c.8-.4 1.5-.8 2.3-1.1-.7.3-1.5.7-2.3 1.1zM220.2 571.8c.2.2.4.3.5.5-.2-.2-.5-.4-.7-.6 0 0 .1 0 .2.1z"
          fill="#19e57f"/>
</svg>
