<?xml version="1.0" encoding="utf-8"?>
<!-- Generator: Adobe Illustrator 27.9.0, SVG Export Plug-In . SVG Version: 6.00 Build 0)  -->
<svg version="1.1" id="Layer_1" xmlns="http://www.w3.org/2000/svg" xmlns:xlink="http://www.w3.org/1999/xlink" x="0px" y="0px"
	 viewBox="0 0 600 300" style="enable-background:new 0 0 600 300;" xml:space="preserve">
<style type="text/css">
	.st0{fill:#7048E8;}
	.st1{fill:#FFFFFF;}
	.st2{fill:#041189;}
	.st3{fill:url(#SVGID_1_);}
	.st4{fill:#5B1D9F;}
	.st5{fill:url(#SVGID_00000112605539295807003670000002310348894616210312_);}
	.st6{fill:url(#SVGID_00000023990873763362070930000000138659061576278687_);}
	.st7{fill-rule:evenodd;clip-rule:evenodd;fill:#FFFFFF;}
</style>
<rect y="0" class="st0" width="600" height="300"/>
<ellipse class="st1" cx="106.3" cy="146.4" rx="64.6" ry="65.5"/>
<path class="st2" d="M65.7,111.8c0-4.4,3.5-7.9,7.7-7.9l0,0c4.3,0,7.7,3.5,7.7,7.9v67.9c0,4.4-3.5,7.9-7.7,7.9l0,0
	c-4.3,0-7.7-3.5-7.7-7.9V111.8z"/>
<linearGradient id="SVGID_1_" gradientUnits="userSpaceOnUse" x1="66.6653" y1="648.1613" x2="145.3763" y2="726.6516" gradientTransform="matrix(1 0 0 1 0 -542)">
	<stop  offset="0" style="stop-color:#281692"/>
	<stop  offset="1" style="stop-color:#451A9A"/>
</linearGradient>
<path class="st3" d="M67.4,116.1c-2.3-2.6-2.3-6.5-0.1-9.2l0,0l0,0c2.9-3.8,8.4-4.2,11.7-0.6l65.1,67.1c3.1,3.2,3.4,8.3,0.7,11.8
	l0,0l0,0c-3.1,3.1-8.1,3.1-11.1-0.1l-33.3-34.5l-18.6-18.8L67.4,116.1z"/>
<path class="st4" d="M139.1,171.4c4.5-0.1,8.2,3.6,8.2,8.2l0,0c0,4.5-3.6,8.2-8,8.2h-32.9H73.3c-3.7,0-6.9-2.7-7.4-6.4l0,0
	c-0.8-4.6,2.7-8.9,7.3-9L139.1,171.4z"/>
<linearGradient id="SVGID_00000002377317266121333370000011790632415125734051_" gradientUnits="userSpaceOnUse" x1="146.8737" y1="649.6788" x2="65.9864" y2="726.3826" gradientTransform="matrix(1 0 0 1 0 -542)">
	<stop  offset="0" style="stop-color:#A027B3"/>
	<stop  offset="1" style="stop-color:#521B9D"/>
</linearGradient>
<path style="fill:url(#SVGID_00000002377317266121333370000011790632415125734051_);" d="M134,106.3c2.6-2.7,6.8-3.1,10-1l0,0
	c1.4,1,2.4,2.2,3,3.8l0,0c1.2,3,0.5,6.4-1.7,8.6l-66,67.6c-3.3,3.4-8.8,3.1-11.7-0.6l0,0c-2.5-3.2-2.2-7.9,0.6-10.8L134,106.3z"/>
<linearGradient id="SVGID_00000162346840030624211230000010300279994056231050_" gradientUnits="userSpaceOnUse" x1="139.5186" y1="645.9406" x2="139.5186" y2="729.6759" gradientTransform="matrix(1 0 0 1 0 -542)">
	<stop  offset="0" style="stop-color:#9E26B1"/>
	<stop  offset="1" style="stop-color:#DF4FF5"/>
</linearGradient>
<path style="fill:url(#SVGID_00000162346840030624211230000010300279994056231050_);" d="M131.8,111.8c0-4.4,3.5-7.9,7.7-7.9l0,0
	c4.3,0,7.7,3.5,7.7,7.9v67.9c0,4.4-3.5,7.9-7.7,7.9l0,0c-4.3,0-7.7-3.5-7.7-7.9C131.8,179.8,131.8,111.8,131.8,111.8z"/>
<path class="st7" d="M252.3,145.2v23.9h-12.2v-22.5c0-4.4-2.6-6.8-6.3-6.8c-4,0-6.8,2.8-6.8,7.3v22.1h-12.3v-22.5
	c0-4.4-2.5-6.8-6.2-6.8c-4,0-6.9,2.8-6.9,7.3v22.1h-12.2v-37.4l11.9-1.4v4.5c2.7-3.1,6.7-4.9,11.4-4.9c5.1,0,9,2,11.4,5.5
	c3-3.5,7.6-5.5,13.2-5.5C247,130.1,252.3,135.9,252.3,145.2"/>
<path class="st7" d="M269.5,147.1l19.9-6.1c-1.7-2.8-4.7-4.4-8.4-4.4C274.7,136.8,270.1,141.2,269.5,147.1 M296.5,153.8l3.5,8.4
	c-4.9,3.8-11.6,6.4-18.6,6.4c-13,0-22.6-8.7-22.6-20.1s9.5-20.2,22-20.2c10.7,0,19.4,6.5,20.5,18.1l-29.9,9c2,2.9,5.6,4.6,10.1,4.6
	C286.2,159.9,291.3,158.1,296.5,153.8"/>
<path class="st7" d="M322.9,138.6v14.3c0,3.3,1.9,5.2,5.4,5.2c1.7,0,3.8-0.5,5.2-1v9.5c-2,0.9-4.9,1.4-8.2,1.4
	c-9.7,0-14.7-5.3-14.7-13.9v-15.6h-6.4l1.5-9.2h4.8v-7.1l12.2-5.8v12.9h10.6v9.2H322.9z"/>
<path class="st7" d="M363,154.7c0-3.3-3-6-7-6c-3.9,0-6.8,2.6-6.8,6c0,3.3,2.9,6,6.8,6C360.1,160.7,363,158,363,154.7L363,154.7z
	 M363.8,167.4l-0.4-2.6c-2.7,2.2-6.3,3.6-10.4,3.6c-8.5,0-15.3-5.9-15.3-13.5c0-7.6,6.6-13.4,15.7-13.4c3.4,0,6.6,1.1,9.4,2.8v-1.4
	c0-4.2-2.2-6.4-8.9-6.4c-3.3,0-6.6,0.5-9.8,1.6l1.4-8.3c3.8-1,7.2-1.4,10.7-1.4c11.6,0,18,4.5,18,13.8v18.3l0.4,6.8h-10.8V167.4z"/>
<path class="st7" d="M363,154.7c0-3.3-3-6-7-6c-3.9,0-6.8,2.6-6.8,6c0,3.3,2.9,6,6.8,6C360.1,160.7,363,158,363,154.7L363,154.7z
	 M363.8,167.4l-0.4-2.6c-2.7,2.2-6.3,3.6-10.4,3.6c-8.5,0-15.3-5.9-15.3-13.5c0-7.6,6.6-13.4,15.7-13.4c3.4,0,6.6,1.1,9.4,2.8v-1.4
	c0-4.2-2.2-6.4-8.9-6.4c-3.3,0-6.6,0.5-9.8,1.6l1.4-8.3c3.8-1,7.2-1.4,10.7-1.4c11.6,0,18,4.5,18,13.8v18.3l0.4,6.8h-10.8V167.4z"/>
<path class="st7" d="M416.1,148.3c0-5.8-4.6-10.3-10.9-10.3c-6.1,0-10.9,4.5-10.9,10.3s4.7,10.3,10.9,10.3
	C411.4,158.8,416.1,154.2,416.1,148.3 M427.8,148.3c0,11.3-9.2,20.1-20.2,20.1c-4.9,0-9.2-1.7-12.3-4.7v22.1h-12.2v-55.9l11-1.3v5.7
	c3.2-3.7,7.7-6,13.4-6C418.6,128.4,427.8,137.1,427.8,148.3"/>
<path class="st7" d="M474.3,144v23.4h-12.3v-22c0-4.7-3-7.4-7.2-7.4c-4.5,0-7.8,3.1-7.8,7.8v21.5h-12.2v-59.2l12.2-1.4v26.3
	c2.9-3.1,7.1-4.9,12.2-4.9C468.7,128.4,474.3,134.4,474.3,144"/>
<path class="st7" d="M514.2,148.3c0-5.9-4.6-10.3-10.9-10.3c-6.2,0-10.9,4.5-10.9,10.3s4.7,10.3,10.9,10.3
	C509.4,158.8,514.2,154.2,514.2,148.3 M480.7,148.4c0-11.4,9.9-20.2,22.5-20.2c12.7,0,22.5,8.7,22.5,20.2c0,11.3-9.8,20.1-22.5,20.1
	C490.6,168.6,480.7,159.7,480.7,148.4"/>
<path class="st7" d="M557.4,128.6v10.2c-8,0-12.4,3.4-12.4,11.1v17.5h-12.3V130l11.5-1.4v6.4C546.6,130.8,550.9,128.6,557.4,128.6"
	/>
</svg>
