<svg id="Layer_1" data-name="Layer 1" xmlns="http://www.w3.org/2000/svg" viewBox="0 0 358.97 67.97"><defs><style>.cls-1{fill:#74a4bc;}.cls-2{fill:#fff;}</style></defs><polygon class="cls-1" points="333.96 0 135.5 0 135.5 33.98 135.5 67.97 335.94 67.97 358.97 33.98 333.96 0"/><path class="cls-2" d="M166.53,48.49a1.48,1.48,0,0,1,.45,1.12,1.54,1.54,0,0,1-1.59,1.59h-19a1.56,1.56,0,0,1-1.6-1.59v-34a1.5,1.5,0,0,1,.48-1.14,1.72,1.72,0,0,1,1.22-.45,1.63,1.63,0,0,1,1.17.45,1.5,1.5,0,0,1,.48,1.14V48.07h17.22A1.61,1.61,0,0,1,166.53,48.49Z" transform="translate(0)"/><path class="cls-2" d="M172.13,19.51a1.82,1.82,0,0,1-.58-1.46v-.53a1.76,1.76,0,0,1,.61-1.46,2.54,2.54,0,0,1,1.67-.51c1.42,0,2.13.66,2.13,2v.53a1.88,1.88,0,0,1-.56,1.46,2.31,2.31,0,0,1-1.62.5A2.43,2.43,0,0,1,172.13,19.51Zm2.79,31.24a1.59,1.59,0,0,1-2.73-1.14V25.17a1.58,1.58,0,0,1,.45-1.15,1.67,1.67,0,0,1,2.28,0,1.58,1.58,0,0,1,.45,1.15V49.61A1.54,1.54,0,0,1,174.92,50.75Z" transform="translate(0)"/><path class="cls-2" d="M203.72,26.31A12,12,0,0,1,206,34V49.61a1.5,1.5,0,0,1-.48,1.14,1.64,1.64,0,0,1-2.26,0,1.54,1.54,0,0,1-.45-1.14V34.15a8.7,8.7,0,0,0-1.72-5.61,6.47,6.47,0,0,0-5.34-2.15,9.53,9.53,0,0,0-7.65,3.9,6.45,6.45,0,0,0-1.28,3.86V49.61a1.54,1.54,0,0,1-1.59,1.59,1.57,1.57,0,0,1-1.15-.45,1.54,1.54,0,0,1-.45-1.14V25.8a1.54,1.54,0,0,1,.45-1.14,1.57,1.57,0,0,1,1.15-.45,1.54,1.54,0,0,1,1.59,1.59v2.93a11.25,11.25,0,0,1,4.12-3.8,11.06,11.06,0,0,1,5.5-1.52Q201.4,23.41,203.72,26.31Z" transform="translate(0)"/><path class="cls-2" d="M236.85,37.15a1.6,1.6,0,0,1-1.12.45H215.65a12.22,12.22,0,0,0,1.3,5.71,9.93,9.93,0,0,0,3.72,4,10.85,10.85,0,0,0,5.71,1.46A9.66,9.66,0,0,0,231,47.69,9.4,9.4,0,0,0,234.19,45a1.83,1.83,0,0,1,1.12-.47,1.32,1.32,0,0,1,.95.42,1.35,1.35,0,0,1,.43,1,1.55,1.55,0,0,1-.54,1.11,13.1,13.1,0,0,1-4.27,3.4,11.7,11.7,0,0,1-5.45,1.33A14.51,14.51,0,0,1,219.21,50a12.44,12.44,0,0,1-4.89-4.92,14.77,14.77,0,0,1-1.75-7.3,16.14,16.14,0,0,1,1.72-7.63,12.51,12.51,0,0,1,4.6-5A11.66,11.66,0,0,1,225,23.41a12.52,12.52,0,0,1,6,1.49,11.81,11.81,0,0,1,4.55,4.36,13.07,13.07,0,0,1,1.8,6.8A1.48,1.48,0,0,1,236.85,37.15Zm-17.56-8.53a9.84,9.84,0,0,0-3.38,6.11H234v-.42a8.48,8.48,0,0,0-1.59-4.18,8.74,8.74,0,0,0-3.33-2.7A9.59,9.59,0,0,0,225,26.5,8.86,8.86,0,0,0,219.29,28.62Z" transform="translate(0)"/><path class="cls-2" d="M267.32,24.53a1.65,1.65,0,0,1,.45,1.17V49.61a1.54,1.54,0,0,1-.45,1.14,1.58,1.58,0,0,1-1.15.45,1.54,1.54,0,0,1-1.59-1.59V46.05a11.16,11.16,0,0,1-4,4,10.84,10.84,0,0,1-5.79,1.64,11.45,11.45,0,0,1-6.4-1.86,12.81,12.81,0,0,1-4.46-5.1,16,16,0,0,1-1.62-7.28A15.64,15.64,0,0,1,244,30.24a12.57,12.57,0,0,1,4.48-5A11.86,11.86,0,0,1,260.59,25a10.19,10.19,0,0,1,4,4V25.7a1.65,1.65,0,0,1,.45-1.17,1.5,1.5,0,0,1,1.14-.48A1.53,1.53,0,0,1,267.32,24.53ZM260.09,47.3a9.9,9.9,0,0,0,3.45-4,13,13,0,0,0,1.25-5.77,12.54,12.54,0,0,0-1.25-5.63,10,10,0,0,0-3.45-4,8.83,8.83,0,0,0-5-1.46,9,9,0,0,0-5,1.43,9.8,9.8,0,0,0-3.45,4,12.74,12.74,0,0,0-1.25,5.71,13.37,13.37,0,0,0,1.22,5.77,9.79,9.79,0,0,0,3.43,4,9.27,9.27,0,0,0,10,0Z" transform="translate(0)"/><path class="cls-2" d="M300.2,24.5a1.62,1.62,0,0,1,.45,1.2v23a13.83,13.83,0,0,1-1.72,7.1,11.49,11.49,0,0,1-4.73,4.49,15,15,0,0,1-6.88,1.54,17.18,17.18,0,0,1-3.91-.48,15.84,15.84,0,0,1-3.5-1.22c-1-.5-1.54-1-1.68-1.54a1.16,1.16,0,0,1-.37-.85,1,1,0,0,1,.48-.85.84.84,0,0,1,.53-.16,4,4,0,0,1,1.22.37l1.12.48a17.09,17.09,0,0,0,6.16,1.27,10,10,0,0,0,7.41-2.68,9.8,9.8,0,0,0,2.69-7.25v-3.3a9.8,9.8,0,0,1-4.2,4.49,12,12,0,0,1-6,1.62,12.3,12.3,0,0,1-6.62-1.83A13,13,0,0,1,276,44.83a15.48,15.48,0,0,1-1.7-7.28,15.36,15.36,0,0,1,1.7-7.23,13,13,0,0,1,4.65-5.07,12.12,12.12,0,0,1,6.56-1.84,11.69,11.69,0,0,1,6.14,1.68,11.19,11.19,0,0,1,4.12,4V25.7a1.65,1.65,0,0,1,.45-1.17,1.5,1.5,0,0,1,1.14-.48A1.54,1.54,0,0,1,300.2,24.5Zm-7.44,22.85a9.6,9.6,0,0,0,3.62-4,12.77,12.77,0,0,0,1.3-5.81,12.65,12.65,0,0,0-1.3-5.79,9.64,9.64,0,0,0-3.62-4,9.83,9.83,0,0,0-5.23-1.41,9.53,9.53,0,0,0-5.18,1.46,10.09,10.09,0,0,0-3.61,4,12.31,12.31,0,0,0-1.3,5.69,12.39,12.39,0,0,0,1.3,5.73,10.12,10.12,0,0,0,3.61,4,9.53,9.53,0,0,0,5.18,1.46A9.83,9.83,0,0,0,292.76,47.35Z" transform="translate(0)"/><path class="cls-2" d="M330.46,37.15a1.58,1.58,0,0,1-1.12.45H309.26a12.22,12.22,0,0,0,1.3,5.71,9.93,9.93,0,0,0,3.72,4A10.87,10.87,0,0,0,320,48.76a9.63,9.63,0,0,0,4.57-1.07A9.22,9.22,0,0,0,327.8,45a1.85,1.85,0,0,1,1.12-.47,1.36,1.36,0,0,1,1,.42,1.34,1.34,0,0,1,.42,1,1.57,1.57,0,0,1-.53,1.11,13.14,13.14,0,0,1-4.28,3.4,11.66,11.66,0,0,1-5.44,1.33A14.55,14.55,0,0,1,312.82,50a12.44,12.44,0,0,1-4.89-4.92,14.77,14.77,0,0,1-1.75-7.3,16.14,16.14,0,0,1,1.73-7.63,12.49,12.49,0,0,1,4.59-5,11.66,11.66,0,0,1,6.11-1.73,12.53,12.53,0,0,1,6,1.49,11.78,11.78,0,0,1,4.54,4.36,13.17,13.17,0,0,1,1.81,6.8A1.45,1.45,0,0,1,330.46,37.15ZM312.9,28.62a9.83,9.83,0,0,0-3.37,6.11h18.12v-.42a8.4,8.4,0,0,0-1.6-4.18,8.71,8.71,0,0,0-3.32-2.7,9.64,9.64,0,0,0-4.12-.93A8.88,8.88,0,0,0,312.9,28.62Z" transform="translate(0)"/><path class="cls-1" d="M33.31,42.43a17,17,0,0,1-15.51,9.3,17,17,0,0,1-15.51-9.3A20.74,20.74,0,0,1,0,32.61a20.91,20.91,0,0,1,2.29-9.89,17,17,0,0,1,6.32-6.8,17.37,17.37,0,0,1,9.19-2.44A17.39,17.39,0,0,1,27,15.92a17,17,0,0,1,6.32,6.8,20.91,20.91,0,0,1,2.29,9.89A20.74,20.74,0,0,1,33.31,42.43Zm-3-18.09A13.59,13.59,0,0,0,17.8,16.67,13.59,13.59,0,0,0,5.23,24.34,18.16,18.16,0,0,0,3.4,32.61a18.15,18.15,0,0,0,1.83,8.26,13.94,13.94,0,0,0,5.1,5.66,14,14,0,0,0,7.47,2,13.55,13.55,0,0,0,12.56-7.67,18,18,0,0,0,1.84-8.26A18,18,0,0,0,30.36,24.34Z" transform="translate(0)"/><path class="cls-1" d="M61.63,25.62a12.28,12.28,0,0,1,4.49,4.94,15.32,15.32,0,0,1,1.62,7.09,15.46,15.46,0,0,1-1.62,7.15,12.57,12.57,0,0,1-4.46,5,11.63,11.63,0,0,1-6.35,1.8,11.21,11.21,0,0,1-5.66-1.46,11.43,11.43,0,0,1-4.12-3.9v14a1.58,1.58,0,0,1-.45,1.15,1.67,1.67,0,0,1-2.28,0,1.59,1.59,0,0,1-.46-1.15V25.59a1.66,1.66,0,0,1,.46-1.17,1.62,1.62,0,0,1,2.28,0,1.65,1.65,0,0,1,.45,1.17v3.62a9.89,9.89,0,0,1,4-3.94,12.26,12.26,0,0,1,12.11.35ZM60,47.19a9.59,9.59,0,0,0,3.45-3.91,12.43,12.43,0,0,0,1.25-5.63,12.18,12.18,0,0,0-1.25-5.55A9.63,9.63,0,0,0,60,28.22a9,9,0,0,0-5-1.41,9.33,9.33,0,0,0-5.05,1.39,9.15,9.15,0,0,0-3.45,3.85,12.36,12.36,0,0,0-1.22,5.6,12.55,12.55,0,0,0,1.22,5.63A9.21,9.21,0,0,0,55,48.6,9,9,0,0,0,60,47.19Z" transform="translate(0)"/><path class="cls-1" d="M96.8,37.15a1.57,1.57,0,0,1-1.11.45H75.6a12.23,12.23,0,0,0,1.31,5.71,9.84,9.84,0,0,0,3.71,4,10.91,10.91,0,0,0,5.72,1.46,9.66,9.66,0,0,0,4.57-1.07A9.4,9.4,0,0,0,94.15,45a1.83,1.83,0,0,1,1.11-.47,1.44,1.44,0,0,1,1.38,1.38A1.53,1.53,0,0,1,96.11,47a13.2,13.2,0,0,1-4.27,3.4,11.7,11.7,0,0,1-5.45,1.33A14.55,14.55,0,0,1,79.16,50a12.35,12.35,0,0,1-4.88-4.92,14.77,14.77,0,0,1-1.76-7.3,16.14,16.14,0,0,1,1.73-7.63,12.49,12.49,0,0,1,4.59-5A11.69,11.69,0,0,1,85,23.41a12.53,12.53,0,0,1,6,1.49,11.71,11.71,0,0,1,4.54,4.36,13.07,13.07,0,0,1,1.81,6.8A1.45,1.45,0,0,1,96.8,37.15ZM79.24,28.62a9.88,9.88,0,0,0-3.37,6.11H94v-.42a8.4,8.4,0,0,0-1.6-4.18,8.63,8.63,0,0,0-3.32-2.7A9.64,9.64,0,0,0,85,26.5,8.9,8.9,0,0,0,79.24,28.62Z" transform="translate(0)"/><path class="cls-1" d="M123.93,26.31A12,12,0,0,1,126.24,34V49.61a1.5,1.5,0,0,1-.48,1.14,1.58,1.58,0,0,1-1.12.45,1.54,1.54,0,0,1-1.59-1.59V34.15a8.7,8.7,0,0,0-1.73-5.61A6.45,6.45,0,0,0,116,26.39a9.27,9.27,0,0,0-4.33,1.06,9.37,9.37,0,0,0-3.32,2.84,6.51,6.51,0,0,0-1.27,3.86V49.61a1.54,1.54,0,0,1-.45,1.14,1.58,1.58,0,0,1-1.15.45,1.54,1.54,0,0,1-1.59-1.59V25.8a1.54,1.54,0,0,1,1.59-1.59,1.58,1.58,0,0,1,1.15.45,1.54,1.54,0,0,1,.45,1.14v2.93a11.21,11.21,0,0,1,4.11-3.8,11.09,11.09,0,0,1,5.5-1.52Q121.62,23.41,123.93,26.31Z" transform="translate(0)"/></svg>