<svg width="396" height="396" viewBox="0 0 396 396" fill="none" xmlns="http://www.w3.org/2000/svg">
<path d="M197.883 197.883C197.883 197.883 135.253 153.585 135.253 98.9414C135.253 44.2976 197.883 -2.73766e-06 197.883 -2.73766e-06C197.883 -2.73766e-06 260.514 44.2976 260.514 98.9415C260.514 153.585 197.883 197.883 197.883 197.883Z" fill="#CD2274"/>
<path d="M197.883 197.882C197.883 197.882 153.585 260.513 98.9415 260.513C44.2976 260.513 2.73766e-06 197.882 2.73766e-06 197.882C2.73766e-06 197.882 44.2976 135.252 98.9414 135.252C153.585 135.252 197.883 197.882 197.883 197.882Z" fill="#CD2274"/>
<path d="M197.883 197.883C197.883 197.883 260.514 242.18 260.514 296.824C260.514 351.468 197.883 395.766 197.883 395.766C197.883 395.766 135.253 351.468 135.253 296.824C135.253 242.18 197.883 197.883 197.883 197.883Z" fill="#CD2274"/>
<path d="M197.883 197.881C197.883 197.881 242.18 135.251 296.824 135.251C351.468 135.251 395.766 197.881 395.766 197.881C395.766 197.881 351.468 260.512 296.824 260.512C242.18 260.512 197.883 197.881 197.883 197.881Z" fill="#CD2274"/>
<path opacity="0.6" d="M195.802 195.793C195.802 195.793 120.193 208.756 81.5536 170.117C42.9146 131.478 55.8778 55.8683 55.8778 55.8683C55.8778 55.8683 131.487 42.9052 170.126 81.5442C208.765 120.183 195.802 195.793 195.802 195.793Z" fill="#FC8CC1"/>
<path opacity="0.6" d="M195.802 199.971C195.802 199.971 120.193 187.008 81.5536 225.647C42.9146 264.286 55.8778 339.895 55.8778 339.895C55.8778 339.895 131.487 352.859 170.126 314.219C208.765 275.58 195.802 199.971 195.802 199.971Z" fill="#FC8CC1"/>
<path opacity="0.6" d="M199.964 195.79C199.964 195.79 187.001 120.181 225.64 81.5419C264.279 42.9029 339.888 55.866 339.888 55.866C339.888 55.866 352.852 131.475 314.213 170.115C275.574 208.754 199.964 195.79 199.964 195.79Z" fill="#FC8CC1"/>
<path opacity="0.6" d="M199.964 199.973C199.964 199.973 187.001 275.583 225.64 314.222C264.279 352.861 339.888 339.898 339.888 339.898C339.888 339.898 352.852 264.288 314.213 225.649C275.574 187.01 199.964 199.973 199.964 199.973Z" fill="#FC8CC1"/>
<circle cx="197.883" cy="197.882" r="32.1258" fill="white"/>
</svg>
