<?xml version="1.0" encoding="UTF-8" standalone="no"?>
<svg
   width="300"
   height="150"
   viewBox="0 0 300 150"
   fill="none"
   version="1.1"
   id="svg83"
   sodipodi:docname="oleander_logo.svg"
   inkscape:version="1.1.2 (0a00cf5339, 2022-02-04)"
   xmlns:inkscape="http://www.inkscape.org/namespaces/inkscape"
   xmlns:sodipodi="http://sodipodi.sourceforge.net/DTD/sodipodi-0.dtd"
   xmlns="http://www.w3.org/2000/svg"
   xmlns:svg="http://www.w3.org/2000/svg">
  <defs
     id="defs87">
    <rect
       x="154.56074"
       y="51.601954"
       width="132.20893"
       height="46.883008"
       id="rect8420" />
  </defs>
  <sodipodi:namedview
     id="namedview85"
     pagecolor="#ffffff"
     bordercolor="#666666"
     borderopacity="1.0"
     inkscape:pageshadow="2"
     inkscape:pageopacity="0.0"
     inkscape:pagecheckerboard="0"
     showgrid="false"
     inkscape:zoom="2.1161616"
     inkscape:cx="198"
     inkscape:cy="198"
     inkscape:window-width="1880"
     inkscape:window-height="1048"
     inkscape:window-x="40"
     inkscape:window-y="0"
     inkscape:window-maximized="1"
     inkscape:current-layer="svg83" />
  <path
     d="m 65.154057,75 c 0,0 -18.862284,-13.341231 -18.862284,-29.798244 0,-16.457075 18.862284,-29.798186 18.862284,-29.798186 0,0 18.86258,13.341111 18.86258,29.798216 C 84.016637,61.658769 65.154057,75 65.154057,75 Z"
     fill="#cd2274"
     id="path65"
     style="stroke-width:0.30117" />
  <path
     d="m 65.154057,74.999698 c 0,0 -13.341228,18.86258 -29.798218,18.86258 -16.457101,0 -29.7982093,-18.86258 -29.7982093,-18.86258 0,0 13.3411083,-18.862279 29.7981843,-18.862279 16.457015,0 29.798243,18.862279 29.798243,18.862279 z"
     fill="#cd2274"
     id="path67"
     style="stroke-width:0.30117" />
  <path
     d="m 65.154057,75 c 0,0 18.86258,13.340929 18.86258,29.79807 0,16.45713 -18.86258,29.79836 -18.86258,29.79836 0,0 -18.862284,-13.34123 -18.862284,-29.79836 C 46.291773,88.340929 65.154057,75 65.154057,75 Z"
     fill="#cd2274"
     id="path69"
     style="stroke-width:0.30117" />
  <path
     d="m 65.154057,74.999398 c 0,0 13.340925,-18.862279 29.798064,-18.862279 16.457129,0 29.798359,18.862279 29.798359,18.862279 0,0 -13.34123,18.86258 -29.798359,18.86258 -16.457139,0 -29.798064,-18.86258 -29.798064,-18.86258 z"
     fill="#cd2274"
     id="path71"
     style="stroke-width:0.30117" />
  <path
     opacity="0.6"
     d="m 64.527317,74.370554 c 0,0 -22.771162,3.904068 -34.408191,-7.732841 -11.636905,-11.636909 -7.732778,-34.408284 -7.732778,-34.408284 0,0 22.771219,-3.904098 34.408126,7.732811 11.636917,11.636849 7.732843,34.408314 7.732843,34.408314 z"
     fill="#fc8cc1"
     id="path73"
     style="stroke-width:0.30117" />
  <path
     opacity="0.6"
     d="m 64.527317,75.628843 c 0,0 -22.771162,-3.904067 -34.408191,7.732841 -11.636905,11.63691 -7.732778,34.408076 -7.732778,34.408076 0,0 22.771219,3.90437 34.408126,-7.73284 11.636917,-11.636914 7.732843,-34.408077 7.732843,-34.408077 z"
     fill="#fc8cc1"
     id="path75"
     style="stroke-width:0.30117" />
  <path
     opacity="0.6"
     d="m 65.78079,74.369651 c 0,0 -3.904066,-22.771165 7.732842,-34.408103 11.636907,-11.636909 34.408068,-7.732812 34.408068,-7.732812 0,0 3.90437,22.771165 -7.73254,34.408374 -11.636905,11.636909 -34.40837,7.732541 -34.40837,7.732541 z"
     fill="#fc8cc1"
     id="path77"
     style="stroke-width:0.30117" />
  <path
     opacity="0.6"
     d="m 65.78079,75.629445 c 0,0 -3.904066,22.771462 7.732842,34.408375 11.636907,11.63692 34.408068,7.73285 34.408068,7.73285 0,0 3.90437,-22.771474 -7.73254,-34.408383 C 88.552255,71.725378 65.78079,75.629445 65.78079,75.629445 Z"
     fill="#fc8cc1"
     id="path79"
     style="stroke-width:0.30117" />
  <circle
     cx="65.15406"
     cy="74.999695"
     fill="#ffffff"
     id="circle81"
     r="9.6753283"
     style="stroke-width:0.30117" />
  <text
     xml:space="preserve"
     id="text8418"
     style="fill:#000000;fill-opacity:1;line-height:1.25;stroke:none;font-family:Geist;font-style:normal;font-weight:normal;font-size:40px;white-space:pre;shape-inside:url(#rect8420);-inkscape-font-specification:'Geist, @wght=700';font-stretch:normal;font-variant:normal;font-variation-settings:'wght' 700;font-variant-ligatures:normal;font-variant-caps:normal;font-variant-numeric:normal;font-variant-east-asian:normal" />
  <text
     xml:space="preserve"
     style="font-style:normal;font-variant:normal;font-weight:bold;font-stretch:normal;font-size:38.4029px;line-height:1.25;font-family:Geist;-inkscape-font-specification:'Geist Bold';font-variant-ligatures:normal;font-variant-caps:normal;font-variant-numeric:normal;font-variant-east-asian:normal;fill:#000000;fill-opacity:1;stroke:none;stroke-width:0.960073"
     x="128.7189"
     y="88.402611"
     id="text35587"><tspan
       sodipodi:role="line"
       id="tspan44059"
       x="128.7189"
       y="88.402611"
       style="stroke-width:0.960073">oleander</tspan></text>
</svg>
