<?xml version="1.0" encoding="UTF-8" standalone="no"?>
<svg
   width="300"
   height="150"
   viewBox="0 0 300 150"
   fill="none"
   version="1.1"
   id="svg83"
   sodipodi:docname="oleander_logo.svg"
   inkscape:version="1.1.2 (0a00cf5339, 2022-02-04)"
   xmlns:inkscape="http://www.inkscape.org/namespaces/inkscape"
   xmlns:sodipodi="http://sodipodi.sourceforge.net/DTD/sodipodi-0.dtd"
   xmlns="http://www.w3.org/2000/svg"
   xmlns:svg="http://www.w3.org/2000/svg">
  <defs
     id="defs87" />
  <sodipodi:namedview
     id="namedview85"
     pagecolor="#ffffff"
     bordercolor="#666666"
     borderopacity="1.0"
     inkscape:pageshadow="2"
     inkscape:pageopacity="0.0"
     inkscape:pagecheckerboard="0"
     showgrid="false"
     inkscape:zoom="2.1161616"
     inkscape:cx="198"
     inkscape:cy="198"
     inkscape:window-width="1880"
     inkscape:window-height="1048"
     inkscape:window-x="40"
     inkscape:window-y="0"
     inkscape:window-maximized="1"
     inkscape:current-layer="svg83" />
  <path
     d="m 148.81985,75.308933 c 0,0 -21.75837,-15.389622 -21.75837,-34.373421 0,-18.983868 21.75837,-34.3733521 21.75837,-34.3733521 0,0 21.75871,15.3894841 21.75871,34.3733871 0,18.983764 -21.75871,34.373386 -21.75871,34.373386 z"
     fill="#cd2274"
     id="path65"
     style="stroke-width:0.347411" />
  <path
     d="m 148.81985,75.308585 c 0,0 -15.38962,21.758711 -34.37339,21.758711 -18.983899,0 -34.37338,-21.758711 -34.37338,-21.758711 0,0 15.389481,-21.758364 34.37335,-21.758364 18.9838,0 34.37342,21.758364 34.37342,21.758364 z"
     fill="#cd2274"
     id="path67"
     style="stroke-width:0.347411" />
  <path
     d="m 148.81985,75.308933 c 0,0 21.75871,15.389274 21.75871,34.373217 0,18.98394 -21.75871,34.37356 -21.75871,34.37356 0,0 -21.75837,-15.38962 -21.75837,-34.37356 0,-18.983943 21.75837,-34.373217 21.75837,-34.373217 z"
     fill="#cd2274"
     id="path69"
     style="stroke-width:0.347411" />
  <path
     d="m 148.81985,75.308238 c 0,0 15.38927,-21.758364 34.37321,-21.758364 18.98393,0 34.37355,21.758364 34.37355,21.758364 0,0 -15.38962,21.758711 -34.37355,21.758711 -18.98394,0 -34.37321,-21.758711 -34.37321,-21.758711 z"
     fill="#cd2274"
     id="path71"
     style="stroke-width:0.347411" />
  <path
     opacity="0.6"
     d="m 148.09688,74.582843 c 0,0 -26.26741,4.503492 -39.69117,-8.92013 -13.423618,-13.423621 -8.920057,-39.691278 -8.920057,-39.691278 0,0 26.267477,-4.503527 39.691097,8.920095 13.42363,13.423552 8.92013,39.691313 8.92013,39.691313 z"
     fill="#fc8cc1"
     id="path73"
     style="stroke-width:0.347411" />
  <path
     opacity="0.6"
     d="m 148.09688,76.034327 c 0,0 -26.26741,-4.503491 -39.69117,8.92013 -13.423618,13.423622 -8.920057,39.691043 -8.920057,39.691043 0,0 26.267477,4.50384 39.691097,-8.92013 13.42363,-13.42363 8.92013,-39.691043 8.92013,-39.691043 z"
     fill="#fc8cc1"
     id="path75"
     style="stroke-width:0.347411" />
  <path
     opacity="0.6"
     d="m 149.54281,74.581801 c 0,0 -4.50349,-26.267414 8.92013,-39.69107 13.42362,-13.423622 39.69103,-8.920095 39.69103,-8.920095 0,0 4.50384,26.267413 -8.91978,39.691382 -13.42362,13.423622 -39.69138,8.919783 -39.69138,8.919783 z"
     fill="#fc8cc1"
     id="path77"
     style="stroke-width:0.347411" />
  <path
     opacity="0.6"
     d="m 149.54281,76.035022 c 0,0 -4.50349,26.267758 8.92013,39.691388 13.42362,13.42362 39.69103,8.92013 39.69103,8.92013 0,0 4.50384,-26.267766 -8.91978,-39.691388 -13.42362,-13.423622 -39.69138,-8.92013 -39.69138,-8.92013 z"
     fill="#fc8cc1"
     id="path79"
     style="stroke-width:0.347411" />
  <circle
     cx="148.81985"
     cy="75.308586"
     fill="#ffffff"
     id="circle81"
     r="11.160863"
     style="stroke-width:0.347411" />
</svg>
