<?xml version="1.0" encoding="UTF-8" standalone="no"?>
<svg
   width="300"
   height="150"
   viewBox="0 0 300 150"
   fill="none"
   version="1.1"
   id="svg83"
   sodipodi:docname="oleander_logo.svg"
   inkscape:version="1.1.2 (0a00cf5339, 2022-02-04)"
   inkscape:export-filename="/home/michael/Projects/openlineage/OpenLineage/website/static/img/oleander_logo.png"
   inkscape:export-xdpi="96"
   inkscape:export-ydpi="96"
   xmlns:inkscape="http://www.inkscape.org/namespaces/inkscape"
   xmlns:sodipodi="http://sodipodi.sourceforge.net/DTD/sodipodi-0.dtd"
   xmlns="http://www.w3.org/2000/svg"
   xmlns:svg="http://www.w3.org/2000/svg">
  <defs
     id="defs87">
    <rect
       x="154.56074"
       y="51.601954"
       width="132.20893"
       height="46.883008"
       id="rect8420" />
  </defs>
  <sodipodi:namedview
     id="namedview85"
     pagecolor="#ffffff"
     bordercolor="#666666"
     borderopacity="1.0"
     inkscape:pageshadow="2"
     inkscape:pageopacity="0.0"
     inkscape:pagecheckerboard="0"
     showgrid="false"
     inkscape:zoom="2.1161616"
     inkscape:cx="198"
     inkscape:cy="198"
     inkscape:window-width="1880"
     inkscape:window-height="1048"
     inkscape:window-x="40"
     inkscape:window-y="0"
     inkscape:window-maximized="1"
     inkscape:current-layer="svg83" />
  <path
     d="M 150,75 C 150,75 128.87644,60.05937 128.87644,41.629426 128.87644,23.199413 150,8.2589173 150,8.2589173 c 0,0 21.1239,14.9404957 21.1239,33.3705427 C 171.1239,60.05937 150,75 150,75 Z"
     fill="#cd2274"
     id="path65"
     style="stroke-width:0.337275" />
  <path
     d="m 150,74.999662 c 0,0 -14.94062,21.1239 -33.37054,21.1239 -18.430043,0 -33.370535,-21.1239 -33.370535,-21.1239 0,0 14.940492,-21.123563 33.370505,-21.123563 18.42995,0 33.37057,21.123563 33.37057,21.123563 z"
     fill="#cd2274"
     id="path67"
     style="stroke-width:0.337275" />
  <path
     d="m 150,75 c 0,0 21.1239,14.940292 21.1239,33.37038 0,18.43007 -21.1239,33.3707 -21.1239,33.3707 0,0 -21.12356,-14.94063 -21.12356,-33.3707 C 128.87644,89.940292 150,75 150,75 Z"
     fill="#cd2274"
     id="path69"
     style="stroke-width:0.337275" />
  <path
     d="m 150,74.999326 c 0,0 14.94029,-21.123563 33.37038,-21.123563 18.43008,0 33.3707,21.123563 33.3707,21.123563 0,0 -14.94062,21.1239 -33.3707,21.1239 -18.43009,0 -33.37038,-21.1239 -33.37038,-21.1239 z"
     fill="#cd2274"
     id="path71"
     style="stroke-width:0.337275" />
  <path
     opacity="0.6"
     d="m 149.29813,74.295094 c 0,0 -25.50106,4.372103 -38.53318,-8.659884 -13.031984,-13.031987 -8.65981,-38.533284 -8.65981,-38.533284 0,0 25.50112,-4.372136 38.5331,8.659851 13.032,13.03192 8.65989,38.533317 8.65989,38.533317 z"
     fill="#fc8cc1"
     id="path73"
     style="stroke-width:0.337275" />
  <path
     opacity="0.6"
     d="m 149.29813,75.704231 c 0,0 -25.50106,-4.372101 -38.53318,8.659885 -13.031984,13.031988 -8.65981,38.533044 -8.65981,38.533044 0,0 25.50112,4.37244 38.5331,-8.65988 13.032,-13.03199 8.65989,-38.533049 8.65989,-38.533049 z"
     fill="#fc8cc1"
     id="path75"
     style="stroke-width:0.337275" />
  <path
     opacity="0.6"
     d="m 150.70187,74.294083 c 0,0 -4.3721,-25.501062 8.65989,-38.533081 13.03198,-13.031987 38.53304,-8.659852 38.53304,-8.659852 0,0 4.37245,25.501061 -8.65954,38.533384 -13.03199,13.031987 -38.53339,8.659549 -38.53339,8.659549 z"
     fill="#fc8cc1"
     id="path77"
     style="stroke-width:0.337275" />
  <path
     opacity="0.6"
     d="m 150.70187,75.704906 c 0,0 -4.3721,25.501394 8.65989,38.533384 13.03198,13.032 38.53304,8.65989 38.53304,8.65989 0,0 4.37245,-25.501402 -8.65954,-38.533389 -13.03199,-13.031987 -38.53339,-8.659885 -38.53339,-8.659885 z"
     fill="#fc8cc1"
     id="path79"
     style="stroke-width:0.337275" />
  <circle
     cx="150.00002"
     cy="74.999657"
     fill="#ffffff"
     id="circle81"
     r="10.835244"
     style="stroke-width:0.337275" />
  <text
     xml:space="preserve"
     id="text8418"
     style="fill:#000000;fill-opacity:1;line-height:1.25;stroke:none;font-family:Geist;font-style:normal;font-weight:normal;font-size:40px;white-space:pre;shape-inside:url(#rect8420);-inkscape-font-specification:'Geist, @wght=700';font-stretch:normal;font-variant:normal;font-variation-settings:'wght' 700;font-variant-ligatures:normal;font-variant-caps:normal;font-variant-numeric:normal;font-variant-east-asian:normal" />
</svg>
