<?xml version="1.0" encoding="UTF-8"?>
<svg id="Layer_1" data-name="Layer 1" xmlns="http://www.w3.org/2000/svg" xmlns:xlink="http://www.w3.org/1999/xlink" viewBox="0 0 260.12 131.83">
  <defs>
    <style>
      .cls-1 {
        fill: url(#linear-gradient);
      }

      .cls-1, .cls-2, .cls-3, .cls-4, .cls-5 {
        stroke-width: 0px;
      }

      .cls-2, .cls-3 {
        fill: #8d6af1;
      }

      .cls-3 {
        fill-rule: evenodd;
      }

      .cls-4 {
        fill: #7147e8;
      }

      .cls-5 {
        fill: #fff;
      }
    </style>
    <linearGradient id="linear-gradient" x1="57.98" y1="86.39" x2="57.98" y2="23.39" gradientTransform="translate(0 134.79) scale(1 -1)" gradientUnits="userSpaceOnUse">
      <stop offset="0" stop-color="#35198e"/>
      <stop offset="1" stop-color="#8d6af1"/>
    </linearGradient>
  </defs>
  <path class="cls-1" d="M20.49,40.29h0v52.5h0c.16,10.29,16.89,18.6,37.5,18.6s37.34-8.31,37.5-18.6h0v-52.5h0c-.16,10.29-16.89,18.6-37.5,18.6s-37.34-8.31-37.5-18.6Z"/>
  <path class="cls-3" d="M57.98,58.89c20.71,0,37.5-8.39,37.5-18.75s-16.79-18.75-37.5-18.75-37.5,8.39-37.5,18.75,16.79,18.75,37.5,18.75ZM58.13,49.74c10.36,0,18.75-4.2,18.75-9.38s-8.39-9.38-18.75-9.38-18.75,4.2-18.75,9.38,8.39,9.38,18.75,9.38Z"/>
  <path class="cls-5" d="M45.98,84.95v13.62c0,.77-.83,1.25-1.5.87l-10.6-6.06c-.31-.18-.5-.51-.5-.87v-29.44c0-.78.85-1.26,1.52-.85l22.42,13.62c.32.19.71.19,1.03,0l23.02-13.65c.67-.4,1.51.09,1.51.86v30.04c0,.37-.21.71-.54.89l-10.6,5.55c-.67.35-1.46-.13-1.46-.89v-13.73c0-.77-.83-1.25-1.49-.87l-10.45,5.92c-.31.18-.7.17-1-.01l-9.84-5.85c-.67-.4-1.51.08-1.51.86Z"/>
  <path class="cls-2" d="M116.49,59.59c-1.83,0-3.51-.43-5.04-1.29s-2.74-2.04-3.64-3.56c-.9-1.53-1.34-3.26-1.34-5.18s.45-3.61,1.34-5.12c.9-1.53,2.11-2.73,3.64-3.58s3.21-1.29,5.04-1.29,3.53.43,5.04,1.29c1.53.86,2.74,2.05,3.61,3.58.9,1.51,1.34,3.22,1.34,5.12s-.45,3.65-1.34,5.18c-.88,1.51-2.08,2.7-3.61,3.56-1.53.86-3.21,1.29-5.04,1.29ZM116.49,56.09c1.18,0,2.21-.26,3.11-.78.9-.54,1.6-1.31,2.1-2.3.5-.99.76-2.14.76-3.44s-.25-2.45-.76-3.42c-.5-.99-1.2-1.75-2.1-2.27-.9-.52-1.93-.78-3.11-.78s-2.22.26-3.14.78c-.9.52-1.6,1.28-2.1,2.27-.5.97-.76,2.11-.76,3.42s.25,2.45.76,3.44c.5.99,1.2,1.75,2.1,2.3.91.52,1.96.78,3.14.78ZM133.32,46.12c.5-.71,1.19-1.3,2.07-1.76.9-.49,1.91-.73,3.05-.73,1.33,0,2.52.33,3.58.98,1.08.65,1.93,1.59,2.55,2.8.63,1.19.95,2.59.95,4.17s-.32,3-.95,4.23c-.62,1.21-1.47,2.16-2.55,2.83-1.06.67-2.26,1.01-3.58,1.01-1.14,0-2.15-.23-3.02-.7-.86-.47-1.56-1.05-2.1-1.76v9.6h-3.92v-22.9h3.92v2.24ZM141.52,51.58c0-.93-.2-1.74-.59-2.41-.37-.69-.88-1.21-1.51-1.57-.62-.35-1.29-.53-2.02-.53s-1.38.19-2.02.56c-.62.35-1.12.88-1.51,1.57-.37.69-.56,1.5-.56,2.44s.19,1.75.56,2.44c.39.69.9,1.22,1.51,1.6.64.35,1.31.53,2.02.53s1.4-.19,2.02-.56c.63-.37,1.14-.91,1.51-1.6.39-.69.59-1.51.59-2.46ZM162.8,51.3c0,.56-.04,1.06-.11,1.51h-11.34c.09,1.12.49,2,1.18,2.63.69.63,1.54.95,2.55.95,1.46,0,2.49-.63,3.11-1.88h4.23c-.45,1.49-1.31,2.73-2.58,3.7-1.27.95-2.83,1.43-4.68,1.43-1.49,0-2.84-.33-4.03-.98-1.18-.67-2.1-1.61-2.77-2.83-.65-1.21-.98-2.61-.98-4.2s.33-3.01.98-4.23c.65-1.21,1.57-2.15,2.74-2.8,1.18-.65,2.53-.98,4.06-.98s2.79.32,3.95.95c1.18.63,2.08,1.54,2.72,2.72.65,1.16.98,2.49.98,4ZM158.74,50.18c-.02-1.01-.38-1.81-1.09-2.41-.71-.62-1.58-.92-2.6-.92-.97,0-1.79.3-2.46.9-.65.58-1.06,1.39-1.2,2.44h7.36ZM174.25,43.66c1.85,0,3.34.59,4.48,1.76,1.14,1.16,1.71,2.78,1.71,4.87v9.1h-3.92v-8.57c0-1.23-.31-2.17-.92-2.83-.62-.67-1.46-1.01-2.52-1.01s-1.94.34-2.58,1.01c-.62.65-.92,1.6-.92,2.83v8.57h-3.92v-15.51h3.92v1.93c.52-.67,1.19-1.19,1.99-1.57.82-.39,1.72-.59,2.69-.59Z"/>
  <path class="cls-4" d="M128.72,75.85v19.54h-3.92v-12.71l-5.24,12.71h-2.97l-5.26-12.71v12.71h-3.92v-19.54h4.45l6.22,14.53,6.22-14.53h4.42ZM147.02,87.3c0,.56-.04,1.06-.11,1.51h-11.34c.09,1.12.49,2,1.18,2.63.69.63,1.54.95,2.55.95,1.46,0,2.49-.63,3.11-1.88h4.23c-.45,1.49-1.31,2.73-2.58,3.7-1.27.95-2.83,1.43-4.68,1.43-1.49,0-2.84-.33-4.03-.98-1.18-.67-2.1-1.61-2.77-2.83-.65-1.21-.98-2.61-.98-4.2s.33-3.01.98-4.23c.65-1.21,1.57-2.15,2.74-2.8s2.53-.98,4.06-.98,2.79.32,3.95.95c1.18.63,2.08,1.54,2.72,2.72.65,1.16.98,2.49.98,4ZM142.96,86.18c-.02-1.01-.38-1.81-1.09-2.41-.71-.62-1.58-.92-2.6-.92-.97,0-1.79.3-2.46.9-.65.58-1.06,1.39-1.2,2.44h7.36ZM154.45,83.1v7.5c0,.52.12.91.36,1.15.26.22.69.34,1.29.34h1.82v3.3h-2.46c-3.3,0-4.96-1.61-4.96-4.82v-7.48h-1.85v-3.22h1.85v-3.84h3.95v3.84h3.47v3.22h-3.47ZM159.73,87.58c0-1.57.31-2.96.92-4.17.63-1.21,1.48-2.15,2.55-2.8,1.08-.65,2.29-.98,3.61-.98,1.16,0,2.17.23,3.02.7.88.47,1.58,1.05,2.1,1.76v-2.21h3.95v15.51h-3.95v-2.27c-.5.73-1.2,1.33-2.1,1.82-.88.47-1.89.7-3.05.7-1.31,0-2.5-.34-3.58-1.01-1.06-.67-1.91-1.61-2.55-2.83-.62-1.23-.92-2.64-.92-4.23ZM171.94,87.64c0-.95-.19-1.76-.56-2.44-.37-.69-.88-1.21-1.51-1.57-.63-.37-1.32-.56-2.04-.56s-1.4.18-2.02.53c-.62.35-1.12.88-1.51,1.57-.37.67-.56,1.47-.56,2.41s.19,1.75.56,2.46c.39.69.9,1.22,1.51,1.6.63.37,1.31.56,2.02.56s1.41-.18,2.04-.53c.63-.37,1.14-.9,1.51-1.57.37-.69.56-1.51.56-2.46ZM178.71,87.58c0-1.57.31-2.96.92-4.17.63-1.21,1.49-2.15,2.58-2.8,1.08-.65,2.29-.98,3.61-.98,1.01,0,1.97.22,2.88.67.92.43,1.64,1.01,2.18,1.74v-7.36h3.98v20.72h-3.98v-2.3c-.49.77-1.17,1.38-2.04,1.85-.88.47-1.89.7-3.05.7-1.31,0-2.5-.34-3.58-1.01-1.08-.67-1.94-1.61-2.58-2.83-.62-1.23-.92-2.64-.92-4.23ZM190.91,87.64c0-.95-.19-1.76-.56-2.44-.37-.69-.88-1.21-1.51-1.57-.63-.37-1.32-.56-2.04-.56s-1.4.18-2.02.53c-.62.35-1.12.88-1.51,1.57-.37.67-.56,1.47-.56,2.41s.19,1.75.56,2.46c.39.69.9,1.22,1.51,1.6.64.37,1.31.56,2.02.56s1.41-.18,2.04-.53c.64-.37,1.14-.9,1.51-1.57.37-.69.56-1.51.56-2.46ZM197.68,87.58c0-1.57.31-2.96.92-4.17.63-1.21,1.48-2.15,2.55-2.8,1.08-.65,2.29-.98,3.61-.98,1.16,0,2.17.23,3.02.7.88.47,1.58,1.05,2.1,1.76v-2.21h3.95v15.51h-3.95v-2.27c-.5.73-1.2,1.33-2.1,1.82-.88.47-1.89.7-3.05.7-1.31,0-2.5-.34-3.58-1.01-1.06-.67-1.91-1.61-2.55-2.83-.62-1.23-.92-2.64-.92-4.23ZM209.89,87.64c0-.95-.19-1.76-.56-2.44-.37-.69-.88-1.21-1.51-1.57-.63-.37-1.32-.56-2.04-.56s-1.4.18-2.02.53c-.62.35-1.12.88-1.51,1.57-.37.67-.56,1.47-.56,2.41s.19,1.75.56,2.46c.39.69.9,1.22,1.51,1.6.64.37,1.31.56,2.02.56s1.41-.18,2.04-.53c.64-.37,1.14-.9,1.51-1.57.37-.69.56-1.51.56-2.46ZM222.23,83.1v7.5c0,.52.12.91.36,1.15.26.22.69.34,1.29.34h1.82v3.3h-2.46c-3.3,0-4.96-1.61-4.96-4.82v-7.48h-1.85v-3.22h1.85v-3.84h3.95v3.84h3.47v3.22h-3.47ZM227.51,87.58c0-1.57.31-2.96.92-4.17.63-1.21,1.48-2.15,2.55-2.8,1.08-.65,2.29-.98,3.61-.98,1.16,0,2.17.23,3.02.7.88.47,1.58,1.05,2.1,1.76v-2.21h3.95v15.51h-3.95v-2.27c-.5.73-1.2,1.33-2.1,1.82-.88.47-1.89.7-3.05.7-1.31,0-2.5-.34-3.58-1.01-1.06-.67-1.91-1.61-2.55-2.83-.62-1.23-.92-2.64-.92-4.23ZM239.72,87.64c0-.95-.19-1.76-.56-2.44-.37-.69-.88-1.21-1.51-1.57-.63-.37-1.32-.56-2.04-.56s-1.4.18-2.02.53c-.62.35-1.12.88-1.51,1.57-.37.67-.56,1.47-.56,2.41s.19,1.75.56,2.46c.39.69.9,1.22,1.51,1.6.64.37,1.31.56,2.02.56s1.41-.18,2.04-.53c.64-.37,1.14-.9,1.51-1.57.37-.69.56-1.51.56-2.46Z"/>
</svg>