<?xml version="1.0" encoding="utf-8"?>
<!-- Generator: Adobe Illustrator 24.0.0, SVG Export Plug-In . SVG Version: 6.00 Build 0)  -->
<svg version="1.1" id="Precisley_wordmark_purple" xmlns="http://www.w3.org/2000/svg" xmlns:xlink="http://www.w3.org/1999/xlink"
	 x="0px" y="0px" viewBox="0 0 1910.7 1074.8" style="enable-background:new 0 0 1910.7 1074.8;" xml:space="preserve">
<style type="text/css">
	.st0{fill:#8017E1;}
</style>
<path class="st0" d="M1525.6,325h54.9v330.3h-54.9V325z M761.3,549.8c0,5.8-0.4,12-1.3,17.4H598.4c6.2,25.9,27.2,44.2,58.9,44.2
	c19.2,0,39.7-7.1,52.2-23.6l37.5,29.9c-19.1,27.2-53.1,43.3-89.2,43.3c-63.8,0-112.9-47.8-112.9-109.8
	c0-60.6,42.4-112.4,109.8-112.4C717.1,438.8,761.3,489.7,761.3,549.8z M706,526.7c-3.2-21.4-25.5-37.9-51.8-37.9
	c-25.4,0-46,15.1-54,37.9H706z M1156.6,502.2c0-5.4,3.6-13.4,21.9-13.4c11.6,0,29,3.1,47.7,16.1l29-39.3
	c-24.1-22.3-58.5-26.8-77.2-26.8c-47.3,0-75,29-75,67.8c0,76.8,107.5,57.1,107.5,88.8c0,7.6-6.2,15.6-25.9,15.6
	c-15.2,0-38.8-4.9-58.5-21.9l-29,41.9c19.2,14.7,44.6,29.9,83.9,29.9c53.5,0,81.7-28.6,81.7-67.4
	C1262.8,517.8,1156.6,532.1,1156.6,502.2z M1499.5,549.9c0,5.8-0.5,12.1-1.4,17.3h-162c6.2,25.9,27.2,44.2,58.9,44.2
	c19.2,0,40.2-7.1,52.7-23.6l37.5,29.9c-19.2,27.2-53.1,43.3-89.7,43.3c-63.8,0-112.9-47.8-112.9-109.8
	c0-60.6,42.4-112.4,109.8-112.4C1455.3,438.8,1499.5,489.7,1499.5,549.9z M1444.1,526.7c-3.1-21.4-25.4-37.9-52.2-37.9
	c-25.4,0-46,15.1-54,37.9H1444.1z M1043.9,338.4c-19.6,0-34.8,14.7-34.8,34.4c0,19.6,15.2,34.8,34.8,34.8s34.4-15.2,34.4-34.8
	C1078.2,353.2,1063.5,338.4,1043.9,338.4z M893.6,608.4c-32.1,0-58.5-26.8-58.5-58.5s26.3-58.5,58.5-58.5c20.1,0,37.5,9.8,48.2,25
	l47.3-27.2c-20.1-30.3-55.3-50.4-95.5-50.4c-62.5,0-112.4,49.1-112.4,111.1c0,61.1,50,111.1,112.4,111.1c40.6,0,76.8-21,96.4-52.2
	l-46.9-27.7C932.9,597.7,914.6,608.4,893.6,608.4z M1016.2,655.2h54.9V442.8h-54.9V655.2z M459,465.1v-22.3h-54.9H404v212.4h54.9
	V550.3c0-37.9,27.2-58.9,56.7-58.9c13.4,0,19.2,0.9,25,2.2v-54.4c-5.8-0.4-11.1-0.4-16.5-0.4C499.6,438.8,476.8,444.6,459,465.1z
	 M1773.5,442.8l-53.1,146.9l-53.1-146.9h-60.7l87.9,218.3l-38.4,107h53.6l117.8-325.3H1773.5z M378,549.9
	c0,61.4-49.7,111.1-111.1,111.1c-57.8,0-105.3-44.1-110.6-100.6v207.7h-55.2V442.8h55.2v96.6c5.3-56.4,52.8-100.6,110.6-100.6
	C328.3,438.8,378,488.5,378,549.9z M322.8,549.8c0-30.8-25.1-55.8-55.9-55.8c-30.8,0-55.8,25-55.8,55.8c0,30.9,25,55.9,55.8,55.9
	C297.7,605.7,322.7,580.7,322.8,549.8z"/>
</svg>
