<svg xmlns="http://www.w3.org/2000/svg" viewBox="0 0 778 800" fill="none">
<path d="M0,0 L10,0 L20,3 L36,11 L51,19 L65,27 L88,40 L109,52 L127,62 L148,74 L171,87 L194,100 L207,108 L222,117 L226,120 L226,125 L217,132 L196,144 L169,159 L147,172 L123,185 L106,195 L87,207 L65,219 L55,224 L48,223 L36,217 L22,213 L8,213 L-8,219 L-31,231 L-57,246 L-81,260 L-107,275 L-133,290 L-157,304 L-176,315 L-202,330 L-219,340 L-246,356 L-261,366 L-268,372 L-270,372 L-272,376 L-277,384 L-280,393 L-281,400 L-281,476 L-282,794 L-284,797 L-288,798 L-488,798 L-489,797 L-489,299 L-488,289 L-482,279 L-472,269 L-451,256 L-433,246 L-414,235 L-388,220 L-361,204 L-335,189 L-318,179 L-293,165 L-276,155 L-255,143 L-231,129 L-209,116 L-194,107 L-183,101 L-155,85 L-129,70 L-112,60 L-83,43 L-61,30 L-32,13 L-17,5 L-6,1 Z" fill="#10B981" transform="translate(489,1)"/>
<path d="M0,0 L4,2 L5,4 L5,295 L4,309 L0,319 L-7,328 L-16,336 L-29,344 L-49,356 L-66,366 L-92,381 L-118,396 L-133,405 L-154,417 L-172,427 L-192,439 L-203,445 L-230,460 L-245,469 L-264,480 L-286,493 L-314,509 L-338,523 L-359,535 L-378,546 L-407,563 L-433,578 L-454,590 L-475,602 L-503,618 L-510,622 L-515,622 L-516,593 L-516,419 L-514,410 L-503,402 L-477,387 L-451,372 L-436,363 L-421,354 L-392,337 L-365,321 L-348,311 L-327,299 L-303,285 L-286,275 L-266,263 L-242,249 L-221,237 L-198,224 L-189,216 L-183,204 L-181,194 L-180,104 L-171,98 L-155,89 L-131,75 L-108,62 L-83,47 L-58,33 L-34,19 L-10,5 Z" fill="#047857" transform="translate(771,152)"/>
<path d="M0,0 L5,3 L22,13 L30,18 L41,24 L59,34 L82,47 L110,63 L139,79 L165,93 L190,107 L199,114 L205,117 L205,481 L204,488 L200,491 L0,491 Z" fill="#047857" transform="translate(1,308)"/>
</svg>
