<svg xmlns="http://www.w3.org/2000/svg" xmlns:xlink="http://www.w3.org/1999/xlink" width="127.002" height="127.001" viewBox="0 0 127.002 127.001"><defs><filter id="a" x="0" y="0" width="127.002" height="127.001" filterUnits="userSpaceOnUse"><feOffset dy="3" input="SourceAlpha"/><feGaussianBlur stdDeviation="3" result="b"/><feFlood flood-opacity="0.161"/><feComposite operator="in" in2="b"/><feComposite in="SourceGraphic"/></filter></defs><g transform="translate(9 6)"><g transform="matrix(1, 0, 0, 1, -9, -6)" filter="url(#a)"><circle cx="54.501" cy="54.501" r="54.501" transform="translate(9 6)" fill="#2aa3ef"/></g><path d="M44.719,4.3a18.4,18.4,0,0,1-5.27,1.446A9.2,9.2,0,0,0,43.482.672,18.335,18.335,0,0,1,37.655,2.9,9.179,9.179,0,0,0,21.783,9.172a9.276,9.276,0,0,0,.239,2.092A26.044,26.044,0,0,1,3.115,1.679,9.182,9.182,0,0,0,5.954,13.925,9.1,9.1,0,0,1,1.8,12.777v.117a9.176,9.176,0,0,0,7.358,8.993,9.16,9.16,0,0,1-2.418.322,9.025,9.025,0,0,1-1.726-.166,9.189,9.189,0,0,0,8.571,6.372,18.431,18.431,0,0,1-11.4,3.924A18.492,18.492,0,0,1,0,32.212a25.962,25.962,0,0,0,14.064,4.122c16.874,0,26.1-13.977,26.1-26.1,0-.4-.011-.792-.026-1.186A18.647,18.647,0,0,0,44.719,4.3v0Z" transform="translate(32.141 36.334)" fill="#fff"/></g></svg>