<?xml version="1.0" encoding="UTF-8" standalone="no"?>
<svg
   width="100%"
   height="100%"
   viewBox="0 0 587 386"
   version="1.1"
   xml:space="preserve"
   style="fill-rule:evenodd;clip-rule:evenodd;stroke-linejoin:round;stroke-miterlimit:10;"
   id="svg38"
   sodipodi:docname="object-model-dataset-event.svg"
   inkscape:version="1.4.2 (ebf0e940, 2025-05-08)"
   xmlns:inkscape="http://www.inkscape.org/namespaces/inkscape"
   xmlns:sodipodi="http://sodipodi.sourceforge.net/DTD/sodipodi-0.dtd"
   xmlns="http://www.w3.org/2000/svg"
   xmlns:svg="http://www.w3.org/2000/svg"><defs
   id="defs38"><rect
     x="57.737988"
     y="162.71615"
     width="86.935039"
     height="18.043121"
     id="rect38" /></defs><sodipodi:namedview
   id="namedview38"
   pagecolor="#ffffff"
   bordercolor="#000000"
   borderopacity="0.25"
   inkscape:showpageshadow="2"
   inkscape:pageopacity="0.0"
   inkscape:pagecheckerboard="0"
   inkscape:deskcolor="#d1d1d1"
   inkscape:zoom="1.9650071"
   inkscape:cx="296.43659"
   inkscape:cy="195.41914"
   inkscape:window-width="1800"
   inkscape:window-height="1027"
   inkscape:window-x="0"
   inkscape:window-y="45"
   inkscape:window-maximized="0"
   inkscape:current-layer="g38" />
    <g
   id="object-model"
   transform="matrix(1.05177,0,0,1.05212,-52.9865,-138.557)">
        <rect
   x="50.379"
   y="131.693"
   width="558.097"
   height="366.148"
   style="fill:none;"
   id="rect1" />
        <g
   transform="matrix(0.950781,0,0,0.950463,2.8395,25.32)"
   id="g38">
            <rect
   x="93.114998"
   y="274.61649"
   width="139.244"
   height="61.610622"
   style="fill:#eeeeee;stroke-width:0.864236"
   id="rect2" />
            
            
            <rect
   x="93.113998"
   y="267.49084"
   width="139.244"
   height="37.297649"
   style="fill:#74a4bc;stroke-width:1.11181"
   id="rect3" />
            
            
            
            
            
            
            
            
            
            
            <rect
   x="318.14963"
   y="262.90518"
   width="123.621"
   height="82.487999"
   style="fill:#eeeeee"
   id="rect9" />
            <path
   d="m 355.18962,301.55919 v 9.812 h -0.891 v -1.219 c -0.385,0.469 -0.818,0.823 -1.297,1.063 -0.469,0.229 -0.984,0.344 -1.547,0.344 -1,0 -1.859,-0.365 -2.578,-1.094 -0.708,-0.729 -1.062,-1.615 -1.062,-2.656 0,-1.021 0.359,-1.891 1.078,-2.61 0.719,-0.729 1.578,-1.093 2.578,-1.093 0.583,0 1.109,0.125 1.578,0.375 0.479,0.25 0.896,0.619 1.25,1.109 v -4.031 z m -3.641,3.422 c -0.51,0 -0.979,0.125 -1.406,0.375 -0.427,0.25 -0.771,0.604 -1.031,1.062 -0.25,0.448 -0.375,0.922 -0.375,1.422 0,0.5 0.125,0.979 0.375,1.437 0.26,0.459 0.604,0.813 1.031,1.063 0.437,0.25 0.906,0.375 1.406,0.375 0.5,0 0.969,-0.125 1.406,-0.375 0.448,-0.25 0.792,-0.589 1.032,-1.016 0.25,-0.427 0.375,-0.911 0.375,-1.453 0,-0.823 -0.271,-1.51 -0.813,-2.062 -0.542,-0.552 -1.208,-0.828 -2,-0.828 z m 12.756,-0.688 v 7.078 h -0.891 v -1.219 c -0.385,0.469 -0.818,0.823 -1.297,1.063 -0.469,0.229 -0.984,0.344 -1.547,0.344 -1,0 -1.854,-0.365 -2.562,-1.094 -0.709,-0.729 -1.063,-1.615 -1.063,-2.656 0,-1.021 0.354,-1.891 1.063,-2.61 0.718,-0.729 1.583,-1.093 2.593,-1.093 0.573,0 1.094,0.125 1.563,0.375 0.479,0.25 0.896,0.619 1.25,1.109 v -1.297 z m -3.641,0.688 c -0.51,0 -0.979,0.125 -1.406,0.375 -0.427,0.25 -0.771,0.604 -1.032,1.062 -0.25,0.448 -0.375,0.922 -0.375,1.422 0,0.5 0.125,0.979 0.375,1.437 0.261,0.459 0.605,0.813 1.032,1.063 0.437,0.25 0.906,0.375 1.406,0.375 0.5,0 0.974,-0.125 1.422,-0.375 0.448,-0.25 0.791,-0.589 1.031,-1.016 0.24,-0.427 0.359,-0.911 0.359,-1.453 0,-0.823 -0.27,-1.51 -0.812,-2.062 -0.542,-0.552 -1.208,-0.828 -2,-0.828 z m 6.495,-3.313 h 0.922 v 2.625 h 1.437 v 0.781 h -1.437 v 6.297 h -0.922 v -6.297 h -1.25 v -0.781 h 1.25 z m 10.767,2.625 v 7.078 h -0.891 v -1.219 c -0.385,0.469 -0.818,0.823 -1.297,1.063 -0.469,0.229 -0.984,0.344 -1.547,0.344 -1,0 -1.854,-0.365 -2.562,-1.094 -0.709,-0.729 -1.063,-1.615 -1.063,-2.656 0,-1.021 0.354,-1.891 1.063,-2.61 0.718,-0.729 1.583,-1.093 2.593,-1.093 0.573,0 1.094,0.125 1.563,0.375 0.479,0.25 0.896,0.619 1.25,1.109 v -1.297 z m -3.641,0.688 c -0.51,0 -0.979,0.125 -1.406,0.375 -0.427,0.25 -0.771,0.604 -1.032,1.062 -0.25,0.448 -0.375,0.922 -0.375,1.422 0,0.5 0.125,0.979 0.375,1.437 0.261,0.459 0.605,0.813 1.032,1.063 0.437,0.25 0.906,0.375 1.406,0.375 0.5,0 0.974,-0.125 1.422,-0.375 0.448,-0.25 0.791,-0.589 1.031,-1.016 0.24,-0.427 0.359,-0.911 0.359,-1.453 0,-0.823 -0.27,-1.51 -0.812,-2.062 -0.542,-0.552 -1.208,-0.828 -2,-0.828 z m 9.261,0.078 -0.594,0.609 c -0.479,-0.469 -0.953,-0.703 -1.422,-0.703 -0.292,0 -0.547,0.099 -0.766,0.297 -0.208,0.187 -0.312,0.411 -0.312,0.672 0,0.229 0.089,0.448 0.266,0.656 0.177,0.219 0.541,0.469 1.093,0.75 0.677,0.354 1.136,0.693 1.375,1.016 0.24,0.333 0.36,0.703 0.36,1.109 0,0.583 -0.203,1.078 -0.61,1.484 -0.406,0.407 -0.916,0.61 -1.531,0.61 -0.406,0 -0.797,-0.089 -1.172,-0.266 -0.364,-0.177 -0.672,-0.422 -0.922,-0.734 l 0.578,-0.657 c 0.469,0.521 0.964,0.782 1.485,0.782 0.364,0 0.672,-0.115 0.922,-0.344 0.26,-0.24 0.39,-0.516 0.39,-0.828 0,-0.261 -0.083,-0.495 -0.25,-0.703 -0.177,-0.198 -0.562,-0.448 -1.156,-0.75 -0.635,-0.334 -1.068,-0.657 -1.297,-0.969 -0.229,-0.323 -0.344,-0.693 -0.344,-1.109 0,-0.542 0.183,-0.99 0.547,-1.344 0.365,-0.354 0.828,-0.531 1.391,-0.531 0.646,0 1.302,0.317 1.969,0.953 z m 7.564,3.968 0.781,0.391 c -0.26,0.5 -0.557,0.901 -0.89,1.203 -0.323,0.302 -0.693,0.537 -1.11,0.703 -0.406,0.157 -0.869,0.235 -1.39,0.235 -1.157,0 -2.063,-0.38 -2.719,-1.141 -0.646,-0.76 -0.969,-1.614 -0.969,-2.562 0,-0.907 0.276,-1.709 0.828,-2.407 0.698,-0.895 1.636,-1.343 2.813,-1.343 1.208,0 2.172,0.458 2.89,1.375 0.511,0.645 0.771,1.453 0.782,2.421 h -6.375 c 0.021,0.823 0.281,1.5 0.781,2.032 0.51,0.521 1.141,0.781 1.891,0.781 0.364,0 0.713,-0.063 1.046,-0.188 0.344,-0.125 0.636,-0.291 0.875,-0.5 0.24,-0.208 0.495,-0.541 0.766,-1 z m 0,-1.906 c -0.114,-0.489 -0.292,-0.88 -0.531,-1.172 -0.229,-0.291 -0.537,-0.526 -0.922,-0.703 -0.375,-0.177 -0.771,-0.265 -1.188,-0.265 -0.697,0 -1.296,0.224 -1.796,0.671 -0.365,0.323 -0.641,0.813 -0.829,1.469 z m 3.506,-5.453 h 0.922 v 2.625 h 1.437 v 0.781 h -1.437 v 6.297 h -0.922 v -6.297 h -1.25 v -0.781 h 1.25 z m 7.722,-0.297 c 0.208,0 0.385,0.078 0.531,0.235 0.156,0.145 0.235,0.323 0.235,0.531 0,0.198 -0.079,0.37 -0.235,0.515 -0.146,0.146 -0.323,0.219 -0.531,0.219 -0.198,0 -0.375,-0.073 -0.531,-0.219 -0.146,-0.145 -0.219,-0.317 -0.219,-0.515 0,-0.208 0.073,-0.386 0.219,-0.531 0.156,-0.157 0.333,-0.235 0.531,-0.235 z m -0.453,2.922 h 0.922 v 7.078 h -0.922 z m 9.871,-2.734 v 9.812 h -0.89 v -1.219 c -0.386,0.469 -0.818,0.823 -1.297,1.063 -0.469,0.229 -0.985,0.344 -1.547,0.344 -1,0 -1.86,-0.365 -2.578,-1.094 -0.709,-0.729 -1.063,-1.615 -1.063,-2.656 0,-1.021 0.36,-1.891 1.078,-2.61 0.719,-0.729 1.578,-1.093 2.578,-1.093 0.584,0 1.11,0.125 1.579,0.375 0.479,0.25 0.895,0.619 1.25,1.109 v -4.031 z m -3.64,3.422 c -0.511,0 -0.98,0.125 -1.407,0.375 -0.427,0.25 -0.771,0.604 -1.031,1.062 -0.25,0.448 -0.375,0.922 -0.375,1.422 0,0.5 0.125,0.979 0.375,1.437 0.26,0.459 0.604,0.813 1.031,1.063 0.438,0.25 0.907,0.375 1.407,0.375 0.5,0 0.968,-0.125 1.406,-0.375 0.448,-0.25 0.791,-0.589 1.031,-1.016 0.25,-0.427 0.375,-0.911 0.375,-1.453 0,-0.823 -0.271,-1.51 -0.812,-2.062 -0.542,-0.552 -1.209,-0.828 -2,-0.828 z"
   style="fill:#595959;fill-rule:nonzero"
   id="path10" />
            <path
   d="m 336.47762,317.70519 h 1.047 c -0.427,0.875 -0.771,1.895 -1.031,3.062 -0.25,1.156 -0.375,2.354 -0.375,3.594 0,1.146 0.094,2.25 0.281,3.312 0.198,1.063 0.469,1.995 0.813,2.797 h -1 c -0.323,-0.771 -0.584,-1.677 -0.782,-2.719 -0.187,-1.041 -0.281,-2.13 -0.281,-3.265 0,-1.219 0.115,-2.406 0.344,-3.563 0.229,-1.156 0.557,-2.229 0.984,-3.218 z m 2.873,2.921 h 0.906 v 1.266 c 0.365,-0.49 0.766,-0.854 1.204,-1.094 0.448,-0.239 0.932,-0.359 1.453,-0.359 0.531,0 1,0.135 1.406,0.406 0.417,0.271 0.719,0.636 0.906,1.094 0.198,0.448 0.297,1.156 0.297,2.125 v 3.641 h -0.906 v -3.375 c 0,-0.813 -0.031,-1.36 -0.094,-1.641 -0.114,-0.469 -0.323,-0.818 -0.625,-1.047 -0.292,-0.24 -0.677,-0.359 -1.156,-0.359 -0.552,0 -1.047,0.182 -1.485,0.547 -0.437,0.364 -0.723,0.817 -0.859,1.359 -0.094,0.344 -0.141,0.984 -0.141,1.922 v 2.594 h -0.906 z m 15.175,0 v 7.079 h -0.89 v -1.219 c -0.386,0.469 -0.818,0.823 -1.297,1.062 -0.469,0.229 -0.984,0.344 -1.547,0.344 -1,0 -1.854,-0.365 -2.562,-1.094 -0.709,-0.729 -1.063,-1.614 -1.063,-2.656 0,-1.021 0.354,-1.891 1.063,-2.609 0.718,-0.729 1.583,-1.094 2.593,-1.094 0.573,0 1.094,0.125 1.563,0.375 0.479,0.25 0.896,0.62 1.25,1.109 v -1.297 z m -3.64,0.688 c -0.511,0 -0.979,0.125 -1.406,0.375 -0.427,0.25 -0.771,0.604 -1.032,1.062 -0.25,0.448 -0.375,0.922 -0.375,1.422 0,0.5 0.125,0.979 0.375,1.438 0.261,0.458 0.605,0.812 1.032,1.062 0.437,0.25 0.906,0.375 1.406,0.375 0.5,0 0.974,-0.125 1.422,-0.375 0.448,-0.25 0.791,-0.588 1.031,-1.015 0.24,-0.427 0.359,-0.912 0.359,-1.453 0,-0.823 -0.27,-1.511 -0.812,-2.063 -0.542,-0.552 -1.208,-0.828 -2,-0.828 z m 5.698,-0.688 h 0.891 v 1.219 c 0.323,-0.448 0.651,-0.776 0.984,-0.984 0.458,-0.281 0.943,-0.422 1.453,-0.422 0.344,0 0.667,0.068 0.969,0.203 0.313,0.135 0.563,0.318 0.75,0.547 0.198,0.219 0.37,0.536 0.516,0.953 0.302,-0.552 0.682,-0.974 1.14,-1.266 0.459,-0.291 0.948,-0.437 1.469,-0.437 0.49,0 0.922,0.125 1.297,0.375 0.375,0.25 0.651,0.599 0.828,1.047 0.188,0.437 0.281,1.099 0.281,1.984 v 3.86 h -0.922 v -3.86 c 0,-0.76 -0.057,-1.281 -0.171,-1.562 -0.105,-0.292 -0.292,-0.521 -0.563,-0.688 -0.26,-0.177 -0.573,-0.265 -0.937,-0.265 -0.438,0 -0.839,0.13 -1.204,0.39 -0.364,0.261 -0.635,0.61 -0.812,1.047 -0.167,0.427 -0.25,1.151 -0.25,2.172 v 2.766 h -0.906 v -3.625 c 0,-0.855 -0.052,-1.433 -0.157,-1.735 -0.104,-0.312 -0.291,-0.557 -0.562,-0.734 -0.261,-0.188 -0.573,-0.281 -0.938,-0.281 -0.416,0 -0.812,0.13 -1.187,0.39 -0.365,0.25 -0.636,0.589 -0.813,1.016 -0.177,0.427 -0.265,1.083 -0.265,1.969 v 3 h -0.891 z m 18.455,4.735 0.781,0.39 c -0.26,0.5 -0.557,0.901 -0.891,1.204 -0.322,0.302 -0.692,0.536 -1.109,0.703 -0.406,0.156 -0.87,0.234 -1.391,0.234 -1.156,0 -2.062,-0.38 -2.718,-1.141 -0.646,-0.76 -0.969,-1.614 -0.969,-2.562 0,-0.906 0.276,-1.708 0.828,-2.406 0.698,-0.896 1.636,-1.344 2.813,-1.344 1.208,0 2.171,0.458 2.89,1.375 0.511,0.646 0.771,1.453 0.781,2.422 h -6.375 c 0.021,0.823 0.282,1.5 0.782,2.031 0.51,0.521 1.14,0.781 1.89,0.781 0.365,0 0.714,-0.062 1.047,-0.187 0.344,-0.125 0.636,-0.292 0.875,-0.5 0.24,-0.209 0.495,-0.542 0.766,-1 z m 0,-1.906 c -0.115,-0.49 -0.292,-0.881 -0.531,-1.172 -0.23,-0.292 -0.537,-0.526 -0.922,-0.703 -0.375,-0.178 -0.771,-0.266 -1.188,-0.266 -0.698,0 -1.297,0.224 -1.797,0.672 -0.364,0.323 -0.64,0.812 -0.828,1.469 z m 6.461,4.25 v -9.813 h 0.906 v 3.953 c 0.375,-0.469 0.797,-0.818 1.266,-1.047 0.479,-0.239 1,-0.359 1.563,-0.359 1,0 1.854,0.365 2.562,1.094 0.719,0.729 1.078,1.609 1.078,2.64 0,1.032 -0.359,1.912 -1.078,2.641 -0.719,0.719 -1.578,1.078 -2.578,1.078 -0.583,0 -1.109,-0.125 -1.578,-0.375 -0.469,-0.25 -0.88,-0.62 -1.235,-1.109 v 1.297 z m 3.641,-0.704 c 0.51,0 0.979,-0.119 1.406,-0.359 0.427,-0.25 0.766,-0.599 1.016,-1.047 0.26,-0.458 0.39,-0.937 0.39,-1.437 0,-0.511 -0.13,-0.99 -0.39,-1.438 -0.25,-0.458 -0.594,-0.812 -1.032,-1.062 -0.427,-0.261 -0.885,-0.391 -1.375,-0.391 -0.5,0 -0.974,0.13 -1.421,0.391 -0.448,0.25 -0.797,0.588 -1.047,1.015 -0.24,0.427 -0.36,0.912 -0.36,1.453 0,0.823 0.271,1.511 0.813,2.063 0.541,0.542 1.208,0.812 2,0.812 z m 12.435,-6.375 v 7.079 h -0.891 v -1.219 c -0.385,0.469 -0.817,0.823 -1.296,1.062 -0.469,0.229 -0.985,0.344 -1.547,0.344 -1,0 -1.854,-0.365 -2.563,-1.094 -0.708,-0.729 -1.062,-1.614 -1.062,-2.656 0,-1.021 0.354,-1.891 1.062,-2.609 0.719,-0.729 1.584,-1.094 2.594,-1.094 0.573,0 1.094,0.125 1.562,0.375 0.48,0.25 0.896,0.62 1.25,1.109 v -1.297 z m -3.641,0.688 c -0.51,0 -0.979,0.125 -1.406,0.375 -0.427,0.25 -0.771,0.604 -1.031,1.062 -0.25,0.448 -0.375,0.922 -0.375,1.422 0,0.5 0.125,0.979 0.375,1.438 0.26,0.458 0.604,0.812 1.031,1.062 0.438,0.25 0.906,0.375 1.406,0.375 0.5,0 0.974,-0.125 1.422,-0.375 0.448,-0.25 0.792,-0.588 1.032,-1.015 0.239,-0.427 0.359,-0.912 0.359,-1.453 0,-0.823 -0.271,-1.511 -0.813,-2.063 -0.541,-0.552 -1.208,-0.828 -2,-0.828 z m 9.261,0.078 -0.594,0.609 c -0.479,-0.468 -0.953,-0.703 -1.421,-0.703 -0.292,0 -0.547,0.099 -0.766,0.297 -0.208,0.188 -0.313,0.412 -0.313,0.672 0,0.229 0.089,0.448 0.266,0.656 0.177,0.219 0.542,0.469 1.094,0.75 0.677,0.354 1.135,0.693 1.375,1.016 0.239,0.333 0.359,0.703 0.359,1.109 0,0.584 -0.203,1.078 -0.609,1.485 -0.406,0.406 -0.917,0.609 -1.531,0.609 -0.407,0 -0.797,-0.088 -1.172,-0.266 -0.365,-0.177 -0.672,-0.421 -0.922,-0.734 l 0.578,-0.656 c 0.469,0.521 0.964,0.781 1.484,0.781 0.365,0 0.672,-0.115 0.922,-0.344 0.261,-0.239 0.391,-0.515 0.391,-0.828 0,-0.26 -0.083,-0.495 -0.25,-0.703 -0.177,-0.198 -0.563,-0.448 -1.156,-0.75 -0.636,-0.333 -1.068,-0.656 -1.297,-0.969 -0.229,-0.323 -0.344,-0.692 -0.344,-1.109 0,-0.542 0.182,-0.99 0.547,-1.344 0.364,-0.354 0.828,-0.531 1.39,-0.531 0.646,0 1.303,0.318 1.969,0.953 z m 7.565,3.969 0.781,0.39 c -0.261,0.5 -0.557,0.901 -0.891,1.204 -0.323,0.302 -0.692,0.536 -1.109,0.703 -0.406,0.156 -0.87,0.234 -1.391,0.234 -1.156,0 -2.062,-0.38 -2.718,-1.141 -0.646,-0.76 -0.969,-1.614 -0.969,-2.562 0,-0.906 0.276,-1.708 0.828,-2.406 0.698,-0.896 1.635,-1.344 2.812,-1.344 1.209,0 2.172,0.458 2.891,1.375 0.51,0.646 0.771,1.453 0.781,2.422 h -6.375 c 0.021,0.823 0.282,1.5 0.782,2.031 0.51,0.521 1.14,0.781 1.89,0.781 0.365,0 0.714,-0.062 1.047,-0.187 0.344,-0.125 0.635,-0.292 0.875,-0.5 0.24,-0.209 0.495,-0.542 0.766,-1 z m 0,-1.906 c -0.115,-0.49 -0.292,-0.881 -0.532,-1.172 -0.229,-0.292 -0.536,-0.526 -0.921,-0.703 -0.375,-0.178 -0.771,-0.266 -1.188,-0.266 -0.698,0 -1.297,0.224 -1.797,0.672 -0.364,0.323 -0.64,0.812 -0.828,1.469 z m 9.771,-5.563 v 9.813 h -0.891 v -1.219 c -0.385,0.469 -0.817,0.823 -1.296,1.062 -0.469,0.229 -0.985,0.344 -1.547,0.344 -1,0 -1.86,-0.365 -2.578,-1.094 -0.709,-0.729 -1.063,-1.614 -1.063,-2.656 0,-1.021 0.359,-1.891 1.078,-2.609 0.719,-0.729 1.578,-1.094 2.578,-1.094 0.584,0 1.11,0.125 1.578,0.375 0.48,0.25 0.896,0.62 1.25,1.109 v -4.031 z m -3.641,3.422 c -0.51,0 -0.979,0.125 -1.406,0.375 -0.427,0.25 -0.771,0.604 -1.031,1.062 -0.25,0.448 -0.375,0.922 -0.375,1.422 0,0.5 0.125,0.979 0.375,1.438 0.26,0.458 0.604,0.812 1.031,1.062 0.438,0.25 0.906,0.375 1.406,0.375 0.5,0 0.969,-0.125 1.407,-0.375 0.448,-0.25 0.791,-0.588 1.031,-1.015 0.25,-0.427 0.375,-0.912 0.375,-1.453 0,-0.823 -0.271,-1.511 -0.813,-2.063 -0.541,-0.552 -1.208,-0.828 -2,-0.828 z m 6.553,9.156 h -1.047 c 0.427,-0.864 0.766,-1.88 1.016,-3.047 0.26,-1.166 0.39,-2.364 0.39,-3.593 0,-1.146 -0.099,-2.25 -0.297,-3.313 -0.187,-1.062 -0.453,-2 -0.797,-2.812 h 1 c 0.323,0.77 0.579,1.682 0.766,2.734 0.198,1.052 0.297,2.141 0.297,3.266 0,1.218 -0.115,2.406 -0.344,3.562 -0.229,1.156 -0.557,2.224 -0.984,3.203 z"
   style="fill:#595959;fill-rule:nonzero"
   id="path11" />
            <rect
   x="318.14761"
   y="262.9032"
   width="123.621"
   height="30.173"
   style="fill:#74a4bc"
   id="rect11" />
            <path
   d="m 355.63262,282.79019 v -9.578 h 1.984 c 1.427,0 2.464,0.114 3.11,0.343 0.927,0.334 1.651,0.901 2.171,1.703 0.532,0.803 0.797,1.756 0.797,2.86 0,0.958 -0.208,1.802 -0.625,2.531 -0.416,0.729 -0.958,1.271 -1.625,1.625 -0.656,0.344 -1.583,0.516 -2.781,0.516 z m 0.906,-0.907 h 1.109 c 1.323,0 2.24,-0.083 2.75,-0.25 0.719,-0.229 1.287,-0.645 1.704,-1.25 0.416,-0.614 0.625,-1.364 0.625,-2.25 0,-0.927 -0.224,-1.713 -0.672,-2.359 -0.448,-0.656 -1.073,-1.109 -1.875,-1.359 -0.594,-0.177 -1.578,-0.266 -2.953,-0.266 h -0.688 z m 15.902,-6.171 v 7.078 h -0.89 v -1.219 c -0.386,0.469 -0.818,0.823 -1.297,1.062 -0.469,0.23 -0.984,0.344 -1.547,0.344 -1,0 -1.854,-0.364 -2.562,-1.094 -0.709,-0.729 -1.063,-1.614 -1.063,-2.656 0,-1.021 0.354,-1.89 1.063,-2.609 0.718,-0.729 1.583,-1.094 2.593,-1.094 0.573,0 1.094,0.125 1.563,0.375 0.479,0.25 0.896,0.62 1.25,1.109 v -1.296 z m -3.64,0.687 c -0.511,0 -0.979,0.125 -1.406,0.375 -0.427,0.25 -0.771,0.604 -1.032,1.063 -0.25,0.448 -0.375,0.921 -0.375,1.421 0,0.5 0.125,0.98 0.375,1.438 0.261,0.458 0.605,0.812 1.032,1.062 0.437,0.25 0.906,0.375 1.406,0.375 0.5,0 0.974,-0.125 1.422,-0.375 0.448,-0.25 0.791,-0.588 1.031,-1.015 0.24,-0.427 0.359,-0.912 0.359,-1.453 0,-0.823 -0.27,-1.511 -0.812,-2.063 -0.542,-0.552 -1.208,-0.828 -2,-0.828 z m 6.495,-3.312 h 0.922 v 2.625 h 1.437 v 0.781 h -1.437 v 6.297 h -0.922 v -6.297 h -1.25 v -0.781 h 1.25 z m 10.766,2.625 v 7.078 h -0.89 v -1.219 c -0.386,0.469 -0.818,0.823 -1.297,1.062 -0.469,0.23 -0.984,0.344 -1.547,0.344 -1,0 -1.854,-0.364 -2.562,-1.094 -0.709,-0.729 -1.063,-1.614 -1.063,-2.656 0,-1.021 0.354,-1.89 1.063,-2.609 0.718,-0.729 1.583,-1.094 2.593,-1.094 0.573,0 1.094,0.125 1.563,0.375 0.479,0.25 0.896,0.62 1.25,1.109 v -1.296 z m -3.64,0.687 c -0.511,0 -0.979,0.125 -1.406,0.375 -0.427,0.25 -0.771,0.604 -1.032,1.063 -0.25,0.448 -0.375,0.921 -0.375,1.421 0,0.5 0.125,0.98 0.375,1.438 0.261,0.458 0.605,0.812 1.032,1.062 0.437,0.25 0.906,0.375 1.406,0.375 0.5,0 0.974,-0.125 1.422,-0.375 0.448,-0.25 0.791,-0.588 1.031,-1.015 0.24,-0.427 0.359,-0.912 0.359,-1.453 0,-0.823 -0.27,-1.511 -0.812,-2.063 -0.542,-0.552 -1.208,-0.828 -2,-0.828 z m 9.261,0.078 -0.594,0.61 c -0.479,-0.469 -0.953,-0.704 -1.422,-0.704 -0.292,0 -0.547,0.099 -0.766,0.297 -0.208,0.188 -0.312,0.412 -0.312,0.672 0,0.229 0.088,0.448 0.266,0.656 0.177,0.219 0.541,0.469 1.093,0.75 0.677,0.355 1.136,0.693 1.375,1.016 0.24,0.333 0.36,0.703 0.36,1.109 0,0.584 -0.203,1.079 -0.61,1.485 -0.406,0.406 -0.916,0.609 -1.531,0.609 -0.406,0 -0.797,-0.088 -1.172,-0.265 -0.364,-0.177 -0.672,-0.422 -0.922,-0.735 l 0.578,-0.656 c 0.469,0.521 0.964,0.781 1.485,0.781 0.364,0 0.672,-0.114 0.922,-0.344 0.26,-0.239 0.39,-0.515 0.39,-0.828 0,-0.26 -0.083,-0.494 -0.25,-0.703 -0.177,-0.198 -0.562,-0.448 -1.156,-0.75 -0.635,-0.333 -1.068,-0.656 -1.297,-0.969 -0.229,-0.322 -0.344,-0.692 -0.344,-1.109 0,-0.542 0.183,-0.989 0.547,-1.344 0.365,-0.354 0.828,-0.531 1.391,-0.531 0.646,0 1.302,0.318 1.969,0.953 z m 7.564,3.969 0.781,0.391 c -0.26,0.5 -0.557,0.901 -0.89,1.203 -0.323,0.302 -0.693,0.536 -1.11,0.703 -0.406,0.156 -0.87,0.234 -1.39,0.234 -1.157,0 -2.063,-0.38 -2.719,-1.14 -0.646,-0.761 -0.969,-1.615 -0.969,-2.563 0,-0.906 0.276,-1.708 0.828,-2.406 0.698,-0.896 1.636,-1.344 2.813,-1.344 1.208,0 2.172,0.458 2.89,1.375 0.511,0.646 0.771,1.453 0.782,2.422 h -6.375 c 0.02,0.823 0.281,1.5 0.781,2.031 0.51,0.521 1.141,0.781 1.891,0.781 0.364,0 0.713,-0.062 1.046,-0.187 0.344,-0.125 0.636,-0.292 0.875,-0.5 0.24,-0.208 0.495,-0.542 0.766,-1 z m 0,-1.906 c -0.115,-0.49 -0.292,-0.88 -0.531,-1.172 -0.229,-0.292 -0.537,-0.526 -0.922,-0.703 -0.375,-0.177 -0.771,-0.266 -1.188,-0.266 -0.698,0 -1.296,0.224 -1.796,0.672 -0.365,0.323 -0.641,0.812 -0.829,1.469 z m 3.506,-5.453 h 0.922 v 2.625 h 1.437 v 0.781 h -1.437 v 6.297 h -0.922 v -6.297 h -1.25 v -0.781 h 1.25 z"
   style="fill:#ffffff;fill-rule:nonzero"
   id="path12" />
            
            
            
            
            <rect
   x="487.90161"
   y="271.9902"
   width="96.882004"
   height="64.315002"
   style="fill:#eeeeee"
   id="rect14" />
            <path
   d="m 512.01662,300.94819 v -9.578 h 1.984 c 1.427,0 2.464,0.114 3.109,0.343 0.927,0.334 1.651,0.901 2.172,1.704 0.531,0.802 0.797,1.755 0.797,2.859 0,0.958 -0.208,1.802 -0.625,2.531 -0.417,0.729 -0.958,1.271 -1.625,1.625 -0.656,0.344 -1.583,0.516 -2.781,0.516 z m 0.906,-0.906 h 1.109 c 1.323,0 2.24,-0.084 2.75,-0.25 0.719,-0.23 1.287,-0.646 1.703,-1.25 0.417,-0.615 0.625,-1.365 0.625,-2.25 0,-0.928 -0.224,-1.714 -0.672,-2.36 -0.447,-0.656 -1.072,-1.109 -1.875,-1.359 -0.593,-0.177 -1.578,-0.266 -2.953,-0.266 h -0.687 z m 15.902,-6.172 v 7.078 h -0.89 v -1.219 c -0.386,0.469 -0.818,0.823 -1.297,1.063 -0.469,0.229 -0.985,0.343 -1.547,0.343 -1,0 -1.854,-0.364 -2.563,-1.093 -0.708,-0.73 -1.062,-1.615 -1.062,-2.657 0,-1.021 0.354,-1.89 1.062,-2.609 0.719,-0.729 1.584,-1.094 2.594,-1.094 0.573,0 1.094,0.125 1.563,0.375 0.479,0.25 0.895,0.62 1.25,1.11 v -1.297 z m -3.64,0.687 c -0.511,0 -0.98,0.125 -1.407,0.375 -0.427,0.25 -0.77,0.604 -1.031,1.063 -0.25,0.448 -0.375,0.922 -0.375,1.422 0,0.5 0.125,0.979 0.375,1.437 0.261,0.458 0.604,0.813 1.031,1.063 0.438,0.25 0.907,0.375 1.407,0.375 0.5,0 0.974,-0.125 1.421,-0.375 0.448,-0.25 0.792,-0.589 1.032,-1.016 0.239,-0.427 0.359,-0.912 0.359,-1.453 0,-0.823 -0.271,-1.511 -0.812,-2.063 -0.542,-0.552 -1.209,-0.828 -2,-0.828 z m 6.495,-3.312 h 0.922 v 2.625 h 1.437 v 0.781 h -1.437 v 6.297 h -0.922 v -6.297 h -1.25 v -0.781 h 1.25 z m 10.766,2.625 v 7.078 h -0.89 v -1.219 c -0.386,0.469 -0.818,0.823 -1.297,1.063 -0.469,0.229 -0.985,0.343 -1.547,0.343 -1,0 -1.854,-0.364 -2.563,-1.093 -0.708,-0.73 -1.062,-1.615 -1.062,-2.657 0,-1.021 0.354,-1.89 1.062,-2.609 0.719,-0.729 1.584,-1.094 2.594,-1.094 0.573,0 1.094,0.125 1.563,0.375 0.479,0.25 0.895,0.62 1.25,1.11 v -1.297 z m -3.64,0.687 c -0.511,0 -0.98,0.125 -1.407,0.375 -0.427,0.25 -0.77,0.604 -1.031,1.063 -0.25,0.448 -0.375,0.922 -0.375,1.422 0,0.5 0.125,0.979 0.375,1.437 0.261,0.458 0.604,0.813 1.031,1.063 0.438,0.25 0.907,0.375 1.407,0.375 0.5,0 0.974,-0.125 1.421,-0.375 0.448,-0.25 0.792,-0.589 1.032,-1.016 0.239,-0.427 0.359,-0.912 0.359,-1.453 0,-0.823 -0.271,-1.511 -0.812,-2.063 -0.542,-0.552 -1.209,-0.828 -2,-0.828 z m 9.26,0.078 -0.593,0.61 c -0.48,-0.469 -0.953,-0.703 -1.422,-0.703 -0.292,0 -0.547,0.098 -0.766,0.296 -0.208,0.188 -0.312,0.412 -0.312,0.672 0,0.229 0.088,0.448 0.265,0.657 0.177,0.218 0.542,0.468 1.094,0.75 0.677,0.354 1.135,0.692 1.375,1.015 0.24,0.333 0.359,0.703 0.359,1.11 0,0.583 -0.203,1.078 -0.609,1.484 -0.406,0.406 -0.917,0.609 -1.531,0.609 -0.406,0 -0.797,-0.088 -1.172,-0.265 -0.365,-0.177 -0.672,-0.422 -0.922,-0.735 l 0.578,-0.656 c 0.469,0.521 0.964,0.781 1.485,0.781 0.364,0 0.671,-0.114 0.921,-0.343 0.261,-0.24 0.391,-0.516 0.391,-0.829 0,-0.26 -0.083,-0.494 -0.25,-0.703 -0.177,-0.198 -0.562,-0.448 -1.156,-0.75 -0.636,-0.333 -1.068,-0.656 -1.297,-0.968 -0.229,-0.323 -0.344,-0.693 -0.344,-1.11 0,-0.542 0.182,-0.989 0.547,-1.344 0.365,-0.354 0.828,-0.531 1.391,-0.531 0.645,0 1.302,0.318 1.968,0.953 z m 7.565,3.969 0.781,0.391 c -0.26,0.5 -0.557,0.901 -0.891,1.203 -0.323,0.302 -0.692,0.536 -1.109,0.703 -0.406,0.156 -0.87,0.234 -1.391,0.234 -1.156,0 -2.062,-0.38 -2.718,-1.14 -0.646,-0.761 -0.969,-1.615 -0.969,-2.563 0,-0.906 0.276,-1.708 0.828,-2.406 0.698,-0.896 1.635,-1.344 2.813,-1.344 1.208,0 2.171,0.458 2.89,1.375 0.511,0.646 0.771,1.453 0.781,2.422 h -6.375 c 0.021,0.823 0.282,1.5 0.782,2.031 0.51,0.521 1.14,0.782 1.89,0.782 0.365,0 0.714,-0.063 1.047,-0.188 0.344,-0.125 0.636,-0.292 0.875,-0.5 0.24,-0.208 0.495,-0.542 0.766,-1 z m 0,-1.906 c -0.115,-0.49 -0.292,-0.88 -0.531,-1.172 -0.23,-0.292 -0.537,-0.526 -0.922,-0.703 -0.375,-0.177 -0.771,-0.266 -1.188,-0.266 -0.698,0 -1.297,0.224 -1.797,0.672 -0.364,0.323 -0.64,0.813 -0.828,1.469 z m 3.506,-5.453 h 0.921 v 2.625 h 1.438 v 0.781 h -1.438 v 6.297 h -0.921 v -6.297 h -1.25 v -0.781 h 1.25 z"
   style="fill:#595959;fill-rule:nonzero"
   id="path15" />
            <path
   d="m 518.82962,307.37019 h 4.797 v 0.953 h -3.859 v 2.984 h 3.859 v 0.953 h -3.859 v 4.688 h -0.938 z m 13.353,2.5 v 7.078 h -0.89 v -1.219 c -0.386,0.469 -0.818,0.823 -1.297,1.063 -0.469,0.229 -0.985,0.343 -1.547,0.343 -1,0 -1.854,-0.364 -2.563,-1.093 -0.708,-0.73 -1.062,-1.615 -1.062,-2.657 0,-1.021 0.354,-1.89 1.062,-2.609 0.719,-0.729 1.584,-1.094 2.594,-1.094 0.573,0 1.094,0.125 1.563,0.375 0.479,0.25 0.896,0.62 1.25,1.11 v -1.297 z m -3.64,0.687 c -0.511,0 -0.979,0.125 -1.407,0.375 -0.427,0.25 -0.77,0.604 -1.031,1.063 -0.25,0.448 -0.375,0.922 -0.375,1.422 0,0.5 0.125,0.979 0.375,1.437 0.261,0.458 0.604,0.813 1.031,1.063 0.438,0.25 0.907,0.375 1.407,0.375 0.5,0 0.974,-0.125 1.422,-0.375 0.448,-0.25 0.791,-0.589 1.031,-1.016 0.239,-0.427 0.359,-0.912 0.359,-1.453 0,-0.823 -0.271,-1.511 -0.812,-2.063 -0.542,-0.552 -1.209,-0.828 -2,-0.828 z m 12.573,0.781 -0.719,0.454 c -0.625,-0.834 -1.479,-1.25 -2.562,-1.25 -0.865,0 -1.584,0.281 -2.157,0.843 -0.572,0.552 -0.859,1.224 -0.859,2.016 0,0.521 0.13,1.01 0.391,1.469 0.271,0.448 0.635,0.797 1.093,1.047 0.459,0.25 0.969,0.375 1.532,0.375 1.041,0 1.896,-0.412 2.562,-1.235 l 0.719,0.469 c -0.344,0.51 -0.802,0.906 -1.375,1.187 -0.563,0.282 -1.208,0.422 -1.938,0.422 -1.125,0 -2.057,-0.354 -2.796,-1.062 -0.73,-0.719 -1.094,-1.589 -1.094,-2.61 0,-0.687 0.172,-1.323 0.515,-1.906 0.344,-0.594 0.818,-1.052 1.422,-1.375 0.605,-0.333 1.276,-0.5 2.016,-0.5 0.469,0 0.922,0.073 1.359,0.219 0.438,0.146 0.808,0.333 1.11,0.562 0.302,0.23 0.562,0.521 0.781,0.875 z m 7.701,3.266 0.781,0.391 c -0.26,0.5 -0.557,0.901 -0.89,1.203 -0.323,0.302 -0.693,0.536 -1.11,0.703 -0.406,0.156 -0.87,0.234 -1.39,0.234 -1.157,0 -2.063,-0.38 -2.719,-1.14 -0.646,-0.761 -0.969,-1.615 -0.969,-2.563 0,-0.906 0.276,-1.708 0.828,-2.406 0.698,-0.896 1.636,-1.344 2.813,-1.344 1.208,0 2.172,0.458 2.89,1.375 0.511,0.646 0.771,1.453 0.782,2.422 h -6.375 c 0.02,0.823 0.281,1.5 0.781,2.031 0.51,0.521 1.141,0.782 1.891,0.782 0.364,0 0.713,-0.063 1.046,-0.188 0.344,-0.125 0.636,-0.292 0.875,-0.5 0.24,-0.208 0.495,-0.542 0.766,-1 z m 0,-1.906 c -0.115,-0.49 -0.292,-0.88 -0.531,-1.172 -0.229,-0.292 -0.537,-0.526 -0.922,-0.703 -0.375,-0.177 -0.771,-0.266 -1.188,-0.266 -0.698,0 -1.296,0.224 -1.796,0.672 -0.365,0.323 -0.641,0.813 -0.829,1.469 z m 3.506,-5.453 h 0.922 v 2.625 h 1.437 v 0.781 h -1.437 v 6.297 h -0.922 v -6.297 h -1.25 v -0.781 h 1.25 z"
   style="fill:#595959;fill-rule:nonzero"
   id="path16" />
            
            
            
            
            
            
            <path
   d="m 441.76962,304.14919 h 46.142"
   style="fill:none"
   id="path23" />
            <path
   d="m 453.02662,304.14919 h 34.885"
   style="fill:none;stroke:#4b566b;stroke-width:2px"
   id="path24" />
            <path
   d="m 453.02662,304.14919 -4.757,-3.331 -4.756,3.331 4.756,3.33 z"
   style="fill:#4b566b;stroke:#4b566b;stroke-width:2px;stroke-linejoin:miter"
   id="path25" />
            <path
   d="M232.359,307.685L254.417,307.685L254.417,190.615L318.123,190.615"
   style="fill-opacity:0;"
   id="path26" />
            
            
            <path
   d="M232.359,307.685L275.237,307.685L275.237,307.748L318.123,307.748"
   style="fill-opacity:0;"
   id="path29" />
            
            
            <path
   d="M232.359,307.685L254.785,307.685L254.785,424.756L318.123,424.756"
   style="fill-opacity:0;"
   id="path32" />
            <path
   d="m 231.63766,306.95259 h 42.878 v 0.063 h 36.032"
   style="clip-rule:evenodd;fill:none;fill-rule:evenodd;stroke:#4b566b;stroke-width:2px;stroke-linejoin:round;stroke-miterlimit:10"
   id="path30" />
            <path
   d="m 312.28681,307.19461 -2.249,2.249 6.179,-2.249 -6.179,-2.249 z"
   style="fill:#4b566b;stroke:#4b566b;stroke-width:2px;stroke-linejoin:miter"
   id="path34" />
            
            
            <rect
   x="267.49"
   y="286.677"
   width="28.724"
   height="14.551"
   style="fill-opacity:0;"
   id="rect35" />
            
            <rect
   x="258.136"
   y="391.709"
   width="57.606"
   height="29.102"
   style="fill-opacity:0;"
   id="rect36" />
            
            
        <text
   xml:space="preserve"
   transform="matrix(0.99999707,0,0,0.99999887,49.999852,111.91719)"
   id="text38"
   style="text-align:start;writing-mode:lr-tb;direction:ltr;white-space:pre;shape-inside:url(#rect38);display:inline;fill:#000000" /><text
   xml:space="preserve"
   style="font-style:normal;font-variant:normal;font-weight:normal;font-stretch:normal;font-size:13.3333px;font-family:'Helvetica Neue';-inkscape-font-specification:'Helvetica Neue, Normal';font-variant-ligatures:normal;font-variant-caps:normal;font-variant-numeric:normal;font-variant-east-asian:normal;text-align:center;writing-mode:lr-tb;direction:ltr;text-anchor:middle;fill:#f9f9f9;stroke-width:0.999998"
   x="162"
   y="265.70886"
   id="text39"><tspan
     sodipodi:role="line"
     id="tspan39"
     style="font-style:normal;font-variant:normal;font-weight:normal;font-stretch:normal;font-size:13.3333px;font-family:'Helvetica Neue';-inkscape-font-specification:'Helvetica Neue, Normal';font-variant-ligatures:normal;font-variant-caps:normal;font-variant-numeric:normal;font-variant-east-asian:normal;text-align:center;text-anchor:middle;fill:#f9f9f9;stroke-width:0.999998"
     x="162"
     y="265.70886" /><tspan
     sodipodi:role="line"
     style="font-style:normal;font-variant:normal;font-weight:normal;font-stretch:normal;font-size:13.3333px;font-family:'Helvetica Neue';-inkscape-font-specification:'Helvetica Neue, Normal';font-variant-ligatures:normal;font-variant-caps:normal;font-variant-numeric:normal;font-variant-east-asian:normal;text-align:center;text-anchor:middle;fill:#f9f9f9;stroke-width:0.999998"
     id="tspan40"
     x="162"
     y="282.37549">Dataset</tspan><tspan
     sodipodi:role="line"
     style="font-style:normal;font-variant:normal;font-weight:normal;font-stretch:normal;font-size:13.3333px;font-family:'Helvetica Neue';-inkscape-font-specification:'Helvetica Neue, Normal';font-variant-ligatures:normal;font-variant-caps:normal;font-variant-numeric:normal;font-variant-east-asian:normal;text-align:center;text-anchor:middle;fill:#f9f9f9;stroke-width:0.999998"
     x="162"
     y="299.04211"
     id="tspan1">Metadata Update</tspan></text><text
   xml:space="preserve"
   style="font-style:normal;font-variant:normal;font-weight:300;font-stretch:normal;font-size:13.3333px;font-family:'Helvetica Neue';-inkscape-font-specification:'Helvetica Neue, Light';font-variant-ligatures:normal;font-variant-caps:normal;font-variant-numeric:normal;font-variant-east-asian:normal;text-align:start;writing-mode:lr-tb;direction:ltr;text-anchor:start;clip-rule:evenodd;fill:#666666;fill-rule:evenodd;stroke-width:0.999998;stroke-linejoin:round;stroke-miterlimit:10"
   x="126.77121"
   y="305.24625"
   id="text39-1"><tspan
     sodipodi:role="line"
     id="tspan39-2"
     style="font-style:normal;font-variant:normal;font-weight:300;font-stretch:normal;font-size:13.3333px;font-family:'Helvetica Neue';-inkscape-font-specification:'Helvetica Neue, Light';font-variant-ligatures:normal;font-variant-caps:normal;font-variant-numeric:normal;font-variant-east-asian:normal;fill:#666666;stroke-width:0.999998"
     x="126.77121"
     y="305.24625" /><tspan
     sodipodi:role="line"
     style="font-style:normal;font-variant:normal;font-weight:300;font-stretch:normal;font-size:13.3333px;font-family:'Helvetica Neue';-inkscape-font-specification:'Helvetica Neue, Light';font-variant-ligatures:normal;font-variant-caps:normal;font-variant-numeric:normal;font-variant-east-asian:normal;fill:#666666;stroke-width:0.999998"
     id="tspan40-3"
     x="126.77121"
     y="321.91287">update time</tspan></text><text
   xml:space="preserve"
   style="font-style:normal;font-variant:normal;font-weight:500;font-stretch:normal;font-size:13.3333px;font-family:'Helvetica Neue';-inkscape-font-specification:'Helvetica Neue, Medium';font-variant-ligatures:normal;font-variant-caps:normal;font-variant-numeric:normal;font-variant-east-asian:normal;text-align:start;writing-mode:lr-tb;direction:ltr;text-anchor:start;clip-rule:evenodd;fill:#164450;fill-rule:evenodd;stroke-width:0.999998;stroke-linejoin:round;stroke-miterlimit:10"
   x="249.6041"
   y="299.75943"
   id="text39-1-6"><tspan
     sodipodi:role="line"
     style="font-style:normal;font-variant:normal;font-weight:500;font-stretch:normal;font-size:13.3333px;font-family:'Helvetica Neue';-inkscape-font-specification:'Helvetica Neue, Medium';font-variant-ligatures:normal;font-variant-caps:normal;font-variant-numeric:normal;font-variant-east-asian:normal;fill:#164450;stroke-width:0.999998"
     id="tspan40-3-2"
     x="249.6041"
     y="299.75943">dataset</tspan></text></g>
    </g>
</svg>
