<svg id="图层_1" data-name="图层 1" xmlns="http://www.w3.org/2000/svg" viewBox="0 0 438.69679 222.29294"><defs><style>.cls-1{fill:#009ade;}.cls-2{fill:#003764;}</style></defs><polygon class="cls-1" points="35.682 82.599 35.682 47.087 17.849 47.087 17.849 100.433 71.195 100.433 71.195 82.599 35.682 82.599"/><polygon class="cls-2" points="106.554 11.574 17.849 11.574 17.849 38.17 35.529 38.17 35.529 29.407 88.874 29.407 88.874 82.599 79.958 82.599 79.958 100.433 106.554 100.433 106.554 11.574"/><path class="cls-2" d="M130.07511,11.57423h27.36465V77.67987h39.35592v22.75264H130.07511Z"/><path class="cls-2" d="M208.47948,11.57423h68.71911V34.32687H235.84414V45.39572h35.51257V66.611H235.84414v33.82149H208.47948V11.57423Z"/><path class="cls-1" d="M329.92937,11.8817h9.37778l34.7439,88.5508h-9.0703L354.21937,72.9141H313.94106l-10.60764,27.5184h-9.0703ZM316.55449,65.68862h34.7439L334.2339,20.33708Z"/><path class="cls-1" d="M385.7348,11.8817h8.45537v88.5508H385.7348Z"/><path class="cls-1" d="M71.49268,184.41072a22.51776,22.51776,0,0,0,2.93957-8.10094,56.8132,56.8132,0,0,0,.66062-8.70028h7.20037a68.44451,68.44451,0,0,1-1.50406,11.70113,32.72525,32.72525,0,0,1-4.508,10.85977L90.3329,206.73168H80.60845l-8.41464-10.20019a34.24782,34.24782,0,0,1-12.14569,9.59981,37.05964,37.05964,0,0,1-15.14655,2.88036,29.71141,29.71141,0,0,1-10.58139-1.86034,26.31362,26.31362,0,0,1-8.59745-5.21955,24.08614,24.08614,0,0,1-5.77006-8.10094,25.604,25.604,0,0,1-2.1034-10.50037,23.09514,23.09514,0,0,1,1.6796-8.881,28.2292,28.2292,0,0,1,4.50076-7.44032,33.22692,33.22692,0,0,1,6.53975-5.94042,51.31344,51.31344,0,0,1,7.92124-4.49971,67.60672,67.60672,0,0,1-6.36109-8.82077,19.83406,19.83406,0,0,1-2.87932-10.50037,16.27291,16.27291,0,0,1,1.56015-7.26062,15.76411,15.76411,0,0,1,4.19953-5.34,17.87035,17.87035,0,0,1,6.18035-3.24079,25.5673,25.5673,0,0,1,7.50056-1.07922,19.88,19.88,0,0,1,7.32087,1.31916,17.65676,17.65676,0,0,1,5.75968,3.60123,16.20882,16.20882,0,0,1,5.04088,11.76033,18.74414,18.74414,0,0,1-1.38045,7.50057,19.21545,19.21545,0,0,1-3.71964,5.64022,30.56573,30.56573,0,0,1-5.46053,4.49972q-3.12237,2.04262-6.48054,4.08007Zm-28.682-22.68138a35.97087,35.97087,0,0,0-6.66025,4.01983,28.39658,28.39658,0,0,0-5.28082,5.22058,25.69463,25.69463,0,0,0-3.54,6.18035,18.09487,18.09487,0,0,0-1.3202,6.78074,19.07124,19.07124,0,0,0,1.4999,7.7405,17.33684,17.33684,0,0,0,4.08111,5.81993,18.14719,18.14719,0,0,0,6.12011,3.71964,21.93969,21.93969,0,0,0,7.74051,1.3202,23.58245,23.58245,0,0,0,12.30047-3.1795,37.83541,37.83541,0,0,0,9.66-8.34089Zm15.36052-19.801a10.83537,10.83537,0,0,0-.65959-10.02049,10.80594,10.80594,0,0,0-9.5406-5.10113,12.87907,12.87907,0,0,0-4.32.72087,12.12564,12.12564,0,0,0-3.66044,2.04,9.75028,9.75028,0,0,0-2.58016,3.23975,9.521,9.521,0,0,0-.95978,4.32,10.88509,10.88509,0,0,0,.95978,4.20056,29.28991,29.28991,0,0,0,2.34022,4.44051q1.37735,2.15949,2.93957,4.14032,1.55806,1.9803,2.7609,3.41945,3.59914-2.15949,7.25958-4.73966A15.81727,15.81727,0,0,0,58.17116,141.92831Z"/><path class="cls-1" d="M130.05441,206.73168V120.32719h29.52237q3.59914,0,7.07988.17969a48.4492,48.4492,0,0,1,6.83994.84032,34.3107,34.3107,0,0,1,6.54079,1.9798,30.85723,30.85723,0,0,1,6.18036,3.47969,26.28751,26.28751,0,0,1,7.08092,7.62106,44.32547,44.32547,0,0,1,4.38026,9.48035,55.7989,55.7989,0,0,1,2.28,10.08073,74.08743,74.08743,0,0,1,.65958,9.42011,72.40568,72.40568,0,0,1-.54013,8.76053,57.76982,57.76982,0,0,1-1.73985,8.70027,44.83144,44.83144,0,0,1-3.18054,8.16119,31.40225,31.40225,0,0,1-4.9796,7.14013,26.5829,26.5829,0,0,1-6.54079,5.40028,33.82922,33.82922,0,0,1-7.44032,3.18055,44.49055,44.49055,0,0,1-8.10094,1.56015q-4.20213.42067-8.51954.41964Zm8.16119-6.96043h19.56108a77.17979,77.17979,0,0,0,10.37988-.65959,30.0291,30.0291,0,0,0,9.901-3.301,19.53443,19.53443,0,0,0,7.07988-5.88016,32.343,32.343,0,0,0,4.38026-8.0999,43.43139,43.43139,0,0,0,2.28-9.18121,67.93762,67.93762,0,0,0,.66063-9.24041,77.85905,77.85905,0,0,0-.60038-9.5406,39.15108,39.15108,0,0,0-2.28-9.24041,30.79958,30.79958,0,0,0-4.56-8.0407,22.88048,22.88048,0,0,0-7.44032-6.05986,25.49211,25.49211,0,0,0-9.121-2.64041,94.79506,94.79506,0,0,0-10.68007-.59934H138.2156Z"/><path class="cls-1" d="M205.77675,206.73168l33.96184-86.40449H248.979l33.12255,86.40449h-8.40113l-9.96024-27.1219H224.37807l-10.20122,27.1219Zm21.36118-34.08233h33.84239l-16.92171-45.36173Z"/><path class="cls-1" d="M282.94084,120.32719h62.88278v6.96043h-27.3608v79.44406h-8.16118V127.28762h-27.3608Z"/><path class="cls-1" d="M343.54364,206.73168l33.96184-86.40449h9.24041l33.12255,86.40449h-8.40113l-9.96024-27.1219H362.145l-10.20122,27.1219Zm21.36118-34.08233H398.7472l-16.92171-45.36173Z"/></svg>