<svg xmlns="http://www.w3.org/2000/svg" xmlns:xlink="http://www.w3.org/1999/xlink" xmlns:lucid="lucid" width="1020" height="368.33"><g transform="translate(0 0)" lucid:page-tab-id="0_0"><path d="M0 0h1760v1360H0z" fill="#fff"/><path d="M360 26a6 6 0 0 1 6-6h308a6 6 0 0 1 6 6v248a6 6 0 0 1-6 6H366a6 6 0 0 1-6-6z" fill="#fff" fill-opacity="0"/><path d="M363.08 20.78l.2-.13.87-.36.9-.23h2m3.95 0h3.96m3.96 0h3.96m3.97 0h3.96m3.97 0h3.96m3.96 0h3.95m3.96 0h3.97m3.96 0h3.96m3.95 0h3.96m3.97 0h3.97m3.96 0l3.96-.02m3.96 0h3.96m3.96 0h3.96m3.96 0h3.96m3.96 0h3.96m3.96 0h3.96m3.97 0h3.96m3.95 0h3.96m3.97 0h3.96m3.96 0h3.95m3.96 0h3.97m3.96-.02h3.96m3.95 0h3.96m3.98 0h3.96m3.96 0h3.96m3.96 0h3.96m3.96 0H573m3.96 0h3.96m3.96 0h3.96m3.96 0h3.97m3.96 0h3.96m3.95 0l3.96-.02m3.97 0h3.96m3.96 0h3.95m3.96 0h3.97m3.96 0h3.96m3.96 0h3.96m3.96 0h3.96m3.96 0h3.96m3.96 0H674l.94.07.9.22.23.08m3.15 2.7l.13.2.36.87.23.9v2.02m0 4v4.03m0 4v4.03m0 4v4.03m0 4v4.03m0 4v4.02m0 4.02v4m0 4.03v4m0 4.03l.02 4m0 4.03v4m0 4.03v4m0 4.03v4m0 4.02v4m0 4.03v4m0 4.03v4m0 4.03v4.02m0 4.02v4m.02 4.03v4m0 4.03v4m0 4.03v4m0 4.03v4m0 4.03v4m0 4.02v4.02m0 4v4.03m0 4v4.03m.02 4v4.03m0 4v4.03m0 4v4.03m0 4v4.02m0 4v4.03m0 4V268m0 4V274l-.07.94-.22.9-.08.23m-2.7 3.15l-.2.13-.87.36-.9.23h-2m-3.95 0h-3.96m-3.96 0h-3.96m-3.97 0h-3.96m-3.97 0h-3.96m-3.96 0h-3.95m-3.96 0h-3.97m-3.96 0h-3.96m-3.95 0h-3.96m-3.97 0h-3.97m-3.96 0l-3.96.02m-3.96 0h-3.96m-3.96 0h-3.96m-3.96 0h-3.96m-3.96 0h-3.96m-3.96 0h-3.96m-3.97 0h-3.96m-3.95 0h-3.96m-3.97 0h-3.96m-3.96 0h-3.95m-3.96 0h-3.97m-3.96.02h-3.96m-3.95 0h-3.96m-3.98 0h-3.96m-3.96 0h-3.96m-3.96 0h-3.96m-3.96 0H467m-3.96 0h-3.96m-3.96 0h-3.96m-3.96 0h-3.97m-3.96 0h-3.96m-3.95 0l-3.96.02m-3.97 0h-3.96m-3.96 0h-3.95m-3.96 0h-3.97m-3.96 0h-3.96m-3.96 0h-3.96m-3.96 0h-3.96m-3.96 0h-3.96m-3.96 0H366l-.94-.07-.9-.22-.23-.08m-3.15-2.7l-.13-.2-.36-.87-.23-.9v-2.02m0-4v-4.03m0-4v-4.03m0-4v-4.03m0-4v-4.03m0-4v-4.02m0-4.02v-4m0-4.03v-4m0-4.03l-.02-4m0-4.03v-4m0-4.03v-4m0-4.03v-4m0-4.02v-4m0-4.03v-4m0-4.03v-4m0-4.03v-4.02m0-4.02v-4m-.02-4.03v-4m0-4.03v-4m0-4.03v-4m0-4.03v-4m0-4.03v-4m0-4.02v-4.02m0-4v-4.03m0-4V80.2m-.02-4v-4.03m0-4v-4.03m0-4V56.1m0-4v-4.02m0-4v-4.03m0-4V32m0-4V26l.07-.94.22-.9.08-.23" stroke="#5a6c86" fill="none"/><use xlink:href="#a" transform="matrix(1,0,0,1,360,40) translate(70.075 14.4)"/><use xlink:href="#b" transform="matrix(1,0,0,1,360,40) translate(103.92500000000001 14.4)"/><use xlink:href="#c" transform="matrix(1,0,0,1,360,40) translate(159.925 14.4)"/><use xlink:href="#d" transform="matrix(1,0,0,1,360,40) translate(210.925 14.4)"/><path d="M522.24 102.23h67.93v77.88h-67.93v-77.87z" stroke="#000" stroke-opacity="0" fill="#5ea0ef"/><path d="M590.24 182.32h-68c-1.23 0-2.24-1-2.24-2.22v-77.88c0-1.23 1-2.22 2.25-2.22h68c1.22 0 2.23 1 2.23 2.22v77.88c0 1.23-1 2.22-2.24 2.22zm-65.75-4.45H588v-73.42h-63.5z" stroke="#000" stroke-opacity="0" fill="#0078d4"/><path d="M535.2 112.84h67.94v77.88H535.2v-77.88z" stroke="#000" stroke-opacity="0" fill="#83b9f9"/><path d="M603.22 192.88h-68c-1.22 0-2.23-1-2.23-2.22v-77.88c0-1.23 1-2.22 2.23-2.22h68c1.23 0 2.24 1 2.24 2.22v77.88c0 1.23-1 2.22-2.25 2.22zm-65.74-4.45h63.5V115h-63.5z" stroke="#000" stroke-opacity="0" fill="#0078d4"/><path d="M596.2 122.56h-42.1c-1.84 0-3.35 1.55-3.35 3.3v90.13c0 1.73 1.5 3.28 3.34 3.28H627c1.82 0 3.33-1.55 3.33-3.3v-59.66c0-1.84-1.5-3.3-3.34-3.3h-24.2c-1.83-.1-3.27-1.54-3.27-3.38v-23.8c-.08-1.83-1.5-3.28-3.34-3.28z" stroke="#000" stroke-opacity="0" fill="#fff"/><path d="M594.72 126.75v22.67c0 4.62 3.7 8.35 8.32 8.35h23.03v57.32H555.2v-88.35h39.52m1.6-4.9H553.6c-1.87 0-3.4 1.46-3.4 3.33v91.48c0 1.87 1.53 3.34 3.4 3.34h74c1.86 0 3.4-1.47 3.4-3.34V156.1c0-1.87-1.54-3.34-3.4-3.34h-24.56c-1.86 0-3.3-1.47-3.3-3.34v-24.24c0-1.87-1.55-3.34-3.4-3.34z" stroke="#000" stroke-opacity="0" fill="url(#e)"/><path d="M629.67 153.4l-31.2-30.84v25.13c-.02 3.1 2.53 5.67 5.68 5.7z" stroke="#000" stroke-opacity="0" fill="#0078d4"/><path d="M566.36 166.6h48.36c2.2 0 3.3 1.1 3.3 3.28v.75c0 2.18-1.1 3.28-3.3 3.28h-48.36c-2.2 0-3.3-1.1-3.3-3.27v-.75c0-2.18 1.1-3.28 3.3-3.28zM566.36 179.68h48.36c2.2 0 3.3 1.1 3.3 3.28v.75c0 2.2-1.1 3.3-3.3 3.3h-48.36c-2.2 0-3.3-1.1-3.3-3.3v-.74c0-2.18 1.1-3.28 3.3-3.28zM566.4 192.76h27.98c2.2 0 3.32 1.1 3.32 3.28v.75c0 2.17-1.1 3.27-3.32 3.27h-28c-2.2 0-3.3-1.1-3.3-3.28v-.76c0-2.18 1.1-3.28 3.3-3.28z" stroke="#000" stroke-opacity="0" fill="#5ea0ef"/><use xlink:href="#f" transform="matrix(1,0,0,1,490,229) translate(52.05 14.4)"/><use xlink:href="#g" transform="matrix(1,0,0,1,490,229) translate(87.05 14.4)"/><use xlink:href="#h" transform="matrix(1,0,0,1,490,229) translate(37.099999999999994 36)"/><use xlink:href="#i" transform="matrix(1,0,0,1,490,229) translate(74 36)"/><path d="M20 116a6 6 0 0 1 6-6h208a6 6 0 0 1 6 6v68a6 6 0 0 1-6 6H26a6 6 0 0 1-6-6z" stroke="#3a414a" fill="#fff"/><path d="M42 110v80m176-80v80" stroke="#3a414a" fill="none"/><use xlink:href="#j" transform="matrix(1,0,0,1,52.5,115) translate(11.481481481481481 39.44444444444444)"/><use xlink:href="#k" transform="matrix(1,0,0,1,52.5,115) translate(74.44444444444444 39.44444444444444)"/><path d="M240.96 150h102.2" stroke="#3a414a" fill="none"/><path d="M240.98 150.5h-.52v-1h.52z" stroke="#3a414a" stroke-width=".05" fill="#3a414a"/><path d="M357.92 150l-14.27 4.64v-9.28z" stroke="#3a414a" fill="#3a414a"/><path d="M800 116a6 6 0 0 1 6-6h188a6 6 0 0 1 6 6v68a6 6 0 0 1-6 6H806a6 6 0 0 1-6-6z" stroke="#3a414a" fill="#fff"/><path d="M820 110v80m160-80v80" stroke="#3a414a" fill="none"/><g><use xlink:href="#l" transform="matrix(1,0,0,1,830,115) translate(21.97530864197531 39.44444444444444)"/><use xlink:href="#m" transform="matrix(1,0,0,1,830,115) translate(65.18518518518519 39.44444444444444)"/></g><path d="M680.96 150h102.2" stroke="#3a414a" fill="none"/><path d="M680.98 150.5h-.52v-1h.52z" stroke="#3a414a" stroke-width=".05" fill="#3a414a"/><path d="M797.92 150l-14.27 4.64v-9.28z" stroke="#3a414a" fill="#3a414a"/><path d="M320 306a6 6 0 0 1 6-6h608a6 6 0 0 1 6 6v36.33a6 6 0 0 1-6 6H326a6 6 0 0 1-6-6z" stroke="#000" stroke-opacity="0" fill="#fff" fill-opacity="0"/><g><use xlink:href="#l" transform="matrix(1,0,0,1,325,305) translate(21.450617283950635 25.09027777777778)"/><use xlink:href="#n" transform="matrix(1,0,0,1,325,305) translate(64.66049382716051 25.09027777777778)"/><use xlink:href="#o" transform="matrix(1,0,0,1,325,305) translate(144.78395061728398 25.09027777777778)"/><use xlink:href="#p" transform="matrix(1,0,0,1,325,305) translate(166.94444444444446 25.09027777777778)"/><use xlink:href="#q" transform="matrix(1,0,0,1,325,305) translate(276.75925925925924 25.09027777777778)"/><use xlink:href="#r" transform="matrix(1,0,0,1,325,305) translate(306.3888888888889 25.09027777777778)"/><use xlink:href="#s" transform="matrix(1,0,0,1,325,305) translate(343.4259259259259 25.09027777777778)"/><use xlink:href="#t" transform="matrix(1,0,0,1,325,305) translate(421.08024691358025 25.09027777777778)"/><use xlink:href="#u" transform="matrix(1,0,0,1,325,305) translate(464.2901234567901 25.09027777777778)"/><use xlink:href="#v" transform="matrix(1,0,0,1,325,305) translate(528.3024691358025 25.09027777777778)"/></g><defs><path fill="#5a6c86" d="M63-220v92h138v28H63V0H30v-248h175v28H63" id="w"/><path fill="#5a6c86" d="M24-231v-30h32v30H24zM24 0v-190h32V0H24" id="x"/><path fill="#5a6c86" d="M24 0v-261h32V0H24" id="y"/><path fill="#5a6c86" d="M100-194c63 0 86 42 84 106H49c0 40 14 67 53 68 26 1 43-12 49-29l28 8c-11 28-37 45-77 45C44 4 14-33 15-96c1-61 26-98 85-98zm52 81c6-60-76-77-97-28-3 7-6 17-6 28h103" id="z"/><g id="a"><use transform="matrix(0.05,0,0,0.05,0,0)" xlink:href="#w"/><use transform="matrix(0.05,0,0,0.05,10.950000000000001,0)" xlink:href="#x"/><use transform="matrix(0.05,0,0,0.05,14.9,0)" xlink:href="#y"/><use transform="matrix(0.05,0,0,0.05,18.85,0)" xlink:href="#z"/></g><path fill="#5a6c86" d="M160-131c35 5 61 23 61 61C221 17 115-2 30 0v-248c76 3 177-17 177 60 0 33-19 50-47 57zm-97-11c50-1 110 9 110-42 0-47-63-36-110-37v79zm0 115c55-2 124 14 124-45 0-56-70-42-124-44v89" id="A"/><path fill="#5a6c86" d="M141-36C126-15 110 5 73 4 37 3 15-17 15-53c-1-64 63-63 125-63 3-35-9-54-41-54-24 1-41 7-42 31l-33-3c5-37 33-52 76-52 45 0 72 20 72 64v82c-1 20 7 32 28 27v20c-31 9-61-2-59-35zM48-53c0 20 12 33 32 33 41-3 63-29 60-74-43 2-92-5-92 41" id="B"/><path fill="#5a6c86" d="M135-143c-3-34-86-38-87 0 15 53 115 12 119 90S17 21 10-45l28-5c4 36 97 45 98 0-10-56-113-15-118-90-4-57 82-63 122-42 12 7 21 19 24 35" id="C"/><path fill="#5a6c86" d="M85-194c31 0 48 13 60 33l-1-100h32l1 261h-30c-2-10 0-23-3-31C134-8 116 4 85 4 32 4 16-35 15-94c0-66 23-100 70-100zm9 24c-40 0-46 34-46 75 0 40 6 74 45 74 42 0 51-32 51-76 0-42-9-74-50-73" id="D"/><g id="b"><use transform="matrix(0.05,0,0,0.05,0,0)" xlink:href="#A"/><use transform="matrix(0.05,0,0,0.05,12,0)" xlink:href="#B"/><use transform="matrix(0.05,0,0,0.05,22,0)" xlink:href="#C"/><use transform="matrix(0.05,0,0,0.05,31,0)" xlink:href="#z"/><use transform="matrix(0.05,0,0,0.05,41,0)" xlink:href="#D"/></g><path fill="#5a6c86" d="M30 0v-248h187v28H63v79h144v27H63v87h162V0H30" id="E"/><path fill="#5a6c86" d="M108 0H70L1-190h34L89-25l56-165h34" id="F"/><path fill="#5a6c86" d="M117-194c89-4 53 116 60 194h-32v-121c0-31-8-49-39-48C34-167 62-67 57 0H25l-1-190h30c1 10-1 24 2 32 11-22 29-35 61-36" id="G"/><path fill="#5a6c86" d="M59-47c-2 24 18 29 38 22v24C64 9 27 4 27-40v-127H5v-23h24l9-43h21v43h35v23H59v120" id="H"/><g id="c"><use transform="matrix(0.05,0,0,0.05,0,0)" xlink:href="#E"/><use transform="matrix(0.05,0,0,0.05,12,0)" xlink:href="#F"/><use transform="matrix(0.05,0,0,0.05,21,0)" xlink:href="#z"/><use transform="matrix(0.05,0,0,0.05,31,0)" xlink:href="#G"/><use transform="matrix(0.05,0,0,0.05,41,0)" xlink:href="#H"/></g><path fill="#5a6c86" d="M30 0v-248h33v221h125V0H30" id="I"/><path fill="#5a6c86" d="M100-194c62-1 85 37 85 99 1 63-27 99-86 99S16-35 15-95c0-66 28-99 85-99zM99-20c44 1 53-31 53-75 0-43-8-75-51-75s-53 32-53 75 10 74 51 75" id="J"/><path fill="#5a6c86" d="M177-190C167-65 218 103 67 71c-23-6-38-20-44-43l32-5c15 47 100 32 89-28v-30C133-14 115 1 83 1 29 1 15-40 15-95c0-56 16-97 71-98 29-1 48 16 59 35 1-10 0-23 2-32h30zM94-22c36 0 50-32 50-73 0-42-14-75-50-75-39 0-46 34-46 75s6 73 46 73" id="K"/><g id="d"><use transform="matrix(0.05,0,0,0.05,0,0)" xlink:href="#I"/><use transform="matrix(0.05,0,0,0.05,10,0)" xlink:href="#J"/><use transform="matrix(0.05,0,0,0.05,20,0)" xlink:href="#K"/><use transform="matrix(0.05,0,0,0.05,30,0)" xlink:href="#C"/></g><linearGradient gradientUnits="userSpaceOnUse" id="e" x1="575.5" y1="220" x2="575.5" y2="100"><stop offset="0%" stop-color="#0078d4"/><stop offset="81.7%" stop-color="#5ea0ef"/></linearGradient><path d="M30 0v-248h33v221h125V0H30" id="L"/><path d="M100-194c62-1 85 37 85 99 1 63-27 99-86 99S16-35 15-95c0-66 28-99 85-99zM99-20c44 1 53-31 53-75 0-43-8-75-51-75s-53 32-53 75 10 74 51 75" id="M"/><path d="M177-190C167-65 218 103 67 71c-23-6-38-20-44-43l32-5c15 47 100 32 89-28v-30C133-14 115 1 83 1 29 1 15-40 15-95c0-56 16-97 71-98 29-1 48 16 59 35 1-10 0-23 2-32h30zM94-22c36 0 50-32 50-73 0-42-14-75-50-75-39 0-46 34-46 75s6 73 46 73" id="N"/><g id="f"><use transform="matrix(0.05,0,0,0.05,0,0)" xlink:href="#L"/><use transform="matrix(0.05,0,0,0.05,10,0)" xlink:href="#M"/><use transform="matrix(0.05,0,0,0.05,20,0)" xlink:href="#N"/></g><path d="M101-234c-31-9-42 10-38 44h38v23H63V0H32v-167H5v-23h27c-7-52 17-82 69-68v24" id="O"/><path d="M24-231v-30h32v30H24zM24 0v-190h32V0H24" id="P"/><path d="M24 0v-261h32V0H24" id="Q"/><path d="M100-194c63 0 86 42 84 106H49c0 40 14 67 53 68 26 1 43-12 49-29l28 8c-11 28-37 45-77 45C44 4 14-33 15-96c1-61 26-98 85-98zm52 81c6-60-76-77-97-28-3 7-6 17-6 28h103" id="R"/><path d="M135-143c-3-34-86-38-87 0 15 53 115 12 119 90S17 21 10-45l28-5c4 36 97 45 98 0-10-56-113-15-118-90-4-57 82-63 122-42 12 7 21 19 24 35" id="S"/><g id="g"><use transform="matrix(0.05,0,0,0.05,0,0)" xlink:href="#O"/><use transform="matrix(0.05,0,0,0.05,5,0)" xlink:href="#P"/><use transform="matrix(0.05,0,0,0.05,8.95,0)" xlink:href="#Q"/><use transform="matrix(0.05,0,0,0.05,12.899999999999999,0)" xlink:href="#R"/><use transform="matrix(0.05,0,0,0.05,22.9,0)" xlink:href="#S"/></g><path d="M206 0h-36l-40-164L89 0H53L-1-190h32L70-26l43-164h34l41 164 42-164h31" id="T"/><path d="M59-47c-2 24 18 29 38 22v24C64 9 27 4 27-40v-127H5v-23h24l9-43h21v43h35v23H59v120" id="U"/><path d="M106-169C34-169 62-67 57 0H25v-261h32l-1 103c12-21 28-36 61-36 89 0 53 116 60 194h-32v-121c2-32-8-49-39-48" id="V"/><g id="h"><use transform="matrix(0.05,0,0,0.05,0,0)" xlink:href="#T"/><use transform="matrix(0.05,0,0,0.05,12.950000000000001,0)" xlink:href="#P"/><use transform="matrix(0.05,0,0,0.05,16.900000000000002,0)" xlink:href="#U"/><use transform="matrix(0.05,0,0,0.05,21.900000000000002,0)" xlink:href="#V"/></g><path d="M114-163C36-179 61-72 57 0H25l-1-190h30c1 12-1 29 2 39 6-27 23-49 58-41v29" id="W"/><path d="M141-36C126-15 110 5 73 4 37 3 15-17 15-53c-1-64 63-63 125-63 3-35-9-54-41-54-24 1-41 7-42 31l-33-3c5-37 33-52 76-52 45 0 72 20 72 64v82c-1 20 7 32 28 27v20c-31 9-61-2-59-35zM48-53c0 20 12 33 32 33 41-3 63-29 60-74-43 2-92-5-92 41" id="X"/><path d="M117-194c89-4 53 116 60 194h-32v-121c0-31-8-49-39-48C34-167 62-67 57 0H25l-1-190h30c1 10-1 24 2 32 11-22 29-35 61-36" id="Y"/><g id="i"><use transform="matrix(0.05,0,0,0.05,0,0)" xlink:href="#W"/><use transform="matrix(0.05,0,0,0.05,5.95,0)" xlink:href="#M"/><use transform="matrix(0.05,0,0,0.05,15.949999999999998,0)" xlink:href="#U"/><use transform="matrix(0.05,0,0,0.05,20.95,0)" xlink:href="#X"/><use transform="matrix(0.05,0,0,0.05,30.950000000000003,0)" xlink:href="#U"/><use transform="matrix(0.05,0,0,0.05,35.95,0)" xlink:href="#P"/><use transform="matrix(0.05,0,0,0.05,39.900000000000006,0)" xlink:href="#M"/><use transform="matrix(0.05,0,0,0.05,49.900000000000006,0)" xlink:href="#Y"/></g><path fill="#3a414a" d="M30 0v-248h187v28H63v79h144v27H63v87h162V0H30" id="Z"/><path fill="#3a414a" d="M108 0H70L1-190h34L89-25l56-165h34" id="aa"/><path fill="#3a414a" d="M100-194c63 0 86 42 84 106H49c0 40 14 67 53 68 26 1 43-12 49-29l28 8c-11 28-37 45-77 45C44 4 14-33 15-96c1-61 26-98 85-98zm52 81c6-60-76-77-97-28-3 7-6 17-6 28h103" id="ab"/><path fill="#3a414a" d="M117-194c89-4 53 116 60 194h-32v-121c0-31-8-49-39-48C34-167 62-67 57 0H25l-1-190h30c1 10-1 24 2 32 11-22 29-35 61-36" id="ac"/><path fill="#3a414a" d="M59-47c-2 24 18 29 38 22v24C64 9 27 4 27-40v-127H5v-23h24l9-43h21v43h35v23H59v120" id="ad"/><g id="j"><use transform="matrix(0.06172839506172839,0,0,0.06172839506172839,0,0)" xlink:href="#Z"/><use transform="matrix(0.06172839506172839,0,0,0.06172839506172839,14.814814814814813,0)" xlink:href="#aa"/><use transform="matrix(0.06172839506172839,0,0,0.06172839506172839,25.925925925925924,0)" xlink:href="#ab"/><use transform="matrix(0.06172839506172839,0,0,0.06172839506172839,38.2716049382716,0)" xlink:href="#ac"/><use transform="matrix(0.06172839506172839,0,0,0.06172839506172839,50.61728395061728,0)" xlink:href="#ad"/></g><path fill="#3a414a" d="M30 0v-248h33v221h125V0H30" id="ae"/><path fill="#3a414a" d="M100-194c62-1 85 37 85 99 1 63-27 99-86 99S16-35 15-95c0-66 28-99 85-99zM99-20c44 1 53-31 53-75 0-43-8-75-51-75s-53 32-53 75 10 74 51 75" id="af"/><path fill="#3a414a" d="M177-190C167-65 218 103 67 71c-23-6-38-20-44-43l32-5c15 47 100 32 89-28v-30C133-14 115 1 83 1 29 1 15-40 15-95c0-56 16-97 71-98 29-1 48 16 59 35 1-10 0-23 2-32h30zM94-22c36 0 50-32 50-73 0-42-14-75-50-75-39 0-46 34-46 75s6 73 46 73" id="ag"/><path fill="#3a414a" d="M114-163C36-179 61-72 57 0H25l-1-190h30c1 12-1 29 2 39 6-27 23-49 58-41v29" id="ah"/><g id="k"><use transform="matrix(0.06172839506172839,0,0,0.06172839506172839,0,0)" xlink:href="#ae"/><use transform="matrix(0.06172839506172839,0,0,0.06172839506172839,12.345679012345679,0)" xlink:href="#af"/><use transform="matrix(0.06172839506172839,0,0,0.06172839506172839,24.691358024691358,0)" xlink:href="#ag"/><use transform="matrix(0.06172839506172839,0,0,0.06172839506172839,37.03703703703704,0)" xlink:href="#ag"/><use transform="matrix(0.06172839506172839,0,0,0.06172839506172839,49.382716049382715,0)" xlink:href="#ab"/><use transform="matrix(0.06172839506172839,0,0,0.06172839506172839,61.72839506172839,0)" xlink:href="#ah"/></g><g id="l"><use transform="matrix(0.06172839506172839,0,0,0.06172839506172839,0,0)" xlink:href="#ae"/><use transform="matrix(0.06172839506172839,0,0,0.06172839506172839,12.345679012345679,0)" xlink:href="#af"/><use transform="matrix(0.06172839506172839,0,0,0.06172839506172839,24.691358024691358,0)" xlink:href="#ag"/></g><path fill="#3a414a" d="M127-220V0H93v-220H8v-28h204v28h-85" id="ai"/><path fill="#3a414a" d="M141-36C126-15 110 5 73 4 37 3 15-17 15-53c-1-64 63-63 125-63 3-35-9-54-41-54-24 1-41 7-42 31l-33-3c5-37 33-52 76-52 45 0 72 20 72 64v82c-1 20 7 32 28 27v20c-31 9-61-2-59-35zM48-53c0 20 12 33 32 33 41-3 63-29 60-74-43 2-92-5-92 41" id="aj"/><path fill="#3a414a" d="M24-231v-30h32v30H24zM24 0v-190h32V0H24" id="ak"/><path fill="#3a414a" d="M24 0v-261h32V0H24" id="al"/><g id="m"><use transform="matrix(0.06172839506172839,0,0,0.06172839506172839,0,0)" xlink:href="#ai"/><use transform="matrix(0.06172839506172839,0,0,0.06172839506172839,11.049382716049381,0)" xlink:href="#aj"/><use transform="matrix(0.06172839506172839,0,0,0.06172839506172839,23.39506172839506,0)" xlink:href="#ak"/><use transform="matrix(0.06172839506172839,0,0,0.06172839506172839,28.2716049382716,0)" xlink:href="#al"/><use transform="matrix(0.06172839506172839,0,0,0.06172839506172839,33.148148148148145,0)" xlink:href="#ab"/><use transform="matrix(0.06172839506172839,0,0,0.06172839506172839,45.49382716049382,0)" xlink:href="#ah"/></g><g id="n"><use transform="matrix(0.06172839506172839,0,0,0.06172839506172839,0,0)" xlink:href="#ah"/><use transform="matrix(0.06172839506172839,0,0,0.06172839506172839,7.345679012345679,0)" xlink:href="#af"/><use transform="matrix(0.06172839506172839,0,0,0.06172839506172839,19.691358024691358,0)" xlink:href="#ad"/><use transform="matrix(0.06172839506172839,0,0,0.06172839506172839,25.864197530864196,0)" xlink:href="#aj"/><use transform="matrix(0.06172839506172839,0,0,0.06172839506172839,38.20987654320987,0)" xlink:href="#ad"/><use transform="matrix(0.06172839506172839,0,0,0.06172839506172839,44.382716049382715,0)" xlink:href="#ak"/><use transform="matrix(0.06172839506172839,0,0,0.06172839506172839,49.25925925925926,0)" xlink:href="#af"/><use transform="matrix(0.06172839506172839,0,0,0.06172839506172839,61.60493827160494,0)" xlink:href="#ac"/></g><path fill="#3a414a" d="M135-143c-3-34-86-38-87 0 15 53 115 12 119 90S17 21 10-45l28-5c4 36 97 45 98 0-10-56-113-15-118-90-4-57 82-63 122-42 12 7 21 19 24 35" id="am"/><g id="o"><use transform="matrix(0.06172839506172839,0,0,0.06172839506172839,0,0)" xlink:href="#ak"/><use transform="matrix(0.06172839506172839,0,0,0.06172839506172839,4.876543209876543,0)" xlink:href="#am"/></g><path fill="#3a414a" d="M115-194c53 0 69 39 70 98 0 66-23 100-70 100C84 3 66-7 56-30L54 0H23l1-261h32v101c10-23 28-34 59-34zm-8 174c40 0 45-34 45-75 0-40-5-75-45-74-42 0-51 32-51 76 0 43 10 73 51 73" id="an"/><path fill="#3a414a" d="M96-169c-40 0-48 33-48 73s9 75 48 75c24 0 41-14 43-38l32 2c-6 37-31 61-74 61-59 0-76-41-82-99-10-93 101-131 147-64 4 7 5 14 7 22l-32 3c-4-21-16-35-41-35" id="ao"/><path fill="#3a414a" d="M85-194c31 0 48 13 60 33l-1-100h32l1 261h-30c-2-10 0-23-3-31C134-8 116 4 85 4 32 4 16-35 15-94c0-66 23-100 70-100zm9 24c-40 0-46 34-46 75 0 40 6 74 45 74 42 0 51-32 51-76 0-42-9-74-50-73" id="ap"/><g id="p"><use transform="matrix(0.06172839506172839,0,0,0.06172839506172839,0,0)" xlink:href="#aj"/><use transform="matrix(0.06172839506172839,0,0,0.06172839506172839,12.345679012345679,0)" xlink:href="#an"/><use transform="matrix(0.06172839506172839,0,0,0.06172839506172839,24.691358024691358,0)" xlink:href="#am"/><use transform="matrix(0.06172839506172839,0,0,0.06172839506172839,35.80246913580247,0)" xlink:href="#ad"/><use transform="matrix(0.06172839506172839,0,0,0.06172839506172839,41.97530864197531,0)" xlink:href="#ah"/><use transform="matrix(0.06172839506172839,0,0,0.06172839506172839,49.32098765432099,0)" xlink:href="#aj"/><use transform="matrix(0.06172839506172839,0,0,0.06172839506172839,61.666666666666664,0)" xlink:href="#ao"/><use transform="matrix(0.06172839506172839,0,0,0.06172839506172839,72.77777777777777,0)" xlink:href="#ad"/><use transform="matrix(0.06172839506172839,0,0,0.06172839506172839,78.9506172839506,0)" xlink:href="#ab"/><use transform="matrix(0.06172839506172839,0,0,0.06172839506172839,91.29629629629629,0)" xlink:href="#ap"/></g><path fill="#3a414a" d="M179-190L93 31C79 59 56 82 12 73V49c39 6 53-20 64-50L1-190h34L92-34l54-156h33" id="aq"/><g id="q"><use transform="matrix(0.06172839506172839,0,0,0.06172839506172839,0,0)" xlink:href="#an"/><use transform="matrix(0.06172839506172839,0,0,0.06172839506172839,12.345679012345679,0)" xlink:href="#aq"/></g><path fill="#3a414a" d="M106-169C34-169 62-67 57 0H25v-261h32l-1 103c12-21 28-36 61-36 89 0 53 116 60 194h-32v-121c2-32-8-49-39-48" id="ar"/><g id="r"><use transform="matrix(0.06172839506172839,0,0,0.06172839506172839,0,0)" xlink:href="#ad"/><use transform="matrix(0.06172839506172839,0,0,0.06172839506172839,6.172839506172839,0)" xlink:href="#ar"/><use transform="matrix(0.06172839506172839,0,0,0.06172839506172839,18.51851851851852,0)" xlink:href="#ab"/></g><g id="s"><use transform="matrix(0.06172839506172839,0,0,0.06172839506172839,0,0)" xlink:href="#al"/><use transform="matrix(0.06172839506172839,0,0,0.06172839506172839,4.876543209876543,0)" xlink:href="#af"/><use transform="matrix(0.06172839506172839,0,0,0.06172839506172839,17.22222222222222,0)" xlink:href="#ag"/><use transform="matrix(0.06172839506172839,0,0,0.06172839506172839,29.5679012345679,0)" xlink:href="#ag"/><use transform="matrix(0.06172839506172839,0,0,0.06172839506172839,41.913580246913575,0)" xlink:href="#ak"/><use transform="matrix(0.06172839506172839,0,0,0.06172839506172839,46.79012345679012,0)" xlink:href="#ac"/><use transform="matrix(0.06172839506172839,0,0,0.06172839506172839,59.1358024691358,0)" xlink:href="#ag"/></g><g id="t"><use transform="matrix(0.06172839506172839,0,0,0.06172839506172839,0,0)" xlink:href="#aj"/><use transform="matrix(0.06172839506172839,0,0,0.06172839506172839,12.345679012345679,0)" xlink:href="#ac"/><use transform="matrix(0.06172839506172839,0,0,0.06172839506172839,24.691358024691358,0)" xlink:href="#ap"/></g><g id="u"><use transform="matrix(0.06172839506172839,0,0,0.06172839506172839,0,0)" xlink:href="#ad"/><use transform="matrix(0.06172839506172839,0,0,0.06172839506172839,6.172839506172839,0)" xlink:href="#aj"/><use transform="matrix(0.06172839506172839,0,0,0.06172839506172839,18.51851851851852,0)" xlink:href="#ak"/><use transform="matrix(0.06172839506172839,0,0,0.06172839506172839,23.395061728395063,0)" xlink:href="#al"/><use transform="matrix(0.06172839506172839,0,0,0.06172839506172839,28.271604938271608,0)" xlink:href="#ak"/><use transform="matrix(0.06172839506172839,0,0,0.06172839506172839,33.14814814814815,0)" xlink:href="#ac"/><use transform="matrix(0.06172839506172839,0,0,0.06172839506172839,45.49382716049383,0)" xlink:href="#ag"/></g><g id="v"><use transform="matrix(0.06172839506172839,0,0,0.06172839506172839,0,0)" xlink:href="#al"/><use transform="matrix(0.06172839506172839,0,0,0.06172839506172839,4.876543209876543,0)" xlink:href="#ak"/><use transform="matrix(0.06172839506172839,0,0,0.06172839506172839,9.753086419753085,0)" xlink:href="#an"/><use transform="matrix(0.06172839506172839,0,0,0.06172839506172839,22.098765432098766,0)" xlink:href="#ah"/><use transform="matrix(0.06172839506172839,0,0,0.06172839506172839,29.444444444444443,0)" xlink:href="#aj"/><use transform="matrix(0.06172839506172839,0,0,0.06172839506172839,41.79012345679012,0)" xlink:href="#ah"/><use transform="matrix(0.06172839506172839,0,0,0.06172839506172839,49.1358024691358,0)" xlink:href="#aq"/></g></defs></g></svg>