<svg version="1.1" viewBox="0.0 0.0 960.0 540.0" fill="none" stroke="none" stroke-linecap="square" stroke-miterlimit="10" xmlns:xlink="http://www.w3.org/1999/xlink" xmlns="http://www.w3.org/2000/svg"><clipPath id="g2d751e383f3_0_24.0"><path d="m0 0l960.0 0l0 540.0l-960.0 0l0 -540.0z" clip-rule="nonzero"/></clipPath><g clip-path="url(#g2d751e383f3_0_24.0)"><path fill="#000000" fill-opacity="0.0" d="m0 0l960.0 0l0 540.0l-960.0 0z" fill-rule="evenodd"/><path fill="#eeeeee" d="m106.784775 335.42026l0 0c0 -8.668579 7.027275 -15.695862 15.695854 -15.695862l93.14373 0c4.162796 0 8.155106 1.6536865 11.098648 4.597229c2.9435425 2.9435425 4.5971985 6.935852 4.5971985 11.098633l0 62.781525c0 8.668579 -7.0272675 15.695862 -15.695847 15.695862l-93.14373 0l0 0c-8.668579 0 -15.695854 -7.0272827 -15.695854 -15.695862z" fill-rule="evenodd"/><path stroke="#595959" stroke-width="1.0" stroke-linejoin="round" stroke-linecap="butt" d="m106.784775 335.42026l0 0c0 -8.668579 7.027275 -15.695862 15.695854 -15.695862l93.14373 0c4.162796 0 8.155106 1.6536865 11.098648 4.597229c2.9435425 2.9435425 4.5971985 6.935852 4.5971985 11.098633l0 62.781525c0 8.668579 -7.0272675 15.695862 -15.695847 15.695862l-93.14373 0l0 0c-8.668579 0 -15.695854 -7.0272827 -15.695854 -15.695862z" fill-rule="evenodd"/><path fill="#eeeeee" d="m525.7349 362.58038l0 0c0 -8.807739 7.1400757 -15.947815 15.947815 -15.947815l92.63977 0c4.2296143 0 8.286011 1.6802063 11.276794 4.67099c2.9908447 2.9908142 4.6710205 7.0472107 4.6710205 11.276825l0 63.7894c0 8.807739 -7.1400757 15.947815 -15.947815 15.947815l-92.63977 0l0 0c-8.807739 0 -15.947815 -7.1400757 -15.947815 -15.947815z" fill-rule="evenodd"/><path stroke="#595959" stroke-width="1.0" stroke-linejoin="round" stroke-linecap="butt" d="m525.7349 362.58038l0 0c0 -8.807739 7.1400757 -15.947815 15.947815 -15.947815l92.63977 0c4.2296143 0 8.286011 1.6802063 11.276794 4.67099c2.9908447 2.9908142 4.6710205 7.0472107 4.6710205 11.276825l0 63.7894c0 8.807739 -7.1400757 15.947815 -15.947815 15.947815l-92.63977 0l0 0c-8.807739 0 -15.947815 -7.1400757 -15.947815 -15.947815z" fill-rule="evenodd"/><path fill="#eeeeee" d="m316.25986 363.43076l0 0c0 -8.807739 7.1400757 -15.947815 15.947815 -15.947815l92.63977 0c4.229645 0 8.286011 1.6802063 11.276825 4.6710205c2.9907837 2.9907837 4.6710205 7.04718 4.6710205 11.276794l0 63.7894c0 8.807739 -7.140106 15.947815 -15.947845 15.947815l-92.63977 0l0 0c-8.807739 0 -15.947815 -7.1400757 -15.947815 -15.947815z" fill-rule="evenodd"/><path stroke="#595959" stroke-width="1.0" stroke-linejoin="round" stroke-linecap="butt" d="m316.25986 363.43076l0 0c0 -8.807739 7.1400757 -15.947815 15.947815 -15.947815l92.63977 0c4.229645 0 8.286011 1.6802063 11.276825 4.6710205c2.9907837 2.9907837 4.6710205 7.04718 4.6710205 11.276794l0 63.7894c0 8.807739 -7.140106 15.947815 -15.947845 15.947815l-92.63977 0l0 0c-8.807739 0 -15.947815 -7.1400757 -15.947815 -15.947815z" fill-rule="evenodd"/><path fill="#666666" d="m61.569553 139.85301l187.62206 0l0 42.267715l-187.62206 0z" fill-rule="evenodd"/><path fill="#ffffff" d="m98.23441 169.62688l-1.796875 0q-0.3125 0 -0.515625 -0.15625q-0.1875 -0.15625 -0.28125 -0.390625l-1.609375 -4.15625l-7.71875 0l-1.59375 4.15625q-0.09375 0.203125 -0.296875 0.375q-0.203125 0.171875 -0.5 0.171875l-1.796875 0l6.875 -17.203125l2.359375 0l6.875 17.203125zm-11.265625 -6.390625l6.421875 0l-2.703125 -6.984375q-0.265625 -0.65625 -0.515625 -1.625q-0.125 0.484375 -0.265625 0.90625q-0.125 0.40625 -0.234375 0.71875l-2.703125 6.984375zm13.101364 6.390625l0 -12.15625l1.28125 0q0.453125 0 0.5625 0.4375l0.171875 1.328125q0.796875 -0.875 1.765625 -1.40625q0.984375 -0.546875 2.265625 -0.546875q1.0 0 1.75 0.328125q0.765625 0.328125 1.28125 0.9375q0.515625 0.609375 0.78125 1.46875q0.265625 0.84375 0.265625 1.875l0 7.734375l-2.140625 0l0 -7.734375q0 -1.390625 -0.640625 -2.140625q-0.625 -0.765625 -1.921875 -0.765625q-0.9375 0 -1.765625 0.453125q-0.828125 0.453125 -1.515625 1.234375l0 8.953125l-2.140625 0zm22.2816 0l-0.953125 0q-0.3125 0 -0.515625 -0.09375q-0.1875 -0.09375 -0.25 -0.40625l-0.234375 -1.125q-0.484375 0.421875 -0.9375 0.765625q-0.453125 0.34375 -0.953125 0.578125q-0.5 0.234375 -1.078125 0.34375q-0.5625 0.125 -1.265625 0.125q-0.703125 0 -1.328125 -0.1875q-0.609375 -0.203125 -1.078125 -0.59375q-0.453125 -0.40625 -0.71875 -1.0q-0.265625 -0.609375 -0.265625 -1.4375q0 -0.71875 0.390625 -1.390625q0.390625 -0.671875 1.265625 -1.1875q0.890625 -0.515625 2.3125 -0.84375q1.4375 -0.328125 3.5 -0.375l0 -0.953125q0 -1.40625 -0.609375 -2.125q-0.59375 -0.734375 -1.78125 -0.734375q-0.78125 0 -1.328125 0.203125q-0.53125 0.1875 -0.921875 0.4375q-0.390625 0.25 -0.671875 0.453125q-0.28125 0.1875 -0.546875 0.1875q-0.21875 0 -0.390625 -0.109375q-0.15625 -0.125 -0.25 -0.28125l-0.390625 -0.6875q1.015625 -0.96875 2.171875 -1.453125q1.171875 -0.484375 2.578125 -0.484375q1.03125 0 1.8125 0.34375q0.796875 0.328125 1.328125 0.9375q0.546875 0.59375 0.828125 1.453125q0.28125 0.84375 0.28125 1.859375l0 7.78125zm-5.546875 -1.3125q0.5625 0 1.03125 -0.109375q0.46875 -0.109375 0.875 -0.3125q0.421875 -0.21875 0.796875 -0.515625q0.375 -0.3125 0.734375 -0.6875l0 -2.53125q-1.46875 0.046875 -2.5 0.234375q-1.03125 0.1875 -1.6875 0.484375q-0.640625 0.296875 -0.9375 0.703125q-0.296875 0.40625 -0.296875 0.921875q0 0.46875 0.15625 0.828125q0.15625 0.34375 0.421875 0.5625q0.265625 0.21875 0.625 0.328125q0.359375 0.09375 0.78125 0.09375zm11.152466 -16.359375l0 17.671875l-2.140625 0l0 -17.671875l2.140625 0zm7.3315353 21.265625q-0.109375 0.234375 -0.265625 0.375q-0.15625 0.140625 -0.5 0.140625l-1.578125 0l2.21875 -4.8125l-5.015625 -11.453125l1.84375 0q0.28125 0 0.4375 0.140625q0.15625 0.140625 0.21875 0.296875l3.25 7.65625q0.109375 0.265625 0.1875 0.53125q0.078125 0.265625 0.140625 0.546875q0.09375 -0.28125 0.171875 -0.546875q0.078125 -0.265625 0.1875 -0.53125l3.15625 -7.65625q0.078125 -0.1875 0.25 -0.3125q0.171875 -0.125 0.375 -0.125l1.703125 0l-6.78125 15.75zm15.694336 -13.75q-0.15625 0.265625 -0.453125 0.265625q-0.171875 0 -0.40625 -0.125q-0.234375 -0.140625 -0.5625 -0.296875q-0.328125 -0.15625 -0.78125 -0.296875q-0.453125 -0.140625 -1.078125 -0.140625q-0.546875 0 -0.984375 0.140625q-0.421875 0.140625 -0.734375 0.375q-0.296875 0.234375 -0.46875 0.5625q-0.15625 0.3125 -0.15625 0.6875q0 0.46875 0.265625 0.78125q0.28125 0.3125 0.71875 0.546875q0.453125 0.21875 1.015625 0.390625q0.5625 0.171875 1.15625 0.375q0.59375 0.1875 1.15625 0.4375q0.5625 0.234375 1.0 0.59375q0.453125 0.359375 0.71875 0.890625q0.265625 0.515625 0.265625 1.25q0 0.84375 -0.296875 1.5625q-0.296875 0.703125 -0.890625 1.234375q-0.578125 0.515625 -1.4375 0.8125q-0.84375 0.296875 -1.96875 0.296875q-1.265625 0 -2.296875 -0.40625q-1.03125 -0.421875 -1.75 -1.0625l0.5 -0.8125q0.09375 -0.15625 0.21875 -0.234375q0.140625 -0.09375 0.359375 -0.09375q0.21875 0 0.453125 0.171875q0.234375 0.15625 0.578125 0.359375q0.34375 0.203125 0.828125 0.375q0.484375 0.171875 1.21875 0.171875q0.625 0 1.09375 -0.15625q0.46875 -0.171875 0.78125 -0.4375q0.3125 -0.28125 0.453125 -0.640625q0.15625 -0.359375 0.15625 -0.765625q0 -0.515625 -0.265625 -0.84375q-0.265625 -0.328125 -0.71875 -0.5625q-0.4375 -0.234375 -1.015625 -0.40625q-0.5625 -0.171875 -1.15625 -0.359375q-0.59375 -0.203125 -1.171875 -0.4375q-0.5625 -0.25 -1.015625 -0.625q-0.4375 -0.375 -0.71875 -0.921875q-0.265625 -0.546875 -0.265625 -1.3125q0 -0.703125 0.28125 -1.34375q0.296875 -0.640625 0.84375 -1.125q0.5625 -0.484375 1.359375 -0.765625q0.8125 -0.296875 1.84375 -0.296875q1.203125 0 2.15625 0.375q0.953125 0.375 1.640625 1.03125l-0.46875 0.78125zm5.8223267 -2.0l0 12.15625l-2.140625 0l0 -12.15625l2.140625 0zm0.484375 -3.8125q0 0.3125 -0.125 0.578125q-0.125 0.265625 -0.34375 0.484375q-0.203125 0.203125 -0.484375 0.328125q-0.265625 0.125 -0.578125 0.125q-0.3125 0 -0.59375 -0.125q-0.265625 -0.125 -0.484375 -0.328125q-0.203125 -0.21875 -0.328125 -0.484375q-0.109375 -0.265625 -0.109375 -0.578125q0 -0.3125 0.109375 -0.59375q0.125 -0.28125 0.328125 -0.484375q0.21875 -0.21875 0.484375 -0.34375q0.28125 -0.125 0.59375 -0.125q0.3125 0 0.578125 0.125q0.28125 0.125 0.484375 0.34375q0.21875 0.203125 0.34375 0.484375q0.125 0.28125 0.125 0.59375zm10.253418 5.8125q-0.15625 0.265625 -0.453125 0.265625q-0.171875 0 -0.40625 -0.125q-0.234375 -0.140625 -0.5625 -0.296875q-0.328125 -0.15625 -0.78125 -0.296875q-0.453125 -0.140625 -1.078125 -0.140625q-0.546875 0 -0.984375 0.140625q-0.421875 0.140625 -0.734375 0.375q-0.296875 0.234375 -0.46875 0.5625q-0.15625 0.3125 -0.15625 0.6875q0 0.46875 0.265625 0.78125q0.28125 0.3125 0.71875 0.546875q0.453125 0.21875 1.015625 0.390625q0.5625 0.171875 1.15625 0.375q0.59375 0.1875 1.15625 0.4375q0.5625 0.234375 1.0 0.59375q0.453125 0.359375 0.71875 0.890625q0.265625 0.515625 0.265625 1.25q0 0.84375 -0.296875 1.5625q-0.296875 0.703125 -0.890625 1.234375q-0.578125 0.515625 -1.4375 0.8125q-0.84375 0.296875 -1.96875 0.296875q-1.265625 0 -2.296875 -0.40625q-1.03125 -0.421875 -1.75 -1.0625l0.5 -0.8125q0.09375 -0.15625 0.21875 -0.234375q0.140625 -0.09375 0.359375 -0.09375q0.21875 0 0.453125 0.171875q0.234375 0.15625 0.578125 0.359375q0.34375 0.203125 0.828125 0.375q0.484375 0.171875 1.21875 0.171875q0.625 0 1.09375 -0.15625q0.46875 -0.171875 0.78125 -0.4375q0.3125 -0.28125 0.453125 -0.640625q0.15625 -0.359375 0.15625 -0.765625q0 -0.515625 -0.265625 -0.84375q-0.265625 -0.328125 -0.71875 -0.5625q-0.4375 -0.234375 -1.015625 -0.40625q-0.5625 -0.171875 -1.15625 -0.359375q-0.59375 -0.203125 -1.171875 -0.4375q-0.5625 -0.25 -1.015625 -0.625q-0.4375 -0.375 -0.71875 -0.921875q-0.265625 -0.546875 -0.265625 -1.3125q0 -0.703125 0.28125 -1.34375q0.296875 -0.640625 0.84375 -1.125q0.5625 -0.484375 1.359375 -0.765625q0.8125 -0.296875 1.84375 -0.296875q1.203125 0 2.15625 0.375q0.953125 0.375 1.640625 1.03125l-0.46875 0.78125zm20.126236 -7.046875l0 1.96875l-5.546875 0l0 15.234375l-2.328125 0l0 -15.234375l-5.578125 0l0 -1.96875l13.453125 0zm4.515091 4.859375q1.328125 0 2.40625 0.453125q1.078125 0.4375 1.828125 1.25q0.75 0.8125 1.140625 1.96875q0.40625 1.15625 0.40625 2.59375q0 1.4375 -0.40625 2.59375q-0.390625 1.140625 -1.140625 1.96875q-0.75 0.8125 -1.828125 1.25q-1.078125 0.4375 -2.40625 0.4375q-1.328125 0 -2.40625 -0.4375q-1.078125 -0.4375 -1.828125 -1.25q-0.75 -0.828125 -1.171875 -1.96875q-0.40625 -1.15625 -0.40625 -2.59375q0 -1.4375 0.40625 -2.59375q0.421875 -1.15625 1.171875 -1.96875q0.75 -0.8125 1.828125 -1.25q1.078125 -0.453125 2.40625 -0.453125zm0 10.84375q1.796875 0 2.6875 -1.203125q0.890625 -1.203125 0.890625 -3.375q0 -2.171875 -0.890625 -3.375q-0.890625 -1.21875 -2.6875 -1.21875q-0.90625 0 -1.578125 0.3125q-0.671875 0.3125 -1.125 0.90625q-0.453125 0.578125 -0.671875 1.4375q-0.21875 0.859375 -0.21875 1.9375q0 1.09375 0.21875 1.953125q0.21875 0.84375 0.671875 1.421875q0.453125 0.578125 1.125 0.890625q0.671875 0.3125 1.578125 0.3125zm13.344101 -10.84375q1.328125 0 2.40625 0.453125q1.078125 0.4375 1.828125 1.25q0.75 0.8125 1.140625 1.96875q0.40625 1.15625 0.40625 2.59375q0 1.4375 -0.40625 2.59375q-0.390625 1.140625 -1.140625 1.96875q-0.75 0.8125 -1.828125 1.25q-1.078125 0.4375 -2.40625 0.4375q-1.328125 0 -2.40625 -0.4375q-1.078125 -0.4375 -1.828125 -1.25q-0.75 -0.828125 -1.171875 -1.96875q-0.40625 -1.15625 -0.40625 -2.59375q0 -1.4375 0.40625 -2.59375q0.421875 -1.15625 1.171875 -1.96875q0.75 -0.8125 1.828125 -1.25q1.078125 -0.453125 2.40625 -0.453125zm0 10.84375q1.796875 0 2.6875 -1.203125q0.890625 -1.203125 0.890625 -3.375q0 -2.171875 -0.890625 -3.375q-0.890625 -1.21875 -2.6875 -1.21875q-0.90625 0 -1.578125 0.3125q-0.671875 0.3125 -1.125 0.90625q-0.453125 0.578125 -0.671875 1.4375q-0.21875 0.859375 -0.21875 1.9375q0 1.09375 0.21875 1.953125q0.21875 0.84375 0.671875 1.421875q0.453125 0.578125 1.125 0.890625q0.671875 0.3125 1.578125 0.3125zm10.797226 -16.171875l0 17.671875l-2.140625 0l0 -17.671875l2.140625 0zm10.737793 7.515625q-0.15625 0.265625 -0.453125 0.265625q-0.171875 0 -0.40625 -0.125q-0.234375 -0.140625 -0.5625 -0.296875q-0.328125 -0.15625 -0.78125 -0.296875q-0.453125 -0.140625 -1.078125 -0.140625q-0.546875 0 -0.984375 0.140625q-0.421875 0.140625 -0.734375 0.375q-0.296875 0.234375 -0.46875 0.5625q-0.15625 0.3125 -0.15625 0.6875q0 0.46875 0.265625 0.78125q0.28125 0.3125 0.71875 0.546875q0.453125 0.21875 1.015625 0.390625q0.5625 0.171875 1.15625 0.375q0.59375 0.1875 1.15625 0.4375q0.5625 0.234375 1.0 0.59375q0.453125 0.359375 0.71875 0.890625q0.265625 0.515625 0.265625 1.25q0 0.84375 -0.296875 1.5625q-0.296875 0.703125 -0.890625 1.234375q-0.578125 0.515625 -1.4375 0.8125q-0.84375 0.296875 -1.96875 0.296875q-1.265625 0 -2.296875 -0.40625q-1.03125 -0.421875 -1.75 -1.0625l0.5 -0.8125q0.09375 -0.15625 0.21875 -0.234375q0.140625 -0.09375 0.359375 -0.09375q0.21875 0 0.453125 0.171875q0.234375 0.15625 0.578125 0.359375q0.34375 0.203125 0.828125 0.375q0.484375 0.171875 1.21875 0.171875q0.625 0 1.09375 -0.15625q0.46875 -0.171875 0.78125 -0.4375q0.3125 -0.28125 0.453125 -0.640625q0.15625 -0.359375 0.15625 -0.765625q0 -0.515625 -0.265625 -0.84375q-0.265625 -0.328125 -0.71875 -0.5625q-0.4375 -0.234375 -1.015625 -0.40625q-0.5625 -0.171875 -1.15625 -0.359375q-0.59375 -0.203125 -1.171875 -0.4375q-0.5625 -0.25 -1.015625 -0.625q-0.4375 -0.375 -0.71875 -0.921875q-0.265625 -0.546875 -0.265625 -1.3125q0 -0.703125 0.28125 -1.34375q0.296875 -0.640625 0.84375 -1.125q0.5625 -0.484375 1.359375 -0.765625q0.8125 -0.296875 1.84375 -0.296875q1.203125 0 2.15625 0.375q0.953125 0.375 1.640625 1.03125l-0.46875 0.78125z" fill-rule="nonzero"/><path fill="#666666" d="m279.6833 96.832016l187.62204 0l0 42.267715l-187.62204 0z" fill-rule="evenodd"/><path fill="#ffffff" d="m326.6765 112.09025q-0.109375 0.1875 -0.234375 0.28125q-0.109375 0.09375 -0.296875 0.09375q-0.203125 0 -0.484375 -0.203125q-0.265625 -0.21875 -0.6875 -0.453125q-0.40625 -0.25 -0.984375 -0.453125q-0.578125 -0.203125 -1.40625 -0.203125q-0.78125 0 -1.390625 0.21875q-0.59375 0.203125 -1.0 0.5625q-0.390625 0.359375 -0.609375 0.84375q-0.203125 0.484375 -0.203125 1.046875q0 0.71875 0.359375 1.203125q0.359375 0.46875 0.9375 0.8125q0.578125 0.328125 1.3125 0.578125q0.75 0.234375 1.515625 0.5q0.78125 0.265625 1.515625 0.59375q0.734375 0.328125 1.3125 0.84375q0.59375 0.5 0.9375 1.234375q0.359375 0.734375 0.359375 1.796875q0 1.125 -0.390625 2.125q-0.375 0.984375 -1.125 1.71875q-0.734375 0.734375 -1.8125 1.15625q-1.0625 0.40625 -2.4375 0.40625q-1.65625 0 -3.03125 -0.59375q-1.375 -0.609375 -2.34375 -1.640625l0.671875 -1.109375q0.09375 -0.125 0.21875 -0.21875q0.140625 -0.09375 0.3125 -0.09375q0.25 0 0.578125 0.28125q0.328125 0.265625 0.8125 0.59375q0.484375 0.3125 1.171875 0.59375q0.6875 0.265625 1.6875 0.265625q0.828125 0 1.46875 -0.234375q0.65625 -0.234375 1.109375 -0.640625q0.453125 -0.421875 0.6875 -0.984375q0.234375 -0.578125 0.234375 -1.296875q0 -0.765625 -0.359375 -1.265625q-0.34375 -0.5 -0.921875 -0.828125q-0.578125 -0.34375 -1.3125 -0.578125q-0.734375 -0.234375 -1.515625 -0.484375q-0.765625 -0.25 -1.515625 -0.5625q-0.734375 -0.328125 -1.3125 -0.84375q-0.578125 -0.515625 -0.9375 -1.28125q-0.34375 -0.78125 -0.34375 -1.921875q0 -0.921875 0.34375 -1.765625q0.359375 -0.859375 1.03125 -1.515625q0.671875 -0.65625 1.65625 -1.046875q1.0 -0.40625 2.28125 -0.40625q1.453125 0 2.640625 0.46875q1.1875 0.453125 2.0625 1.3125l-0.5625 1.09375zm11.876343 4.515625q-0.09375 0.140625 -0.203125 0.21875q-0.09375 0.0625 -0.265625 0.0625q-0.1875 0 -0.40625 -0.140625q-0.203125 -0.15625 -0.53125 -0.328125q-0.3125 -0.1875 -0.78125 -0.34375q-0.453125 -0.15625 -1.125 -0.15625q-0.890625 0 -1.578125 0.328125q-0.6875 0.3125 -1.15625 0.921875q-0.453125 0.59375 -0.6875 1.453125q-0.234375 0.84375 -0.234375 1.90625q0 1.09375 0.25 1.953125q0.265625 0.859375 0.71875 1.453125q0.453125 0.578125 1.109375 0.890625q0.65625 0.296875 1.46875 0.296875q0.78125 0 1.28125 -0.1875q0.5 -0.1875 0.828125 -0.40625q0.34375 -0.234375 0.5625 -0.421875q0.21875 -0.1875 0.4375 -0.1875q0.28125 0 0.40625 0.203125l0.59375 0.78125q-0.78125 0.96875 -1.96875 1.421875q-1.1875 0.453125 -2.515625 0.453125q-1.140625 0 -2.125 -0.421875q-0.96875 -0.421875 -1.6875 -1.21875q-0.71875 -0.796875 -1.140625 -1.953125q-0.40625 -1.171875 -0.40625 -2.65625q0 -1.359375 0.375 -2.515625q0.375 -1.15625 1.09375 -1.984375q0.734375 -0.828125 1.796875 -1.296875q1.078125 -0.46875 2.453125 -0.46875q1.28125 0 2.265625 0.421875q0.984375 0.40625 1.734375 1.15625l-0.5625 0.765625zm2.9111938 10.0l0 -17.671875l2.140625 0l0 7.140625q0.78125 -0.828125 1.71875 -1.3125q0.953125 -0.5 2.1875 -0.5q1.0 0 1.75 0.328125q0.765625 0.328125 1.28125 0.9375q0.515625 0.609375 0.78125 1.46875q0.265625 0.84375 0.265625 1.875l0 7.734375l-2.140625 0l0 -7.734375q0 -1.390625 -0.640625 -2.140625q-0.625 -0.765625 -1.921875 -0.765625q-0.9375 0 -1.765625 0.453125q-0.828125 0.453125 -1.515625 1.234375l0 8.953125l-2.140625 0zm18.156616 -12.34375q1.09375 0 2.015625 0.375q0.921875 0.359375 1.59375 1.046875q0.671875 0.6875 1.046875 1.703125q0.390625 1.015625 0.390625 2.3125q0 0.5 -0.109375 0.671875q-0.109375 0.15625 -0.40625 0.15625l-8.09375 0q0.03125 1.15625 0.3125 2.015625q0.28125 0.84375 0.78125 1.421875q0.515625 0.5625 1.203125 0.84375q0.703125 0.28125 1.5625 0.28125q0.8125 0 1.390625 -0.1875q0.578125 -0.1875 1.0 -0.390625q0.421875 -0.21875 0.703125 -0.40625q0.28125 -0.1875 0.484375 -0.1875q0.265625 0 0.40625 0.203125l0.609375 0.78125q-0.40625 0.484375 -0.953125 0.84375q-0.546875 0.34375 -1.1875 0.578125q-0.625 0.21875 -1.296875 0.328125q-0.671875 0.125 -1.328125 0.125q-1.265625 0 -2.328125 -0.421875q-1.0625 -0.4375 -1.84375 -1.25q-0.765625 -0.828125 -1.203125 -2.03125q-0.421875 -1.21875 -0.421875 -2.796875q0 -1.265625 0.390625 -2.359375q0.390625 -1.109375 1.109375 -1.921875q0.734375 -0.8125 1.796875 -1.265625q1.0625 -0.46875 2.375 -0.46875zm0.046875 1.5625q-1.546875 0 -2.4375 0.90625q-0.890625 0.890625 -1.09375 2.46875l6.609375 0q0 -0.734375 -0.203125 -1.359375q-0.203125 -0.625 -0.609375 -1.0625q-0.390625 -0.453125 -0.96875 -0.703125q-0.5625 -0.25 -1.296875 -0.25zm16.279205 10.78125q-0.453125 0 -0.578125 -0.4375l-0.1875 -1.484375q-0.78125 0.953125 -1.796875 1.53125q-1.0 0.5625 -2.296875 0.5625q-1.03125 0 -1.890625 -0.40625q-0.84375 -0.40625 -1.453125 -1.1875q-0.59375 -0.78125 -0.921875 -1.9375q-0.328125 -1.171875 -0.328125 -2.671875q0 -1.34375 0.359375 -2.5q0.359375 -1.171875 1.03125 -2.015625q0.6875 -0.859375 1.65625 -1.34375q0.984375 -0.484375 2.21875 -0.484375q1.109375 0 1.890625 0.390625q0.796875 0.375 1.421875 1.046875l0 -6.734375l2.140625 0l0 17.671875l-1.265625 0zm-4.140625 -1.5625q1.046875 0 1.828125 -0.46875q0.78125 -0.484375 1.4375 -1.359375l0 -5.890625q-0.578125 -0.78125 -1.28125 -1.09375q-0.703125 -0.328125 -1.5625 -0.328125q-1.703125 0 -2.609375 1.21875q-0.90625 1.203125 -0.90625 3.453125q0 1.1875 0.203125 2.03125q0.203125 0.84375 0.59375 1.390625q0.390625 0.546875 0.96875 0.796875q0.578125 0.25 1.328125 0.25zm10.837982 -10.59375l0 7.75q0 1.375 0.640625 2.140625q0.640625 0.75 1.921875 0.75q0.9375 0 1.765625 -0.4375q0.828125 -0.453125 1.515625 -1.234375l0 -8.96875l2.140625 0l0 12.15625l-1.265625 0q-0.453125 0 -0.578125 -0.4375l-0.171875 -1.3125q-0.796875 0.875 -1.78125 1.40625q-0.984375 0.53125 -2.25 0.53125q-1.0 0 -1.765625 -0.328125q-0.75 -0.328125 -1.265625 -0.921875q-0.515625 -0.609375 -0.78125 -1.453125q-0.25 -0.859375 -0.25 -1.890625l0 -7.75l2.125 0zm13.875336 -5.515625l0 17.671875l-2.140625 0l0 -17.671875l2.140625 0zm8.581543 5.328125q1.09375 0 2.015625 0.375q0.921875 0.359375 1.59375 1.046875q0.671875 0.6875 1.046875 1.703125q0.390625 1.015625 0.390625 2.3125q0 0.5 -0.109375 0.671875q-0.109375 0.15625 -0.40625 0.15625l-8.09375 0q0.03125 1.15625 0.3125 2.015625q0.28125 0.84375 0.78125 1.421875q0.515625 0.5625 1.203125 0.84375q0.703125 0.28125 1.5625 0.28125q0.8125 0 1.390625 -0.1875q0.578125 -0.1875 1.0 -0.390625q0.421875 -0.21875 0.703125 -0.40625q0.28125 -0.1875 0.484375 -0.1875q0.265625 0 0.40625 0.203125l0.609375 0.78125q-0.40625 0.484375 -0.953125 0.84375q-0.546875 0.34375 -1.1875 0.578125q-0.625 0.21875 -1.296875 0.328125q-0.671875 0.125 -1.328125 0.125q-1.265625 0 -2.328125 -0.421875q-1.0625 -0.4375 -1.84375 -1.25q-0.765625 -0.828125 -1.203125 -2.03125q-0.421875 -1.21875 -0.421875 -2.796875q0 -1.265625 0.390625 -2.359375q0.390625 -1.109375 1.109375 -1.921875q0.734375 -0.8125 1.796875 -1.265625q1.0625 -0.46875 2.375 -0.46875zm0.046875 1.5625q-1.546875 0 -2.4375 0.90625q-0.890625 0.890625 -1.09375 2.46875l6.609375 0q0 -0.734375 -0.203125 -1.359375q-0.203125 -0.625 -0.609375 -1.0625q-0.390625 -0.453125 -0.96875 -0.703125q-0.5625 -0.25 -1.296875 -0.25zm7.716736 10.78125l0 -12.15625l1.21875 0q0.359375 0 0.484375 0.140625q0.140625 0.125 0.1875 0.453125l0.140625 1.890625q0.625 -1.265625 1.53125 -1.984375q0.921875 -0.71875 2.15625 -0.71875q0.515625 0 0.921875 0.125q0.40625 0.109375 0.75 0.3125l-0.265625 1.59375q-0.09375 0.296875 -0.375 0.296875q-0.171875 0 -0.53125 -0.109375q-0.34375 -0.109375 -0.953125 -0.109375q-1.125 0 -1.875 0.65625q-0.75 0.640625 -1.25 1.875l0 7.734375l-2.140625 0zm16.640808 -10.15625q-0.15625 0.265625 -0.453125 0.265625q-0.171875 0 -0.40625 -0.125q-0.234375 -0.140625 -0.5625 -0.296875q-0.328125 -0.15625 -0.78125 -0.296875q-0.453125 -0.140625 -1.078125 -0.140625q-0.546875 0 -0.984375 0.140625q-0.421875 0.140625 -0.734375 0.375q-0.296875 0.234375 -0.46875 0.5625q-0.15625 0.3125 -0.15625 0.6875q0 0.46875 0.265625 0.78125q0.28125 0.3125 0.71875 0.546875q0.453125 0.21875 1.015625 0.390625q0.5625 0.171875 1.15625 0.375q0.59375 0.1875 1.15625 0.4375q0.5625 0.234375 1.0 0.59375q0.453125 0.359375 0.71875 0.890625q0.265625 0.515625 0.265625 1.25q0 0.84375 -0.296875 1.5625q-0.296875 0.703125 -0.890625 1.234375q-0.578125 0.515625 -1.4375 0.8125q-0.84375 0.296875 -1.96875 0.296875q-1.265625 0 -2.296875 -0.40625q-1.03125 -0.421875 -1.75 -1.0625l0.5 -0.8125q0.09375 -0.15625 0.21875 -0.234375q0.140625 -0.09375 0.359375 -0.09375q0.21875 0 0.453125 0.171875q0.234375 0.15625 0.578125 0.359375q0.34375 0.203125 0.828125 0.375q0.484375 0.171875 1.21875 0.171875q0.625 0 1.09375 -0.15625q0.46875 -0.171875 0.78125 -0.4375q0.3125 -0.28125 0.453125 -0.640625q0.15625 -0.359375 0.15625 -0.765625q0 -0.515625 -0.265625 -0.84375q-0.265625 -0.328125 -0.71875 -0.5625q-0.4375 -0.234375 -1.015625 -0.40625q-0.5625 -0.171875 -1.15625 -0.359375q-0.59375 -0.203125 -1.171875 -0.4375q-0.5625 -0.25 -1.015625 -0.625q-0.4375 -0.375 -0.71875 -0.921875q-0.265625 -0.546875 -0.265625 -1.3125q0 -0.703125 0.28125 -1.34375q0.296875 -0.640625 0.84375 -1.125q0.5625 -0.484375 1.359375 -0.765625q0.8125 -0.296875 1.84375 -0.296875q1.203125 0 2.15625 0.375q0.953125 0.375 1.640625 1.03125l-0.46875 0.78125z" fill-rule="nonzero"/><path fill="#666666" d="m497.79703 96.832016l191.74802 0l0 42.267715l-191.74802 0z" fill-rule="evenodd"/><path fill="#ffffff" d="m528.2144 109.40275l1.921875 0q0.3125 0 0.515625 0.15625q0.203125 0.15625 0.28125 0.40625l3.546875 11.953125q0.109375 0.3125 0.1875 0.6875q0.078125 0.375 0.140625 0.78125q0.09375 -0.40625 0.171875 -0.78125q0.078125 -0.375 0.1875 -0.6875l4.046875 -11.953125q0.078125 -0.203125 0.28125 -0.375q0.21875 -0.1875 0.515625 -0.1875l0.671875 0q0.3125 0 0.5 0.15625q0.203125 0.15625 0.28125 0.40625l4.03125 11.953125q0.21875 0.625 0.375 1.421875q0.078125 -0.390625 0.140625 -0.75q0.0625 -0.359375 0.15625 -0.671875l3.5625 -11.953125q0.0625 -0.21875 0.265625 -0.390625q0.21875 -0.171875 0.515625 -0.171875l1.8125 0l-5.375 17.203125l-2.078125 0l-4.359375 -13.109375q-0.125 -0.375 -0.234375 -0.875q-0.0625 0.25 -0.125 0.46875q-0.046875 0.21875 -0.109375 0.40625l-4.375 13.109375l-2.09375 0l-5.359375 -17.203125zm33.915833 17.203125l-0.953125 0q-0.3125 0 -0.515625 -0.09375q-0.1875 -0.09375 -0.25 -0.40625l-0.234375 -1.125q-0.484375 0.421875 -0.9375 0.765625q-0.453125 0.34375 -0.953125 0.578125q-0.5 0.234375 -1.078125 0.34375q-0.5625 0.125 -1.265625 0.125q-0.703125 0 -1.328125 -0.1875q-0.609375 -0.203125 -1.078125 -0.59375q-0.453125 -0.40625 -0.71875 -1.0q-0.265625 -0.609375 -0.265625 -1.4375q0 -0.71875 0.390625 -1.390625q0.390625 -0.671875 1.265625 -1.1875q0.890625 -0.515625 2.3125 -0.84375q1.4375 -0.328125 3.5 -0.375l0 -0.953125q0 -1.40625 -0.609375 -2.125q-0.59375 -0.734375 -1.78125 -0.734375q-0.78125 0 -1.328125 0.203125q-0.53125 0.1875 -0.921875 0.4375q-0.390625 0.25 -0.671875 0.453125q-0.28125 0.1875 -0.546875 0.1875q-0.21875 0 -0.390625 -0.109375q-0.15625 -0.125 -0.25 -0.28125l-0.390625 -0.6875q1.015625 -0.96875 2.171875 -1.453125q1.171875 -0.484375 2.578125 -0.484375q1.03125 0 1.8125 0.34375q0.796875 0.328125 1.328125 0.9375q0.546875 0.59375 0.828125 1.453125q0.28125 0.84375 0.28125 1.859375l0 7.78125zm-5.546875 -1.3125q0.5625 0 1.03125 -0.109375q0.46875 -0.109375 0.875 -0.3125q0.421875 -0.21875 0.796875 -0.515625q0.375 -0.3125 0.734375 -0.6875l0 -2.53125q-1.46875 0.046875 -2.5 0.234375q-1.03125 0.1875 -1.6875 0.484375q-0.640625 0.296875 -0.9375 0.703125q-0.296875 0.40625 -0.296875 0.921875q0 0.46875 0.15625 0.828125q0.15625 0.34375 0.421875 0.5625q0.265625 0.21875 0.625 0.328125q0.359375 0.09375 0.78125 0.09375zm8.777466 1.3125l0 -12.15625l1.21875 0q0.359375 0 0.484375 0.140625q0.140625 0.125 0.1875 0.453125l0.140625 1.890625q0.625 -1.265625 1.53125 -1.984375q0.921875 -0.71875 2.15625 -0.71875q0.515625 0 0.921875 0.125q0.40625 0.109375 0.75 0.3125l-0.265625 1.59375q-0.09375 0.296875 -0.375 0.296875q-0.171875 0 -0.53125 -0.109375q-0.34375 -0.109375 -0.953125 -0.109375q-1.125 0 -1.875 0.65625q-0.75 0.640625 -1.25 1.875l0 7.734375l-2.140625 0zm14.484558 -12.34375q1.09375 0 2.015625 0.375q0.921875 0.359375 1.59375 1.046875q0.671875 0.6875 1.046875 1.703125q0.390625 1.015625 0.390625 2.3125q0 0.5 -0.109375 0.671875q-0.109375 0.15625 -0.40625 0.15625l-8.09375 0q0.03125 1.15625 0.3125 2.015625q0.28125 0.84375 0.78125 1.421875q0.515625 0.5625 1.203125 0.84375q0.703125 0.28125 1.5625 0.28125q0.8125 0 1.390625 -0.1875q0.578125 -0.1875 1.0 -0.390625q0.421875 -0.21875 0.703125 -0.40625q0.28125 -0.1875 0.484375 -0.1875q0.265625 0 0.40625 0.203125l0.609375 0.78125q-0.40625 0.484375 -0.953125 0.84375q-0.546875 0.34375 -1.1875 0.578125q-0.625 0.21875 -1.296875 0.328125q-0.671875 0.125 -1.328125 0.125q-1.265625 0 -2.328125 -0.421875q-1.0625 -0.4375 -1.84375 -1.25q-0.765625 -0.828125 -1.203125 -2.03125q-0.421875 -1.21875 -0.421875 -2.796875q0 -1.265625 0.390625 -2.359375q0.390625 -1.109375 1.109375 -1.921875q0.734375 -0.8125 1.796875 -1.265625q1.0625 -0.46875 2.375 -0.46875zm0.046875 1.5625q-1.546875 0 -2.4375 0.90625q-0.890625 0.890625 -1.09375 2.46875l6.609375 0q0 -0.734375 -0.203125 -1.359375q-0.203125 -0.625 -0.609375 -1.0625q-0.390625 -0.453125 -0.96875 -0.703125q-0.5625 -0.25 -1.296875 -0.25zm7.716736 10.78125l0 -17.671875l2.140625 0l0 7.140625q0.78125 -0.828125 1.71875 -1.3125q0.953125 -0.5 2.1875 -0.5q1.0 0 1.75 0.328125q0.765625 0.328125 1.28125 0.9375q0.515625 0.609375 0.78125 1.46875q0.265625 0.84375 0.265625 1.875l0 7.734375l-2.140625 0l0 -7.734375q0 -1.390625 -0.640625 -2.140625q-0.625 -0.765625 -1.921875 -0.765625q-0.9375 0 -1.765625 0.453125q-0.828125 0.453125 -1.515625 1.234375l0 8.953125l-2.140625 0zm18.26593 -12.34375q1.328125 0 2.40625 0.453125q1.078125 0.4375 1.828125 1.25q0.75 0.8125 1.140625 1.96875q0.40625 1.15625 0.40625 2.59375q0 1.4375 -0.40625 2.59375q-0.390625 1.140625 -1.140625 1.96875q-0.75 0.8125 -1.828125 1.25q-1.078125 0.4375 -2.40625 0.4375q-1.328125 0 -2.40625 -0.4375q-1.078125 -0.4375 -1.828125 -1.25q-0.75 -0.828125 -1.171875 -1.96875q-0.40625 -1.15625 -0.40625 -2.59375q0 -1.4375 0.40625 -2.59375q0.421875 -1.15625 1.171875 -1.96875q0.75 -0.8125 1.828125 -1.25q1.078125 -0.453125 2.40625 -0.453125zm0 10.84375q1.796875 0 2.6875 -1.203125q0.890625 -1.203125 0.890625 -3.375q0 -2.171875 -0.890625 -3.375q-0.890625 -1.21875 -2.6875 -1.21875q-0.90625 0 -1.578125 0.3125q-0.671875 0.3125 -1.125 0.90625q-0.453125 0.578125 -0.671875 1.4375q-0.21875 0.859375 -0.21875 1.9375q0 1.09375 0.21875 1.953125q0.21875 0.84375 0.671875 1.421875q0.453125 0.578125 1.125 0.890625q0.671875 0.3125 1.578125 0.3125zm10.265991 -10.65625l0 7.75q0 1.375 0.640625 2.140625q0.640625 0.75 1.921875 0.75q0.9375 0 1.765625 -0.4375q0.828125 -0.453125 1.515625 -1.234375l0 -8.96875l2.140625 0l0 12.15625l-1.265625 0q-0.453125 0 -0.578125 -0.4375l-0.171875 -1.3125q-0.796875 0.875 -1.78125 1.40625q-0.984375 0.53125 -2.25 0.53125q-1.0 0 -1.765625 -0.328125q-0.75 -0.328125 -1.265625 -0.921875q-0.515625 -0.609375 -0.78125 -1.453125q-0.25 -0.859375 -0.25 -1.890625l0 -7.75l2.125 0zm18.469116 2.0q-0.15625 0.265625 -0.453125 0.265625q-0.171875 0 -0.40625 -0.125q-0.234375 -0.140625 -0.5625 -0.296875q-0.328125 -0.15625 -0.78125 -0.296875q-0.453125 -0.140625 -1.078125 -0.140625q-0.546875 0 -0.984375 0.140625q-0.421875 0.140625 -0.734375 0.375q-0.296875 0.234375 -0.46875 0.5625q-0.15625 0.3125 -0.15625 0.6875q0 0.46875 0.265625 0.78125q0.28125 0.3125 0.71875 0.546875q0.453125 0.21875 1.015625 0.390625q0.5625 0.171875 1.15625 0.375q0.59375 0.1875 1.15625 0.4375q0.5625 0.234375 1.0 0.59375q0.453125 0.359375 0.71875 0.890625q0.265625 0.515625 0.265625 1.25q0 0.84375 -0.296875 1.5625q-0.296875 0.703125 -0.890625 1.234375q-0.578125 0.515625 -1.4375 0.8125q-0.84375 0.296875 -1.96875 0.296875q-1.265625 0 -2.296875 -0.40625q-1.03125 -0.421875 -1.75 -1.0625l0.5 -0.8125q0.09375 -0.15625 0.21875 -0.234375q0.140625 -0.09375 0.359375 -0.09375q0.21875 0 0.453125 0.171875q0.234375 0.15625 0.578125 0.359375q0.34375 0.203125 0.828125 0.375q0.484375 0.171875 1.21875 0.171875q0.625 0 1.09375 -0.15625q0.46875 -0.171875 0.78125 -0.4375q0.3125 -0.28125 0.453125 -0.640625q0.15625 -0.359375 0.15625 -0.765625q0 -0.515625 -0.265625 -0.84375q-0.265625 -0.328125 -0.71875 -0.5625q-0.4375 -0.234375 -1.015625 -0.40625q-0.5625 -0.171875 -1.15625 -0.359375q-0.59375 -0.203125 -1.171875 -0.4375q-0.5625 -0.25 -1.015625 -0.625q-0.4375 -0.375 -0.71875 -0.921875q-0.265625 -0.546875 -0.265625 -1.3125q0 -0.703125 0.28125 -1.34375q0.296875 -0.640625 0.84375 -1.125q0.5625 -0.484375 1.359375 -0.765625q0.8125 -0.296875 1.84375 -0.296875q1.203125 0 2.15625 0.375q0.953125 0.375 1.640625 1.03125l-0.46875 0.78125zm8.259827 -2.1875q1.09375 0 2.015625 0.375q0.921875 0.359375 1.59375 1.046875q0.671875 0.6875 1.046875 1.703125q0.390625 1.015625 0.390625 2.3125q0 0.5 -0.109375 0.671875q-0.109375 0.15625 -0.40625 0.15625l-8.09375 0q0.03125 1.15625 0.3125 2.015625q0.28125 0.84375 0.78125 1.421875q0.515625 0.5625 1.203125 0.84375q0.703125 0.28125 1.5625 0.28125q0.8125 0 1.390625 -0.1875q0.578125 -0.1875 1.0 -0.390625q0.421875 -0.21875 0.703125 -0.40625q0.28125 -0.1875 0.484375 -0.1875q0.265625 0 0.40625 0.203125l0.609375 0.78125q-0.40625 0.484375 -0.953125 0.84375q-0.546875 0.34375 -1.1875 0.578125q-0.625 0.21875 -1.296875 0.328125q-0.671875 0.125 -1.328125 0.125q-1.265625 0 -2.328125 -0.421875q-1.0625 -0.4375 -1.84375 -1.25q-0.765625 -0.828125 -1.203125 -2.03125q-0.421875 -1.21875 -0.421875 -2.796875q0 -1.265625 0.390625 -2.359375q0.390625 -1.109375 1.109375 -1.921875q0.734375 -0.8125 1.796875 -1.265625q1.0625 -0.46875 2.375 -0.46875zm0.046875 1.5625q-1.546875 0 -2.4375 0.90625q-0.890625 0.890625 -1.09375 2.46875l6.609375 0q0 -0.734375 -0.203125 -1.359375q-0.203125 -0.625 -0.609375 -1.0625q-0.390625 -0.453125 -0.96875 -0.703125q-0.5625 -0.25 -1.296875 -0.25zm14.685425 0.625q-0.15625 0.265625 -0.453125 0.265625q-0.171875 0 -0.40625 -0.125q-0.234375 -0.140625 -0.5625 -0.296875q-0.328125 -0.15625 -0.78125 -0.296875q-0.453125 -0.140625 -1.078125 -0.140625q-0.546875 0 -0.984375 0.140625q-0.421875 0.140625 -0.734375 0.375q-0.296875 0.234375 -0.46875 0.5625q-0.15625 0.3125 -0.15625 0.6875q0 0.46875 0.265625 0.78125q0.28125 0.3125 0.71875 0.546875q0.453125 0.21875 1.015625 0.390625q0.5625 0.171875 1.15625 0.375q0.59375 0.1875 1.15625 0.4375q0.5625 0.234375 1.0 0.59375q0.453125 0.359375 0.71875 0.890625q0.265625 0.515625 0.265625 1.25q0 0.84375 -0.296875 1.5625q-0.296875 0.703125 -0.890625 1.234375q-0.578125 0.515625 -1.4375 0.8125q-0.84375 0.296875 -1.96875 0.296875q-1.265625 0 -2.296875 -0.40625q-1.03125 -0.421875 -1.75 -1.0625l0.5 -0.8125q0.09375 -0.15625 0.21875 -0.234375q0.140625 -0.09375 0.359375 -0.09375q0.21875 0 0.453125 0.171875q0.234375 0.15625 0.578125 0.359375q0.34375 0.203125 0.828125 0.375q0.484375 0.171875 1.21875 0.171875q0.625 0 1.09375 -0.15625q0.46875 -0.171875 0.78125 -0.4375q0.3125 -0.28125 0.453125 -0.640625q0.15625 -0.359375 0.15625 -0.765625q0 -0.515625 -0.265625 -0.84375q-0.265625 -0.328125 -0.71875 -0.5625q-0.4375 -0.234375 -1.015625 -0.40625q-0.5625 -0.171875 -1.15625 -0.359375q-0.59375 -0.203125 -1.171875 -0.4375q-0.5625 -0.25 -1.015625 -0.625q-0.4375 -0.375 -0.71875 -0.921875q-0.265625 -0.546875 -0.265625 -1.3125q0 -0.703125 0.28125 -1.34375q0.296875 -0.640625 0.84375 -1.125q0.5625 -0.484375 1.359375 -0.765625q0.8125 -0.296875 1.84375 -0.296875q1.203125 0 2.15625 0.375q0.953125 0.375 1.640625 1.03125l-0.46875 0.78125z" fill-rule="nonzero"/><path fill="#666666" d="m720.03674 139.85301l178.39368 0l0 42.267715l-178.39368 0z" fill-rule="evenodd"/><path fill="#ffffff" d="m754.68774 155.11125q-0.109375 0.1875 -0.234375 0.28125q-0.109375 0.09375 -0.296875 0.09375q-0.203125 0 -0.484375 -0.203125q-0.265625 -0.21875 -0.6875 -0.453125q-0.40625 -0.25 -0.984375 -0.453125q-0.578125 -0.203125 -1.40625 -0.203125q-0.78125 0 -1.390625 0.21875q-0.59375 0.203125 -1.0 0.5625q-0.390625 0.359375 -0.609375 0.84375q-0.203125 0.484375 -0.203125 1.046875q0 0.71875 0.359375 1.203125q0.359375 0.46875 0.9375 0.8125q0.578125 0.328125 1.3125 0.578125q0.75 0.234375 1.515625 0.5q0.78125 0.265625 1.515625 0.59375q0.734375 0.328125 1.3125 0.84375q0.59375 0.5 0.9375 1.234375q0.359375 0.734375 0.359375 1.796875q0 1.125 -0.390625 2.125q-0.375 0.984375 -1.125 1.71875q-0.734375 0.734375 -1.8125 1.15625q-1.0625 0.40625 -2.4375 0.40625q-1.65625 0 -3.03125 -0.59375q-1.375 -0.609375 -2.34375 -1.640625l0.671875 -1.109375q0.09375 -0.125 0.21875 -0.21875q0.140625 -0.09375 0.3125 -0.09375q0.25 0 0.578125 0.28125q0.328125 0.265625 0.8125 0.59375q0.484375 0.3125 1.171875 0.59375q0.6875 0.265625 1.6875 0.265625q0.828125 0 1.46875 -0.234375q0.65625 -0.234375 1.109375 -0.640625q0.453125 -0.421875 0.6875 -0.984375q0.234375 -0.578125 0.234375 -1.296875q0 -0.765625 -0.359375 -1.265625q-0.34375 -0.5 -0.921875 -0.828125q-0.578125 -0.34375 -1.3125 -0.578125q-0.734375 -0.234375 -1.515625 -0.484375q-0.765625 -0.25 -1.515625 -0.5625q-0.734375 -0.328125 -1.3125 -0.84375q-0.578125 -0.515625 -0.9375 -1.28125q-0.34375 -0.78125 -0.34375 -1.921875q0 -0.921875 0.34375 -1.765625q0.359375 -0.859375 1.03125 -1.515625q0.671875 -0.65625 1.65625 -1.046875q1.0 -0.40625 2.28125 -0.40625q1.453125 0 2.640625 0.46875q1.1875 0.453125 2.0625 1.3125l-0.5625 1.09375zm19.891968 5.921875q0 1.21875 -0.25 2.3125q-0.25 1.078125 -0.71875 2.03125q-0.46875 0.9375 -1.140625 1.703125q-0.671875 0.765625 -1.5 1.328125l4.40625 4.765625l-1.921875 0q-0.421875 0 -0.765625 -0.125q-0.328125 -0.109375 -0.609375 -0.40625l-3.015625 -3.296875q-0.6875 0.21875 -1.4375 0.34375q-0.734375 0.125 -1.53125 0.125q-1.890625 0 -3.453125 -0.640625q-1.5625 -0.65625 -2.6875 -1.8125q-1.109375 -1.171875 -1.71875 -2.78125q-0.609375 -1.609375 -0.609375 -3.546875q0 -1.9375 0.609375 -3.546875q0.609375 -1.609375 1.71875 -2.78125q1.125 -1.171875 2.6875 -1.8125q1.5625 -0.65625 3.453125 -0.65625q1.890625 0 3.453125 0.65625q1.578125 0.640625 2.6875 1.8125q1.125 1.171875 1.734375 2.78125q0.609375 1.609375 0.609375 3.546875zm-2.390625 0q0 -1.578125 -0.4375 -2.84375q-0.421875 -1.265625 -1.21875 -2.125q-0.796875 -0.875 -1.921875 -1.34375q-1.125 -0.46875 -2.515625 -0.46875q-1.375 0 -2.515625 0.46875q-1.125 0.46875 -1.921875 1.34375q-0.796875 0.859375 -1.234375 2.125q-0.421875 1.265625 -0.421875 2.84375q0 1.578125 0.421875 2.84375q0.4375 1.25 1.234375 2.125q0.796875 0.859375 1.921875 1.328125q1.140625 0.453125 2.515625 0.453125q1.390625 0 2.515625 -0.453125q1.125 -0.46875 1.921875 -1.328125q0.796875 -0.875 1.21875 -2.125q0.4375 -1.265625 0.4375 -2.84375zm7.9021606 6.640625l7.4375 0l0 1.953125l-9.765625 0l0 -17.203125l2.328125 0l0 15.25zm25.233704 -15.25l0 1.90625l-8.265625 0l0 5.703125l6.6875 0l0 1.828125l-6.6875 0l0 5.875l8.265625 0l0 1.890625l-10.59375 0l0 -17.203125l10.59375 0zm3.0065918 17.203125l0 -12.15625l1.28125 0q0.453125 0 0.5625 0.4375l0.171875 1.328125q0.796875 -0.875 1.765625 -1.40625q0.984375 -0.546875 2.265625 -0.546875q1.0 0 1.75 0.328125q0.765625 0.328125 1.28125 0.9375q0.515625 0.609375 0.78125 1.46875q0.265625 0.84375 0.265625 1.875l0 7.734375l-2.140625 0l0 -7.734375q0 -1.390625 -0.640625 -2.140625q-0.625 -0.765625 -1.921875 -0.765625q-0.9375 0 -1.765625 0.453125q-0.828125 0.453125 -1.515625 1.234375l0 8.953125l-2.140625 0zm17.437866 -12.359375q0.796875 0 1.484375 0.171875q0.6875 0.171875 1.25 0.515625l3.296875 0l0 0.78125q0 0.40625 -0.5 0.515625l-1.375 0.1875q0.40625 0.78125 0.40625 1.734375q0 0.890625 -0.34375 1.625q-0.34375 0.71875 -0.953125 1.234375q-0.59375 0.515625 -1.4375 0.796875q-0.828125 0.265625 -1.828125 0.265625q-0.859375 0 -1.609375 -0.203125q-0.375 0.25 -0.578125 0.53125q-0.203125 0.265625 -0.203125 0.53125q0 0.4375 0.34375 0.65625q0.359375 0.21875 0.921875 0.3125q0.578125 0.09375 1.3125 0.125q0.734375 0.015625 1.5 0.078125q0.765625 0.046875 1.484375 0.1875q0.734375 0.125 1.3125 0.4375q0.578125 0.296875 0.921875 0.828125q0.359375 0.515625 0.359375 1.359375q0 0.78125 -0.390625 1.515625q-0.390625 0.734375 -1.125 1.296875q-0.734375 0.578125 -1.796875 0.90625q-1.046875 0.34375 -2.375 0.34375q-1.34375 0 -2.34375 -0.265625q-1.0 -0.25 -1.65625 -0.703125q-0.65625 -0.4375 -1.0 -1.03125q-0.328125 -0.578125 -0.328125 -1.21875q0 -0.890625 0.5625 -1.515625q0.578125 -0.640625 1.578125 -1.015625q-0.515625 -0.234375 -0.828125 -0.625q-0.296875 -0.40625 -0.296875 -1.078125q0 -0.265625 0.09375 -0.546875q0.09375 -0.28125 0.296875 -0.5625q0.203125 -0.28125 0.484375 -0.53125q0.28125 -0.25 0.671875 -0.4375q-0.90625 -0.5 -1.421875 -1.328125q-0.5 -0.84375 -0.5 -1.96875q0 -0.890625 0.34375 -1.609375q0.34375 -0.71875 0.953125 -1.234375q0.609375 -0.515625 1.453125 -0.78125q0.859375 -0.28125 1.859375 -0.28125zm3.796875 13.015625q0 -0.453125 -0.265625 -0.71875q-0.25 -0.28125 -0.6875 -0.421875q-0.421875 -0.15625 -0.984375 -0.234375q-0.5625 -0.078125 -1.1875 -0.109375q-0.625 -0.03125 -1.28125 -0.0625q-0.640625 -0.03125 -1.21875 -0.125q-0.6875 0.3125 -1.125 0.78125q-0.421875 0.46875 -0.421875 1.125q0 0.40625 0.203125 0.75q0.21875 0.359375 0.640625 0.609375q0.4375 0.265625 1.09375 0.40625q0.65625 0.15625 1.546875 0.15625q0.859375 0 1.546875 -0.15625q0.6875 -0.140625 1.15625 -0.4375q0.46875 -0.28125 0.71875 -0.6875q0.265625 -0.390625 0.265625 -0.875zm-3.796875 -6.59375q0.640625 0 1.140625 -0.171875q0.5 -0.1875 0.828125 -0.515625q0.34375 -0.328125 0.515625 -0.765625q0.171875 -0.453125 0.171875 -1.0q0 -1.109375 -0.6875 -1.765625q-0.671875 -0.671875 -1.96875 -0.671875q-1.28125 0 -1.96875 0.671875q-0.671875 0.65625 -0.671875 1.765625q0 0.546875 0.171875 1.0q0.171875 0.4375 0.5 0.765625q0.34375 0.328125 0.828125 0.515625q0.5 0.171875 1.140625 0.171875zm10.545349 -6.21875l0 12.15625l-2.140625 0l0 -12.15625l2.140625 0zm0.484375 -3.8125q0 0.3125 -0.125 0.578125q-0.125 0.265625 -0.34375 0.484375q-0.203125 0.203125 -0.484375 0.328125q-0.265625 0.125 -0.578125 0.125q-0.3125 0 -0.59375 -0.125q-0.265625 -0.125 -0.484375 -0.328125q-0.203125 -0.21875 -0.328125 -0.484375q-0.109375 -0.265625 -0.109375 -0.578125q0 -0.3125 0.109375 -0.59375q0.125 -0.28125 0.328125 -0.484375q0.21875 -0.21875 0.484375 -0.34375q0.28125 -0.125 0.59375 -0.125q0.3125 0 0.578125 0.125q0.28125 0.125 0.484375 0.34375q0.21875 0.203125 0.34375 0.484375q0.125 0.28125 0.125 0.59375zm3.284668 15.96875l0 -12.15625l1.28125 0q0.453125 0 0.5625 0.4375l0.171875 1.328125q0.796875 -0.875 1.765625 -1.40625q0.984375 -0.546875 2.265625 -0.546875q1.0 0 1.75 0.328125q0.765625 0.328125 1.28125 0.9375q0.515625 0.609375 0.78125 1.46875q0.265625 0.84375 0.265625 1.875l0 7.734375l-2.140625 0l0 -7.734375q0 -1.390625 -0.640625 -2.140625q-0.625 -0.765625 -1.921875 -0.765625q-0.9375 0 -1.765625 0.453125q-0.828125 0.453125 -1.515625 1.234375l0 8.953125l-2.140625 0zm18.156616 -12.34375q1.09375 0 2.015625 0.375q0.921875 0.359375 1.59375 1.046875q0.671875 0.6875 1.046875 1.703125q0.390625 1.015625 0.390625 2.3125q0 0.5 -0.109375 0.671875q-0.109375 0.15625 -0.40625 0.15625l-8.09375 0q0.03125 1.15625 0.3125 2.015625q0.28125 0.84375 0.78125 1.421875q0.515625 0.5625 1.203125 0.84375q0.703125 0.28125 1.5625 0.28125q0.8125 0 1.390625 -0.1875q0.578125 -0.1875 1.0 -0.390625q0.421875 -0.21875 0.703125 -0.40625q0.28125 -0.1875 0.484375 -0.1875q0.265625 0 0.40625 0.203125l0.609375 0.78125q-0.40625 0.484375 -0.953125 0.84375q-0.546875 0.34375 -1.1875 0.578125q-0.625 0.21875 -1.296875 0.328125q-0.671875 0.125 -1.328125 0.125q-1.265625 0 -2.328125 -0.421875q-1.0625 -0.4375 -1.84375 -1.25q-0.765625 -0.828125 -1.203125 -2.03125q-0.421875 -1.21875 -0.421875 -2.796875q0 -1.265625 0.390625 -2.359375q0.390625 -1.109375 1.109375 -1.921875q0.734375 -0.8125 1.796875 -1.265625q1.0625 -0.46875 2.375 -0.46875zm0.046875 1.5625q-1.546875 0 -2.4375 0.90625q-0.890625 0.890625 -1.09375 2.46875l6.609375 0q0 -0.734375 -0.203125 -1.359375q-0.203125 -0.625 -0.609375 -1.0625q-0.390625 -0.453125 -0.96875 -0.703125q-0.5625 -0.25 -1.296875 -0.25zm14.685486 0.625q-0.15625 0.265625 -0.453125 0.265625q-0.171875 0 -0.40625 -0.125q-0.234375 -0.140625 -0.5625 -0.296875q-0.328125 -0.15625 -0.78125 -0.296875q-0.453125 -0.140625 -1.078125 -0.140625q-0.546875 0 -0.984375 0.140625q-0.421875 0.140625 -0.734375 0.375q-0.296875 0.234375 -0.46875 0.5625q-0.15625 0.3125 -0.15625 0.6875q0 0.46875 0.265625 0.78125q0.28125 0.3125 0.71875 0.546875q0.453125 0.21875 1.015625 0.390625q0.5625 0.171875 1.15625 0.375q0.59375 0.1875 1.15625 0.4375q0.5625 0.234375 1.0 0.59375q0.453125 0.359375 0.71875 0.890625q0.265625 0.515625 0.265625 1.25q0 0.84375 -0.296875 1.5625q-0.296875 0.703125 -0.890625 1.234375q-0.578125 0.515625 -1.4375 0.8125q-0.84375 0.296875 -1.96875 0.296875q-1.265625 0 -2.296875 -0.40625q-1.03125 -0.421875 -1.75 -1.0625l0.5 -0.8125q0.09375 -0.15625 0.21875 -0.234375q0.140625 -0.09375 0.359375 -0.09375q0.21875 0 0.453125 0.171875q0.234375 0.15625 0.578125 0.359375q0.34375 0.203125 0.828125 0.375q0.484375 0.171875 1.21875 0.171875q0.625 0 1.09375 -0.15625q0.46875 -0.171875 0.78125 -0.4375q0.3125 -0.28125 0.453125 -0.640625q0.15625 -0.359375 0.15625 -0.765625q0 -0.515625 -0.265625 -0.84375q-0.265625 -0.328125 -0.71875 -0.5625q-0.4375 -0.234375 -1.015625 -0.40625q-0.5625 -0.171875 -1.15625 -0.359375q-0.59375 -0.203125 -1.171875 -0.4375q-0.5625 -0.25 -1.015625 -0.625q-0.4375 -0.375 -0.71875 -0.921875q-0.265625 -0.546875 -0.265625 -1.3125q0 -0.703125 0.28125 -1.34375q0.296875 -0.640625 0.84375 -1.125q0.5625 -0.484375 1.359375 -0.765625q0.8125 -0.296875 1.84375 -0.296875q1.203125 0 2.15625 0.375q0.953125 0.375 1.640625 1.03125l-0.46875 0.78125z" fill-rule="nonzero"/><path fill="#000000" fill-opacity="0.0" d="m316.26126 347.48294l124.53543 0l0 93.98425l-124.53543 0z" fill-rule="evenodd"/><path fill="#595959" d="m344.71725 389.99506l0 -13.25l2.6875 0l0 11.0l6.703125 0l0 2.25l-9.390625 0zm11.302246 -10.984375l0 -2.375l2.5625 0l0 2.375l-2.5625 0zm0 10.984375l0 -9.671875l2.5625 0l0 9.671875l-2.5625 0zm13.980164 0l-2.5625 0l0 -4.9375q0 -1.5625 -0.171875 -2.015625q-0.15625 -0.46875 -0.53125 -0.71875q-0.359375 -0.265625 -0.875 -0.265625q-0.671875 0 -1.203125 0.375q-0.53125 0.359375 -0.734375 0.96875q-0.1875 0.59375 -0.1875 2.21875l0 4.375l-2.546875 0l0 -9.671875l2.375 0l0 1.421875q1.265625 -1.640625 3.1875 -1.640625q0.84375 0 1.546875 0.3125q0.703125 0.296875 1.0625 0.78125q0.359375 0.46875 0.5 1.078125q0.140625 0.59375 0.140625 1.703125l0 6.015625zm8.192871 -3.078125l2.546875 0.421875q-0.484375 1.40625 -1.546875 2.140625q-1.0625 0.734375 -2.65625 0.734375q-2.515625 0 -3.734375 -1.65625q-0.953125 -1.3125 -0.953125 -3.328125q0 -2.40625 1.25 -3.765625q1.265625 -1.359375 3.1875 -1.359375q2.15625 0 3.40625 1.421875q1.25 1.421875 1.1875 4.375l-6.40625 0q0.03125 1.140625 0.609375 1.78125q0.59375 0.625 1.484375 0.625q0.59375 0 1.0 -0.328125q0.421875 -0.328125 0.625 -1.0625zm0.15625 -2.59375q-0.03125 -1.109375 -0.578125 -1.6875q-0.546875 -0.578125 -1.328125 -0.578125q-0.84375 0 -1.390625 0.609375q-0.546875 0.609375 -0.53125 1.65625l3.828125 0zm6.531952 -1.046875l-2.328125 -0.421875q0.40625 -1.40625 1.359375 -2.078125q0.953125 -0.671875 2.84375 -0.671875q1.703125 0 2.546875 0.40625q0.84375 0.40625 1.171875 1.03125q0.34375 0.625 0.34375 2.28125l-0.015625 3.0q0 1.265625 0.109375 1.875q0.125 0.609375 0.46875 1.296875l-2.53125 0q-0.109375 -0.25 -0.25 -0.75q-0.0625 -0.234375 -0.09375 -0.3125q-0.65625 0.640625 -1.40625 0.96875q-0.734375 0.3125 -1.59375 0.3125q-1.484375 0 -2.34375 -0.8125q-0.859375 -0.8125 -0.859375 -2.046875q0 -0.828125 0.390625 -1.46875q0.390625 -0.640625 1.09375 -0.96875q0.703125 -0.34375 2.03125 -0.609375q1.796875 -0.328125 2.484375 -0.625l0 -0.25q0 -0.75 -0.359375 -1.0625q-0.359375 -0.3125 -1.375 -0.3125q-0.6875 0 -1.078125 0.28125q-0.375 0.265625 -0.609375 0.9375zm3.421875 2.078125q-0.484375 0.15625 -1.5625 0.390625q-1.0625 0.21875 -1.390625 0.4375q-0.5 0.359375 -0.5 0.90625q0 0.53125 0.40625 0.9375q0.40625 0.390625 1.015625 0.390625q0.703125 0 1.328125 -0.46875q0.46875 -0.34375 0.609375 -0.84375q0.09375 -0.328125 0.09375 -1.25l0 -0.5zm4.8132324 5.28125l2.921875 0.359375q0.0625 0.5 0.328125 0.6875q0.375 0.28125 1.15625 0.28125q1.0 0 1.5 -0.296875q0.328125 -0.203125 0.515625 -0.65625q0.109375 -0.3125 0.109375 -1.171875l0 -1.40625q-1.140625 1.5625 -2.890625 1.5625q-1.953125 0 -3.09375 -1.65625q-0.890625 -1.296875 -0.890625 -3.234375q0 -2.4375 1.171875 -3.71875q1.171875 -1.28125 2.90625 -1.28125q1.796875 0 2.96875 1.578125l0 -1.359375l2.390625 0l0 8.671875q0 1.71875 -0.28125 2.5625q-0.28125 0.84375 -0.796875 1.328125q-0.5 0.484375 -1.359375 0.75q-0.84375 0.28125 -2.15625 0.28125q-2.453125 0 -3.484375 -0.84375q-1.03125 -0.84375 -1.03125 -2.125q0 -0.140625 0.015625 -0.3125zm2.28125 -5.671875q0 1.53125 0.59375 2.25q0.59375 0.71875 1.46875 0.71875q0.9375 0 1.578125 -0.734375q0.65625 -0.734375 0.65625 -2.171875q0 -1.515625 -0.625 -2.234375q-0.609375 -0.734375 -1.5625 -0.734375q-0.921875 0 -1.515625 0.71875q-0.59375 0.71875 -0.59375 2.1875zm14.942841 1.953125l2.546875 0.421875q-0.484375 1.40625 -1.546875 2.140625q-1.0625 0.734375 -2.65625 0.734375q-2.515625 0 -3.734375 -1.65625q-0.953125 -1.3125 -0.953125 -3.328125q0 -2.40625 1.25 -3.765625q1.265625 -1.359375 3.1875 -1.359375q2.15625 0 3.40625 1.421875q1.25 1.421875 1.1875 4.375l-6.40625 0q0.03125 1.140625 0.609375 1.78125q0.59375 0.625 1.484375 0.625q0.59375 0 1.0 -0.328125q0.421875 -0.328125 0.625 -1.0625zm0.15625 -2.59375q-0.03125 -1.109375 -0.578125 -1.6875q-0.546875 -0.578125 -1.328125 -0.578125q-0.84375 0 -1.390625 0.609375q-0.546875 0.609375 -0.53125 1.65625l3.828125 0z" fill-rule="nonzero"/><path fill="#595959" d="m362.02838 402.72318l0 2.03125l-1.75 0l0 3.90625q0 1.1875 0.046875 1.390625q0.046875 0.1875 0.21875 0.3125q0.1875 0.125 0.4375 0.125q0.359375 0 1.03125 -0.25l0.21875 2.0q-0.890625 0.375 -2.015625 0.375q-0.703125 0 -1.265625 -0.234375q-0.546875 -0.234375 -0.8125 -0.59375q-0.25 -0.375 -0.34375 -1.0q-0.09375 -0.453125 -0.09375 -1.8125l0 -4.21875l-1.171875 0l0 -2.03125l1.171875 0l0 -1.921875l2.578125 -1.5l0 3.421875l1.75 0zm1.181427 4.703125q0 -1.28125 0.625 -2.46875q0.625 -1.203125 1.78125 -1.828125q1.15625 -0.625 2.578125 -0.625q2.1875 0 3.59375 1.421875q1.40625 1.421875 1.40625 3.609375q0 2.1875 -1.421875 3.640625q-1.421875 1.4375 -3.5625 1.4375q-1.328125 0 -2.546875 -0.59375q-1.203125 -0.609375 -1.828125 -1.765625q-0.625 -1.171875 -0.625 -2.828125zm2.625 0.125q0 1.453125 0.671875 2.21875q0.6875 0.75 1.6875 0.75q1.0 0 1.671875 -0.75q0.6875 -0.765625 0.6875 -2.234375q0 -1.421875 -0.6875 -2.1875q-0.671875 -0.765625 -1.671875 -0.765625q-1.0 0 -1.6875 0.765625q-0.671875 0.765625 -0.671875 2.203125zm8.770996 -0.125q0 -1.28125 0.625 -2.46875q0.625 -1.203125 1.78125 -1.828125q1.15625 -0.625 2.578125 -0.625q2.1875 0 3.59375 1.421875q1.40625 1.421875 1.40625 3.609375q0 2.1875 -1.421875 3.640625q-1.421875 1.4375 -3.5625 1.4375q-1.328125 0 -2.546875 -0.59375q-1.203125 -0.609375 -1.828125 -1.765625q-0.625 -1.171875 -0.625 -2.828125zm2.625 0.125q0 1.453125 0.671875 2.21875q0.6875 0.75 1.6875 0.75q1.0 0 1.671875 -0.75q0.6875 -0.765625 0.6875 -2.234375q0 -1.421875 -0.6875 -2.1875q-0.671875 -0.765625 -1.671875 -0.765625q-1.0 0 -1.6875 0.765625q-0.671875 0.765625 -0.671875 2.203125zm9.364716 4.84375l0 -13.359375l2.5625 0l0 13.359375l-2.5625 0zm4.277069 -2.765625l2.5625 -0.390625q0.171875 0.75 0.671875 1.140625q0.5 0.390625 1.40625 0.390625q0.984375 0 1.484375 -0.375q0.34375 -0.25 0.34375 -0.671875q0 -0.296875 -0.1875 -0.484375q-0.1875 -0.1875 -0.859375 -0.34375q-3.09375 -0.6875 -3.921875 -1.25q-1.140625 -0.78125 -1.140625 -2.171875q0 -1.265625 0.984375 -2.109375q1.0 -0.859375 3.078125 -0.859375q1.984375 0 2.953125 0.65625q0.96875 0.640625 1.328125 1.90625l-2.40625 0.4375q-0.15625 -0.5625 -0.59375 -0.859375q-0.421875 -0.296875 -1.234375 -0.296875q-1.0 0 -1.4375 0.28125q-0.296875 0.203125 -0.296875 0.515625q0 0.265625 0.25 0.46875q0.34375 0.25 2.390625 0.71875q2.046875 0.453125 2.859375 1.140625q0.796875 0.671875 0.796875 1.890625q0 1.34375 -1.109375 2.296875q-1.109375 0.953125 -3.28125 0.953125q-1.984375 0 -3.140625 -0.796875q-1.140625 -0.8125 -1.5 -2.1875z" fill-rule="nonzero"/><path fill="#000000" fill-opacity="0.0" d="m525.7349 346.63254l124.5354 0l0 94.17325l-124.5354 0z" fill-rule="evenodd"/><path fill="#595959" d="m571.48676 384.33292l2.609375 0.828125q-0.59375 2.1875 -2.0 3.25q-1.390625 1.0625 -3.546875 1.0625q-2.65625 0 -4.375 -1.8125q-1.703125 -1.828125 -1.703125 -4.984375q0 -3.328125 1.71875 -5.171875q1.71875 -1.84375 4.515625 -1.84375q2.453125 0 3.984375 1.4375q0.921875 0.859375 1.375 2.46875l-2.671875 0.640625q-0.234375 -1.046875 -0.984375 -1.640625q-0.75 -0.609375 -1.828125 -0.609375q-1.484375 0 -2.421875 1.078125q-0.921875 1.0625 -0.921875 3.4375q0 2.53125 0.90625 3.609375q0.921875 1.078125 2.375 1.078125q1.078125 0 1.84375 -0.671875q0.78125 -0.6875 1.125 -2.15625zm4.9104614 4.90625l0 -13.359375l2.5625 0l0 13.359375l-2.5625 0zm4.5895386 -4.96875q0 -1.28125 0.625 -2.46875q0.625 -1.203125 1.78125 -1.828125q1.15625 -0.625 2.578125 -0.625q2.1875 0 3.59375 1.421875q1.40625 1.421875 1.40625 3.609375q0 2.1875 -1.421875 3.640625q-1.421875 1.4375 -3.5625 1.4375q-1.328125 0 -2.546875 -0.59375q-1.203125 -0.609375 -1.828125 -1.765625q-0.625 -1.171875 -0.625 -2.828125zm2.625 0.125q0 1.453125 0.671875 2.21875q0.6875 0.75 1.6875 0.75q1.0 0 1.671875 -0.75q0.6875 -0.765625 0.6875 -2.234375q0 -1.421875 -0.6875 -2.1875q-0.671875 -0.765625 -1.671875 -0.765625q-1.0 0 -1.6875 0.765625q-0.671875 0.765625 -0.671875 2.203125zm15.724121 4.84375l0 -1.453125q-0.53125 0.78125 -1.390625 1.234375q-0.859375 0.4375 -1.8125 0.4375q-0.96875 0 -1.75 -0.421875q-0.765625 -0.4375 -1.125 -1.203125q-0.34375 -0.78125 -0.34375 -2.140625l0 -6.125l2.5625 0l0 4.4375q0 2.046875 0.140625 2.515625q0.140625 0.453125 0.515625 0.71875q0.375 0.265625 0.953125 0.265625q0.65625 0 1.171875 -0.359375q0.515625 -0.359375 0.703125 -0.890625q0.203125 -0.53125 0.203125 -2.609375l0 -4.078125l2.546875 0l0 9.671875l-2.375 0zm13.911621 0l-2.390625 0l0 -1.421875q-0.59375 0.828125 -1.40625 1.234375q-0.796875 0.40625 -1.609375 0.40625q-1.671875 0 -2.859375 -1.34375q-1.1875 -1.34375 -1.1875 -3.75q0 -2.453125 1.15625 -3.734375q1.15625 -1.28125 2.921875 -1.28125q1.625 0 2.8125 1.34375l0 -4.8125l2.5625 0l0 13.359375zm-6.84375 -5.046875q0 1.546875 0.4375 2.234375q0.609375 1.015625 1.71875 1.015625q0.890625 0 1.5 -0.75q0.625 -0.765625 0.625 -2.25q0 -1.671875 -0.609375 -2.40625q-0.59375 -0.734375 -1.53125 -0.734375q-0.90625 0 -1.53125 0.734375q-0.609375 0.71875 -0.609375 2.15625z" fill-rule="nonzero"/><path fill="#595959" d="m546.7588 401.9673l2.390625 0l0 1.421875q0.46875 -0.734375 1.25 -1.1875q0.796875 -0.453125 1.765625 -0.453125q1.6875 0 2.859375 1.328125q1.171875 1.3125 1.171875 3.671875q0 2.421875 -1.1875 3.765625q-1.1875 1.34375 -2.859375 1.34375q-0.8125 0 -1.46875 -0.3125q-0.640625 -0.328125 -1.359375 -1.09375l0 4.875l-2.5625 0l0 -13.359375zm2.53125 4.671875q0 1.625 0.640625 2.40625q0.65625 0.78125 1.578125 0.78125q0.90625 0 1.484375 -0.71875q0.59375 -0.71875 0.59375 -2.34375q0 -1.515625 -0.609375 -2.25q-0.609375 -0.75 -1.515625 -0.75q-0.9375 0 -1.5625 0.734375q-0.609375 0.71875 -0.609375 2.140625zm11.395996 5.0l-2.5625 0l0 -9.671875l2.375 0l0 1.375q0.609375 -0.984375 1.09375 -1.28125q0.484375 -0.3125 1.109375 -0.3125q0.875 0 1.6875 0.484375l-0.796875 2.234375q-0.640625 -0.421875 -1.203125 -0.421875q-0.53125 0 -0.90625 0.296875q-0.375 0.296875 -0.59375 1.078125q-0.203125 0.765625 -0.203125 3.234375l0 2.984375zm4.213379 -4.96875q0 -1.28125 0.625 -2.46875q0.625 -1.203125 1.78125 -1.828125q1.15625 -0.625 2.578125 -0.625q2.1875 0 3.59375 1.421875q1.40625 1.421875 1.40625 3.609375q0 2.1875 -1.421875 3.640625q-1.421875 1.4375 -3.5625 1.4375q-1.328125 0 -2.546875 -0.59375q-1.203125 -0.609375 -1.828125 -1.765625q-0.625 -1.171875 -0.625 -2.828125zm2.625 0.125q0 1.453125 0.671875 2.21875q0.6875 0.75 1.6875 0.75q1.0 0 1.671875 -0.75q0.6875 -0.765625 0.6875 -2.234375q0 -1.421875 -0.6875 -2.1875q-0.671875 -0.765625 -1.671875 -0.765625q-1.0 0 -1.6875 0.765625q-0.671875 0.765625 -0.671875 2.203125zm12.020996 4.84375l-3.90625 -9.671875l2.6875 0l1.828125 4.9375l0.53125 1.640625q0.203125 -0.625 0.265625 -0.828125q0.125 -0.40625 0.265625 -0.8125l1.84375 -4.9375l2.625 0l-3.84375 9.671875l-2.296875 0zm7.7194214 -10.984375l0 -2.375l2.5625 0l0 2.375l-2.5625 0zm0 10.984375l0 -9.671875l2.5625 0l0 9.671875l-2.5625 0zm14.05835 0l-2.390625 0l0 -1.421875q-0.59375 0.828125 -1.40625 1.234375q-0.796875 0.40625 -1.609375 0.40625q-1.671875 0 -2.859375 -1.34375q-1.1875 -1.34375 -1.1875 -3.75q0 -2.453125 1.15625 -3.734375q1.15625 -1.28125 2.921875 -1.28125q1.625 0 2.8125 1.34375l0 -4.8125l2.5625 0l0 13.359375zm-6.84375 -5.046875q0 1.546875 0.4375 2.234375q0.609375 1.015625 1.71875 1.015625q0.890625 0 1.5 -0.75q0.625 -0.765625 0.625 -2.25q0 -1.671875 -0.609375 -2.40625q-0.59375 -0.734375 -1.53125 -0.734375q-0.90625 0 -1.53125 0.734375q-0.609375 0.71875 -0.609375 2.15625zm14.958435 1.96875l2.546875 0.421875q-0.484375 1.40625 -1.546875 2.140625q-1.0625 0.734375 -2.65625 0.734375q-2.515625 0 -3.734375 -1.65625q-0.953125 -1.3125 -0.953125 -3.328125q0 -2.40625 1.25 -3.765625q1.265625 -1.359375 3.1875 -1.359375q2.15625 0 3.40625 1.421875q1.25 1.421875 1.1875 4.375l-6.40625 0q0.03125 1.140625 0.609375 1.78125q0.59375 0.625 1.484375 0.625q0.59375 0 1.0 -0.328125q0.421875 -0.328125 0.625 -1.0625zm0.15625 -2.59375q-0.03125 -1.109375 -0.578125 -1.6875q-0.546875 -0.578125 -1.328125 -0.578125q-0.84375 0 -1.390625 0.609375q-0.546875 0.609375 -0.53125 1.65625l3.828125 0zm7.0788574 5.671875l-2.5625 0l0 -9.671875l2.375 0l0 1.375q0.609375 -0.984375 1.09375 -1.28125q0.484375 -0.3125 1.109375 -0.3125q0.875 0 1.6875 0.484375l-0.796875 2.234375q-0.640625 -0.421875 -1.203125 -0.421875q-0.53125 0 -0.90625 0.296875q-0.375 0.296875 -0.59375 1.078125q-0.203125 0.765625 -0.203125 3.234375l0 2.984375zm3.900879 -2.765625l2.5625 -0.390625q0.171875 0.75 0.671875 1.140625q0.5 0.390625 1.40625 0.390625q0.984375 0 1.484375 -0.375q0.34375 -0.25 0.34375 -0.671875q0 -0.296875 -0.1875 -0.484375q-0.1875 -0.1875 -0.859375 -0.34375q-3.09375 -0.6875 -3.921875 -1.25q-1.140625 -0.78125 -1.140625 -2.171875q0 -1.265625 0.984375 -2.109375q1.0 -0.859375 3.078125 -0.859375q1.984375 0 2.953125 0.65625q0.96875 0.640625 1.328125 1.90625l-2.40625 0.4375q-0.15625 -0.5625 -0.59375 -0.859375q-0.421875 -0.296875 -1.234375 -0.296875q-1.0 0 -1.4375 0.28125q-0.296875 0.203125 -0.296875 0.515625q0 0.265625 0.25 0.46875q0.34375 0.25 2.390625 0.71875q2.046875 0.453125 2.859375 1.140625q0.796875 0.671875 0.796875 1.890625q0 1.34375 -1.109375 2.296875q-1.109375 0.953125 -3.28125 0.953125q-1.984375 0 -3.140625 -0.796875q-1.140625 -0.8125 -1.5 -2.1875z" fill-rule="nonzero"/><path fill="#000000" fill-opacity="0.0" d="m106.784775 320.55188l124.53543 0l0 91.02362l-124.53543 0z" fill-rule="evenodd"/><path fill="#595959" d="m150.17772 348.2243l4.9375 0q1.65625 0 2.53125 0.265625q1.1875 0.34375 2.015625 1.234375q0.84375 0.875 1.28125 2.15625q0.4375 1.28125 0.4375 3.15625q0 1.640625 -0.40625 2.84375q-0.5 1.453125 -1.4375 2.359375q-0.703125 0.671875 -1.890625 1.0625q-0.890625 0.28125 -2.390625 0.28125l-5.078125 0l0 -13.359375zm2.703125 2.265625l0 8.84375l2.015625 0q1.125 0 1.625 -0.125q0.65625 -0.171875 1.078125 -0.5625q0.4375 -0.390625 0.703125 -1.28125q0.28125 -0.90625 0.28125 -2.453125q0 -1.546875 -0.28125 -2.375q-0.265625 -0.828125 -0.765625 -1.28125q-0.484375 -0.46875 -1.234375 -0.640625q-0.5625 -0.125 -2.21875 -0.125l-1.203125 0zm12.676071 4.375l-2.328125 -0.421875q0.40625 -1.40625 1.359375 -2.078125q0.953125 -0.671875 2.84375 -0.671875q1.703125 0 2.546875 0.40625q0.84375 0.40625 1.171875 1.03125q0.34375 0.625 0.34375 2.28125l-0.015625 3.0q0 1.265625 0.109375 1.875q0.125 0.609375 0.46875 1.296875l-2.53125 0q-0.109375 -0.25 -0.25 -0.75q-0.0625 -0.234375 -0.09375 -0.3125q-0.65625 0.640625 -1.40625 0.96875q-0.734375 0.3125 -1.59375 0.3125q-1.484375 0 -2.34375 -0.8125q-0.859375 -0.8125 -0.859375 -2.046875q0 -0.828125 0.390625 -1.46875q0.390625 -0.640625 1.09375 -0.96875q0.703125 -0.34375 2.03125 -0.609375q1.796875 -0.328125 2.484375 -0.625l0 -0.25q0 -0.75 -0.359375 -1.0625q-0.359375 -0.3125 -1.375 -0.3125q-0.6875 0 -1.078125 0.28125q-0.375 0.265625 -0.609375 0.9375zm3.421875 2.078125q-0.484375 0.15625 -1.5625 0.390625q-1.0625 0.21875 -1.390625 0.4375q-0.5 0.359375 -0.5 0.90625q0 0.53125 0.40625 0.9375q0.40625 0.390625 1.015625 0.390625q0.703125 0 1.328125 -0.46875q0.46875 -0.34375 0.609375 -0.84375q0.09375 -0.328125 0.09375 -1.25l0 -0.5zm9.485092 -5.03125l0 2.03125l-1.75 0l0 3.90625q0 1.1875 0.046875 1.390625q0.046875 0.1875 0.21875 0.3125q0.1875 0.125 0.4375 0.125q0.359375 0 1.03125 -0.25l0.21875 2.0q-0.890625 0.375 -2.015625 0.375q-0.703125 0 -1.265625 -0.234375q-0.546875 -0.234375 -0.8125 -0.59375q-0.25 -0.375 -0.34375 -1.0q-0.09375 -0.453125 -0.09375 -1.8125l0 -4.21875l-1.171875 0l0 -2.03125l1.171875 0l0 -1.921875l2.578125 -1.5l0 3.421875l1.75 0zm3.681427 2.953125l-2.328125 -0.421875q0.40625 -1.40625 1.359375 -2.078125q0.953125 -0.671875 2.84375 -0.671875q1.703125 0 2.546875 0.40625q0.84375 0.40625 1.171875 1.03125q0.34375 0.625 0.34375 2.28125l-0.015625 3.0q0 1.265625 0.109375 1.875q0.125 0.609375 0.46875 1.296875l-2.53125 0q-0.109375 -0.25 -0.25 -0.75q-0.0625 -0.234375 -0.09375 -0.3125q-0.65625 0.640625 -1.40625 0.96875q-0.734375 0.3125 -1.59375 0.3125q-1.484375 0 -2.34375 -0.8125q-0.859375 -0.8125 -0.859375 -2.046875q0 -0.828125 0.390625 -1.46875q0.390625 -0.640625 1.09375 -0.96875q0.703125 -0.34375 2.03125 -0.609375q1.796875 -0.328125 2.484375 -0.625l0 -0.25q0 -0.75 -0.359375 -1.0625q-0.359375 -0.3125 -1.375 -0.3125q-0.6875 0 -1.078125 0.28125q-0.375 0.265625 -0.609375 0.9375zm3.421875 2.078125q-0.484375 0.15625 -1.5625 0.390625q-1.0625 0.21875 -1.390625 0.4375q-0.5 0.359375 -0.5 0.90625q0 0.53125 0.40625 0.9375q0.40625 0.390625 1.015625 0.390625q0.703125 0 1.328125 -0.46875q0.46875 -0.34375 0.609375 -0.84375q0.09375 -0.328125 0.09375 -1.25l0 -0.5z" fill-rule="nonzero"/><path fill="#595959" d="m140.98834 377.17117l-2.53125 0.453125q-0.125 -0.75 -0.578125 -1.125q-0.453125 -0.390625 -1.171875 -0.390625q-0.953125 0 -1.53125 0.65625q-0.5625 0.65625 -0.5625 2.203125q0 1.734375 0.578125 2.4375q0.578125 0.703125 1.546875 0.703125q0.734375 0 1.203125 -0.40625q0.46875 -0.421875 0.65625 -1.421875l2.515625 0.421875q-0.390625 1.734375 -1.515625 2.625q-1.109375 0.875 -2.96875 0.875q-2.125 0 -3.390625 -1.328125q-1.25 -1.34375 -1.25 -3.71875q0 -2.390625 1.265625 -3.71875q1.265625 -1.34375 3.421875 -1.34375q1.765625 0 2.796875 0.765625q1.046875 0.75 1.515625 2.3125zm3.8444672 0.09375l-2.328125 -0.421875q0.40625 -1.40625 1.359375 -2.078125q0.953125 -0.671875 2.84375 -0.671875q1.703125 0 2.546875 0.40625q0.84375 0.40625 1.171875 1.03125q0.34375 0.625 0.34375 2.28125l-0.015625 3.0q0 1.265625 0.109375 1.875q0.125 0.609375 0.46875 1.296875l-2.53125 0q-0.109375 -0.25 -0.25 -0.75q-0.0625 -0.234375 -0.09375 -0.3125q-0.65625 0.640625 -1.40625 0.96875q-0.734375 0.3125 -1.59375 0.3125q-1.484375 0 -2.34375 -0.8125q-0.859375 -0.8125 -0.859375 -2.046875q0 -0.828125 0.390625 -1.46875q0.390625 -0.640625 1.09375 -0.96875q0.703125 -0.34375 2.03125 -0.609375q1.796875 -0.328125 2.484375 -0.625l0 -0.25q0 -0.75 -0.359375 -1.0625q-0.359375 -0.3125 -1.375 -0.3125q-0.6875 0 -1.078125 0.28125q-0.375 0.265625 -0.609375 0.9375zm3.421875 2.078125q-0.484375 0.15625 -1.5625 0.390625q-1.0625 0.21875 -1.390625 0.4375q-0.5 0.359375 -0.5 0.90625q0 0.53125 0.40625 0.9375q0.40625 0.390625 1.015625 0.390625q0.703125 0 1.328125 -0.46875q0.46875 -0.34375 0.609375 -0.84375q0.09375 -0.328125 0.09375 -1.25l0 -0.5zm9.485092 -5.03125l0 2.03125l-1.75 0l0 3.90625q0 1.1875 0.046875 1.390625q0.046875 0.1875 0.21875 0.3125q0.1875 0.125 0.4375 0.125q0.359375 0 1.03125 -0.25l0.21875 2.0q-0.890625 0.375 -2.015625 0.375q-0.703125 0 -1.265625 -0.234375q-0.546875 -0.234375 -0.8125 -0.59375q-0.25 -0.375 -0.34375 -1.0q-0.09375 -0.453125 -0.09375 -1.8125l0 -4.21875l-1.171875 0l0 -2.03125l1.171875 0l0 -1.921875l2.578125 -1.5l0 3.421875l1.75 0zm3.681427 2.953125l-2.328125 -0.421875q0.40625 -1.40625 1.359375 -2.078125q0.953125 -0.671875 2.84375 -0.671875q1.703125 0 2.546875 0.40625q0.84375 0.40625 1.171875 1.03125q0.34375 0.625 0.34375 2.28125l-0.015625 3.0q0 1.265625 0.109375 1.875q0.125 0.609375 0.46875 1.296875l-2.53125 0q-0.109375 -0.25 -0.25 -0.75q-0.0625 -0.234375 -0.09375 -0.3125q-0.65625 0.640625 -1.40625 0.96875q-0.734375 0.3125 -1.59375 0.3125q-1.484375 0 -2.34375 -0.8125q-0.859375 -0.8125 -0.859375 -2.046875q0 -0.828125 0.390625 -1.46875q0.390625 -0.640625 1.09375 -0.96875q0.703125 -0.34375 2.03125 -0.609375q1.796875 -0.328125 2.484375 -0.625l0 -0.25q0 -0.75 -0.359375 -1.0625q-0.359375 -0.3125 -1.375 -0.3125q-0.6875 0 -1.078125 0.28125q-0.375 0.265625 -0.609375 0.9375zm3.421875 2.078125q-0.484375 0.15625 -1.5625 0.390625q-1.0625 0.21875 -1.390625 0.4375q-0.5 0.359375 -0.5 0.90625q0 0.53125 0.40625 0.9375q0.40625 0.390625 1.015625 0.390625q0.703125 0 1.328125 -0.46875q0.46875 -0.34375 0.609375 -0.84375q0.09375 -0.328125 0.09375 -1.25l0 -0.5zm5.047592 4.640625l0 -13.359375l2.5625 0l0 13.359375l-2.5625 0zm4.589554 -4.96875q0 -1.28125 0.625 -2.46875q0.625 -1.203125 1.78125 -1.828125q1.15625 -0.625 2.578125 -0.625q2.1875 0 3.59375 1.421875q1.40625 1.421875 1.40625 3.609375q0 2.1875 -1.421875 3.640625q-1.421875 1.4375 -3.5625 1.4375q-1.328125 0 -2.546875 -0.59375q-1.203125 -0.609375 -1.828125 -1.765625q-0.625 -1.171875 -0.625 -2.828125zm2.625 0.125q0 1.453125 0.671875 2.21875q0.6875 0.75 1.6875 0.75q1.0 0 1.671875 -0.75q0.6875 -0.765625 0.6875 -2.234375q0 -1.421875 -0.6875 -2.1875q-0.671875 -0.765625 -1.671875 -0.765625q-1.0 0 -1.6875 0.765625q-0.671875 0.765625 -0.671875 2.203125zm9.130356 5.484375l2.921875 0.359375q0.0625 0.5 0.328125 0.6875q0.375 0.28125 1.15625 0.28125q1.0 0 1.5 -0.296875q0.328125 -0.203125 0.515625 -0.65625q0.109375 -0.3125 0.109375 -1.171875l0 -1.40625q-1.140625 1.5625 -2.890625 1.5625q-1.953125 0 -3.09375 -1.65625q-0.890625 -1.296875 -0.890625 -3.234375q0 -2.4375 1.171875 -3.71875q1.171875 -1.28125 2.90625 -1.28125q1.796875 0 2.96875 1.578125l0 -1.359375l2.390625 0l0 8.671875q0 1.71875 -0.28125 2.5625q-0.28125 0.84375 -0.796875 1.328125q-0.5 0.484375 -1.359375 0.75q-0.84375 0.28125 -2.15625 0.28125q-2.453125 0 -3.484375 -0.84375q-1.03125 -0.84375 -1.03125 -2.125q0 -0.140625 0.015625 -0.3125zm2.28125 -5.671875q0 1.53125 0.59375 2.25q0.59375 0.71875 1.46875 0.71875q0.9375 0 1.578125 -0.734375q0.65625 -0.734375 0.65625 -2.171875q0 -1.515625 -0.625 -2.234375q-0.609375 -0.734375 -1.5625 -0.734375q-0.921875 0 -1.515625 0.71875q-0.59375 0.71875 -0.59375 2.1875zm8.442856 2.265625l2.5625 -0.390625q0.171875 0.75 0.671875 1.140625q0.5 0.390625 1.40625 0.390625q0.984375 0 1.484375 -0.375q0.34375 -0.25 0.34375 -0.671875q0 -0.296875 -0.1875 -0.484375q-0.1875 -0.1875 -0.859375 -0.34375q-3.09375 -0.6875 -3.921875 -1.25q-1.140625 -0.78125 -1.140625 -2.171875q0 -1.265625 0.984375 -2.109375q1.0 -0.859375 3.078125 -0.859375q1.984375 0 2.953125 0.65625q0.96875 0.640625 1.328125 1.90625l-2.40625 0.4375q-0.15625 -0.5625 -0.59375 -0.859375q-0.421875 -0.296875 -1.234375 -0.296875q-1.0 0 -1.4375 0.28125q-0.296875 0.203125 -0.296875 0.515625q0 0.265625 0.25 0.46875q0.34375 0.25 2.390625 0.71875q2.046875 0.453125 2.859375 1.140625q0.796875 0.671875 0.796875 1.890625q0 1.34375 -1.109375 2.296875q-1.109375 0.953125 -3.28125 0.953125q-1.984375 0 -3.140625 -0.796875q-1.140625 -0.8125 -1.5 -2.1875z" fill-rule="nonzero"/><path fill="#eeeeee" d="m735.20734 334.47955l0 0c0 -8.807739 7.1400757 -15.947815 15.947815 -15.947815l92.63983 0c4.2296143 0 8.286011 1.6802063 11.276794 4.67099c2.9907837 2.9908142 4.6710205 7.0472107 4.6710205 11.276825l0 63.7894c0 8.807739 -7.1400757 15.947815 -15.947815 15.947815l-92.63983 0l0 0c-8.807739 0 -15.947815 -7.1400757 -15.947815 -15.947815z" fill-rule="evenodd"/><path stroke="#595959" stroke-width="1.0" stroke-linejoin="round" stroke-linecap="butt" d="m735.20734 334.47955l0 0c0 -8.807739 7.1400757 -15.947815 15.947815 -15.947815l92.63983 0c4.2296143 0 8.286011 1.6802063 11.276794 4.67099c2.9907837 2.9908142 4.6710205 7.0472107 4.6710205 11.276825l0 63.7894c0 8.807739 -7.1400757 15.947815 -15.947815 15.947815l-92.63983 0l0 0c-8.807739 0 -15.947815 -7.1400757 -15.947815 -15.947815z" fill-rule="evenodd"/><path fill="#000000" fill-opacity="0.0" d="m735.20734 318.96927l124.53546 0l0 95.68503l-124.53546 0z" fill-rule="evenodd"/><path fill="#595959" d="m778.6003 337.7724l4.9375 0q1.65625 0 2.53125 0.265625q1.1875 0.34375 2.015625 1.234375q0.84375 0.875 1.28125 2.15625q0.4375 1.28125 0.4375 3.15625q0 1.640625 -0.40625 2.84375q-0.5 1.453125 -1.4375 2.359375q-0.703125 0.671875 -1.890625 1.0625q-0.890625 0.28125 -2.390625 0.28125l-5.078125 0l0 -13.359375zm2.703125 2.265625l0 8.84375l2.015625 0q1.125 0 1.625 -0.125q0.65625 -0.171875 1.078125 -0.5625q0.4375 -0.390625 0.703125 -1.28125q0.28125 -0.90625 0.28125 -2.453125q0 -1.546875 -0.28125 -2.375q-0.265625 -0.828125 -0.765625 -1.28125q-0.484375 -0.46875 -1.234375 -0.640625q-0.5625 -0.125 -2.21875 -0.125l-1.203125 0zm12.676086 4.375l-2.328125 -0.421875q0.40625 -1.40625 1.359375 -2.078125q0.953125 -0.671875 2.84375 -0.671875q1.703125 0 2.546875 0.40625q0.84375 0.40625 1.171875 1.03125q0.34375 0.625 0.34375 2.28125l-0.015625 3.0q0 1.265625 0.109375 1.875q0.125 0.609375 0.46875 1.296875l-2.53125 0q-0.109375 -0.25 -0.25 -0.75q-0.0625 -0.234375 -0.09375 -0.3125q-0.65625 0.640625 -1.40625 0.96875q-0.734375 0.3125 -1.59375 0.3125q-1.484375 0 -2.34375 -0.8125q-0.859375 -0.8125 -0.859375 -2.046875q0 -0.828125 0.390625 -1.46875q0.390625 -0.640625 1.09375 -0.96875q0.703125 -0.34375 2.03125 -0.609375q1.796875 -0.328125 2.484375 -0.625l0 -0.25q0 -0.75 -0.359375 -1.0625q-0.359375 -0.3125 -1.375 -0.3125q-0.6875 0 -1.078125 0.28125q-0.375 0.265625 -0.609375 0.9375zm3.421875 2.078125q-0.484375 0.15625 -1.5625 0.390625q-1.0625 0.21875 -1.390625 0.4375q-0.5 0.359375 -0.5 0.90625q0 0.53125 0.40625 0.9375q0.40625 0.390625 1.015625 0.390625q0.703125 0 1.328125 -0.46875q0.46875 -0.34375 0.609375 -0.84375q0.09375 -0.328125 0.09375 -1.25l0 -0.5zm9.485107 -5.03125l0 2.03125l-1.75 0l0 3.90625q0 1.1875 0.046875 1.390625q0.046875 0.1875 0.21875 0.3125q0.1875 0.125 0.4375 0.125q0.359375 0 1.03125 -0.25l0.21875 2.0q-0.890625 0.375 -2.015625 0.375q-0.703125 0 -1.265625 -0.234375q-0.546875 -0.234375 -0.8125 -0.59375q-0.25 -0.375 -0.34375 -1.0q-0.09375 -0.453125 -0.09375 -1.8125l0 -4.21875l-1.171875 0l0 -2.03125l1.171875 0l0 -1.921875l2.578125 -1.5l0 3.421875l1.75 0zm3.6813965 2.953125l-2.328125 -0.421875q0.40625 -1.40625 1.359375 -2.078125q0.953125 -0.671875 2.84375 -0.671875q1.703125 0 2.546875 0.40625q0.84375 0.40625 1.171875 1.03125q0.34375 0.625 0.34375 2.28125l-0.015625 3.0q0 1.265625 0.109375 1.875q0.125 0.609375 0.46875 1.296875l-2.53125 0q-0.109375 -0.25 -0.25 -0.75q-0.0625 -0.234375 -0.09375 -0.3125q-0.65625 0.640625 -1.40625 0.96875q-0.734375 0.3125 -1.59375 0.3125q-1.484375 0 -2.34375 -0.8125q-0.859375 -0.8125 -0.859375 -2.046875q0 -0.828125 0.390625 -1.46875q0.390625 -0.640625 1.09375 -0.96875q0.703125 -0.34375 2.03125 -0.609375q1.796875 -0.328125 2.484375 -0.625l0 -0.25q0 -0.75 -0.359375 -1.0625q-0.359375 -0.3125 -1.375 -0.3125q-0.6875 0 -1.078125 0.28125q-0.375 0.265625 -0.609375 0.9375zm3.421875 2.078125q-0.484375 0.15625 -1.5625 0.390625q-1.0625 0.21875 -1.390625 0.4375q-0.5 0.359375 -0.5 0.90625q0 0.53125 0.40625 0.9375q0.40625 0.390625 1.015625 0.390625q0.703125 0 1.328125 -0.46875q0.46875 -0.34375 0.609375 -0.84375q0.09375 -0.328125 0.09375 -1.25l0 -0.5z" fill-rule="nonzero"/><path fill="#595959" d="m746.223 374.1724l2.921875 0.359375q0.0625 0.5 0.328125 0.6875q0.375 0.28125 1.15625 0.28125q1.0 0 1.5 -0.296875q0.328125 -0.203125 0.515625 -0.65625q0.109375 -0.3125 0.109375 -1.171875l0 -1.40625q-1.140625 1.5625 -2.890625 1.5625q-1.953125 0 -3.09375 -1.65625q-0.890625 -1.296875 -0.890625 -3.234375q0 -2.4375 1.171875 -3.71875q1.171875 -1.28125 2.90625 -1.28125q1.796875 0 2.96875 1.578125l0 -1.359375l2.390625 0l0 8.671875q0 1.71875 -0.28125 2.5625q-0.28125 0.84375 -0.796875 1.328125q-0.5 0.484375 -1.359375 0.75q-0.84375 0.28125 -2.15625 0.28125q-2.453125 0 -3.484375 -0.84375q-1.03125 -0.84375 -1.03125 -2.125q0 -0.140625 0.015625 -0.3125zm2.28125 -5.671875q0 1.53125 0.59375 2.25q0.59375 0.71875 1.46875 0.71875q0.9375 0 1.578125 -0.734375q0.65625 -0.734375 0.65625 -2.171875q0 -1.515625 -0.625 -2.234375q-0.609375 -0.734375 -1.5625 -0.734375q-0.921875 0 -1.515625 0.71875q-0.59375 0.71875 -0.59375 2.1875zm8.755371 0.0625q0 -1.28125 0.625 -2.46875q0.625 -1.203125 1.78125 -1.828125q1.15625 -0.625 2.578125 -0.625q2.1875 0 3.59375 1.421875q1.40625 1.421875 1.40625 3.609375q0 2.1875 -1.421875 3.640625q-1.421875 1.4375 -3.5625 1.4375q-1.328125 0 -2.546875 -0.59375q-1.203125 -0.609375 -1.828125 -1.765625q-0.625 -1.171875 -0.625 -2.828125zm2.625 0.125q0 1.453125 0.671875 2.21875q0.6875 0.75 1.6875 0.75q1.0 0 1.671875 -0.75q0.6875 -0.765625 0.6875 -2.234375q0 -1.421875 -0.6875 -2.1875q-0.671875 -0.765625 -1.671875 -0.765625q-1.0 0 -1.6875 0.765625q-0.671875 0.765625 -0.671875 2.203125zm12.020996 4.84375l-3.90625 -9.671875l2.6875 0l1.828125 4.9375l0.53125 1.640625q0.203125 -0.625 0.265625 -0.828125q0.125 -0.40625 0.265625 -0.8125l1.84375 -4.9375l2.625 0l-3.84375 9.671875l-2.296875 0zm13.313232 -3.078125l2.546875 0.421875q-0.484375 1.40625 -1.546875 2.140625q-1.0625 0.734375 -2.65625 0.734375q-2.515625 0 -3.734375 -1.65625q-0.953125 -1.3125 -0.953125 -3.328125q0 -2.40625 1.25 -3.765625q1.265625 -1.359375 3.1875 -1.359375q2.15625 0 3.40625 1.421875q1.25 1.421875 1.1875 4.375l-6.40625 0q0.03125 1.140625 0.609375 1.78125q0.59375 0.625 1.484375 0.625q0.59375 0 1.0 -0.328125q0.421875 -0.328125 0.625 -1.0625zm0.15625 -2.59375q-0.03125 -1.109375 -0.578125 -1.6875q-0.546875 -0.578125 -1.328125 -0.578125q-0.84375 0 -1.390625 0.609375q-0.546875 0.609375 -0.53125 1.65625l3.828125 0zm7.0787964 5.671875l-2.5625 0l0 -9.671875l2.375 0l0 1.375q0.609375 -0.984375 1.09375 -1.28125q0.484375 -0.3125 1.109375 -0.3125q0.875 0 1.6875 0.484375l-0.796875 2.234375q-0.640625 -0.421875 -1.203125 -0.421875q-0.53125 0 -0.90625 0.296875q-0.375 0.296875 -0.59375 1.078125q-0.203125 0.765625 -0.203125 3.234375l0 2.984375zm13.604065 0l-2.5625 0l0 -4.9375q0 -1.5625 -0.171875 -2.015625q-0.15625 -0.46875 -0.53125 -0.71875q-0.359375 -0.265625 -0.875 -0.265625q-0.671875 0 -1.203125 0.375q-0.53125 0.359375 -0.734375 0.96875q-0.1875 0.59375 -0.1875 2.21875l0 4.375l-2.546875 0l0 -9.671875l2.375 0l0 1.421875q1.265625 -1.640625 3.1875 -1.640625q0.84375 0 1.546875 0.3125q0.703125 0.296875 1.0625 0.78125q0.359375 0.46875 0.5 1.078125q0.140625 0.59375 0.140625 1.703125l0 6.015625zm4.50531 -6.71875l-2.328125 -0.421875q0.40625 -1.40625 1.359375 -2.078125q0.953125 -0.671875 2.84375 -0.671875q1.703125 0 2.546875 0.40625q0.84375 0.40625 1.171875 1.03125q0.34375 0.625 0.34375 2.28125l-0.015625 3.0q0 1.265625 0.109375 1.875q0.125 0.609375 0.46875 1.296875l-2.53125 0q-0.109375 -0.25 -0.25 -0.75q-0.0625 -0.234375 -0.09375 -0.3125q-0.65625 0.640625 -1.40625 0.96875q-0.734375 0.3125 -1.59375 0.3125q-1.484375 0 -2.34375 -0.8125q-0.859375 -0.8125 -0.859375 -2.046875q0 -0.828125 0.390625 -1.46875q0.390625 -0.640625 1.09375 -0.96875q0.703125 -0.34375 2.03125 -0.609375q1.796875 -0.328125 2.484375 -0.625l0 -0.25q0 -0.75 -0.359375 -1.0625q-0.359375 -0.3125 -1.375 -0.3125q-0.6875 0 -1.078125 0.28125q-0.375 0.265625 -0.609375 0.9375zm3.421875 2.078125q-0.484375 0.15625 -1.5625 0.390625q-1.0625 0.21875 -1.390625 0.4375q-0.5 0.359375 -0.5 0.90625q0 0.53125 0.40625 0.9375q0.40625 0.390625 1.015625 0.390625q0.703125 0 1.328125 -0.46875q0.46875 -0.34375 0.609375 -0.84375q0.09375 -0.328125 0.09375 -1.25l0 -0.5zm13.844482 4.640625l-2.5625 0l0 -4.9375q0 -1.5625 -0.171875 -2.015625q-0.15625 -0.46875 -0.53125 -0.71875q-0.359375 -0.265625 -0.875 -0.265625q-0.671875 0 -1.203125 0.375q-0.53125 0.359375 -0.734375 0.96875q-0.1875 0.59375 -0.1875 2.21875l0 4.375l-2.546875 0l0 -9.671875l2.375 0l0 1.421875q1.265625 -1.640625 3.1875 -1.640625q0.84375 0 1.546875 0.3125q0.703125 0.296875 1.0625 0.78125q0.359375 0.46875 0.5 1.078125q0.140625 0.59375 0.140625 1.703125l0 6.015625zm11.036621 -6.8125l-2.53125 0.453125q-0.125 -0.75 -0.578125 -1.125q-0.453125 -0.390625 -1.171875 -0.390625q-0.953125 0 -1.53125 0.65625q-0.5625 0.65625 -0.5625 2.203125q0 1.734375 0.578125 2.4375q0.578125 0.703125 1.546875 0.703125q0.734375 0 1.203125 -0.40625q0.46875 -0.421875 0.65625 -1.421875l2.515625 0.421875q-0.390625 1.734375 -1.515625 2.625q-1.109375 0.875 -2.96875 0.875q-2.125 0 -3.390625 -1.328125q-1.25 -1.34375 -1.25 -3.71875q0 -2.390625 1.265625 -3.71875q1.265625 -1.34375 3.421875 -1.34375q1.765625 0 2.796875 0.765625q1.046875 0.75 1.515625 2.3125zm7.5319824 3.734375l2.546875 0.421875q-0.484375 1.40625 -1.546875 2.140625q-1.0625 0.734375 -2.65625 0.734375q-2.515625 0 -3.734375 -1.65625q-0.953125 -1.3125 -0.953125 -3.328125q0 -2.40625 1.25 -3.765625q1.265625 -1.359375 3.1875 -1.359375q2.15625 0 3.40625 1.421875q1.25 1.421875 1.1875 4.375l-6.40625 0q0.03125 1.140625 0.609375 1.78125q0.59375 0.625 1.484375 0.625q0.59375 0 1.0 -0.328125q0.421875 -0.328125 0.625 -1.0625zm0.15625 -2.59375q-0.03125 -1.109375 -0.578125 -1.6875q-0.546875 -0.578125 -1.328125 -0.578125q-0.84375 0 -1.390625 0.609375q-0.546875 0.609375 -0.53125 1.65625l3.828125 0z" fill-rule="nonzero"/><path fill="#595959" d="m780.9745 386.2599l0 2.03125l-1.75 0l0 3.90625q0 1.1875 0.046875 1.390625q0.046875 0.1875 0.21875 0.3125q0.1875 0.125 0.4375 0.125q0.359375 0 1.03125 -0.25l0.21875 2.0q-0.890625 0.375 -2.015625 0.375q-0.703125 0 -1.265625 -0.234375q-0.546875 -0.234375 -0.8125 -0.59375q-0.25 -0.375 -0.34375 -1.0q-0.09375 -0.453125 -0.09375 -1.8125l0 -4.21875l-1.171875 0l0 -2.03125l1.171875 0l0 -1.921875l2.578125 -1.5l0 3.421875l1.75 0zm1.1813965 4.703125q0 -1.28125 0.625 -2.46875q0.625 -1.203125 1.78125 -1.828125q1.15625 -0.625 2.578125 -0.625q2.1875 0 3.59375 1.421875q1.40625 1.421875 1.40625 3.609375q0 2.1875 -1.421875 3.640625q-1.421875 1.4375 -3.5625 1.4375q-1.328125 0 -2.546875 -0.59375q-1.203125 -0.609375 -1.828125 -1.765625q-0.625 -1.171875 -0.625 -2.828125zm2.625 0.125q0 1.453125 0.671875 2.21875q0.6875 0.75 1.6875 0.75q1.0 0 1.671875 -0.75q0.6875 -0.765625 0.6875 -2.234375q0 -1.421875 -0.6875 -2.1875q-0.671875 -0.765625 -1.671875 -0.765625q-1.0 0 -1.6875 0.765625q-0.671875 0.765625 -0.671875 2.203125zm8.770996 -0.125q0 -1.28125 0.625 -2.46875q0.625 -1.203125 1.78125 -1.828125q1.15625 -0.625 2.578125 -0.625q2.1875 0 3.59375 1.421875q1.40625 1.421875 1.40625 3.609375q0 2.1875 -1.421875 3.640625q-1.421875 1.4375 -3.5625 1.4375q-1.328125 0 -2.546875 -0.59375q-1.203125 -0.609375 -1.828125 -1.765625q-0.625 -1.171875 -0.625 -2.828125zm2.625 0.125q0 1.453125 0.671875 2.21875q0.6875 0.75 1.6875 0.75q1.0 0 1.671875 -0.75q0.6875 -0.765625 0.6875 -2.234375q0 -1.421875 -0.6875 -2.1875q-0.671875 -0.765625 -1.671875 -0.765625q-1.0 0 -1.6875 0.765625q-0.671875 0.765625 -0.671875 2.203125zm9.364746 4.84375l0 -13.359375l2.5625 0l0 13.359375l-2.5625 0zm4.2770386 -2.765625l2.5625 -0.390625q0.171875 0.75 0.671875 1.140625q0.5 0.390625 1.40625 0.390625q0.984375 0 1.484375 -0.375q0.34375 -0.25 0.34375 -0.671875q0 -0.296875 -0.1875 -0.484375q-0.1875 -0.1875 -0.859375 -0.34375q-3.09375 -0.6875 -3.921875 -1.25q-1.140625 -0.78125 -1.140625 -2.171875q0 -1.265625 0.984375 -2.109375q1.0 -0.859375 3.078125 -0.859375q1.984375 0 2.953125 0.65625q0.96875 0.640625 1.328125 1.90625l-2.40625 0.4375q-0.15625 -0.5625 -0.59375 -0.859375q-0.421875 -0.296875 -1.234375 -0.296875q-1.0 0 -1.4375 0.28125q-0.296875 0.203125 -0.296875 0.515625q0 0.265625 0.25 0.46875q0.34375 0.25 2.390625 0.71875q2.046875 0.453125 2.859375 1.140625q0.796875 0.671875 0.796875 1.890625q0 1.34375 -1.109375 2.296875q-1.109375 0.953125 -3.28125 0.953125q-1.984375 0 -3.140625 -0.796875q-1.140625 -0.8125 -1.5 -2.1875z" fill-rule="nonzero"/><path fill="#000000" fill-opacity="0.0" d="m155.38058 182.12073c0 34.400894 3.4173126 51.600983 6.8346405 68.80177c3.417328 17.20079 6.8346405 34.402267 6.8346405 68.80452" fill-rule="evenodd"/><path stroke="#595959" stroke-width="1.0" stroke-linejoin="round" stroke-linecap="butt" stroke-dasharray="4.0,3.0" d="m155.38058 182.12073c0 34.400894 3.4173126 51.600983 6.8346405 68.80177c3.417328 17.20079 6.8346405 34.402267 6.8346405 68.80452" fill-rule="evenodd"/><path fill="#000000" fill-opacity="0.0" d="m155.38058 182.12073c0 41.34024 55.7874 62.011185 111.5748 82.68048c55.787384 20.669281 111.5748 41.336914 111.5748 82.67386" fill-rule="evenodd"/><path stroke="#595959" stroke-width="1.0" stroke-linejoin="round" stroke-linecap="butt" stroke-dasharray="4.0,3.0" d="m155.38058 182.12073c0 41.34024 55.7874 62.011185 111.5748 82.68048c55.787384 20.669281 111.5748 41.336914 111.5748 82.67386" fill-rule="evenodd"/><path fill="#000000" fill-opacity="0.0" d="m155.38058 182.12073c0 41.127625 108.15747 61.692276 216.31494 82.25525c108.1575 20.563019 216.31497 41.12436 216.31497 82.24869" fill-rule="evenodd"/><path stroke="#595959" stroke-width="1.0" stroke-linejoin="round" stroke-linecap="butt" stroke-dasharray="4.0,3.0" d="m155.38058 182.12073c0 41.127625 108.15747 61.692276 216.31494 82.25525c108.1575 20.563019 216.31497 41.12436 216.31497 82.24869" fill-rule="evenodd"/><path fill="#000000" fill-opacity="0.0" d="m155.38058 182.12073c0 34.103043 160.52756 51.154907 321.0551 68.206085c160.52756 17.051178 321.05508 34.101685 321.05508 68.20337" fill-rule="evenodd"/><path stroke="#595959" stroke-width="1.0" stroke-linejoin="round" stroke-linecap="butt" stroke-dasharray="4.0,3.0" d="m155.38058 182.12073c0 34.103043 160.52756 51.154907 321.0551 68.206085c160.52756 17.051178 321.05508 34.101685 321.05508 68.20337" fill-rule="evenodd"/><path fill="#000000" fill-opacity="0.0" d="m809.2336 182.12073c0 34.103043 -2.9370117 51.154907 -5.8740234 68.206085c-2.9370117 17.051178 -5.8740234 34.101685 -5.8740234 68.20337" fill-rule="evenodd"/><path stroke="#595959" stroke-width="1.0" stroke-linejoin="round" stroke-linecap="butt" stroke-dasharray="4.0,3.0" d="m809.2336 182.12073c0 34.103043 -2.9370117 51.154907 -5.8740234 68.206085c-2.9370117 17.051178 -5.8740234 34.101685 -5.8740234 68.20337" fill-rule="evenodd"/><path fill="#000000" fill-opacity="0.0" d="m809.2336 182.12073c0 41.127625 -55.307068 61.692276 -110.614136 82.25525c-55.30713 20.563019 -110.6142 41.12436 -110.6142 82.24869" fill-rule="evenodd"/><path stroke="#595959" stroke-width="1.0" stroke-linejoin="round" stroke-linecap="butt" stroke-dasharray="4.0,3.0" d="m809.2336 182.12073c0 41.127625 -55.307068 61.692276 -110.614136 82.25525c-55.30713 20.563019 -110.6142 41.12436 -110.6142 82.24869" fill-rule="evenodd"/><path fill="#000000" fill-opacity="0.0" d="m809.2336 182.12073c0 41.34024 -107.677124 62.011185 -215.35431 82.68048c-107.677185 20.669281 -215.35434 41.336914 -215.35434 82.67386" fill-rule="evenodd"/><path stroke="#595959" stroke-width="1.0" stroke-linejoin="round" stroke-linecap="butt" stroke-dasharray="4.0,3.0" d="m809.2336 182.12073c0 41.34024 -107.677124 62.011185 -215.35431 82.68048c-107.677185 20.669281 -215.35434 41.336914 -215.35434 82.67386" fill-rule="evenodd"/><path fill="#000000" fill-opacity="0.0" d="m809.2336 182.12073c0 34.400894 -160.04724 51.600983 -320.09448 68.80177c-160.04724 17.20079 -320.09448 34.402267 -320.09448 68.80452" fill-rule="evenodd"/><path stroke="#595959" stroke-width="1.0" stroke-linejoin="round" stroke-linecap="butt" stroke-dasharray="4.0,3.0" d="m809.2336 182.12073c0 34.400894 -160.04724 51.600983 -320.09448 68.80177c-160.04724 17.20079 -320.09448 34.402267 -320.09448 68.80452" fill-rule="evenodd"/><path fill="#000000" fill-opacity="0.0" d="m373.49432 139.09973c0 45.156586 -51.11026 67.73442 -102.22049 90.313156c-51.11023 22.578735 -102.22046 45.15837 -102.22046 90.31676" fill-rule="evenodd"/><path stroke="#595959" stroke-width="1.0" stroke-linejoin="round" stroke-linecap="butt" stroke-dasharray="4.0,3.0" d="m373.49432 139.09973c0 45.156586 -51.11026 67.73442 -102.22049 90.313156c-51.11023 22.578735 -102.22046 45.15837 -102.22046 90.31676" fill-rule="evenodd"/><path fill="#000000" fill-opacity="0.0" d="m373.49432 139.09973c0 52.095535 1.2598267 78.143814 2.5196838 104.191055c1.2598267 26.047256 2.5196838 52.09346 2.5196838 104.186905" fill-rule="evenodd"/><path stroke="#595959" stroke-width="1.0" stroke-linejoin="round" stroke-linecap="butt" stroke-dasharray="4.0,3.0" d="m373.49432 139.09973c0 52.095535 1.2598267 78.143814 2.5196838 104.191055c1.2598267 26.047256 2.5196838 52.09346 2.5196838 104.186905" fill-rule="evenodd"/><path fill="#000000" fill-opacity="0.0" d="m373.49432 139.09973c0 51.882935 53.629913 77.824905 107.25983 103.765854c53.629944 25.940933 107.25983 51.880844 107.25983 103.7617" fill-rule="evenodd"/><path stroke="#595959" stroke-width="1.0" stroke-linejoin="round" stroke-linecap="butt" stroke-dasharray="4.0,3.0" d="m373.49432 139.09973c0 51.882935 53.629913 77.824905 107.25983 103.765854c53.629944 25.940933 107.25983 51.880844 107.25983 103.7617" fill-rule="evenodd"/><path fill="#000000" fill-opacity="0.0" d="m373.49432 139.09973c0 44.858276 105.99213 67.2874 211.98425 89.71654c105.99213 22.429138 211.98425 44.85826 211.98425 89.71654" fill-rule="evenodd"/><path stroke="#595959" stroke-width="1.0" stroke-linejoin="round" stroke-linecap="butt" stroke-dasharray="4.0,3.0" d="m373.49432 139.09973c0 44.858276 105.99213 67.2874 211.98425 89.71654c105.99213 22.429138 211.98425 44.85826 211.98425 89.71654" fill-rule="evenodd"/><path fill="#000000" fill-opacity="0.0" d="m593.671 139.09973c0 45.156586 -106.15747 67.73442 -212.31494 90.313156c-106.15747 22.578735 -212.31496 45.15837 -212.31496 90.31676" fill-rule="evenodd"/><path stroke="#595959" stroke-width="1.0" stroke-linejoin="round" stroke-linecap="butt" stroke-dasharray="4.0,3.0" d="m593.671 139.09973c0 45.156586 -106.15747 67.73442 -212.31494 90.313156c-106.15747 22.578735 -212.31496 45.15837 -212.31496 90.31676" fill-rule="evenodd"/><path fill="#000000" fill-opacity="0.0" d="m593.671 139.09973c0 52.095535 -53.787354 78.143814 -107.57477 104.191055c-53.787415 26.047256 -107.57483 52.09346 -107.57483 104.186905" fill-rule="evenodd"/><path stroke="#595959" stroke-width="1.0" stroke-linejoin="round" stroke-linecap="butt" stroke-dasharray="4.0,3.0" d="m593.671 139.09973c0 52.095535 -53.787354 78.143814 -107.57477 104.191055c-53.787415 26.047256 -107.57483 52.09346 -107.57483 104.186905" fill-rule="evenodd"/><path fill="#000000" fill-opacity="0.0" d="m593.671 139.09973c0 51.882935 -1.4172974 77.824905 -2.8345947 103.765854c-1.4173584 25.940933 -2.8346558 51.880844 -2.8346558 103.7617" fill-rule="evenodd"/><path stroke="#595959" stroke-width="1.0" stroke-linejoin="round" stroke-linecap="butt" stroke-dasharray="4.0,3.0" d="m593.671 139.09973c0 51.882935 -1.4172974 77.824905 -2.8345947 103.765854c-1.4173584 25.940933 -2.8346558 51.880844 -2.8346558 103.7617" fill-rule="evenodd"/><path fill="#000000" fill-opacity="0.0" d="m593.671 139.09973c0 44.858276 50.95276 67.2874 101.90552 89.71654c50.95276 22.429138 101.90552 44.85826 101.90552 89.71654" fill-rule="evenodd"/><path stroke="#595959" stroke-width="1.0" stroke-linejoin="round" stroke-linecap="butt" stroke-dasharray="4.0,3.0" d="m593.671 139.09973c0 44.858276 50.95276 67.2874 101.90552 89.71654c50.95276 22.429138 101.90552 44.85826 101.90552 89.71654" fill-rule="evenodd"/></g></svg>