<svg id="Layer_1" data-name="Layer 1" xmlns="http://www.w3.org/2000/svg" viewBox="0 0 769 398"><defs><style>.cls-1{fill:#fff;}.cls-2{fill:#eee;}.cls-2,.cls-4,.cls-6,.cls-7{fill-rule:evenodd;}.cls-3{fill:#595959;}.cls-4{fill:#74a4bc;}.cls-5{fill:none;stroke-linejoin:round;}.cls-5,.cls-6{stroke:#4b566b;stroke-width:2px;}.cls-6{fill:#4b566b;stroke-miterlimit:10;}.cls-7{fill-opacity:0;}.cls-8{fill:#47576e;}</style></defs><rect class="cls-1" x="-7" y="-9" width="791" height="422"/><path class="cls-2" d="M138.68,157.75H277.93v82.49H138.68Z"/><path class="cls-3" d="M181.3,196.51h.92v2.63h1.44v.78h-1.44v6.3h-.92v-6.3h-1.25v-.78h1.25Zm3.37,2.63h.93v1a3.32,3.32,0,0,1,.87-.91,1.79,1.79,0,0,1,1-.31,1.71,1.71,0,0,1,.81.25l-.47.77a1.19,1.19,0,0,0-.48-.13,1.37,1.37,0,0,0-.89.38,2.3,2.3,0,0,0-.64,1.15,10.84,10.84,0,0,0-.17,2.46v2.39h-.93Zm11.4,0v7.08h-.89V205a3.89,3.89,0,0,1-1.29,1.06,3.49,3.49,0,0,1-1.55.35,3.44,3.44,0,0,1-2.56-1.1,3.66,3.66,0,0,1-1.07-2.65,3.55,3.55,0,0,1,1.07-2.61,3.51,3.51,0,0,1,2.59-1.1,3.27,3.27,0,0,1,1.56.38,3.55,3.55,0,0,1,1.25,1.11v-1.3Zm-3.64.69a2.69,2.69,0,0,0-1.4.37,2.84,2.84,0,0,0-1,1.06,2.88,2.88,0,0,0,0,2.86,2.79,2.79,0,0,0,1,1.07,2.74,2.74,0,0,0,1.4.37,2.9,2.9,0,0,0,1.43-.37,2.66,2.66,0,0,0,1-1,2.91,2.91,0,0,0,.36-1.45,2.8,2.8,0,0,0-.82-2.06A2.65,2.65,0,0,0,192.43,199.83Zm5.7-.69H199v1.27a3.74,3.74,0,0,1,1.2-1.1,3,3,0,0,1,1.45-.36,2.49,2.49,0,0,1,1.41.41,2.31,2.31,0,0,1,.91,1.09,5.84,5.84,0,0,1,.29,2.13v3.64h-.9v-3.38a8.33,8.33,0,0,0-.1-1.64,1.72,1.72,0,0,0-.62-1,1.77,1.77,0,0,0-1.16-.36,2.27,2.27,0,0,0-1.48.54,2.51,2.51,0,0,0-.86,1.36,8.3,8.3,0,0,0-.14,1.92v2.6h-.91Zm11.69.77-.59.6a2.1,2.1,0,0,0-1.42-.7,1.11,1.11,0,0,0-.77.3.87.87,0,0,0-.31.67,1,1,0,0,0,.26.66,3.62,3.62,0,0,0,1.1.75,4,4,0,0,1,1.37,1,1.89,1.89,0,0,1,.36,1.11,2,2,0,0,1-.61,1.49,2.08,2.08,0,0,1-1.53.61,2.7,2.7,0,0,1-1.17-.27,2.73,2.73,0,0,1-.92-.73l.58-.66a2,2,0,0,0,1.48.78,1.29,1.29,0,0,0,.92-.34,1.11,1.11,0,0,0,.39-.83,1.06,1.06,0,0,0-.25-.7,4.13,4.13,0,0,0-1.15-.75,3.91,3.91,0,0,1-1.3-1,1.89,1.89,0,0,1-.34-1.11,1.83,1.83,0,0,1,.54-1.35,1.94,1.94,0,0,1,1.39-.53A2.89,2.89,0,0,1,209.82,199.91Zm1.93-3.69a.79.79,0,0,1,.76.76.71.71,0,0,1-.23.52.75.75,0,0,1-1.06,0A.7.7,0,0,1,211,197a.73.73,0,0,1,.22-.53A.74.74,0,0,1,211.75,196.22Zm-.46,2.92h.93v7.08h-.93Zm3.61-2.63h.92v2.63h1.44v.78h-1.44v6.3h-.92v-6.3h-1.25v-.78h1.25Zm4-.29a.81.81,0,0,1,.77.76.79.79,0,0,1-.77.74.74.74,0,0,1-.53-.22.7.7,0,0,1-.22-.52.73.73,0,0,1,.22-.53A.75.75,0,0,1,218.93,196.22Zm-.45,2.92h.92v7.08h-.92Zm6.15-.19a3.53,3.53,0,0,1,2.72,1.19,3.68,3.68,0,0,1,1,2.56,3.74,3.74,0,0,1-1,2.6,3.74,3.74,0,0,1-5.32,0,3.74,3.74,0,0,1-1-2.6,3.69,3.69,0,0,1,1-2.56A3.51,3.51,0,0,1,224.63,199Zm0,.89a2.58,2.58,0,0,0-1.94.85,2.82,2.82,0,0,0-.81,2,3,3,0,0,0,.36,1.44,2.69,2.69,0,0,0,1,1,2.8,2.8,0,0,0,1.39.36,2.74,2.74,0,0,0,1.39-.36,2.56,2.56,0,0,0,1-1,2.92,2.92,0,0,0,.38-1.44,2.79,2.79,0,0,0-.82-2A2.59,2.59,0,0,0,224.63,199.84Zm5.38-.7h.91v1.27a3.85,3.85,0,0,1,1.2-1.1,3.06,3.06,0,0,1,1.46-.36,2.45,2.45,0,0,1,1.4.41,2.31,2.31,0,0,1,.91,1.09,5.59,5.59,0,0,1,.3,2.13v3.64h-.91v-3.38a9.54,9.54,0,0,0-.09-1.64,1.71,1.71,0,0,0-1.79-1.4,2.27,2.27,0,0,0-1.48.54,2.57,2.57,0,0,0-.86,1.36,8.93,8.93,0,0,0-.14,1.92v2.6H230Z"/><path class="cls-3" d="M165.28,212.85h.92v2.62h1.44v.78H166.2v6.3h-.92v-6.3H164v-.78h1.25Zm3.38,2.62h.92v1a3.41,3.41,0,0,1,.87-.9,1.71,1.71,0,0,1,1-.31,1.61,1.61,0,0,1,.81.25l-.47.76a1.29,1.29,0,0,0-.48-.12,1.36,1.36,0,0,0-.89.37,2.42,2.42,0,0,0-.64,1.16,10.67,10.67,0,0,0-.17,2.45v2.39h-.92Zm11.39,0v7.08h-.89v-1.22a3.93,3.93,0,0,1-1.29,1.07,3.63,3.63,0,0,1-1.55.34,3.47,3.47,0,0,1-2.56-1.09A3.67,3.67,0,0,1,172.7,219a3.58,3.58,0,0,1,1.06-2.61,3.5,3.5,0,0,1,2.59-1.09,3.24,3.24,0,0,1,1.56.37,3.55,3.55,0,0,1,1.25,1.11v-1.3Zm-3.64.69a2.72,2.72,0,0,0-1.4.38,2.76,2.76,0,0,0-1,1.06,2.88,2.88,0,0,0-.38,1.42,3,3,0,0,0,.38,1.44,2.77,2.77,0,0,0,2.43,1.44,2.92,2.92,0,0,0,1.43-.38,2.66,2.66,0,0,0,1-1,2.89,2.89,0,0,0,.36-1.45,2.8,2.8,0,0,0-.82-2.06A2.69,2.69,0,0,0,176.41,216.16Zm5.7-.69H183v1.27a3.59,3.59,0,0,1,1.2-1.09,3,3,0,0,1,1.46-.36,2.45,2.45,0,0,1,1.4.4,2.33,2.33,0,0,1,.91,1.1,5.53,5.53,0,0,1,.29,2.12v3.64h-.9v-3.37a8.26,8.26,0,0,0-.1-1.64,1.69,1.69,0,0,0-1.78-1.41,2.23,2.23,0,0,0-1.48.55,2.44,2.44,0,0,0-.86,1.36A8.8,8.8,0,0,0,183,220v2.59h-.91Zm11.69.77-.59.61a2.06,2.06,0,0,0-1.42-.7,1.1,1.1,0,0,0-.77.29.87.87,0,0,0-.31.67,1,1,0,0,0,.27.66,3.41,3.41,0,0,0,1.09.75,3.89,3.89,0,0,1,1.37,1,1.84,1.84,0,0,1,.36,1.11,2,2,0,0,1-.61,1.48,2,2,0,0,1-1.53.61,2.7,2.7,0,0,1-1.17-.27,2.62,2.62,0,0,1-.92-.73l.58-.66a2,2,0,0,0,1.48.78,1.29,1.29,0,0,0,.92-.34,1.11,1.11,0,0,0,.39-.83,1.07,1.07,0,0,0-.25-.7,4.13,4.13,0,0,0-1.15-.75,3.78,3.78,0,0,1-1.3-1,1.85,1.85,0,0,1-.34-1.11,1.79,1.79,0,0,1,.54-1.34,1.9,1.9,0,0,1,1.39-.53A2.87,2.87,0,0,1,193.8,216.24Zm1.93-3.69a.69.69,0,0,1,.53.24.7.7,0,0,1,.23.53.69.69,0,0,1-.23.51.71.71,0,0,1-.53.22.73.73,0,0,1-.53-.22.68.68,0,0,1-.22-.51.69.69,0,0,1,.22-.53A.71.71,0,0,1,195.73,212.55Zm-.46,2.92h.93v7.08h-.93Zm3.61-2.62h.92v2.62h1.44v.78H199.8v6.3h-.92v-6.3h-1.25v-.78h1.25Zm4-.3a.83.83,0,0,1,.77.77.67.67,0,0,1-.24.51.69.69,0,0,1-.53.22.74.74,0,0,1-.53-.22.68.68,0,0,1-.22-.51.69.69,0,0,1,.22-.53A.72.72,0,0,1,202.91,212.55Zm-.45,2.92h.92v7.08h-.92Zm6.15-.18a3.51,3.51,0,0,1,2.72,1.18,3.71,3.71,0,0,1,1,2.57,3.67,3.67,0,0,1-1,2.59,3.48,3.48,0,0,1-2.66,1.11,3.44,3.44,0,0,1-2.65-1.11,3.68,3.68,0,0,1-1-2.59,3.71,3.71,0,0,1,1-2.57A3.5,3.5,0,0,1,208.61,215.29Zm0,.89a2.62,2.62,0,0,0-1.94.84,2.82,2.82,0,0,0-.81,2,3,3,0,0,0,.36,1.44,2.62,2.62,0,0,0,1,1,2.8,2.8,0,0,0,1.39.36,2.72,2.72,0,0,0,1.39-.36,2.49,2.49,0,0,0,1-1,2.92,2.92,0,0,0,.38-1.44,2.79,2.79,0,0,0-.82-2A2.61,2.61,0,0,0,208.61,216.18Zm5.38-.71h.91v1.27a3.79,3.79,0,0,1,1.2-1.09,3.06,3.06,0,0,1,1.46-.36,2.45,2.45,0,0,1,1.4.4,2.33,2.33,0,0,1,.91,1.1,5.5,5.5,0,0,1,.3,2.12v3.64h-.91v-3.37a9.46,9.46,0,0,0-.09-1.64,1.84,1.84,0,0,0-.63-1,1.76,1.76,0,0,0-1.15-.36,2.24,2.24,0,0,0-1.49.55A2.5,2.5,0,0,0,215,218a8.8,8.8,0,0,0-.14,1.92v2.59H214Zm12.62-2.62h.92v2.62H229v.78h-1.44v6.3h-.92v-6.3h-1.25v-.78h1.25Zm4-.3a.83.83,0,0,1,.77.77.67.67,0,0,1-.24.51.69.69,0,0,1-.53.22.74.74,0,0,1-.53-.22.68.68,0,0,1-.22-.51.69.69,0,0,1,.22-.53A.72.72,0,0,1,230.64,212.55Zm-.45,2.92h.92v7.08h-.92Zm2.81,0h.89v1.22a3.63,3.63,0,0,1,1-1,2.77,2.77,0,0,1,1.46-.42,2.23,2.23,0,0,1,1,.2,1.79,1.79,0,0,1,.75.55,2.7,2.7,0,0,1,.52,1,3.37,3.37,0,0,1,1.14-1.27,2.7,2.7,0,0,1,1.47-.43,2.3,2.3,0,0,1,1.3.37,2.16,2.16,0,0,1,.82,1.05,5.23,5.23,0,0,1,.29,2v3.86h-.93v-3.86a4.59,4.59,0,0,0-.17-1.56,1.31,1.31,0,0,0-.56-.69,1.6,1.6,0,0,0-.94-.26,2,2,0,0,0-1.2.39,2.26,2.26,0,0,0-.81,1,6.55,6.55,0,0,0-.25,2.18v2.76h-.91v-3.62a6,6,0,0,0-.16-1.74,1.32,1.32,0,0,0-.56-.73,1.54,1.54,0,0,0-.94-.28,2,2,0,0,0-1.18.39,2.26,2.26,0,0,0-.82,1,5.68,5.68,0,0,0-.26,2v3H233Zm18.45,4.74.78.39a4.08,4.08,0,0,1-.89,1.2,3.37,3.37,0,0,1-1.11.7,3.75,3.75,0,0,1-1.39.24,3.42,3.42,0,0,1-2.72-1.14,3.88,3.88,0,0,1-1-2.56,3.78,3.78,0,0,1,.82-2.41,3.38,3.38,0,0,1,2.82-1.34,3.48,3.48,0,0,1,2.89,1.37,3.85,3.85,0,0,1,.78,2.42h-6.38a2.94,2.94,0,0,0,.78,2,2.55,2.55,0,0,0,1.89.79,3.05,3.05,0,0,0,1.05-.19,2.77,2.77,0,0,0,.88-.5A4.08,4.08,0,0,0,251.45,220.21Zm0-1.91a2.76,2.76,0,0,0-.53-1.17,2.42,2.42,0,0,0-.92-.7,2.73,2.73,0,0,0-1.19-.27,2.59,2.59,0,0,0-1.8.67,3.05,3.05,0,0,0-.82,1.47Z"/><path class="cls-4" d="M138.68,157.75H277.93v30.17H138.68Z"/><path class="cls-1" d="M152.34,168.06h1.91a10.87,10.87,0,0,1,2.15.14,2.38,2.38,0,0,1,1.39.83,2.34,2.34,0,0,1,.53,1.58A2.51,2.51,0,0,1,158,172a2.29,2.29,0,0,1-1,.91,5,5,0,0,1-1.89.29l3.45,4.46h-1.18l-3.44-4.46h-.55v4.46h-.95Zm.95.94v3.26h1.64a4.41,4.41,0,0,0,1.42-.17,1.52,1.52,0,0,0,.71-.58,1.66,1.66,0,0,0,.26-.9,1.57,1.57,0,0,0-.26-.88,1.4,1.4,0,0,0-.67-.56A4,4,0,0,0,155,169Zm6.81,1.56H161v3.3a6.75,6.75,0,0,0,.14,1.67,1.84,1.84,0,0,0,.74,1,2.24,2.24,0,0,0,1.31.37,2.28,2.28,0,0,0,1.3-.36,1.91,1.91,0,0,0,.73-1,7.82,7.82,0,0,0,.13-1.75v-3.3h.93V174a5.54,5.54,0,0,1-.34,2.22,2.61,2.61,0,0,1-1,1.15,3.25,3.25,0,0,1-1.72.42,3.28,3.28,0,0,1-1.73-.42,2.63,2.63,0,0,1-1-1.17,5.69,5.69,0,0,1-.34-2.27Zm8.23,0h.9v1.26a3.83,3.83,0,0,1,1.21-1.09,3,3,0,0,1,1.45-.36,2.51,2.51,0,0,1,1.41.41,2.29,2.29,0,0,1,.9,1.09,5.59,5.59,0,0,1,.3,2.13v3.64h-.91v-3.38a9.54,9.54,0,0,0-.09-1.64,1.79,1.79,0,0,0-.63-1.05,1.74,1.74,0,0,0-1.15-.36,2.31,2.31,0,0,0-1.49.55,2.63,2.63,0,0,0-.86,1.36,8.86,8.86,0,0,0-.14,1.92v2.6h-.9Zm11,5.3.81-.49c.58,1,1.24,1.58,2,1.58a1.94,1.94,0,0,0,.91-.22,1.71,1.71,0,0,0,.64-.61,1.52,1.52,0,0,0,.23-.8,1.63,1.63,0,0,0-.33-.95,8.1,8.1,0,0,0-1.64-1.53,8.5,8.5,0,0,1-1.5-1.31,2.43,2.43,0,0,1-.5-1.46,2.26,2.26,0,0,1,.3-1.14,2.18,2.18,0,0,1,.84-.81,2.45,2.45,0,0,1,1.19-.3,2.41,2.41,0,0,1,1.25.35,4.15,4.15,0,0,1,1.25,1.22L184,170A3.54,3.54,0,0,0,183,169a1.6,1.6,0,0,0-.83-.23,1.31,1.31,0,0,0-1,.36,1.13,1.13,0,0,0-.36.86,1.62,1.62,0,0,0,.12.61,2.48,2.48,0,0,0,.49.64c.12.11.53.43,1.23.95a6.68,6.68,0,0,1,1.7,1.64,2.48,2.48,0,0,1,.47,1.42,2.43,2.43,0,0,1-.8,1.82,2.63,2.63,0,0,1-1.92.76,2.88,2.88,0,0,1-1.58-.45A4.59,4.59,0,0,1,179.3,175.86Zm8.28-7.93h.92v2.63h1.44v.78H188.5v6.3h-.92v-6.3h-1.25v-.78h1.25Zm10.77,2.63v7.08h-.89v-1.22a4,4,0,0,1-1.3,1.06,3.6,3.6,0,0,1-4.11-.75,3.66,3.66,0,0,1-1.06-2.66,3.58,3.58,0,0,1,1.06-2.61,3.54,3.54,0,0,1,2.59-1.09,3.28,3.28,0,0,1,1.57.38,3.64,3.64,0,0,1,1.25,1.11v-1.3Zm-3.64.69a2.75,2.75,0,0,0-1.41.37,2.84,2.84,0,0,0-1,1.06,2.88,2.88,0,0,0,0,2.86,2.72,2.72,0,0,0,2.44,1.44,2.87,2.87,0,0,0,1.42-.37,2.59,2.59,0,0,0,1-1,2.91,2.91,0,0,0,.36-1.45,2.85,2.85,0,0,0-.81-2.07A2.69,2.69,0,0,0,194.71,171.25Zm6.49-3.32h.92v2.63h1.44v.78h-1.44v6.3h-.92v-6.3H200v-.78h1.25Zm9.67,7.36.79.39a4.47,4.47,0,0,1-.89,1.21,3.44,3.44,0,0,1-2.5.93,3.39,3.39,0,0,1-2.72-1.14,3.83,3.83,0,0,1-1-2.56,3.73,3.73,0,0,1,.83-2.41,3.37,3.37,0,0,1,2.81-1.34,3.48,3.48,0,0,1,2.89,1.38,3.83,3.83,0,0,1,.78,2.42h-6.37a3,3,0,0,0,.78,2,2.54,2.54,0,0,0,1.89.78,2.82,2.82,0,0,0,1-.19,2.6,2.6,0,0,0,.88-.5A4.08,4.08,0,0,0,210.87,175.29Zm0-1.9a2.86,2.86,0,0,0-.53-1.18,2.45,2.45,0,0,0-.92-.7,2.69,2.69,0,0,0-1.19-.26,2.59,2.59,0,0,0-1.79.67,3,3,0,0,0-.83,1.47Zm6.59-5.33h.95v5.78a10.74,10.74,0,0,0,0,1.28,2.37,2.37,0,0,0,.32.95,2.1,2.1,0,0,0,.8.64,2.55,2.55,0,0,0,1.09.25,2.13,2.13,0,0,0,.93-.2,1.79,1.79,0,0,0,.71-.56,2.26,2.26,0,0,0,.44-.86,7.47,7.47,0,0,0,.1-1.5v-5.78h.95v5.78a7,7,0,0,1-.25,2.08,2.9,2.9,0,0,1-2.81,2,3.49,3.49,0,0,1-2-.55,2.64,2.64,0,0,1-1.11-1.46,8.25,8.25,0,0,1-.17-2Zm8.56,2.5h.9v1.3a3.7,3.7,0,0,1,1.24-1.11,3.28,3.28,0,0,1,1.57-.38,3.7,3.7,0,0,1,3.66,3.7,3.66,3.66,0,0,1-1.06,2.66,3.46,3.46,0,0,1-2.58,1.09,3.56,3.56,0,0,1-1.56-.34,3.93,3.93,0,0,1-1.27-1.06v3.81H226Zm3.64.69a2.69,2.69,0,0,0-2,.82,2.88,2.88,0,0,0-.8,2.07,2.91,2.91,0,0,0,.36,1.45,2.59,2.59,0,0,0,1,1,2.87,2.87,0,0,0,1.42.37,2.72,2.72,0,0,0,2.41-1.44,2.82,2.82,0,0,0,0-2.86,2.74,2.74,0,0,0-1-1.06A2.69,2.69,0,0,0,229.66,171.25Zm12.49-3.43v9.82h-.89v-1.22a3.89,3.89,0,0,1-1.29,1.06,3.63,3.63,0,0,1-4.13-.75,3.66,3.66,0,0,1-1.06-2.66,3.7,3.7,0,0,1,3.66-3.7,3.26,3.26,0,0,1,1.57.38,3.55,3.55,0,0,1,1.25,1.11v-4Zm-3.64,3.43a2.69,2.69,0,0,0-1.4.37,2.84,2.84,0,0,0-1,1.06,2.88,2.88,0,0,0,0,2.86,2.8,2.8,0,0,0,3.84,1.07,2.59,2.59,0,0,0,1-1,3,3,0,0,0-.44-3.52A2.68,2.68,0,0,0,238.51,171.25Zm12.76-.69v7.08h-.89v-1.22a4,4,0,0,1-1.3,1.06,3.6,3.6,0,0,1-4.11-.75,3.66,3.66,0,0,1-1.06-2.66,3.67,3.67,0,0,1,3.66-3.7,3.27,3.27,0,0,1,1.56.38,3.64,3.64,0,0,1,1.25,1.11v-1.3Zm-3.64.69a2.75,2.75,0,0,0-1.41.37,2.93,2.93,0,0,0-1,3.92,2.87,2.87,0,0,0,1,1.07,2.8,2.8,0,0,0,1.41.37,2.87,2.87,0,0,0,1.42-.37,2.59,2.59,0,0,0,1-1,2.91,2.91,0,0,0,.36-1.45,2.85,2.85,0,0,0-.81-2.07A2.69,2.69,0,0,0,247.63,171.25Zm6.49-3.32h.93v2.63h1.43v.78h-1.43v6.3h-.93v-6.3h-1.25v-.78h1.25Zm9.68,7.36.78.39a4.47,4.47,0,0,1-.89,1.21,3.44,3.44,0,0,1-2.5.93,3.39,3.39,0,0,1-2.72-1.14,3.89,3.89,0,0,1-.14-5,3.39,3.39,0,0,1,2.81-1.34,3.48,3.48,0,0,1,2.89,1.38,3.83,3.83,0,0,1,.78,2.42h-6.37a3,3,0,0,0,.78,2,2.54,2.54,0,0,0,1.89.78,2.91,2.91,0,0,0,1.05-.19,2.65,2.65,0,0,0,.87-.5A4.08,4.08,0,0,0,263.8,175.29Zm0-1.9a3.15,3.15,0,0,0-.53-1.18,2.48,2.48,0,0,0-.93-.7,2.67,2.67,0,0,0-1.18-.26,2.59,2.59,0,0,0-1.8.67,3,3,0,0,0-.83,1.47Z"/><path class="cls-2" d="M363.68,40.68H487.3v82.49H363.68Z"/><path class="cls-3" d="M400.2,82.07h.92v1a3.29,3.29,0,0,1,.88-.9,1.7,1.7,0,0,1,1-.32,1.75,1.75,0,0,1,.82.25l-.47.77a1.38,1.38,0,0,0-.49-.12,1.36,1.36,0,0,0-.89.37,2.42,2.42,0,0,0-.64,1.16,11.31,11.31,0,0,0-.17,2.45v2.39h-.92Zm4.23,0h.92v3.3a6.75,6.75,0,0,0,.14,1.67,1.8,1.8,0,0,0,.73,1,2.3,2.3,0,0,0,1.32.38,2.23,2.23,0,0,0,1.29-.36,2,2,0,0,0,.74-1,8,8,0,0,0,.12-1.75v-3.3h.94v3.47a5.73,5.73,0,0,1-.34,2.22,2.71,2.71,0,0,1-1,1.16,3.21,3.21,0,0,1-1.71.42,3.35,3.35,0,0,1-1.74-.42,2.68,2.68,0,0,1-1-1.18,5.66,5.66,0,0,1-.34-2.26Zm8.22,0h.91v1.27a3.85,3.85,0,0,1,1.2-1.1,3.06,3.06,0,0,1,1.46-.36,2.45,2.45,0,0,1,1.4.41,2.36,2.36,0,0,1,.91,1.09,5.59,5.59,0,0,1,.3,2.13v3.64h-.91V85.78a9.69,9.69,0,0,0-.09-1.65,1.85,1.85,0,0,0-.63-1,1.77,1.77,0,0,0-1.16-.36,2.23,2.23,0,0,0-1.48.55,2.51,2.51,0,0,0-.86,1.35,9,9,0,0,0-.14,1.93v2.59h-.91Zm11.7,0h.92v3.3a6.75,6.75,0,0,0,.14,1.67,1.8,1.8,0,0,0,.73,1,2.3,2.3,0,0,0,1.32.38,2.23,2.23,0,0,0,1.29-.36,2,2,0,0,0,.74-1,8,8,0,0,0,.12-1.75v-3.3h.94v3.47a5.54,5.54,0,0,1-.34,2.22,2.75,2.75,0,0,1-1,1.16,3.27,3.27,0,0,1-1.72.42,3.35,3.35,0,0,1-1.74-.42,2.68,2.68,0,0,1-1-1.18,5.66,5.66,0,0,1-.34-2.26Zm8.1,0h.92v3.3a6.75,6.75,0,0,0,.14,1.67,1.81,1.81,0,0,0,.74,1,2.25,2.25,0,0,0,1.31.38,2.28,2.28,0,0,0,1.3-.36,2,2,0,0,0,.73-1,7.36,7.36,0,0,0,.12-1.75v-3.3h.94v3.47a5.54,5.54,0,0,1-.34,2.22,2.69,2.69,0,0,1-1,1.16,3.25,3.25,0,0,1-1.72.42,3.35,3.35,0,0,1-1.74-.42,2.75,2.75,0,0,1-1-1.18,5.66,5.66,0,0,1-.34-2.26ZM441,79.15a.72.72,0,0,1,.53.23.7.7,0,0,1,.23.54.66.66,0,0,1-.23.51.71.71,0,0,1-.53.22.73.73,0,0,1-.53-.22.68.68,0,0,1-.22-.51.77.77,0,0,1,.75-.77Zm-.45,2.92h.92v7.08h-.92Zm9.87-2.73v9.81h-.89V87.93a4,4,0,0,1-1.3,1.06,3.46,3.46,0,0,1-1.55.35,3.5,3.5,0,0,1-2.58-1.1A3.69,3.69,0,0,1,443,85.59,3.56,3.56,0,0,1,444.11,83a3.5,3.5,0,0,1,2.58-1.1,3.32,3.32,0,0,1,1.58.38,3.64,3.64,0,0,1,1.25,1.11v-4Zm-3.64,3.42a2.75,2.75,0,0,0-1.41.37,2.79,2.79,0,0,0-1,1.07,2.88,2.88,0,0,0-.38,1.42,3,3,0,0,0,.38,1.44,2.84,2.84,0,0,0,1,1.06,2.8,2.8,0,0,0,1.41.37,2.74,2.74,0,0,0,1.4-.37,2.59,2.59,0,0,0,1-1,3,3,0,0,0-.43-3.51A2.7,2.7,0,0,0,446.77,82.76Z"/><path class="cls-4" d="M363.68,40.68H487.3V70.86H363.68Z"/><path class="cls-1" d="M414.55,51h1.91a10.87,10.87,0,0,1,2.15.14A2.4,2.4,0,0,1,420,52a2.37,2.37,0,0,1,.54,1.58,2.49,2.49,0,0,1-.38,1.37,2.29,2.29,0,0,1-1.05.91,4.71,4.71,0,0,1-1.89.3l3.46,4.45h-1.19l-3.44-4.45h-.55v4.45h-.95Zm.95.94v3.26h1.64a4.25,4.25,0,0,0,1.43-.17,1.48,1.48,0,0,0,.7-.58,1.59,1.59,0,0,0,.27-.9,1.5,1.5,0,0,0-.27-.88,1.4,1.4,0,0,0-.67-.56,4.22,4.22,0,0,0-1.41-.17Zm6.81,1.56h.92v3.3a6.75,6.75,0,0,0,.14,1.67,1.81,1.81,0,0,0,.74,1,2.25,2.25,0,0,0,1.31.38,2.28,2.28,0,0,0,1.3-.36,1.94,1.94,0,0,0,.73-1,7.19,7.19,0,0,0,.13-1.75v-3.3h.94V57a5.52,5.52,0,0,1-.35,2.22,2.61,2.61,0,0,1-1,1.15,3.16,3.16,0,0,1-1.72.43,3.22,3.22,0,0,1-1.73-.43,2.61,2.61,0,0,1-1-1.17,5.63,5.63,0,0,1-.35-2.26Zm8.23,0h.91v1.27a3.74,3.74,0,0,1,1.2-1.1,3,3,0,0,1,1.45-.36,2.51,2.51,0,0,1,1.41.41,2.29,2.29,0,0,1,.9,1.09,5.59,5.59,0,0,1,.3,2.13v3.64h-.9V57.19a9.22,9.22,0,0,0-.1-1.64,1.75,1.75,0,0,0-.62-1,1.79,1.79,0,0,0-1.16-.36,2.25,2.25,0,0,0-1.48.54,2.51,2.51,0,0,0-.86,1.36,8.35,8.35,0,0,0-.14,1.93v2.59h-.91Z"/><path class="cls-2" d="M363.68,157.76H487.3v82.48H363.68Z"/><path class="cls-3" d="M408.85,196.22a.71.71,0,0,1,.53.24.73.73,0,0,1,.22.53.7.7,0,0,1-.22.51.76.76,0,0,1-1.07,0,.69.69,0,0,1-.21-.51.72.72,0,0,1,.21-.53A.71.71,0,0,1,408.85,196.22Zm-.46,2.93h.92v8.14a2.11,2.11,0,0,1-.32,1.29,1.05,1.05,0,0,1-.88.41,3,3,0,0,1-1.05-.22V208a1.6,1.6,0,0,0,.66.19.61.61,0,0,0,.56-.32,1.76,1.76,0,0,0,.11-.81Zm6.16-.19a3.48,3.48,0,0,1,2.72,1.19,3.82,3.82,0,0,1-.06,5.15,3.73,3.73,0,0,1-5.31,0,3.8,3.8,0,0,1,0-5.15A3.47,3.47,0,0,1,414.55,199Zm0,.89a2.58,2.58,0,0,0-1.93.84,2.79,2.79,0,0,0-.82,2,3,3,0,0,0,.36,1.44,2.72,2.72,0,0,0,1,1,2.8,2.8,0,0,0,1.39.36,2.72,2.72,0,0,0,1.39-.36,2.52,2.52,0,0,0,1-1,2.92,2.92,0,0,0,.38-1.44,2.82,2.82,0,0,0-.81-2A2.65,2.65,0,0,0,414.55,199.85Zm5.45,6.37v-9.81h.9v4a3.86,3.86,0,0,1,1.27-1,3.57,3.57,0,0,1,4.13.73,3.79,3.79,0,0,1,0,5.28,3.52,3.52,0,0,1-2.58,1.08,3.29,3.29,0,0,1-1.58-.37,3.7,3.7,0,0,1-1.24-1.11v1.29Zm3.64-.7a2.84,2.84,0,0,0,1.41-.36,2.76,2.76,0,0,0,1-1,2.84,2.84,0,0,0,0-2.87,2.81,2.81,0,0,0-2.41-1.45,2.79,2.79,0,0,0-1.42.39,2.73,2.73,0,0,0-1,1,2.93,2.93,0,0,0-.36,1.46,2.83,2.83,0,0,0,.81,2.06A2.72,2.72,0,0,0,423.64,205.52Zm9.39-9.3a.83.83,0,0,1,.77.77.65.65,0,0,1-.24.51.69.69,0,0,1-.53.22.74.74,0,0,1-.53-.22.67.67,0,0,1-.22-.51.69.69,0,0,1,.22-.53A.72.72,0,0,1,433,196.22Zm-.45,2.93h.92v7.07h-.92Zm9.87-2.74v9.81h-.89V205a4.06,4.06,0,0,1-1.3,1.07,3.62,3.62,0,0,1-4.12-.75,3.68,3.68,0,0,1-1.07-2.66,3.56,3.56,0,0,1,1.08-2.61,3.49,3.49,0,0,1,2.58-1.09,3.32,3.32,0,0,1,1.58.37,3.64,3.64,0,0,1,1.25,1.11v-4Zm-3.64,3.42a2.77,2.77,0,0,0-2.44,1.44,2.87,2.87,0,0,0-.37,1.42,3,3,0,0,0,.37,1.44,2.76,2.76,0,0,0,1,1.06,2.81,2.81,0,0,0,1.41.38,2.75,2.75,0,0,0,1.4-.38,2.66,2.66,0,0,0,1-1,2.86,2.86,0,0,0,.37-1.46,2.83,2.83,0,0,0-.81-2.06A2.7,2.7,0,0,0,438.81,199.83Z"/><path class="cls-3" d="M382,212.56h1.05a13.54,13.54,0,0,0-1,3.06,17,17,0,0,0-.38,3.59,19.92,19.92,0,0,0,.28,3.32,13,13,0,0,0,.82,2.79h-1a13.17,13.17,0,0,1-.79-2.72,19.11,19.11,0,0,1-.28-3.26,18.14,18.14,0,0,1,.35-3.56A15.72,15.72,0,0,1,382,212.56Zm2.87,2.92h.91v1.26a3.92,3.92,0,0,1,1.2-1.09,3.06,3.06,0,0,1,1.46-.36,2.45,2.45,0,0,1,1.4.41,2.31,2.31,0,0,1,.91,1.09,5.59,5.59,0,0,1,.3,2.13v3.64h-.91v-3.38a9.54,9.54,0,0,0-.09-1.64,1.84,1.84,0,0,0-.63-1,1.76,1.76,0,0,0-1.15-.36,2.29,2.29,0,0,0-1.49.55,2.57,2.57,0,0,0-.86,1.36,8.86,8.86,0,0,0-.14,1.92v2.6h-.91Zm15.18,0v7.08h-.89v-1.22a4,4,0,0,1-1.3,1.06,3.6,3.6,0,0,1-4.11-.75A3.66,3.66,0,0,1,392.7,219a3.67,3.67,0,0,1,3.66-3.7,3.27,3.27,0,0,1,1.56.38,3.55,3.55,0,0,1,1.25,1.11v-1.3Zm-3.64.69a2.75,2.75,0,0,0-1.41.37,2.93,2.93,0,0,0-1,3.92,2.87,2.87,0,0,0,1,1.07,2.8,2.8,0,0,0,1.41.37,2.87,2.87,0,0,0,1.42-.37,2.59,2.59,0,0,0,1-1,2.91,2.91,0,0,0,.36-1.45,2.85,2.85,0,0,0-.81-2.07A2.69,2.69,0,0,0,396.42,216.17Zm5.7-.69H403v1.22a3.68,3.68,0,0,1,1-1,2.77,2.77,0,0,1,1.46-.42,2.39,2.39,0,0,1,1,.2,1.88,1.88,0,0,1,.75.55,2.89,2.89,0,0,1,.52,1,3.33,3.33,0,0,1,1.14-1.26,2.72,2.72,0,0,1,1.47-.44,2.31,2.31,0,0,1,1.3.38,2.13,2.13,0,0,1,.82,1,5.25,5.25,0,0,1,.29,2v3.86h-.93V218.7a4.7,4.7,0,0,0-.17-1.57,1.25,1.25,0,0,0-.56-.68,1.6,1.6,0,0,0-.94-.27,2,2,0,0,0-1.2.39,2.23,2.23,0,0,0-.81,1.05,6.52,6.52,0,0,0-.25,2.17v2.77h-.91v-3.63a6,6,0,0,0-.16-1.73,1.35,1.35,0,0,0-.56-.74,1.61,1.61,0,0,0-.94-.28,2,2,0,0,0-1.18.39,2.24,2.24,0,0,0-.82,1,5.61,5.61,0,0,0-.26,2v3h-.89Zm18.45,4.73.78.39a4.27,4.27,0,0,1-.89,1.21,3.55,3.55,0,0,1-1.11.7,3.75,3.75,0,0,1-1.39.23,3.42,3.42,0,0,1-2.72-1.14,3.87,3.87,0,0,1-1-2.56,3.78,3.78,0,0,1,.82-2.41,3.41,3.41,0,0,1,2.82-1.34,3.49,3.49,0,0,1,2.89,1.38,3.83,3.83,0,0,1,.78,2.42h-6.38a3,3,0,0,0,.78,2,2.54,2.54,0,0,0,1.89.78,2.84,2.84,0,0,0,1.05-.19,2.6,2.6,0,0,0,.88-.5A4.08,4.08,0,0,0,420.57,220.21Zm0-1.9a2.86,2.86,0,0,0-.53-1.18,2.53,2.53,0,0,0-.92-.7,2.72,2.72,0,0,0-1.19-.26,2.59,2.59,0,0,0-1.8.67,3,3,0,0,0-.82,1.47Zm6.46,4.25v-9.82h.91v4a3.68,3.68,0,0,1,1.27-1,3.41,3.41,0,0,1,1.56-.36,3.47,3.47,0,0,1,2.56,1.09,3.78,3.78,0,0,1,0,5.29,3.55,3.55,0,0,1-2.58,1.07,3.32,3.32,0,0,1-1.58-.37,3.68,3.68,0,0,1-1.23-1.11v1.3Zm3.64-.71a2.84,2.84,0,0,0,1.41-.36,2.68,2.68,0,0,0,1-1,2.89,2.89,0,0,0,.39-1.44,2.83,2.83,0,0,0-.39-1.44,2.65,2.65,0,0,0-1-1.06,2.56,2.56,0,0,0-1.37-.39,2.79,2.79,0,0,0-1.42.39,2.71,2.71,0,0,0-1,1,2.89,2.89,0,0,0-.36,1.45,2.83,2.83,0,0,0,.81,2.06A2.74,2.74,0,0,0,430.67,221.85Zm12.44-6.37v7.08h-.89v-1.22a4,4,0,0,1-1.3,1.06,3.6,3.6,0,0,1-4.11-.75,3.66,3.66,0,0,1-1.06-2.66,3.67,3.67,0,0,1,3.66-3.7,3.27,3.27,0,0,1,1.56.38,3.64,3.64,0,0,1,1.25,1.11v-1.3Zm-3.64.69a2.75,2.75,0,0,0-1.41.37,2.93,2.93,0,0,0-1,3.92,2.87,2.87,0,0,0,1,1.07,2.8,2.8,0,0,0,1.41.37,2.87,2.87,0,0,0,1.42-.37,2.59,2.59,0,0,0,1-1,2.91,2.91,0,0,0,.36-1.45,2.85,2.85,0,0,0-.81-2.07A2.69,2.69,0,0,0,439.47,216.17Zm9.26.07-.59.61a2.08,2.08,0,0,0-1.43-.7,1.09,1.09,0,0,0-.76.3.85.85,0,0,0-.31.67,1,1,0,0,0,.26.66,3.86,3.86,0,0,0,1.1.75,4.12,4.12,0,0,1,1.37,1,1.84,1.84,0,0,1,.36,1.11,2,2,0,0,1-.61,1.48,2.07,2.07,0,0,1-1.53.61,2.63,2.63,0,0,1-1.17-.26,2.56,2.56,0,0,1-.92-.74l.57-.65a2,2,0,0,0,1.49.78,1.36,1.36,0,0,0,.92-.34,1.1,1.1,0,0,0,.14-1.54,4.77,4.77,0,0,0-1.16-.75,3.82,3.82,0,0,1-1.29-1,1.9,1.9,0,0,1-.35-1.11,1.82,1.82,0,0,1,.55-1.35,1.93,1.93,0,0,1,1.39-.53A2.93,2.93,0,0,1,448.73,216.24Zm7.56,4,.79.39a4.49,4.49,0,0,1-.9,1.21,3.62,3.62,0,0,1-1.1.7,3.81,3.81,0,0,1-1.4.23A3.38,3.38,0,0,1,451,221.6a3.83,3.83,0,0,1-1-2.56,3.73,3.73,0,0,1,.83-2.41,3.37,3.37,0,0,1,2.81-1.34,3.48,3.48,0,0,1,2.89,1.38,3.83,3.83,0,0,1,.78,2.42h-6.38a3,3,0,0,0,.79,2,2.54,2.54,0,0,0,1.89.78,2.82,2.82,0,0,0,1-.19,2.6,2.6,0,0,0,.88-.5A4.08,4.08,0,0,0,456.29,220.21Zm0-1.9a2.86,2.86,0,0,0-.53-1.18,2.45,2.45,0,0,0-.92-.7,2.69,2.69,0,0,0-1.19-.26,2.59,2.59,0,0,0-1.79.67,3,3,0,0,0-.83,1.47Zm9.78-5.57v9.82h-.9v-1.22a3.89,3.89,0,0,1-1.29,1.06,3.63,3.63,0,0,1-4.13-.75,3.66,3.66,0,0,1-1.06-2.66,3.7,3.7,0,0,1,3.66-3.7,3.26,3.26,0,0,1,1.57.38,3.55,3.55,0,0,1,1.25,1.11v-4Zm-3.65,3.43a2.72,2.72,0,0,0-1.4.37,2.84,2.84,0,0,0-1,1.06,2.88,2.88,0,0,0,0,2.86,2.8,2.8,0,0,0,3.84,1.07,2.59,2.59,0,0,0,1-1,3,3,0,0,0-.44-3.52A2.68,2.68,0,0,0,462.42,216.17Zm6.56,9.15h-1.05a12.89,12.89,0,0,0,1-3,16.55,16.55,0,0,0,.39-3.6,17.87,17.87,0,0,0-.3-3.31,12.81,12.81,0,0,0-.8-2.81h1a12.72,12.72,0,0,1,.77,2.73,17.44,17.44,0,0,1,.3,3.27,18.21,18.21,0,0,1-.35,3.56A16,16,0,0,1,469,225.32Z"/><path class="cls-4" d="M363.68,157.76H487.3v30.17H363.68Z"/><path class="cls-1" d="M417.67,168.06h1v6.47a6.23,6.23,0,0,1-.24,2.08,1.84,1.84,0,0,1-.78.92,2.33,2.33,0,0,1-1.3.35,3.29,3.29,0,0,1-1.14-.22,4.76,4.76,0,0,1-1.25-.8l.5-.75a7.92,7.92,0,0,0,1.25.73,1.57,1.57,0,0,0,.64.15,1.21,1.21,0,0,0,.74-.24,1.26,1.26,0,0,0,.47-.66,6.05,6.05,0,0,0,.14-1.59Zm6.48,2.32a3.51,3.51,0,0,1,2.72,1.18,3.71,3.71,0,0,1,1,2.57,3.67,3.67,0,0,1-1,2.59,3.73,3.73,0,0,1-5.31,0,3.67,3.67,0,0,1-1-2.59,3.71,3.71,0,0,1,1-2.57A3.5,3.5,0,0,1,424.15,170.38Zm0,.89a2.58,2.58,0,0,0-1.93.84,2.79,2.79,0,0,0-.82,2,3,3,0,0,0,.36,1.44,2.62,2.62,0,0,0,1,1,2.8,2.8,0,0,0,1.39.36,2.72,2.72,0,0,0,1.39-.36,2.43,2.43,0,0,0,1-1,2.92,2.92,0,0,0,.38-1.44,2.82,2.82,0,0,0-.81-2A2.63,2.63,0,0,0,424.15,171.27Zm5.45,6.37v-9.81h.91v3.95a3.51,3.51,0,0,1,1.26-1,3.57,3.57,0,0,1,4.13.73,3.79,3.79,0,0,1,0,5.28,3.52,3.52,0,0,1-2.58,1.08,3.32,3.32,0,0,1-1.58-.38,3.58,3.58,0,0,1-1.23-1.11v1.3Zm3.64-.7a2.84,2.84,0,0,0,1.41-.36,2.76,2.76,0,0,0,1-1.05,2.89,2.89,0,0,0,.39-1.44,2.8,2.8,0,0,0-.39-1.43,2.66,2.66,0,0,0-1-1.07,2.59,2.59,0,0,0-1.37-.39,2.82,2.82,0,0,0-1.43.39,2.75,2.75,0,0,0-1,1,2.91,2.91,0,0,0-.36,1.45,2.85,2.85,0,0,0,.81,2.07A2.72,2.72,0,0,0,433.24,176.94Z"/><path class="cls-2" d="M363.68,274.83H487.3v82.49H363.68Z"/><path class="cls-3" d="M400.72,313.48v9.82h-.89v-1.22a4,4,0,0,1-1.29,1.06,3.63,3.63,0,0,1-4.13-.75,3.66,3.66,0,0,1-1.06-2.66,3.56,3.56,0,0,1,1.08-2.61A3.49,3.49,0,0,1,397,316a3.3,3.3,0,0,1,1.58.38,3.62,3.62,0,0,1,1.25,1.1v-4Zm-3.64,3.43a2.69,2.69,0,0,0-1.4.37,2.86,2.86,0,0,0-1,1.06,2.9,2.9,0,0,0-.37,1.42,2.94,2.94,0,0,0,.37,1.44,2.79,2.79,0,0,0,1,1.06,2.66,2.66,0,0,0,1.4.38,2.72,2.72,0,0,0,1.41-.38,2.51,2.51,0,0,0,1-1,2.82,2.82,0,0,0,.37-1.45,2.85,2.85,0,0,0-.81-2.07A2.69,2.69,0,0,0,397.08,316.91Zm12.76-.69v7.08H409v-1.22a4,4,0,0,1-1.3,1.06,3.6,3.6,0,0,1-4.11-.75,3.66,3.66,0,0,1-1.06-2.66,3.58,3.58,0,0,1,1.06-2.61,3.54,3.54,0,0,1,2.59-1.09,3.28,3.28,0,0,1,1.57.38,3.71,3.71,0,0,1,1.25,1.1v-1.29Zm-3.64.69a2.74,2.74,0,0,0-2.44,1.43,2.91,2.91,0,0,0-.38,1.42,3,3,0,0,0,.38,1.44,2.77,2.77,0,0,0,2.44,1.44,2.78,2.78,0,0,0,1.42-.38,2.51,2.51,0,0,0,1-1,2.91,2.91,0,0,0,.36-1.45,2.85,2.85,0,0,0-.81-2.07A2.69,2.69,0,0,0,406.2,316.91Zm6.49-3.32h.92v2.63h1.44V317h-1.44v6.3h-.92V317h-1.25v-.78h1.25Zm10.77,2.63v7.08h-.89v-1.22a4,4,0,0,1-1.3,1.06,3.6,3.6,0,0,1-4.11-.75,3.66,3.66,0,0,1-1.06-2.66,3.67,3.67,0,0,1,3.66-3.7,3.27,3.27,0,0,1,1.56.38,3.71,3.71,0,0,1,1.25,1.1v-1.29Zm-3.64.69a2.74,2.74,0,0,0-2.44,1.43,2.9,2.9,0,0,0-.37,1.42,2.94,2.94,0,0,0,.37,1.44,2.77,2.77,0,0,0,2.44,1.44,2.78,2.78,0,0,0,1.42-.38,2.51,2.51,0,0,0,1-1,2.91,2.91,0,0,0,.36-1.45,2.85,2.85,0,0,0-.81-2.07A2.69,2.69,0,0,0,419.82,316.91Zm9.26.07-.59.61a2.08,2.08,0,0,0-1.43-.7,1.09,1.09,0,0,0-.76.3.85.85,0,0,0-.31.67,1,1,0,0,0,.26.65,3.54,3.54,0,0,0,1.09.75,4.21,4.21,0,0,1,1.38,1,1.84,1.84,0,0,1,.36,1.11,2,2,0,0,1-.61,1.48,2.07,2.07,0,0,1-1.53.61,2.63,2.63,0,0,1-1.17-.26,2.59,2.59,0,0,1-.93-.74l.58-.65a2,2,0,0,0,1.49.78,1.32,1.32,0,0,0,.92-.35,1.07,1.07,0,0,0,.39-.82,1.1,1.1,0,0,0-.25-.71,4.77,4.77,0,0,0-1.16-.75,3.7,3.7,0,0,1-1.29-1,1.85,1.85,0,0,1-.35-1.1,1.82,1.82,0,0,1,.55-1.35,1.93,1.93,0,0,1,1.39-.53A2.93,2.93,0,0,1,429.08,317Zm7.56,4,.78.39a4.27,4.27,0,0,1-.89,1.21,3.55,3.55,0,0,1-1.11.7,3.75,3.75,0,0,1-1.39.23,3.38,3.38,0,0,1-2.71-1.14,3.83,3.83,0,0,1-1-2.56,3.78,3.78,0,0,1,.82-2.41A3.41,3.41,0,0,1,434,316a3.48,3.48,0,0,1,2.89,1.38,3.83,3.83,0,0,1,.78,2.42h-6.38a3,3,0,0,0,.79,2,2.54,2.54,0,0,0,1.89.78,2.82,2.82,0,0,0,1-.19,2.6,2.6,0,0,0,.88-.5A4.08,4.08,0,0,0,436.64,321Zm0-1.9a2.86,2.86,0,0,0-.53-1.18,2.45,2.45,0,0,0-.92-.7,2.69,2.69,0,0,0-1.19-.26,2.57,2.57,0,0,0-1.79.67,3,3,0,0,0-.83,1.47Zm3.51-5.46h.92v2.63h1.44V317h-1.44v6.3h-.92V317H438.9v-.78h1.25Zm7.72-.29a.67.67,0,0,1,.53.23.69.69,0,0,1,0,1.05.73.73,0,0,1-.53.22.79.79,0,0,1-.53-.22.74.74,0,0,1,0-1.05A.71.71,0,0,1,447.87,313.3Zm-.45,2.92h.92v7.08h-.92Zm9.87-2.74v9.82h-.89v-1.22a4,4,0,0,1-1.3,1.06,3.44,3.44,0,0,1-1.54.34,3.49,3.49,0,0,1-2.58-1.09,3.67,3.67,0,0,1-1.07-2.66,3.7,3.7,0,0,1,3.66-3.7,3.32,3.32,0,0,1,1.58.38,3.71,3.71,0,0,1,1.25,1.1v-4Zm-3.64,3.43a2.75,2.75,0,0,0-1.41.37,2.84,2.84,0,0,0-1,1.06,2.9,2.9,0,0,0-.37,1.42,2.94,2.94,0,0,0,.37,1.44,2.77,2.77,0,0,0,1,1.06,2.81,2.81,0,0,0,2.82,0,2.57,2.57,0,0,0,1-1,2.82,2.82,0,0,0,.37-1.45,2.85,2.85,0,0,0-.81-2.07A2.69,2.69,0,0,0,453.65,316.91Z"/><path class="cls-3" d="M382,329.63h1.05a13.71,13.71,0,0,0-1,3.06,17,17,0,0,0-.38,3.6,19.79,19.79,0,0,0,.28,3.31,13.25,13.25,0,0,0,.82,2.8h-1a13.54,13.54,0,0,1-.79-2.72,19.23,19.23,0,0,1-.28-3.27,18.14,18.14,0,0,1,.35-3.56A15.72,15.72,0,0,1,382,329.63Zm2.87,2.92h.91v1.27a4,4,0,0,1,1.2-1.1,3.06,3.06,0,0,1,1.46-.36,2.45,2.45,0,0,1,1.4.41,2.36,2.36,0,0,1,.91,1.09,5.59,5.59,0,0,1,.3,2.13v3.64h-.91v-3.38a9.63,9.63,0,0,0-.09-1.64,1.85,1.85,0,0,0-.63-1,1.76,1.76,0,0,0-1.15-.36,2.28,2.28,0,0,0-1.49.54,2.57,2.57,0,0,0-.86,1.36,9,9,0,0,0-.14,1.93v2.59h-.91Zm15.18,0v7.08h-.89v-1.22a4,4,0,0,1-1.3,1.06,3.56,3.56,0,0,1-4.11-.75,3.65,3.65,0,0,1-1.06-2.65,3.58,3.58,0,0,1,1.06-2.61,3.53,3.53,0,0,1,2.6-1.1,3.27,3.27,0,0,1,1.56.38,3.55,3.55,0,0,1,1.25,1.11v-1.3Zm-3.64.69a2.75,2.75,0,0,0-1.41.37,2.92,2.92,0,0,0-1.4,2.49,3,3,0,0,0,.37,1.44,2.91,2.91,0,0,0,1,1.06,2.8,2.8,0,0,0,1.41.37,2.87,2.87,0,0,0,1.42-.37,2.59,2.59,0,0,0,1-1,2.89,2.89,0,0,0,.36-1.45,2.83,2.83,0,0,0-.81-2.06A2.7,2.7,0,0,0,396.42,333.24Zm5.7-.69H403v1.22a3.49,3.49,0,0,1,1-1,2.7,2.7,0,0,1,1.46-.43,2.24,2.24,0,0,1,1,.21,1.77,1.77,0,0,1,.75.54,2.85,2.85,0,0,1,.52,1,3.37,3.37,0,0,1,1.14-1.27,2.72,2.72,0,0,1,1.47-.44,2.31,2.31,0,0,1,1.3.38,2.16,2.16,0,0,1,.82,1.05,5.16,5.16,0,0,1,.29,2v3.86h-.93v-3.86a4.59,4.59,0,0,0-.17-1.56,1.31,1.31,0,0,0-.56-.69,1.6,1.6,0,0,0-.94-.27,2,2,0,0,0-1.2.4,2.21,2.21,0,0,0-.81,1,6.52,6.52,0,0,0-.25,2.17v2.77h-.91V336a6,6,0,0,0-.16-1.73,1.32,1.32,0,0,0-.56-.73,1.55,1.55,0,0,0-.94-.29,2,2,0,0,0-1.18.4,2.21,2.21,0,0,0-.82,1,5.65,5.65,0,0,0-.26,2v3h-.89Zm18.45,4.74.78.39a4.08,4.08,0,0,1-.89,1.2,3.37,3.37,0,0,1-1.11.7,3.75,3.75,0,0,1-1.39.24,3.42,3.42,0,0,1-2.72-1.14,3.89,3.89,0,0,1-1-2.57,3.77,3.77,0,0,1,.82-2.4,3.39,3.39,0,0,1,2.82-1.35,3.49,3.49,0,0,1,2.89,1.38,3.83,3.83,0,0,1,.78,2.42h-6.38a3,3,0,0,0,.78,2,2.54,2.54,0,0,0,1.89.78,3,3,0,0,0,1.05-.18,3,3,0,0,0,.88-.5A4.29,4.29,0,0,0,420.57,337.29Zm0-1.91a2.76,2.76,0,0,0-.53-1.17,2.55,2.55,0,0,0-.92-.71,2.86,2.86,0,0,0-1.19-.26,2.59,2.59,0,0,0-1.8.67,3,3,0,0,0-.82,1.47Zm6.46,4.25v-9.81h.91v3.95a3.68,3.68,0,0,1,1.27-1,3.54,3.54,0,0,1,4.12.74,3.77,3.77,0,0,1,0,5.28,3.52,3.52,0,0,1-2.58,1.08,3.32,3.32,0,0,1-1.58-.38,3.68,3.68,0,0,1-1.23-1.11v1.3Zm3.64-.7a2.84,2.84,0,0,0,1.41-.36,2.71,2.71,0,0,0,1-1.05,2.89,2.89,0,0,0,.39-1.44,2.77,2.77,0,0,0-.39-1.43,2.68,2.68,0,0,0-1-1.07,2.56,2.56,0,0,0-1.37-.39,2.79,2.79,0,0,0-1.42.39,2.71,2.71,0,0,0-1,1,2.91,2.91,0,0,0-.36,1.45,2.83,2.83,0,0,0,.81,2.06A2.71,2.71,0,0,0,430.67,338.93Zm12.44-6.38v7.08h-.89v-1.22a4,4,0,0,1-1.3,1.06,3.56,3.56,0,0,1-4.11-.75,3.65,3.65,0,0,1-1.06-2.65,3.58,3.58,0,0,1,1.06-2.61,3.53,3.53,0,0,1,2.6-1.1,3.27,3.27,0,0,1,1.56.38,3.64,3.64,0,0,1,1.25,1.11v-1.3Zm-3.64.69a2.75,2.75,0,0,0-1.41.37,2.92,2.92,0,0,0-1.4,2.49,3,3,0,0,0,.37,1.44,2.91,2.91,0,0,0,1,1.06,2.8,2.8,0,0,0,1.41.37,2.87,2.87,0,0,0,1.42-.37,2.59,2.59,0,0,0,1-1,2.89,2.89,0,0,0,.36-1.45,2.83,2.83,0,0,0-.81-2.06A2.7,2.7,0,0,0,439.47,333.24Zm9.26.08-.59.61a2.1,2.1,0,0,0-1.43-.71,1.09,1.09,0,0,0-.76.3.87.87,0,0,0-.31.67,1,1,0,0,0,.26.66,3.49,3.49,0,0,0,1.1.75,4.12,4.12,0,0,1,1.37,1,1.89,1.89,0,0,1,.36,1.11,2,2,0,0,1-.61,1.49,2.11,2.11,0,0,1-1.53.61,2.7,2.7,0,0,1-2.09-1l.57-.66a2,2,0,0,0,1.49.78,1.31,1.31,0,0,0,.92-.34,1.11,1.11,0,0,0,.39-.83,1.07,1.07,0,0,0-.25-.7,4.23,4.23,0,0,0-1.16-.75,4,4,0,0,1-1.29-1,1.86,1.86,0,0,1-.35-1.11,1.8,1.8,0,0,1,.55-1.34,1.89,1.89,0,0,1,1.39-.54A2.9,2.9,0,0,1,448.73,333.32Zm7.56,4,.79.39a4.28,4.28,0,0,1-.9,1.2,3.44,3.44,0,0,1-1.1.7,3.8,3.8,0,0,1-1.4.24,3.38,3.38,0,0,1-2.71-1.14,3.85,3.85,0,0,1-1-2.57,3.73,3.73,0,0,1,.83-2.4,3.36,3.36,0,0,1,2.81-1.35,3.48,3.48,0,0,1,2.89,1.38,3.83,3.83,0,0,1,.78,2.42h-6.38a3,3,0,0,0,.79,2,2.54,2.54,0,0,0,1.89.78,3,3,0,0,0,1-.18,3,3,0,0,0,.88-.5A4.29,4.29,0,0,0,456.29,337.29Zm0-1.91a2.76,2.76,0,0,0-.53-1.17,2.47,2.47,0,0,0-.92-.71,2.83,2.83,0,0,0-1.19-.26,2.59,2.59,0,0,0-1.79.67,3,3,0,0,0-.83,1.47Zm9.78-5.56v9.81h-.9v-1.22a3.89,3.89,0,0,1-1.29,1.06,3.59,3.59,0,0,1-4.13-.75,3.65,3.65,0,0,1-1.06-2.65,3.56,3.56,0,0,1,1.08-2.61,3.5,3.5,0,0,1,2.58-1.1,3.26,3.26,0,0,1,1.57.38,3.55,3.55,0,0,1,1.25,1.11v-4Zm-3.65,3.42a2.72,2.72,0,0,0-1.4.37,2.79,2.79,0,0,0-1,1.07,2.85,2.85,0,0,0-.38,1.42,3,3,0,0,0,.38,1.44,2.84,2.84,0,0,0,1,1.06,2.77,2.77,0,0,0,1.4.37,2.8,2.8,0,0,0,1.41-.37,2.59,2.59,0,0,0,1-1,3,3,0,0,0-.44-3.51A2.69,2.69,0,0,0,462.42,333.24ZM469,342.4h-1.05a13,13,0,0,0,1-3,16.55,16.55,0,0,0,.39-3.6,17.87,17.87,0,0,0-.3-3.31,12.81,12.81,0,0,0-.8-2.81h1a12.72,12.72,0,0,1,.77,2.73,17.52,17.52,0,0,1,.3,3.27,18.14,18.14,0,0,1-.35,3.56A16.06,16.06,0,0,1,469,342.4Z"/><path class="cls-4" d="M363.68,274.83H487.3V305H363.68Z"/><path class="cls-1" d="M401.17,294.71v-9.57h2a10.14,10.14,0,0,1,3.11.34,4.18,4.18,0,0,1,2.17,1.7,5.1,5.1,0,0,1,.8,2.86,5,5,0,0,1-.63,2.53A4,4,0,0,1,407,294.2a6.15,6.15,0,0,1-2.78.51Zm.9-.9h1.11a10,10,0,0,0,2.75-.25,3.23,3.23,0,0,0,1.71-1.25,4.44,4.44,0,0,0-.05-4.61,3.4,3.4,0,0,0-1.88-1.36,11.25,11.25,0,0,0-2.95-.27h-.69Zm15.9-6.17v7.07h-.89V293.5a4,4,0,0,1-1.29,1.06,3.49,3.49,0,0,1-1.55.34,3.43,3.43,0,0,1-2.56-1.09,3.67,3.67,0,0,1-1.06-2.66,3.58,3.58,0,0,1,1.06-2.61,3.5,3.5,0,0,1,2.59-1.09,3.24,3.24,0,0,1,1.56.37,3.55,3.55,0,0,1,1.25,1.11v-1.29Zm-3.64.68a2.72,2.72,0,0,0-1.4.38,2.76,2.76,0,0,0-1,1.06,2.88,2.88,0,0,0-.38,1.42,3,3,0,0,0,.38,1.44,2.77,2.77,0,0,0,2.43,1.44,2.92,2.92,0,0,0,1.43-.38,2.7,2.7,0,0,0,1-1,2.93,2.93,0,0,0,.36-1.46,2.8,2.8,0,0,0-.82-2.06A2.69,2.69,0,0,0,414.33,288.32Zm6.5-3.31h.92v2.63h1.44v.78h-1.44v6.29h-.92v-6.29h-1.25v-.78h1.25Zm10.77,2.63v7.07h-.89V293.5a4.16,4.16,0,0,1-1.3,1.06,3.49,3.49,0,0,1-1.55.34,3.43,3.43,0,0,1-2.56-1.09,3.67,3.67,0,0,1-1.06-2.66,3.58,3.58,0,0,1,1.06-2.61,3.5,3.5,0,0,1,2.59-1.09,3.28,3.28,0,0,1,1.57.37,3.73,3.73,0,0,1,1.25,1.11v-1.29Zm-3.64.68a2.73,2.73,0,0,0-1.41.38,2.76,2.76,0,0,0-1,1.06,2.88,2.88,0,0,0-.38,1.42,3,3,0,0,0,.38,1.44,2.76,2.76,0,0,0,1,1.06,2.81,2.81,0,0,0,1.41.38,2.88,2.88,0,0,0,1.42-.38,2.63,2.63,0,0,0,1-1,2.93,2.93,0,0,0,.36-1.46,2.83,2.83,0,0,0-.81-2.06A2.72,2.72,0,0,0,428,288.32Zm9.26.08-.6.61a2.06,2.06,0,0,0-1.42-.7,1.11,1.11,0,0,0-.77.3.88.88,0,0,0-.31.67,1,1,0,0,0,.27.65,3.41,3.41,0,0,0,1.09.75,4.21,4.21,0,0,1,1.38,1,1.84,1.84,0,0,1,.36,1.11,2,2,0,0,1-.61,1.48,2.07,2.07,0,0,1-1.53.61,2.85,2.85,0,0,1-1.18-.26,2.76,2.76,0,0,1-.92-.74l.58-.65A2,2,0,0,0,435,294a1.33,1.33,0,0,0,.93-.35,1.09,1.09,0,0,0,.39-.82,1.14,1.14,0,0,0-.25-.71,4.4,4.4,0,0,0-1.16-.75,3.66,3.66,0,0,1-1.3-1,1.85,1.85,0,0,1-.34-1.11,1.76,1.76,0,0,1,.55-1.34,1.91,1.91,0,0,1,1.39-.53A3,3,0,0,1,437.22,288.4Zm7.56,4,.78.39a4.26,4.26,0,0,1-.89,1.2,3.4,3.4,0,0,1-1.11.71,4,4,0,0,1-1.39.23,3.4,3.4,0,0,1-2.72-1.14,3.88,3.88,0,0,1-1-2.56,3.79,3.79,0,0,1,.83-2.41,3.4,3.4,0,0,1,2.81-1.34,3.48,3.48,0,0,1,2.89,1.37,3.83,3.83,0,0,1,.79,2.43h-6.38a3,3,0,0,0,.78,2,2.54,2.54,0,0,0,1.89.78,2.84,2.84,0,0,0,1.05-.19,2.55,2.55,0,0,0,.87-.5A4.08,4.08,0,0,0,444.78,292.37Zm0-1.91a2.82,2.82,0,0,0-.53-1.17,2.53,2.53,0,0,0-.92-.7,2.73,2.73,0,0,0-1.19-.27,2.6,2.6,0,0,0-1.8.68,3.06,3.06,0,0,0-.83,1.46Zm3.51-5.45h.92v2.63h1.44v.78h-1.44v6.29h-.92v-6.29H447v-.78h1.25Z"/><path class="cls-2" d="M533.44,49.77h96.88v64.31H533.44Z"/><path class="cls-3" d="M550.41,77.15h1.9a11.07,11.07,0,0,1,2.16.14,2.37,2.37,0,0,1,1.92,2.41,2.49,2.49,0,0,1-.37,1.37,2.29,2.29,0,0,1-1,.91,4.8,4.8,0,0,1-1.89.29l3.45,4.46h-1.19l-3.43-4.46h-.55v4.46h-1Zm1,.94v3.26H553a4.41,4.41,0,0,0,1.42-.17,1.43,1.43,0,0,0,.7-.58,1.59,1.59,0,0,0,.27-.9,1.5,1.5,0,0,0-.27-.88,1.36,1.36,0,0,0-.67-.56,3.94,3.94,0,0,0-1.4-.17Zm6.81,1.56h.92V83a6.75,6.75,0,0,0,.14,1.67,1.8,1.8,0,0,0,.73,1,2.3,2.3,0,0,0,1.32.37,2.23,2.23,0,0,0,1.29-.36,1.93,1.93,0,0,0,.74-1,8,8,0,0,0,.12-1.75v-3.3h.94v3.47a5.54,5.54,0,0,1-.34,2.22,2.63,2.63,0,0,1-1,1.15,3.21,3.21,0,0,1-1.71.42,3.35,3.35,0,0,1-1.74-.42,2.61,2.61,0,0,1-1-1.17,5.66,5.66,0,0,1-.34-2.26Zm8.22,0h.91v1.26a3.93,3.93,0,0,1,1.2-1.09,3.06,3.06,0,0,1,1.46-.36,2.45,2.45,0,0,1,1.4.41,2.31,2.31,0,0,1,.91,1.09,5.59,5.59,0,0,1,.3,2.13v3.64h-.91V83.35a9.54,9.54,0,0,0-.09-1.64,1.84,1.84,0,0,0-.63-1,1.82,1.82,0,0,0-1.16-.35,2.27,2.27,0,0,0-1.48.54,2.57,2.57,0,0,0-.86,1.36,8.93,8.93,0,0,0-.14,1.92v2.6h-.91Zm12-2.5h4.8v.95h-3.86v3h3.86v1h-3.86v4.69h-.94Zm13.35,2.5v7.08h-.89V85.51a3.93,3.93,0,0,1-1.3,1.06,3.41,3.41,0,0,1-1.54.34,3.46,3.46,0,0,1-2.57-1.09,3.7,3.7,0,0,1-1.06-2.66,3.58,3.58,0,0,1,1.06-2.6,3.53,3.53,0,0,1,2.6-1.1,3.27,3.27,0,0,1,1.56.38A3.55,3.55,0,0,1,590.83,81v-1.3Zm-3.64.69a2.75,2.75,0,0,0-1.41.37,2.93,2.93,0,0,0-1,3.92,2.87,2.87,0,0,0,1,1.07,2.8,2.8,0,0,0,1.41.37,2.87,2.87,0,0,0,1.42-.37,2.59,2.59,0,0,0,1-1,2.91,2.91,0,0,0,.36-1.45,2.85,2.85,0,0,0-.81-2.07A2.69,2.69,0,0,0,588.08,80.34Zm12.57.78-.71.45a3.05,3.05,0,0,0-2.57-1.25,3,3,0,0,0-2.15.84,2.69,2.69,0,0,0-.86,2,2.94,2.94,0,0,0,.39,1.47,2.82,2.82,0,0,0,1.09,1,3.32,3.32,0,0,0,4.1-.86l.71.47a3.42,3.42,0,0,1-1.37,1.18,4.29,4.29,0,0,1-1.94.42,3.89,3.89,0,0,1-2.8-1.06,3.57,3.57,0,0,1-1.09-2.61,3.62,3.62,0,0,1,.52-1.9A3.43,3.43,0,0,1,595.39,80a4.3,4.3,0,0,1,3.37-.28,3.85,3.85,0,0,1,1.11.56A2.89,2.89,0,0,1,600.65,81.12Zm7.71,3.26.78.39a4.32,4.32,0,0,1-.89,1.21,3.44,3.44,0,0,1-2.5.93A3.39,3.39,0,0,1,603,85.77a3.83,3.83,0,0,1-1-2.56,3.71,3.71,0,0,1,.83-2.4,3.36,3.36,0,0,1,2.81-1.35,3.48,3.48,0,0,1,2.89,1.38,3.83,3.83,0,0,1,.78,2.42H603a3,3,0,0,0,.78,2,2.54,2.54,0,0,0,1.89.78,2.82,2.82,0,0,0,1-.19,2.6,2.6,0,0,0,.88-.5A4.13,4.13,0,0,0,608.36,84.38Zm0-1.9a2.89,2.89,0,0,0-.54-1.17,2.37,2.37,0,0,0-.92-.71,2.83,2.83,0,0,0-1.19-.26,2.59,2.59,0,0,0-1.79.67,3,3,0,0,0-.83,1.47Zm3.5-5.46h.92v2.63h1.44v.78h-1.44v6.3h-.92v-6.3h-1.25v-.78h1.25Z"/><path class="cls-2" d="M533.44,166.84h96.88v64.32H533.44Z"/><path class="cls-3" d="M553.52,194.22h1v6.47a6.58,6.58,0,0,1-.23,2.08,2,2,0,0,1-.78.92,2.35,2.35,0,0,1-1.3.34,3.2,3.2,0,0,1-1.14-.21,4.86,4.86,0,0,1-1.25-.8l.5-.75a7.92,7.92,0,0,0,1.25.73,1.51,1.51,0,0,0,.64.14,1.2,1.2,0,0,0,.73-.23,1.25,1.25,0,0,0,.47-.66,5.64,5.64,0,0,0,.14-1.59Zm6.49,2.31a3.53,3.53,0,0,1,2.72,1.19,3.75,3.75,0,0,1,1,2.56,3.7,3.7,0,0,1-1,2.6A3.44,3.44,0,0,1,560,204a3.48,3.48,0,0,1-2.66-1.11,3.8,3.8,0,0,1,0-5.16A3.49,3.49,0,0,1,560,196.53Zm0,.9a2.61,2.61,0,0,0-1.94.84,2.82,2.82,0,0,0-.81,2,3,3,0,0,0,.36,1.44,2.62,2.62,0,0,0,1,1,2.8,2.8,0,0,0,1.39.36,2.74,2.74,0,0,0,1.39-.36,2.49,2.49,0,0,0,1-1,2.91,2.91,0,0,0,.37-1.44,2.82,2.82,0,0,0-.81-2A2.61,2.61,0,0,0,560,197.43Zm5.44,6.37V194h.91v3.95a3.78,3.78,0,0,1,1.27-1.05,3.54,3.54,0,0,1,4.12.74,3.77,3.77,0,0,1,0,5.28,3.52,3.52,0,0,1-2.58,1.08,3.26,3.26,0,0,1-1.57-.38,3.61,3.61,0,0,1-1.24-1.11v1.3Zm3.65-.7a2.81,2.81,0,0,0,1.4-.36,2.71,2.71,0,0,0,1-1.05,2.89,2.89,0,0,0,.39-1.44,2.77,2.77,0,0,0-.39-1.43,2.72,2.72,0,0,0-1-1.07,2.62,2.62,0,0,0-1.38-.39,2.79,2.79,0,0,0-1.42.39,2.71,2.71,0,0,0-1.05,1,2.91,2.91,0,0,0-.36,1.45,2.78,2.78,0,0,0,.82,2.06A2.68,2.68,0,0,0,569.1,203.1Zm9.23-8.88h4.8v1h-3.86v3h3.86v1h-3.86v4.69h-.94Zm13.35,2.5v7.08h-.89v-1.22a4,4,0,0,1-1.29,1.06A3.49,3.49,0,0,1,588,204a3.43,3.43,0,0,1-2.56-1.1,3.64,3.64,0,0,1-1.07-2.65,3.59,3.59,0,0,1,1.07-2.61,3.49,3.49,0,0,1,2.59-1.1,3.27,3.27,0,0,1,1.56.38,3.55,3.55,0,0,1,1.25,1.11v-1.3Zm-3.64.69a2.69,2.69,0,0,0-1.4.37,2.82,2.82,0,0,0-1,1.07,2.87,2.87,0,0,0-.37,1.42,3,3,0,0,0,.37,1.44,2.79,2.79,0,0,0,1,1.06,2.74,2.74,0,0,0,1.4.37,2.84,2.84,0,0,0,1.42-.37,2.62,2.62,0,0,0,1-1,3,3,0,0,0,.35-1.45,2.83,2.83,0,0,0-.81-2.06A2.7,2.7,0,0,0,588,197.41Zm12.58.78-.72.45a3.05,3.05,0,0,0-2.57-1.25,3,3,0,0,0-2.15.85,2.66,2.66,0,0,0-.86,2,2.94,2.94,0,0,0,.39,1.47,2.82,2.82,0,0,0,1.09,1.05,3.32,3.32,0,0,0,4.1-.86l.72.47a3.63,3.63,0,0,1-1.38,1.19,4.29,4.29,0,0,1-1.94.42,3.91,3.91,0,0,1-2.79-1.06,3.54,3.54,0,0,1-1.1-2.61,3.75,3.75,0,0,1,1.94-3.29,4.14,4.14,0,0,1,2-.5,4.39,4.39,0,0,1,1.35.22,3.86,3.86,0,0,1,1.11.57A3.15,3.15,0,0,1,600.62,198.19Zm7.7,3.27.78.39a4.26,4.26,0,0,1-.89,1.2,3.59,3.59,0,0,1-1.11.7,3.79,3.79,0,0,1-1.39.24,3.39,3.39,0,0,1-2.72-1.14,3.85,3.85,0,0,1-1-2.57,3.78,3.78,0,0,1,.83-2.4,3.37,3.37,0,0,1,2.81-1.35,3.48,3.48,0,0,1,2.89,1.38,3.85,3.85,0,0,1,.78,2.42H603a3,3,0,0,0,.78,2,2.54,2.54,0,0,0,1.89.78,3.13,3.13,0,0,0,1-.18,2.83,2.83,0,0,0,.87-.5A4.08,4.08,0,0,0,608.32,201.46Zm0-1.91a3,3,0,0,0-.53-1.17,2.38,2.38,0,0,0-.93-.7,2.68,2.68,0,0,0-1.18-.27,2.59,2.59,0,0,0-1.8.67,3,3,0,0,0-.83,1.47Zm3.5-5.45h.92v2.62h1.44v.78h-1.44v6.3h-.92v-6.3h-1.25v-.78h1.25Z"/><path class="cls-2" d="M533.44,283.92h96.88v64.31H533.44Z"/><path class="cls-3" d="M557.55,312.87v-9.58h2a10,10,0,0,1,3.11.35,4.25,4.25,0,0,1,2.18,1.7,5.52,5.52,0,0,1,.17,5.39,4.12,4.12,0,0,1-1.63,1.63,6.12,6.12,0,0,1-2.78.51Zm.91-.9h1.11a10.47,10.47,0,0,0,2.75-.25,3.25,3.25,0,0,0,1.7-1.25,3.91,3.91,0,0,0,.62-2.25,4,4,0,0,0-.67-2.36,3.42,3.42,0,0,0-1.87-1.36,11.39,11.39,0,0,0-3-.27h-.68Zm15.9-6.18v7.08h-.89v-1.22a4.06,4.06,0,0,1-1.3,1.07,3.6,3.6,0,0,1-4.11-.75,3.67,3.67,0,0,1-1.06-2.66,3.58,3.58,0,0,1,1.06-2.61,3.52,3.52,0,0,1,2.6-1.09,3.27,3.27,0,0,1,1.56.37,3.64,3.64,0,0,1,1.25,1.11v-1.3Zm-3.64.69a2.77,2.77,0,0,0-2.44,1.44,2.87,2.87,0,0,0-.37,1.42,3,3,0,0,0,.37,1.44,2.76,2.76,0,0,0,1,1.06,2.81,2.81,0,0,0,1.41.38,2.88,2.88,0,0,0,1.42-.38,2.63,2.63,0,0,0,1-1,3,3,0,0,0,.36-1.46,2.83,2.83,0,0,0-.81-2.06A2.7,2.7,0,0,0,570.72,306.48Zm6.49-3.31h.93v2.62h1.43v.79h-1.43v6.29h-.93v-6.29H576v-.79h1.25ZM588,305.79v7.08h-.89v-1.22a4.06,4.06,0,0,1-1.3,1.07,3.6,3.6,0,0,1-4.11-.75,3.67,3.67,0,0,1-1.06-2.66,3.58,3.58,0,0,1,1.06-2.61,3.52,3.52,0,0,1,2.6-1.09,3.27,3.27,0,0,1,1.56.37,3.64,3.64,0,0,1,1.25,1.11v-1.3Zm-3.64.69a2.76,2.76,0,0,0-1.41.38,2.84,2.84,0,0,0-1,1.06,2.87,2.87,0,0,0-.37,1.42,3,3,0,0,0,.37,1.44,2.77,2.77,0,0,0,2.44,1.44,2.88,2.88,0,0,0,1.42-.38,2.63,2.63,0,0,0,1-1,3,3,0,0,0,.36-1.46,2.83,2.83,0,0,0-.81-2.06A2.7,2.7,0,0,0,584.34,306.48Zm9.26.08-.59.61a2.08,2.08,0,0,0-1.43-.7,1.13,1.13,0,0,0-.76.29.87.87,0,0,0-.31.68,1,1,0,0,0,.26.65,3.49,3.49,0,0,0,1.1.75,4.12,4.12,0,0,1,1.37,1,1.84,1.84,0,0,1,.36,1.11,2,2,0,0,1-.61,1.48,2.07,2.07,0,0,1-1.53.61,2.64,2.64,0,0,1-1.17-.27,2.53,2.53,0,0,1-.92-.73l.57-.66a2,2,0,0,0,1.49.79,1.32,1.32,0,0,0,.92-.35,1.09,1.09,0,0,0,.39-.83,1.07,1.07,0,0,0-.25-.7,4.23,4.23,0,0,0-1.16-.75,3.82,3.82,0,0,1-1.29-1,1.86,1.86,0,0,1-.35-1.11,1.8,1.8,0,0,1,.55-1.34,1.88,1.88,0,0,1,1.39-.53A2.89,2.89,0,0,1,593.6,306.56Zm7.56,4,.79.39a4.28,4.28,0,0,1-.9,1.2,3.65,3.65,0,0,1-1.1.71,4,4,0,0,1-1.4.23,3.38,3.38,0,0,1-2.71-1.14,3.83,3.83,0,0,1-1-2.56,3.73,3.73,0,0,1,.83-2.41,3.37,3.37,0,0,1,2.81-1.34A3.5,3.5,0,0,1,601.4,307a3.87,3.87,0,0,1,.78,2.42H595.8a3,3,0,0,0,.79,2,2.54,2.54,0,0,0,1.89.78,3,3,0,0,0,1-.19,2.77,2.77,0,0,0,.88-.5A4.08,4.08,0,0,0,601.16,310.53Zm0-1.91a2.76,2.76,0,0,0-.53-1.17,2.35,2.35,0,0,0-.92-.7,2.69,2.69,0,0,0-1.19-.27,2.63,2.63,0,0,0-1.79.67,3.06,3.06,0,0,0-.83,1.47Zm3.51-5.45h.92v2.62H607v.79h-1.44v6.29h-.92v-6.29h-1.25v-.79h1.25Z"/><path class="cls-3" d="M564.36,319.29h4.8v1H565.3v3h3.86v1H565.3v4.68h-.94Zm13.36,2.5v7.08h-.89v-1.22a4.06,4.06,0,0,1-1.3,1.07,3.49,3.49,0,0,1-1.55.34,3.43,3.43,0,0,1-2.56-1.09,3.67,3.67,0,0,1-1.06-2.66,3.58,3.58,0,0,1,1.06-2.61,3.5,3.5,0,0,1,2.59-1.09,3.28,3.28,0,0,1,1.57.37,3.64,3.64,0,0,1,1.25,1.11v-1.3Zm-3.64.69a2.77,2.77,0,0,0-2.44,1.44,2.88,2.88,0,0,0-.38,1.42,3,3,0,0,0,.38,1.44,2.76,2.76,0,0,0,1,1.06,2.81,2.81,0,0,0,1.41.38,2.88,2.88,0,0,0,1.42-.38,2.63,2.63,0,0,0,1-1,3,3,0,0,0,.36-1.46,2.83,2.83,0,0,0-.81-2.06A2.72,2.72,0,0,0,574.08,322.48Zm12.57.78-.72.46a3,3,0,0,0-2.56-1.25,3,3,0,0,0-2.16.84,2.7,2.7,0,0,0-.86,2,2.88,2.88,0,0,0,.39,1.46,2.85,2.85,0,0,0,1.1,1,3.27,3.27,0,0,0,4.09-.86l.72.47a3.41,3.41,0,0,1-1.38,1.19,4.25,4.25,0,0,1-1.93.42,3.87,3.87,0,0,1-2.8-1.06,3.53,3.53,0,0,1-1.09-2.61,3.74,3.74,0,0,1,.51-1.91,3.6,3.6,0,0,1,1.42-1.37,4.06,4.06,0,0,1,2-.5,4.17,4.17,0,0,1,1.36.22,3.61,3.61,0,0,1,1.11.56A3.28,3.28,0,0,1,586.65,323.26Zm7.7,3.27.78.39a4.26,4.26,0,0,1-.89,1.2,3.57,3.57,0,0,1-1.11.71,4,4,0,0,1-1.39.23,3.4,3.4,0,0,1-2.72-1.14,3.88,3.88,0,0,1-1-2.56,3.79,3.79,0,0,1,.83-2.41,3.4,3.4,0,0,1,2.81-1.34,3.48,3.48,0,0,1,2.89,1.37,3.82,3.82,0,0,1,.79,2.42H589a3,3,0,0,0,.78,2,2.54,2.54,0,0,0,1.89.78,3.05,3.05,0,0,0,1.05-.19,2.72,2.72,0,0,0,.87-.5A4.08,4.08,0,0,0,594.35,326.53Zm0-1.91a2.76,2.76,0,0,0-.53-1.17,2.42,2.42,0,0,0-.92-.7,2.73,2.73,0,0,0-1.19-.27,2.64,2.64,0,0,0-1.8.67,3.15,3.15,0,0,0-.83,1.47Zm3.51-5.45h.92v2.62h1.44v.79h-1.44v6.29h-.92v-6.29h-1.25v-.79h1.25Z"/><path class="cls-5" d="M498.56,81.93h34.89"/><path class="cls-6" d="M498.56,81.93,493.8,78.6l-4.75,3.33,4.75,3.33Z"/><path class="cls-5" d="M498.56,199h34.89"/><path class="cls-6" d="M498.56,199l-4.76-3.33L489.05,199l4.75,3.33Z"/><path class="cls-5" d="M498.56,316.07h34.89"/><path class="cls-6" d="M498.56,316.07l-4.76-3.33-4.75,3.33,4.75,3.33Z"/><path class="cls-7" d="M277.93,199H300V81.92h63.7"/><path class="cls-5" d="M277.93,199H300V81.92h56.85"/><path class="cls-6" d="M356.84,81.92l-2.25,2.25,6.18-2.25-6.18-2.24Z"/><path class="cls-7" d="M277.93,199h42.88v.06h42.88"/><path class="cls-5" d="M277.93,199h42.88v.06h36"/><path class="cls-6" d="M356.84,199.06l-2.25,2.25,6.18-2.25-6.18-2.25Z"/><path class="cls-7" d="M277.93,199h22.42V316.07h63.34"/><path class="cls-5" d="M277.93,199h22.42V316.07h56.49"/><path class="cls-6" d="M356.84,316.07l-2.25,2.25,6.18-2.25-6.18-2.25Z"/><path class="cls-7" d="M313.06,61.22h28.72V75.77H313.06Z"/><path class="cls-8" d="M318.74,66.36h1.37v.8a1.83,1.83,0,0,1,.58-.72,1.42,1.42,0,0,1,.82-.25,1.54,1.54,0,0,1,.65.17l-.5,1.38a1,1,0,0,0-.47-.14.72.72,0,0,0-.62.47,4.12,4.12,0,0,0-.25,1.78v2.89h-1.58Zm4.2,0h1.62v3.07a4,4,0,0,0,.13,1.25,1.08,1.08,0,0,0,.39.54,1.13,1.13,0,0,0,.67.19,1.11,1.11,0,0,0,.67-.19,1.06,1.06,0,0,0,.42-.56,4.08,4.08,0,0,0,.1-1.17V66.36h1.61v2.71a6.46,6.46,0,0,1-.27,2.28,2.58,2.58,0,0,1-.95,1.15,3.32,3.32,0,0,1-3.3-.06,2.58,2.58,0,0,1-.91-1.31,8.26,8.26,0,0,1-.18-2.11Zm7.21,0h1.6V67a3.52,3.52,0,0,1,1-.64,2.27,2.27,0,0,1,2.52.48,2.28,2.28,0,0,1,.56,1.66v4.22h-1.59v-2.8a6.73,6.73,0,0,0-.11-1.51,1,1,0,0,0-.35-.57,1,1,0,0,0-.62-.2,1.21,1.21,0,0,0-.85.33,1.67,1.67,0,0,0-.48.89,8.51,8.51,0,0,0-.06,1.3v2.56h-1.6Z"/><path class="cls-7" d="M313.06,178h28.72v14.55H313.06Z"/><path class="cls-8" d="M319.62,180.51a.94.94,0,0,1,.72.31,1,1,0,0,1,.32.73,1,1,0,0,1-.3.74,1,1,0,0,1-1.45,0,1.05,1.05,0,0,1-.3-.75,1,1,0,0,1,1-1Zm-.79,2.62h1.59v6.6a3.49,3.49,0,0,1-.19,1.34,1.32,1.32,0,0,1-.56.69,1.68,1.68,0,0,1-.92.25,4,4,0,0,1-1.2-.25v-1.25a1.7,1.7,0,0,0,.67.17.53.53,0,0,0,.45-.19,1,1,0,0,0,.16-.65ZM325,183a3.41,3.41,0,0,1,1.7.45,3.25,3.25,0,0,1,1.23,1.24,3.16,3.16,0,0,1,.46,1.67,3.4,3.4,0,0,1-1.69,2.92,3.35,3.35,0,0,1-1.69.44,3.16,3.16,0,0,1-2.34-1,3.27,3.27,0,0,1-1-2.39A3.36,3.36,0,0,1,325,183Zm0,1.52a1.67,1.67,0,0,0-1.25.51,2.06,2.06,0,0,0,0,2.67,1.65,1.65,0,0,0,1.25.52,1.59,1.59,0,0,0,1.23-.52,1.88,1.88,0,0,0,.5-1.34,1.86,1.86,0,0,0-.48-1.33A1.66,1.66,0,0,0,325,184.48Zm6.24-3.82v3.18a3,3,0,0,1,.94-.66,2.64,2.64,0,0,1,1.08-.22,2.78,2.78,0,0,1,2.12.95,3.69,3.69,0,0,1,0,4.82,2.84,2.84,0,0,1-2.14,1,2.74,2.74,0,0,1-1-.2,3.49,3.49,0,0,1-.94-.64v.67h-1.58v-8.85Zm1.69,3.78a1.68,1.68,0,0,0-1.25.52,1.85,1.85,0,0,0-.5,1.34,1.94,1.94,0,0,0,.5,1.39,1.65,1.65,0,0,0,1.25.52,1.63,1.63,0,0,0,1.23-.53,1.92,1.92,0,0,0,.5-1.36,1.81,1.81,0,0,0-.5-1.34A1.57,1.57,0,0,0,332.94,184.44Z"/><path class="cls-7" d="M303.71,283h57.6v29.1h-57.6Z"/><path class="cls-8" d="M312.47,285.54a1,1,0,0,1,.72.31,1,1,0,0,1,.31.74,1,1,0,0,1-.31.73,1,1,0,0,1-1.44,0,1,1,0,0,1-.3-.75.94.94,0,0,1,.3-.71A1,1,0,0,1,312.47,285.54Zm-.8,2.62h1.6v6.38h-1.6Zm3.05,0h1.59v.66a3.7,3.7,0,0,1,1-.64,2.25,2.25,0,0,1,2.51.48,2.24,2.24,0,0,1,.57,1.66v4.22h-1.6v-2.8a6.16,6.16,0,0,0-.11-1.51,1,1,0,0,0-.34-.57,1,1,0,0,0-.63-.2,1.2,1.2,0,0,0-.84.33,1.67,1.67,0,0,0-.48.89,8.05,8.05,0,0,0-.07,1.3v2.56h-1.59Zm8.78,0v.71a3.09,3.09,0,0,1,.94-.66,2.64,2.64,0,0,1,1.08-.22,2.76,2.76,0,0,1,2.12,1,3.68,3.68,0,0,1,0,4.81,2.84,2.84,0,0,1-2.14.95,2.7,2.7,0,0,1-1-.2,3.34,3.34,0,0,1-.94-.64v3h-1.58v-8.71Zm1.69,1.32a1.67,1.67,0,0,0-1.25.51,1.83,1.83,0,0,0-.5,1.35,1.93,1.93,0,0,0,.5,1.39,1.67,1.67,0,0,0,1.25.51,1.63,1.63,0,0,0,1.23-.53,2,2,0,0,0,.5-1.36,1.85,1.85,0,0,0-.5-1.34A1.56,1.56,0,0,0,325.19,289.48Zm4.64-1.32h1.62v3.07a4,4,0,0,0,.13,1.25,1.08,1.08,0,0,0,.39.54,1.15,1.15,0,0,0,.67.19,1.09,1.09,0,0,0,.67-.19,1.06,1.06,0,0,0,.42-.56,4.08,4.08,0,0,0,.1-1.17v-3.13h1.61v2.71a6.46,6.46,0,0,1-.27,2.28,2.52,2.52,0,0,1-.95,1.15,2.82,2.82,0,0,1-1.6.41,2.89,2.89,0,0,1-1.7-.47,2.51,2.51,0,0,1-.9-1.31,7.7,7.7,0,0,1-.19-2.11Zm7.4-2.34h1.6v2.34h.95v1.38h-.95v5h-1.6v-5h-.81v-1.38h.81Zm7.32,3.23-1,1a1.63,1.63,0,0,0-1.1-.59.7.7,0,0,0-.42.12.33.33,0,0,0-.15.28.4.4,0,0,0,.09.24,2,2,0,0,0,.48.29l.6.28a3.62,3.62,0,0,1,1.26.94,1.81,1.81,0,0,1,.35,1.11,1.89,1.89,0,0,1-.63,1.44,2.41,2.41,0,0,1-1.67.56,2.63,2.63,0,0,1-2.22-1.09l1-1.08a2.23,2.23,0,0,0,.65.53,1.4,1.4,0,0,0,.67.2.76.76,0,0,0,.5-.15.45.45,0,0,0,.21-.35c0-.25-.24-.49-.71-.72l-.53-.28c-1-.52-1.54-1.17-1.54-1.95a1.68,1.68,0,0,1,.57-1.28,2.08,2.08,0,0,1,1.49-.55,2.67,2.67,0,0,1,2.11,1.06Zm4.18,7,3.86-10.39h1.14l-3.87,10.39Z"/><path class="cls-8" d="M315.07,302.39a3.32,3.32,0,0,1,1.7.46,3.16,3.16,0,0,1,1.23,1.23,3.25,3.25,0,0,1,.46,1.67,3.38,3.38,0,0,1-.46,1.69,3.3,3.3,0,0,1-1.23,1.23,3.35,3.35,0,0,1-1.69.44,3.16,3.16,0,0,1-2.34-1,3.25,3.25,0,0,1-1-2.39,3.36,3.36,0,0,1,3.3-3.36Zm0,1.52a1.67,1.67,0,0,0-1.25.51,1.85,1.85,0,0,0-.49,1.33,1.89,1.89,0,0,0,.49,1.35,1.67,1.67,0,0,0,1.25.51,1.61,1.61,0,0,0,1.23-.51,1.93,1.93,0,0,0,.5-1.35,1.86,1.86,0,0,0-.48-1.33A1.66,1.66,0,0,0,315.1,303.91Zm4.65-1.35h1.62v3.07a4,4,0,0,0,.13,1.25,1.08,1.08,0,0,0,.39.54,1.13,1.13,0,0,0,.67.19,1.11,1.11,0,0,0,.67-.19,1.06,1.06,0,0,0,.42-.56,4.08,4.08,0,0,0,.1-1.17v-3.13h1.61v2.71a6.46,6.46,0,0,1-.27,2.28,2.58,2.58,0,0,1-.95,1.15,2.82,2.82,0,0,1-1.6.41,2.89,2.89,0,0,1-1.7-.47,2.58,2.58,0,0,1-.91-1.31,8.26,8.26,0,0,1-.18-2.11Zm7.4-2.34h1.59v2.34h1v1.38h-1v5h-1.59v-5h-.81v-1.38h.81Zm5,2.34v.71a3.09,3.09,0,0,1,.94-.66,2.64,2.64,0,0,1,1.08-.22,2.76,2.76,0,0,1,2.12,1,3.68,3.68,0,0,1,0,4.81,2.84,2.84,0,0,1-2.14.95,2.7,2.7,0,0,1-1-.2,3.34,3.34,0,0,1-.94-.64v3h-1.58v-8.71Zm1.69,1.32a1.67,1.67,0,0,0-1.25.51,1.83,1.83,0,0,0-.5,1.35,1.93,1.93,0,0,0,.5,1.39,1.67,1.67,0,0,0,1.25.51,1.63,1.63,0,0,0,1.23-.53,2,2,0,0,0,.5-1.36,1.85,1.85,0,0,0-.5-1.34A1.56,1.56,0,0,0,333.83,303.88Zm4.64-1.32h1.62v3.07a4,4,0,0,0,.13,1.25,1.08,1.08,0,0,0,.39.54,1.15,1.15,0,0,0,.67.19,1.11,1.11,0,0,0,.67-.19,1.06,1.06,0,0,0,.42-.56,4.08,4.08,0,0,0,.1-1.17v-3.13h1.61v2.71a6.46,6.46,0,0,1-.27,2.28,2.58,2.58,0,0,1-.95,1.15,2.82,2.82,0,0,1-1.6.41,2.89,2.89,0,0,1-1.7-.47,2.51,2.51,0,0,1-.9-1.31,7.7,7.7,0,0,1-.19-2.11Zm7.4-2.34h1.6v2.34h.95v1.38h-.95v5h-1.6v-5h-.81v-1.38h.81Zm7.32,3.23-1,1a1.63,1.63,0,0,0-1.1-.59.7.7,0,0,0-.42.12.33.33,0,0,0-.15.28.4.4,0,0,0,.09.24,2,2,0,0,0,.48.29l.6.28A3.72,3.72,0,0,1,353,306a1.81,1.81,0,0,1,.35,1.11,1.89,1.89,0,0,1-.63,1.44,2.41,2.41,0,0,1-1.67.56,2.63,2.63,0,0,1-2.22-1.09l1-1.08a2.23,2.23,0,0,0,.65.53,1.4,1.4,0,0,0,.67.2.76.76,0,0,0,.5-.15.45.45,0,0,0,.21-.35c0-.25-.24-.49-.71-.72l-.53-.28c-1-.52-1.54-1.17-1.54-1.95a1.68,1.68,0,0,1,.57-1.28,2.06,2.06,0,0,1,1.49-.55,2.67,2.67,0,0,1,2.11,1.06Z"/></svg>