<svg id="Layer_1" data-name="Layer 1" xmlns="http://www.w3.org/2000/svg" viewBox="0 0 516.13 139.53"><defs><style>.cls-1{fill:#78909c;}.cls-1,.cls-3,.cls-5,.cls-6{fill-rule:evenodd;}.cls-2{fill:#fff;}.cls-3,.cls-5{fill:#595959;}.cls-4{fill:none;stroke-linejoin:round;}.cls-4,.cls-5{stroke:#595959;}.cls-5{stroke-miterlimit:10;}.cls-6{fill-opacity:0;}</style></defs><path class="cls-1" d="M0,50.68H131.65V88.85H0Z"/><path class="cls-2" d="M15.71,64.31H17.8a13.41,13.41,0,0,1,2.38.14,2.75,2.75,0,0,1,1.51.92,2.59,2.59,0,0,1,.6,1.74,2.8,2.8,0,0,1-.41,1.51,2.51,2.51,0,0,1-1.16,1,5.43,5.43,0,0,1-2.07.34l3.79,4.89H21.13L17.35,70h-.59v4.89H15.71Zm1.05,1v3.58l1.81,0a4.28,4.28,0,0,0,1.55-.21,1.62,1.62,0,0,0,.79-.64,1.75,1.75,0,0,0,.28-1,1.64,1.64,0,0,0-.29-1,1.58,1.58,0,0,0-.75-.63,4.58,4.58,0,0,0-1.53-.19Zm7.49,1.72h1v3.63a8.18,8.18,0,0,0,.14,1.84,2.2,2.2,0,0,0,.81,1.13,2.51,2.51,0,0,0,1.46.42,2.36,2.36,0,0,0,1.4-.41,2,2,0,0,0,.82-1.06A7.58,7.58,0,0,0,30,70.69V67.06h1v3.81a6.12,6.12,0,0,1-.38,2.44,2.89,2.89,0,0,1-1.14,1.28,3.57,3.57,0,0,1-1.87.46,3.72,3.72,0,0,1-1.91-.46,2.86,2.86,0,0,1-1.14-1.29,6.35,6.35,0,0,1-.37-2.49Zm9,0h1v1.39a4,4,0,0,1,1.31-1.19,3.24,3.24,0,0,1,1.59-.4,2.74,2.74,0,0,1,1.55.45,2.53,2.53,0,0,1,1,1.19,6.17,6.17,0,0,1,.33,2.34v4h-1V71.12A9.53,9.53,0,0,0,39,69.33a2,2,0,0,0-.67-1.16A2.06,2.06,0,0,0,37,67.78a2.46,2.46,0,0,0-1.64.61,2.69,2.69,0,0,0-.93,1.48A10.05,10.05,0,0,0,34.3,72v2.86h-1Zm8,5.83.9-.55c.63,1.16,1.35,1.74,2.17,1.74a2.14,2.14,0,0,0,1-.24,1.67,1.67,0,0,0,.71-.65A1.69,1.69,0,0,0,46,71.26a9.47,9.47,0,0,0-1.8-1.7,8,8,0,0,1-1.64-1.44A2.6,2.6,0,0,1,42,66.51a2.46,2.46,0,0,1,.33-1.25,2.32,2.32,0,0,1,.92-.89,2.8,2.8,0,0,1,2.69,0,4.57,4.57,0,0,1,1.37,1.36l-.86.64a4.08,4.08,0,0,0-1-1,1.71,1.71,0,0,0-.91-.25,1.45,1.45,0,0,0-1,.39,1.27,1.27,0,0,0-.39,1,1.8,1.8,0,0,0,.14.68,2.73,2.73,0,0,0,.52.68,14.93,14.93,0,0,0,1.36,1A7.52,7.52,0,0,1,47,70.7a2.81,2.81,0,0,1,.52,1.58,2.64,2.64,0,0,1-.88,2,2.89,2.89,0,0,1-2.11.85,3.07,3.07,0,0,1-1.75-.52A4.81,4.81,0,0,1,41.3,72.89Zm9.09-8.72h1v2.89H53v.86H51.41v6.92h-1V67.92H49v-.86h1.36Zm11.86,2.89v7.78h-1V73.5a4.69,4.69,0,0,1-1.43,1.16,3.76,3.76,0,0,1-1.7.39,3.83,3.83,0,0,1-2.83-1.21,4,4,0,0,1-1.17-2.92,3.93,3.93,0,0,1,1.17-2.86,3.86,3.86,0,0,1,2.85-1.2,3.65,3.65,0,0,1,1.73.4,4.17,4.17,0,0,1,1.38,1.22V67.06Zm-4,.77a3.08,3.08,0,0,0-1.54.4,3,3,0,0,0-1.13,1.16,3.25,3.25,0,0,0,0,3.16,2.94,2.94,0,0,0,2.65,1.57,3.19,3.19,0,0,0,1.57-.4,2.9,2.9,0,0,0,1.12-1.13A3.19,3.19,0,0,0,61.33,71a3.13,3.13,0,0,0-.89-2.27A3,3,0,0,0,58.23,67.83Zm7.14-3.66h1v2.89H68v.86H66.39v6.92h-1V67.92H64v-.86h1.36ZM76,72.26l.85.44a4.7,4.7,0,0,1-1,1.31,3.61,3.61,0,0,1-1.22.77,4.09,4.09,0,0,1-1.53.27,3.72,3.72,0,0,1-3-1.25A4.27,4.27,0,0,1,69.1,71,4.19,4.19,0,0,1,70,68.33a3.72,3.72,0,0,1,3.08-1.47,3.82,3.82,0,0,1,3.18,1.51A4.18,4.18,0,0,1,77.13,71h-7A3.13,3.13,0,0,0,71,73.26a2.77,2.77,0,0,0,2.07.86,3.24,3.24,0,0,0,1.15-.2,2.81,2.81,0,0,0,1-.55A4.4,4.4,0,0,0,76,72.26Zm0-2.1a3.06,3.06,0,0,0-.59-1.27,2.73,2.73,0,0,0-1-.78,3,3,0,0,0-1.33-.3,2.89,2.89,0,0,0-2,.74,3.49,3.49,0,0,0-.9,1.61Zm3.14-5.85h6v1h-5v3.28h4.94v1H80.22v4.14h4.94v1h-6Zm7,2.75h1.08l2.59,5.66,2.6-5.66h1.06l-3.56,7.78H89.7Zm15.42,5.2.84.44a4.68,4.68,0,0,1-1,1.31,3.82,3.82,0,0,1-1.22.77,4.09,4.09,0,0,1-1.53.27,3.74,3.74,0,0,1-3-1.25A4.26,4.26,0,0,1,94.61,71a4.18,4.18,0,0,1,.9-2.64,3.74,3.74,0,0,1,3.08-1.47,3.83,3.83,0,0,1,3.19,1.51,4.24,4.24,0,0,1,.86,2.66h-7a3.13,3.13,0,0,0,.86,2.23,2.75,2.75,0,0,0,2.06.86,3.29,3.29,0,0,0,1.16-.2,2.86,2.86,0,0,0,1-.55A4.4,4.4,0,0,0,101.53,72.26Zm0-2.1a3.19,3.19,0,0,0-.59-1.27,2.81,2.81,0,0,0-1-.78,3,3,0,0,0-1.33-.3,2.87,2.87,0,0,0-2,.74,3.42,3.42,0,0,0-.91,1.61Zm3-3.1h1v1.39a4,4,0,0,1,1.31-1.19,3.24,3.24,0,0,1,1.59-.4,2.71,2.71,0,0,1,1.55.45,2.53,2.53,0,0,1,1,1.19,6.17,6.17,0,0,1,.33,2.34v4h-1V71.12a9.53,9.53,0,0,0-.11-1.79,2,2,0,0,0-.67-1.16,2,2,0,0,0-1.28-.39,2.44,2.44,0,0,0-1.64.61,2.71,2.71,0,0,0-.94,1.48,10.81,10.81,0,0,0-.14,2.11v2.86h-1Zm9.82-2.89h1v2.89h1.6v.86h-1.6v6.92h-1V67.92H113v-.86h1.36Z"/><path class="cls-3" d="M208.24,0H339.89V38.17H208.24Z"/><path class="cls-2" d="M262,13.64h2.09a12.29,12.29,0,0,1,2.37.14,2.66,2.66,0,0,1,1.52.92,2.56,2.56,0,0,1,.59,1.73,2.83,2.83,0,0,1-.4,1.52,2.49,2.49,0,0,1-1.16,1,5.42,5.42,0,0,1-2.08.35l3.8,4.89h-1.31l-3.78-4.89h-.6v4.89h-1Zm1,1v3.57l1.81,0a4.52,4.52,0,0,0,1.55-.2,1.65,1.65,0,0,0,.8-.64,1.79,1.79,0,0,0,.28-1,1.6,1.6,0,0,0-.3-.95,1.54,1.54,0,0,0-.75-.63,4.55,4.55,0,0,0-1.53-.18Zm7.49,1.72h1V20a7.56,7.56,0,0,0,.14,1.84,2.06,2.06,0,0,0,.81,1.13,2.5,2.5,0,0,0,1.45.42A2.33,2.33,0,0,0,275.4,23a2,2,0,0,0,.81-1.06,7,7,0,0,0,.16-1.92V16.39h1V20.2a6.21,6.21,0,0,1-.37,2.44,2.94,2.94,0,0,1-1.14,1.28,3.61,3.61,0,0,1-1.88.45,3.69,3.69,0,0,1-1.9-.45,2.94,2.94,0,0,1-1.14-1.3,6.27,6.27,0,0,1-.38-2.48Zm9,0h1v1.39a4,4,0,0,1,1.31-1.19,3.26,3.26,0,0,1,1.6-.41,2.62,2.62,0,0,1,1.54.46,2.45,2.45,0,0,1,1,1.18,6.2,6.2,0,0,1,.33,2.35v4h-1V20.45a8.77,8.77,0,0,0-.11-1.8,2,2,0,0,0-.67-1.16,2,2,0,0,0-1.28-.39,2.51,2.51,0,0,0-1.64.61,2.75,2.75,0,0,0-.94,1.49,10.74,10.74,0,0,0-.14,2.11v2.86h-1Z"/><path class="cls-3" d="M208.24,50.68H339.89V88.85H208.24Z"/><path class="cls-2" d="M265.45,64.31h1.07v7.11a7.31,7.31,0,0,1-.25,2.28,2.13,2.13,0,0,1-.85,1,2.65,2.65,0,0,1-1.45.38,3.48,3.48,0,0,1-1.25-.25,5.31,5.31,0,0,1-1.38-.88l.57-.82a9,9,0,0,0,1.37.81,1.72,1.72,0,0,0,.69.15,1.39,1.39,0,0,0,.83-.26,1.41,1.41,0,0,0,.51-.72,6.75,6.75,0,0,0,.14-1.75Zm7.14,2.55a3.87,3.87,0,0,1,3,1.3A4,4,0,0,1,276.66,71a4.07,4.07,0,0,1-1.14,2.86,4.12,4.12,0,0,1-5.85,0A4.1,4.1,0,0,1,268.55,71a4,4,0,0,1,1.06-2.8A3.87,3.87,0,0,1,272.59,66.86Zm0,1a2.93,2.93,0,0,0-2.14.92,3.13,3.13,0,0,0-.89,2.24,3.24,3.24,0,0,0,.41,1.58,2.93,2.93,0,0,0,1.09,1.12,3.11,3.11,0,0,0,1.53.39,3,3,0,0,0,1.52-.39,2.91,2.91,0,0,0,1.11-1.12,3.14,3.14,0,0,0,.42-1.58,3.09,3.09,0,0,0-.9-2.24A2.9,2.9,0,0,0,272.59,67.84Zm6,7V64.05h1v4.34a4.25,4.25,0,0,1,1.4-1.14,3.81,3.81,0,0,1,1.72-.39,3.74,3.74,0,0,1,2.81,1.2,4.14,4.14,0,0,1,0,5.8,3.85,3.85,0,0,1-2.83,1.19,3.68,3.68,0,0,1-1.73-.41,3.94,3.94,0,0,1-1.36-1.23v1.43Zm4-.76a3.07,3.07,0,0,0,1.55-.41,3.12,3.12,0,0,0,1.12-1.16,3.1,3.1,0,0,0,0-3.15,3.05,3.05,0,0,0-1.14-1.17,2.9,2.9,0,0,0-1.51-.43,3.21,3.21,0,0,0-1.58.43,2.9,2.9,0,0,0-1.13,1.12,3.24,3.24,0,0,0-.39,1.6,3.11,3.11,0,0,0,.89,2.26A3,3,0,0,0,282.58,74.08Z"/><path class="cls-3" d="M208.24,101.35H339.89v38.18H208.24Z"/><path class="cls-2" d="M247.31,125.52V115h2.18a10.73,10.73,0,0,1,3.42.39,4.51,4.51,0,0,1,2.4,1.86,5.62,5.62,0,0,1,.85,3.15,5.46,5.46,0,0,1-.68,2.78,4.36,4.36,0,0,1-1.77,1.79,6.88,6.88,0,0,1-3.06.56Zm1-1h1.2a11.54,11.54,0,0,0,3-.27,3.42,3.42,0,0,0,1.85-1.39,4.23,4.23,0,0,0,.69-2.45,4.53,4.53,0,0,0-.73-2.61,3.7,3.7,0,0,0-2.05-1.48,12.54,12.54,0,0,0-3.26-.3h-.74Zm17.49-6.78v7.78h-1v-1.35a4.38,4.38,0,0,1-1.42,1.16,3.76,3.76,0,0,1-1.7.39,3.8,3.8,0,0,1-2.83-1.2,4,4,0,0,1-1.17-2.92,3.92,3.92,0,0,1,1.17-2.86,3.87,3.87,0,0,1,2.84-1.21,3.66,3.66,0,0,1,1.74.41,3.94,3.94,0,0,1,1.37,1.22v-1.42Zm-4,.76a3.12,3.12,0,0,0-1.55.41,3,3,0,0,0-1.12,1.16,3.2,3.2,0,0,0,0,3.15,3.18,3.18,0,0,0,1.13,1.17,3.08,3.08,0,0,0,1.53.41,3.19,3.19,0,0,0,1.56-.41,2.9,2.9,0,0,0,1.13-1.12,3.19,3.19,0,0,0,.4-1.6,3.07,3.07,0,0,0-.89-2.26A2.93,2.93,0,0,0,261.79,118.5Zm7.14-3.65h1v2.89h1.6v.86h-1.6v6.92h-1V118.6h-1.36v-.86h1.36Zm11.85,2.89v7.78h-1v-1.35a4.38,4.38,0,0,1-1.42,1.16,3.92,3.92,0,0,1-4.53-.81,4,4,0,0,1-1.18-2.92,3.93,3.93,0,0,1,1.18-2.86,3.87,3.87,0,0,1,2.84-1.21,3.62,3.62,0,0,1,1.73.41,4,4,0,0,1,1.38,1.22v-1.42Zm-4,.76a3.12,3.12,0,0,0-1.55.41,3,3,0,0,0-1.12,1.16,3.2,3.2,0,0,0,0,3.15,3,3,0,0,0,2.66,1.58,3.19,3.19,0,0,0,1.56-.41,2.9,2.9,0,0,0,1.13-1.12,3.19,3.19,0,0,0,.4-1.6,3.07,3.07,0,0,0-.89-2.26A2.94,2.94,0,0,0,276.77,118.5Zm10.18.08-.64.67a2.34,2.34,0,0,0-1.58-.78,1.12,1.12,0,0,0-.82.33,1,1,0,0,0-.35.75,1.17,1.17,0,0,0,.28.72,4.23,4.23,0,0,0,1.21.81,4.46,4.46,0,0,1,1.51,1.13,2,2,0,0,1,.39,1.21,2.24,2.24,0,0,1-.67,1.65,2.33,2.33,0,0,1-1.67.65,3,3,0,0,1-1.3-.3,2.64,2.64,0,0,1-1-.81l.63-.72a2.16,2.16,0,0,0,1.62.88,1.44,1.44,0,0,0,1-.39,1.18,1.18,0,0,0,.43-.91,1.15,1.15,0,0,0-.28-.76,4.36,4.36,0,0,0-1.26-.83A4.3,4.3,0,0,1,283,120.8a2,2,0,0,1-.37-1.2,1.94,1.94,0,0,1,.6-1.47,2.11,2.11,0,0,1,1.54-.6A3.18,3.18,0,0,1,287,118.58Zm8.33,4.36.85.44a4.9,4.9,0,0,1-1,1.31,3.88,3.88,0,0,1-1.22.77,4.3,4.3,0,0,1-1.53.26,3.76,3.76,0,0,1-3-1.25,4.22,4.22,0,0,1-1.06-2.83,4.13,4.13,0,0,1,.91-2.64,3.7,3.7,0,0,1,3.07-1.47,3.84,3.84,0,0,1,3.19,1.52,4.22,4.22,0,0,1,.86,2.66h-7a3.15,3.15,0,0,0,.86,2.23,2.79,2.79,0,0,0,2.06.86,3.54,3.54,0,0,0,1.16-.2,3,3,0,0,0,.95-.55A4.4,4.4,0,0,0,295.28,122.94Zm0-2.11a3.08,3.08,0,0,0-.59-1.26,2.73,2.73,0,0,0-1-.79,3.18,3.18,0,0,0-1.33-.29,2.86,2.86,0,0,0-2,.73,3.46,3.46,0,0,0-.9,1.61Zm3.84-6h1v2.89h1.59v.86h-1.59v6.92h-1V118.6h-1.36v-.86h1.36Z"/><path class="cls-3" d="M384.47,0H516.13V38.17H384.47Z"/><path class="cls-2" d="M417.73,13.64h2.09a12.29,12.29,0,0,1,2.37.14,2.66,2.66,0,0,1,1.52.92,2.56,2.56,0,0,1,.59,1.73,2.83,2.83,0,0,1-.4,1.52,2.49,2.49,0,0,1-1.16,1,5.42,5.42,0,0,1-2.08.35l3.8,4.89h-1.31l-3.78-4.89h-.6v4.89h-1Zm1,1v3.57l1.81,0a4.52,4.52,0,0,0,1.55-.2,1.65,1.65,0,0,0,.8-.64,1.79,1.79,0,0,0,.28-1,1.6,1.6,0,0,0-.3-.95,1.54,1.54,0,0,0-.75-.63,4.55,4.55,0,0,0-1.53-.18Zm7.49,1.72h1V20a7.56,7.56,0,0,0,.14,1.84,2.06,2.06,0,0,0,.81,1.13,2.5,2.5,0,0,0,1.45.42,2.33,2.33,0,0,0,1.41-.41,2,2,0,0,0,.81-1.06,7,7,0,0,0,.16-1.92V16.39h1V20.2a6.21,6.21,0,0,1-.37,2.44,2.94,2.94,0,0,1-1.14,1.28,3.61,3.61,0,0,1-1.88.45,3.69,3.69,0,0,1-1.9-.45,2.94,2.94,0,0,1-1.14-1.3,6.27,6.27,0,0,1-.38-2.48Zm9,0h1v1.39a4.14,4.14,0,0,1,1.31-1.19,3.28,3.28,0,0,1,1.6-.41,2.62,2.62,0,0,1,1.54.46,2.45,2.45,0,0,1,1,1.18,6.2,6.2,0,0,1,.33,2.35v4h-1V20.45a8.77,8.77,0,0,0-.11-1.8,1.93,1.93,0,0,0-.67-1.16A2,2,0,0,0,439,17.1a2.51,2.51,0,0,0-1.64.61,2.75,2.75,0,0,0-.94,1.49,10.74,10.74,0,0,0-.14,2.11v2.86h-1Zm9.11-2.75h5.28v1h-4.24V18h4.24V19h-4.24v5.16h-1Zm14.7,2.75v7.78h-1V22.82A4.51,4.51,0,0,1,456.7,24a3.76,3.76,0,0,1-1.7.39,3.8,3.8,0,0,1-2.83-1.2A4.06,4.06,0,0,1,451,20.24a3.91,3.91,0,0,1,1.17-2.85A3.83,3.83,0,0,1,455,16.18a3.66,3.66,0,0,1,1.74.41,3.94,3.94,0,0,1,1.37,1.22V16.39Zm-4,.76a3.12,3.12,0,0,0-1.55.41,3,3,0,0,0-1.12,1.15,3.29,3.29,0,0,0-.41,1.58,3.25,3.25,0,0,0,.42,1.58A3.18,3.18,0,0,0,453.56,23a3.08,3.08,0,0,0,1.53.41,3.19,3.19,0,0,0,1.56-.41,2.9,2.9,0,0,0,1.13-1.12,3.19,3.19,0,0,0,.4-1.6,3.07,3.07,0,0,0-.89-2.26A2.93,2.93,0,0,0,455.09,17.15Zm13.82.84-.79.5a3.35,3.35,0,0,0-2.81-1.37A3.23,3.23,0,0,0,463,18a3,3,0,0,0-.94,2.22,3.25,3.25,0,0,0,.42,1.61A3.11,3.11,0,0,0,463.62,23a3.59,3.59,0,0,0,1.7.41,3.43,3.43,0,0,0,2.8-1.36l.79.51a3.77,3.77,0,0,1-1.5,1.32,4.85,4.85,0,0,1-2.14.45,4.25,4.25,0,0,1-3.06-1.17A3.83,3.83,0,0,1,461,20.34a4.09,4.09,0,0,1,.57-2.1,3.91,3.91,0,0,1,1.56-1.51,4.5,4.5,0,0,1,2.23-.55,4.7,4.7,0,0,1,1.49.24,3.74,3.74,0,0,1,1.23.62A3.21,3.21,0,0,1,468.91,18Zm8.49,3.6.84.44a4.51,4.51,0,0,1-1,1.31,3.59,3.59,0,0,1-1.22.76,4,4,0,0,1-1.53.27,3.74,3.74,0,0,1-3-1.25,4.24,4.24,0,0,1-1.06-2.83,4.18,4.18,0,0,1,.9-2.64,3.72,3.72,0,0,1,3.08-1.47,3.85,3.85,0,0,1,3.19,1.52,4.21,4.21,0,0,1,.86,2.65h-7a3.11,3.11,0,0,0,.86,2.24,2.79,2.79,0,0,0,2.06.86,3.25,3.25,0,0,0,1.15-.21,2.79,2.79,0,0,0,1-.54A4.4,4.4,0,0,0,477.4,21.59Zm0-2.11a3.34,3.34,0,0,0-.6-1.27,2.73,2.73,0,0,0-1-.78,3,3,0,0,0-1.32-.29,2.85,2.85,0,0,0-2,.73,3.42,3.42,0,0,0-.91,1.61Zm3.83-6h1v2.9h1.59v.85h-1.59v6.93h-1V17.24h-1.35v-.85h1.35Z"/><path class="cls-3" d="M384.47,50.68H516.13V88.85H384.47Z"/><path class="cls-2" d="M421.14,64.31h1.07v7.11A7.31,7.31,0,0,1,422,73.7a2.13,2.13,0,0,1-.85,1,2.65,2.65,0,0,1-1.45.38,3.48,3.48,0,0,1-1.25-.25A5.31,5.31,0,0,1,417,74l.57-.82A9,9,0,0,0,419,74a1.72,1.72,0,0,0,.69.15,1.39,1.39,0,0,0,.83-.26,1.41,1.41,0,0,0,.51-.72,6.75,6.75,0,0,0,.14-1.75Zm7.14,2.55a3.87,3.87,0,0,1,3,1.3A4,4,0,0,1,432.35,71a4.07,4.07,0,0,1-1.14,2.86,4.12,4.12,0,0,1-5.85,0A4.1,4.1,0,0,1,424.24,71a4,4,0,0,1,1.06-2.8A3.87,3.87,0,0,1,428.28,66.86Zm0,1a2.93,2.93,0,0,0-2.14.92,3.13,3.13,0,0,0-.89,2.24,3.24,3.24,0,0,0,.41,1.58,3,3,0,0,0,1.09,1.12,3.11,3.11,0,0,0,1.53.39,3,3,0,0,0,1.52-.39,2.91,2.91,0,0,0,1.11-1.12,3.14,3.14,0,0,0,.42-1.58,3.09,3.09,0,0,0-.9-2.24A2.9,2.9,0,0,0,428.28,67.84Zm6,7V64.05h1v4.34a4.25,4.25,0,0,1,1.4-1.14,3.81,3.81,0,0,1,1.72-.39,3.74,3.74,0,0,1,2.81,1.2,4.14,4.14,0,0,1,0,5.8,3.85,3.85,0,0,1-2.83,1.19,3.68,3.68,0,0,1-1.73-.41,3.94,3.94,0,0,1-1.36-1.23v1.43Zm4-.76a3.07,3.07,0,0,0,1.55-.41,3.12,3.12,0,0,0,1.12-1.16,3.2,3.2,0,0,0-1.14-4.32,2.9,2.9,0,0,0-1.51-.43,3.21,3.21,0,0,0-1.58.43,3,3,0,0,0-1.13,1.12,3.24,3.24,0,0,0-.39,1.6,3.11,3.11,0,0,0,.89,2.26A3,3,0,0,0,438.27,74.08Zm6.09-9.77h5.28v1h-4.23v3.28h4.23v1h-4.23v5.15h-1.05Zm14.7,2.75v7.78h-1V73.5a4.66,4.66,0,0,1-1.42,1.16,3.91,3.91,0,0,1-4.53-.82A4,4,0,0,1,451,70.92a3.9,3.9,0,0,1,1.18-2.86,3.86,3.86,0,0,1,2.84-1.2,3.62,3.62,0,0,1,1.73.4,4.17,4.17,0,0,1,1.38,1.22V67.06Zm-4,.77a3.11,3.11,0,0,0-1.55.4,3,3,0,0,0-1.12,1.16A3.29,3.29,0,0,0,452,71a3.25,3.25,0,0,0,.42,1.58,3.1,3.1,0,0,0,1.13,1.17,3.07,3.07,0,0,0,1.53.4,3.18,3.18,0,0,0,1.56-.4,3,3,0,0,0,1.13-1.13,3.18,3.18,0,0,0,.4-1.59,3.13,3.13,0,0,0-.89-2.27A3,3,0,0,0,455.05,67.83Zm13.82.84-.79.5a3.33,3.33,0,0,0-2.82-1.37,3.21,3.21,0,0,0-2.36.92,3,3,0,0,0-.93,2.22,3.25,3.25,0,0,0,.42,1.61,3.11,3.11,0,0,0,1.19,1.17,3.55,3.55,0,0,0,1.7.4,3.41,3.41,0,0,0,2.8-1.36l.79.52a3.75,3.75,0,0,1-1.5,1.31,4.88,4.88,0,0,1-2.14.46,4.2,4.2,0,0,1-3.06-1.18A3.82,3.82,0,0,1,461,71a4.14,4.14,0,0,1,.56-2.09,3.93,3.93,0,0,1,1.57-1.51,4.5,4.5,0,0,1,2.23-.55,4.92,4.92,0,0,1,1.48.23,4.12,4.12,0,0,1,1.24.63A3.36,3.36,0,0,1,468.87,68.67Zm8.48,3.59.85.44a4.7,4.7,0,0,1-1,1.31,3.61,3.61,0,0,1-1.22.77,4.09,4.09,0,0,1-1.53.27,3.76,3.76,0,0,1-3-1.25A4.31,4.31,0,0,1,470.43,71a4.13,4.13,0,0,1,.91-2.64,3.72,3.72,0,0,1,3.08-1.47,3.82,3.82,0,0,1,3.18,1.51,4.18,4.18,0,0,1,.86,2.66h-7a3.13,3.13,0,0,0,.86,2.23,2.77,2.77,0,0,0,2.07.86,3.24,3.24,0,0,0,1.15-.2,2.76,2.76,0,0,0,.95-.55A4.19,4.19,0,0,0,477.35,72.26Zm0-2.1a3.06,3.06,0,0,0-.59-1.27,2.73,2.73,0,0,0-1-.78,3,3,0,0,0-1.33-.3,2.89,2.89,0,0,0-2,.74,3.49,3.49,0,0,0-.9,1.61Zm3.84-6h1v2.89h1.59v.86h-1.59v6.92h-1V67.92h-1.36v-.86h1.36Z"/><path class="cls-3" d="M384.47,101.35H516.13v38.18H384.47Z"/><path class="cls-2" d="M403,125.52V115h2.18a10.84,10.84,0,0,1,3.43.39,4.52,4.52,0,0,1,2.39,1.86,5.62,5.62,0,0,1,.86,3.15,5.46,5.46,0,0,1-.69,2.78A4.36,4.36,0,0,1,409.4,125a6.88,6.88,0,0,1-3.06.56Zm1-1h1.2a11.54,11.54,0,0,0,3-.27,3.48,3.48,0,0,0,1.86-1.39,4.3,4.3,0,0,0,.68-2.45,4.53,4.53,0,0,0-.73-2.61,3.7,3.7,0,0,0-2.05-1.48,12.54,12.54,0,0,0-3.26-.3H404Zm17.49-6.78v7.78h-1v-1.35a4.38,4.38,0,0,1-1.42,1.16,3.76,3.76,0,0,1-1.7.39,3.8,3.8,0,0,1-2.83-1.2,4,4,0,0,1-1.17-2.92,3.92,3.92,0,0,1,1.17-2.86,3.87,3.87,0,0,1,2.84-1.21,3.66,3.66,0,0,1,1.74.41,3.94,3.94,0,0,1,1.37,1.22v-1.42Zm-4,.76a3.12,3.12,0,0,0-1.55.41,3,3,0,0,0-1.12,1.16,3.2,3.2,0,0,0,0,3.15,3.18,3.18,0,0,0,1.13,1.17,3.08,3.08,0,0,0,1.53.41,3.19,3.19,0,0,0,1.56-.41,2.9,2.9,0,0,0,1.13-1.12,3.19,3.19,0,0,0,.4-1.6,3.07,3.07,0,0,0-.89-2.26A2.93,2.93,0,0,0,417.48,118.5Zm7.14-3.65h1v2.89h1.6v.86h-1.6v6.92h-1V118.6h-1.36v-.86h1.36Zm11.85,2.89v7.78h-1v-1.35a4.38,4.38,0,0,1-1.42,1.16,3.92,3.92,0,0,1-4.53-.81,4,4,0,0,1-1.18-2.92,3.93,3.93,0,0,1,1.18-2.86,3.87,3.87,0,0,1,2.84-1.21,3.62,3.62,0,0,1,1.73.41,4,4,0,0,1,1.38,1.22v-1.42Zm-4,.76a3.12,3.12,0,0,0-1.55.41,3,3,0,0,0-1.12,1.16,3.2,3.2,0,0,0,0,3.15,3,3,0,0,0,2.66,1.58,3.19,3.19,0,0,0,1.56-.41,2.9,2.9,0,0,0,1.13-1.12,3.19,3.19,0,0,0,.4-1.6,3.07,3.07,0,0,0-.89-2.26A2.94,2.94,0,0,0,432.46,118.5Zm10.18.08-.64.67a2.34,2.34,0,0,0-1.58-.78,1.12,1.12,0,0,0-.82.33,1,1,0,0,0-.35.75,1.17,1.17,0,0,0,.28.72,4.23,4.23,0,0,0,1.21.81,4.46,4.46,0,0,1,1.51,1.13,2,2,0,0,1,.39,1.21,2.24,2.24,0,0,1-.67,1.65,2.32,2.32,0,0,1-1.67.65,3,3,0,0,1-1.3-.3,2.64,2.64,0,0,1-1-.81l.63-.72a2.16,2.16,0,0,0,1.62.88,1.44,1.44,0,0,0,1-.39,1.18,1.18,0,0,0,.43-.91,1.15,1.15,0,0,0-.28-.76,4.36,4.36,0,0,0-1.26-.83,4.3,4.3,0,0,1-1.44-1.08,2,2,0,0,1-.37-1.2,1.94,1.94,0,0,1,.6-1.47,2.11,2.11,0,0,1,1.54-.6A3.18,3.18,0,0,1,442.64,118.58Zm8.33,4.36.85.44a4.9,4.9,0,0,1-1,1.31,3.88,3.88,0,0,1-1.22.77,4.3,4.3,0,0,1-1.53.26,3.76,3.76,0,0,1-3-1.25,4.22,4.22,0,0,1-1.06-2.83A4.13,4.13,0,0,1,445,119a3.7,3.7,0,0,1,3.07-1.47,3.84,3.84,0,0,1,3.19,1.52,4.22,4.22,0,0,1,.86,2.66h-7a3.15,3.15,0,0,0,.86,2.23,2.79,2.79,0,0,0,2.06.86,3.54,3.54,0,0,0,1.16-.2,3,3,0,0,0,.95-.55A4.4,4.4,0,0,0,451,122.94Zm0-2.11a3.08,3.08,0,0,0-.59-1.26,2.65,2.65,0,0,0-1-.79,3.18,3.18,0,0,0-1.33-.29,2.86,2.86,0,0,0-2,.73,3.46,3.46,0,0,0-.9,1.61Zm3.84-6h1v2.89h1.59v.86h-1.59v6.92h-1V118.6h-1.36v-.86h1.36Zm4.26.14h5.28v1h-4.23v3.29h4.23v1h-4.23v5.16h-1.05Zm14.7,2.75v7.78h-1v-1.35a4.38,4.38,0,0,1-1.42,1.16,3.92,3.92,0,0,1-4.53-.81,4,4,0,0,1-1.18-2.92,4.08,4.08,0,0,1,4-4.07,3.62,3.62,0,0,1,1.73.41,4.06,4.06,0,0,1,1.38,1.22v-1.42Zm-4,.76a3.12,3.12,0,0,0-1.55.41,3,3,0,0,0-1.12,1.16,3.15,3.15,0,0,0-.41,1.57,3.22,3.22,0,0,0,.42,1.58,3,3,0,0,0,2.66,1.58,3.19,3.19,0,0,0,1.56-.41,3,3,0,0,0,1.13-1.12,3.19,3.19,0,0,0,.4-1.6,3.11,3.11,0,0,0-.89-2.26A2.94,2.94,0,0,0,469.76,118.5Zm13.82.85-.79.5a3.34,3.34,0,0,0-2.82-1.38,3.25,3.25,0,0,0-2.36.92,3,3,0,0,0-.93,2.22,3.22,3.22,0,0,0,.42,1.61,3.11,3.11,0,0,0,1.19,1.17,3.56,3.56,0,0,0,1.7.41,3.41,3.41,0,0,0,2.8-1.36l.79.52a3.75,3.75,0,0,1-1.5,1.31,4.88,4.88,0,0,1-2.14.45,4.23,4.23,0,0,1-3.06-1.17,3.82,3.82,0,0,1-1.22-2.86,4.12,4.12,0,0,1,.56-2.09,4,4,0,0,1,1.57-1.52,4.75,4.75,0,0,1,3.71-.31,3.89,3.89,0,0,1,1.24.62A3.27,3.27,0,0,1,483.58,119.35Zm8.48,3.59.85.44a4.7,4.7,0,0,1-1,1.31,3.88,3.88,0,0,1-1.22.77,4.3,4.3,0,0,1-1.53.26,3.76,3.76,0,0,1-3-1.25,4.27,4.27,0,0,1-1.06-2.83,4.13,4.13,0,0,1,.91-2.64,3.72,3.72,0,0,1,3.08-1.47,3.83,3.83,0,0,1,3.18,1.52,4.16,4.16,0,0,1,.86,2.66h-7a3.15,3.15,0,0,0,.86,2.23,2.81,2.81,0,0,0,2.07.86,3.48,3.48,0,0,0,1.15-.2,2.93,2.93,0,0,0,.95-.55A4.19,4.19,0,0,0,492.06,122.94Zm0-2.11a3.08,3.08,0,0,0-.59-1.26,2.65,2.65,0,0,0-1-.79,3.18,3.18,0,0,0-1.33-.29,2.88,2.88,0,0,0-2,.73,3.55,3.55,0,0,0-.9,1.61Zm3.84-6h1v2.89h1.59v.86h-1.59v6.92h-1V118.6h-1.36v-.86h1.36Z"/><path class="cls-4" d="M384.47,19.09H345.53"/><path class="cls-5" d="M345.53,19.09l-2.37-1.67-2.38,1.67,2.38,1.66Z"/><path class="cls-4" d="M384.47,69.76H345.53"/><path class="cls-5" d="M345.53,69.76l-2.37-1.66-2.38,1.66,2.38,1.67Z"/><path class="cls-4" d="M384.47,120.44H345.53"/><path class="cls-5" d="M345.53,120.44l-2.37-1.67-2.38,1.67,2.38,1.66Z"/><path class="cls-6" d="M131.65,69.76H170V19.09h38.3"/><path class="cls-4" d="M131.65,69.76H170V19.09h38.3"/><path class="cls-6" d="M131.65,69.76H170v50.68h38.3"/><path class="cls-4" d="M131.65,69.76H170v50.68h38.3"/><path class="cls-6" d="M131.65,69.76H170v.07h38.3"/><path class="cls-4" d="M131.65,69.76H170v.07h38.3"/></svg>